<?xml version="1.0" encoding="UTF-8"?>
<!--
/*******************************************************************************
* Copyright (c) 2010-2018 ITER Organization.
* All rights reserved. This program and the accompanying materials
* are made available under the terms of the Eclipse Public License v1.0
* which accompanies this distribution, and is available at
* http://www.eclipse.org/legal/epl-v10.html
******************************************************************************/
-->
<svg xmlns="http://www.w3.org/2000/svg" xmlns:xlink="http://www.w3.org/1999/xlink" width="112pt" height="112pt" viewBox="0 0 112 112" version="1.1">
<g id="surface1">
<path style=" stroke:none;fill-rule:evenodd;fill:rgb(100%,100%,100%);fill-opacity:1;" d="M 0.777344 0.78125 L 0.796875 0.78125 L 0.796875 0.796875 L 0.777344 0.796875 Z M 0.777344 0.78125 "/>
<path style=" stroke:none;fill-rule:evenodd;fill:rgb(100%,100%,100%);fill-opacity:1;" d="M 111.300781 111.339844 L 111.316406 111.339844 L 111.316406 111.359375 L 111.300781 111.359375 Z M 111.300781 111.339844 "/>
<path style="fill-rule:evenodd;fill:rgb(100%,100%,100%);fill-opacity:1;stroke-width:0.72;stroke-linecap:round;stroke-linejoin:round;stroke:rgb(0%,0%,0%);stroke-opacity:1;stroke-miterlimit:3;" d="M 8.498144 52.521379 L 8.498144 35.511921 C 3.802149 35.511921 -0.0065852 39.317048 -0.0065852 44.01665 C -0.0065852 48.712645 3.802149 52.521379 8.498144 52.521379 Z M 76.539585 35.511921 C 81.235581 35.511921 85.044314 31.703187 85.044314 27.003585 C 85.044314 22.307589 81.235581 18.498855 76.539585 18.498855 Z M 8.498144 86.529476 L 8.498144 69.520017 C 3.802149 69.520017 -0.0065852 73.328751 -0.0065852 78.024747 C -0.0065852 82.720742 3.802149 86.529476 8.498144 86.529476 Z M 8.498144 103.542541 L 76.539585 103.542541 L 76.539585 1.489397 L 8.498144 1.489397 Z M 76.539585 69.520017 C 81.134591 69.379354 84.784628 65.617508 84.784628 61.018895 C 84.784628 56.423889 81.134591 52.658436 76.539585 52.521379 Z M 76.539585 69.520017 " transform="matrix(1.083037,0,0,1.083037,10.007132,-0.796666)"/>
</g>
</svg>
