<?xml version="1.0" encoding="UTF-8"?>
<!--
/*******************************************************************************
* Copyright (c) 2010-2018 ITER Organization.
* All rights reserved. This program and the accompanying materials
* are made available under the terms of the Eclipse Public License v1.0
* which accompanies this distribution, and is available at
* http://www.eclipse.org/legal/epl-v10.html
******************************************************************************/
-->
<svg xmlns="http://www.w3.org/2000/svg" xmlns:xlink="http://www.w3.org/1999/xlink" width="112pt" height="112pt" viewBox="0 0 112 112" version="1.1">
<g id="surface1">
<path style="fill-rule:evenodd;fill:rgb(100%,100%,100%);fill-opacity:1;stroke-width:0.72;stroke-linecap:round;stroke-linejoin:round;stroke:rgb(0%,0%,0%);stroke-opacity:1;stroke-miterlimit:3;" d="M 17.010781 103.490725 L 85.041294 103.490725 L 85.041294 1.437743 L 17.010781 1.437743 Z M 17.010781 77.980184 C 17.010781 73.284196 13.202054 69.475469 8.502459 69.475469 C 3.806471 69.475469 -0.00225675 73.284196 -0.00225675 77.980184 C -0.00225675 82.676173 3.806471 86.4849 8.502459 86.4849 C 13.202054 86.4849 17.010781 82.676173 17.010781 77.980184 Z M 17.010781 43.961322 C 17.010781 39.261727 13.202054 35.456606 8.502459 35.456606 C 3.806471 35.456606 -0.00225675 39.261727 -0.00225675 43.961322 C -0.00225675 48.65731 3.806471 52.466037 8.502459 52.466037 C 13.202054 52.466037 17.010781 48.65731 17.010781 43.961322 Z M 102.050725 60.970753 C 102.050725 56.271158 98.241997 52.466037 93.546009 52.466037 C 88.850021 52.466037 85.041294 56.271158 85.041294 60.970753 C 85.041294 65.666741 88.850021 69.475469 93.546009 69.475469 C 98.241997 69.475469 102.050725 65.666741 102.050725 60.970753 Z M 102.050725 26.95189 C 102.050725 22.252295 98.241997 18.443568 93.546009 18.443568 C 88.850021 18.443568 85.041294 22.252295 85.041294 26.95189 C 85.041294 31.647878 88.850021 35.456606 93.546009 35.456606 C 98.241997 35.456606 102.050725 31.647878 102.050725 26.95189 Z M 102.050725 26.95189 " transform="matrix(1.083039,0,0,1.083039,0.779788,-0.779788)"/>
</g>
</svg>
