<?xml version="1.0" encoding="UTF-8"?>
<!--
/*******************************************************************************
* Copyright (c) 2010-2018 ITER Organization.
* All rights reserved. This program and the accompanying materials
* are made available under the terms of the Eclipse Public License v1.0
* which accompanies this distribution, and is available at
* http://www.eclipse.org/legal/epl-v10.html
******************************************************************************/
-->
<svg xmlns="http://www.w3.org/2000/svg" xmlns:xlink="http://www.w3.org/1999/xlink" width="57pt" height="74pt" viewBox="0 0 57 74" version="1.1">
<g id="surface0">
<path style="fill-rule:evenodd;fill:rgb(100%,100%,100%);fill-opacity:1;stroke-width:0.72;stroke-linecap:round;stroke-linejoin:round;stroke:rgb(0%,0%,0%);stroke-opacity:1;stroke-miterlimit:3;" d="M 0.00123249 56.714219 L 21.258893 56.714219 L 21.258893 69.472697 L 0.00123249 69.472697 Z M 0.00123249 56.714219 " transform="matrix(1.077369,0,0,1.059957,7.64711,-59.35291)"/>
<path style="fill-rule:evenodd;fill:rgb(100%,100%,100%);fill-opacity:1;stroke-width:0.72;stroke-linecap:round;stroke-linejoin:round;stroke:rgb(0%,0%,0%);stroke-opacity:1;stroke-miterlimit:3;" d="M -0.00268176 48.212799 L 8.503283 48.212799 L 8.503283 69.469559 L -0.00268176 69.469559 Z M -0.00268176 48.212799 " transform="matrix(1.077369,0,0,1.059957,14.518514,-36.818335)"/>
<path style="fill-rule:evenodd;fill:rgb(100%,100%,100%);fill-opacity:1;stroke-width:0.72;stroke-linecap:round;stroke-linejoin:round;stroke:rgb(0%,0%,0%);stroke-opacity:1;stroke-miterlimit:3;" d="M 0.00152047 69.469101 L 34.018129 69.469101 L 25.508538 61.619431 L 25.508538 41.99894 C 25.465029 37.513941 29.177778 33.732832 34.018129 33.331135 L 51.019181 33.331135 L 51.019181 20.568971 L 34.018129 20.568971 C 20.508655 19.931416 9.080351 29.527914 8.500234 41.99894 L 8.500234 61.619431 Z M 0.00152047 69.469101 " transform="matrix(1.077369,0,0,1.059957,0.775706,-0.763161)"/>
</g>
</svg>
