<?xml version="1.0" encoding="UTF-8"?>
<!--
/*******************************************************************************
* Copyright (c) 2010-2016 ITER Organization.
* All rights reserved. This program and the accompanying materials
* are made available under the terms of the Eclipse Public License v1.0
* which accompanies this distribution, and is available at
* http://www.eclipse.org/legal/epl-v10.html
******************************************************************************/
-->
<svg xmlns="http://www.w3.org/2000/svg" xmlns:xlink="http://www.w3.org/1999/xlink" width="29pt" height="29pt" viewBox="0 0 29 29" version="1.1">
<g id="surface1">
<path style="fill:none;stroke-width:1.688;stroke-linecap:round;stroke-linejoin:round;stroke:rgb(0%,0%,0%);stroke-opacity:1;stroke-miterlimit:4;" d="M 0.848548 0.849904 L 11.55416 0.849904 " transform="matrix(0.451355,0,0,0.451355,-0.0079963,14.00311)"/>
<path style="fill:none;stroke-width:1.688;stroke-linecap:round;stroke-linejoin:round;stroke:rgb(0%,0%,0%);stroke-opacity:1;stroke-miterlimit:4;" d="M 52.230292 0.849904 L 62.892632 0.849904 " transform="matrix(0.451355,0,0,0.451355,-0.0079963,14.00311)"/>
<path style="fill-rule:nonzero;fill:rgb(100%,100%,100%);fill-opacity:1;stroke-width:1.3504;stroke-linecap:round;stroke-linejoin:round;stroke:rgb(0%,0%,0%);stroke-opacity:1;stroke-miterlimit:4;" d="M 124.280366 48.286464 C 124.363449 41.688278 120.839339 35.553972 115.071984 32.230646 C 109.311553 28.914244 102.18025 28.914244 96.419819 32.230646 C 90.652464 35.553972 87.135277 41.688278 87.218361 48.286464 C 87.135277 54.88465 90.652464 61.018956 96.419819 64.342281 C 102.18025 67.658684 109.311553 67.658684 115.071984 64.342281 C 120.839339 61.018956 124.363449 54.88465 124.280366 48.286464 " transform="matrix(0.564194,0,0,0.564194,-45.27447,-12.856208)"/>
<path style="fill:none;stroke-width:1.3504;stroke-linecap:round;stroke-linejoin:round;stroke:rgb(0%,0%,0%);stroke-opacity:1;stroke-miterlimit:4;" d="M 96.184416 32.265264 L 121.490157 38.994999 " transform="matrix(0.564194,0,0,0.564194,-45.27447,-12.856208)"/>
<path style="fill:none;stroke-width:1.3504;stroke-linecap:round;stroke-linejoin:round;stroke:rgb(0%,0%,0%);stroke-opacity:1;stroke-miterlimit:4;" d="M 96.184416 64.099956 L 121.490157 57.370221 " transform="matrix(0.564194,0,0,0.564194,-45.27447,-12.856208)"/>
<path style=" stroke:none;fill-rule:evenodd;fill:rgb(100%,100%,100%);fill-opacity:1;" d="M 0.761719 0.761719 L 0.777344 0.761719 L 0.777344 0.777344 L 0.761719 0.777344 Z "/>
<path style=" stroke:none;fill-rule:evenodd;fill:rgb(100%,100%,100%);fill-opacity:1;" d="M 27.734375 27.734375 L 27.75 27.734375 L 27.75 27.75 L 27.734375 27.75 Z "/>
<path style="fill:none;stroke-width:1.600674;stroke-linecap:round;stroke-linejoin:round;stroke:rgb(0%,0%,0%);stroke-opacity:1;stroke-miterlimit:4;" d="M -62.125133 -9.985409 L -62.125133 -0.770103 L -66.251596 2.290126 L -63.932191 4.021024 L -57.99867 8.445202 L -66.251596 14.579507 L -57.99867 20.713813 L -66.251596 26.848118 L -62.125133 29.929118 L -62.125133 39.1375 " transform="matrix(-0.564194,0,0,0.564194,-20.4139,6.215738)"/>
<path style=" stroke:none;fill-rule:evenodd;fill:rgb(100%,100%,100%);fill-opacity:1;" d="M 28.027344 28.261719 L 28.046875 28.261719 L 28.046875 28.28125 L 28.027344 28.28125 Z "/>
<path style=" stroke:none;fill-rule:evenodd;fill:rgb(100%,100%,100%);fill-opacity:1;" d="M 28.03125 28.253906 L 28.0625 28.253906 L 28.0625 28.28125 L 28.03125 28.28125 Z "/>
</g>
</svg>
