<?xml version="1.0" encoding="UTF-8"?>
<!--
/*******************************************************************************
* Copyright (c) 2010-2018 ITER Organization.
* All rights reserved. This program and the accompanying materials
* are made available under the terms of the Eclipse Public License v1.0
* which accompanies this distribution, and is available at
* http://www.eclipse.org/legal/epl-v10.html
******************************************************************************/
-->
<svg xmlns="http://www.w3.org/2000/svg" xmlns:xlink="http://www.w3.org/1999/xlink" width="29pt" height="29pt" viewBox="0 0 29 29" version="1.1">
<g id="surface0">
<path style="fill:none;stroke-width:1.345125;stroke-linecap:round;stroke-linejoin:round;stroke:rgb(0%,0%,0%);stroke-opacity:1;stroke-miterlimit:4;" d="M 0.665302 25.003125 L 9.192026 25.003125 " transform="matrix(0.575397,0,0,0.575397,0,0)"/>
<path style="fill:none;stroke-width:1.345125;stroke-linecap:round;stroke-linejoin:round;stroke:rgb(0%,0%,0%);stroke-opacity:1;stroke-miterlimit:4;" d="M 41.608513 25.003125 L 50.108082 25.003125 " transform="matrix(0.575397,0,0,0.575397,0,0)"/>
<path style="fill-rule:nonzero;fill:rgb(65.098039%,65.098039%,65.098039%);fill-opacity:1;stroke-width:1.3504;stroke-linecap:round;stroke-linejoin:round;stroke:rgb(0%,0%,0%);stroke-opacity:1;stroke-miterlimit:4;" d="M 44.034391 25.496464 C 44.116176 18.899143 40.599422 12.765271 34.826766 9.446164 C 29.060926 6.127057 21.938818 6.127057 16.172978 9.446164 C 10.407137 12.765271 6.883568 18.899143 6.965353 25.496464 C 6.883568 32.1006 10.407137 38.234473 16.172978 41.55358 C 21.938818 44.872687 29.060926 44.872687 34.826766 41.55358 C 40.599422 38.234473 44.116176 32.1006 44.034391 25.496464 " transform="matrix(0.573149,0,0,0.573149,0,0)"/>
<path style=" stroke:none;fill-rule:evenodd;fill:rgb(65.098039%,65.098039%,65.098039%);fill-opacity:1;" d="M 0.777344 0.777344 L 0.792969 0.777344 L 0.792969 0.792969 L 0.777344 0.792969 Z M 0.777344 0.777344 "/>
<path style=" stroke:none;fill-rule:evenodd;fill:rgb(65.098039%,65.098039%,65.098039%);fill-opacity:1;" d="M 28.175781 28.175781 L 28.191406 28.175781 L 28.191406 28.191406 L 28.175781 28.191406 Z M 28.175781 28.175781 "/>
<path style="fill-rule:evenodd;fill:rgb(100%,100%,100%);fill-opacity:1;stroke-width:1.352;stroke-linecap:butt;stroke-linejoin:miter;stroke:rgb(0%,0%,0%);stroke-opacity:1;stroke-miterlimit:4;" d="M 12.606789 38.825108 C 27.90194 53.590733 54.636207 33.855711 39.904526 13.855927 " transform="matrix(0.575397,0,0,0.575397,0,0)"/>
<path style="fill:none;stroke-width:1.600674;stroke-linecap:round;stroke-linejoin:round;stroke:rgb(0%,0%,0%);stroke-opacity:1;stroke-miterlimit:4;" d="M 25.946282 1.029128 L 25.946282 10.250383 L 30.069607 13.303688 L 27.752366 15.034804 L 21.822956 19.458007 L 30.069607 25.598695 L 21.822956 31.732568 L 30.069607 37.866441 L 25.946282 40.947008 L 25.946282 50.154632 " transform="matrix(0.573149,0,0,0.573149,0,0)"/>
<path style="fill-rule:nonzero;fill:rgb(65.098039%,65.098039%,65.098039%);fill-opacity:1;stroke-width:1.3504;stroke-linecap:round;stroke-linejoin:round;stroke:rgb(0%,0%,0%);stroke-opacity:1;stroke-miterlimit:4;" d="M 15.934438 41.308225 L 41.240071 34.581411 " transform="matrix(0.573149,0,0,0.573149,0,0)"/>
<path style="fill-rule:nonzero;fill:rgb(65.098039%,65.098039%,65.098039%);fill-opacity:1;stroke-width:1.3504;stroke-linecap:round;stroke-linejoin:round;stroke:rgb(0%,0%,0%);stroke-opacity:1;stroke-miterlimit:4;" d="M 15.934438 9.480241 L 41.240071 16.207055 " transform="matrix(0.573149,0,0,0.573149,0,0)"/>
<path style=" stroke:none;fill-rule:evenodd;fill:rgb(65.098039%,65.098039%,65.098039%);fill-opacity:1;" d="M 28.472656 28.710938 L 28.492188 28.710938 L 28.492188 28.730469 L 28.472656 28.730469 Z M 28.472656 28.710938 "/>
<path style=" stroke:none;fill-rule:evenodd;fill:rgb(65.098039%,65.098039%,65.098039%);fill-opacity:1;" d="M 28.476562 28.703125 L 28.507812 28.703125 L 28.507812 28.730469 L 28.476562 28.730469 Z M 28.476562 28.703125 "/>
</g>
</svg>
