<?xml version="1.0" encoding="UTF-8"?>
<!--
/*******************************************************************************
* Copyright (c) 2010-2016 ITER Organization.
* All rights reserved. This program and the accompanying materials
* are made available under the terms of the Eclipse Public License v1.0
* which accompanies this distribution, and is available at
* http://www.eclipse.org/legal/epl-v10.html
******************************************************************************/
-->
<svg xmlns="http://www.w3.org/2000/svg" xmlns:xlink="http://www.w3.org/1999/xlink" width="29pt" height="29pt" viewBox="0 0 29 29" version="1.1">
<g id="surface1">
<path style="fill:none;stroke-width:1.3504;stroke-linecap:round;stroke-linejoin:round;stroke:rgb(0%,0%,0%);stroke-opacity:1;stroke-miterlimit:4;" d="M 0.664665 25.499601 L 9.229153 25.499601 " transform="matrix(0.564194,0,0,0.564194,0,0)"/>
<path style="fill:none;stroke-width:1.3504;stroke-linecap:round;stroke-linejoin:round;stroke:rgb(0%,0%,0%);stroke-opacity:1;stroke-miterlimit:4;" d="M 41.77005 25.499601 L 50.29992 25.499601 " transform="matrix(0.564194,0,0,0.564194,0,0)"/>
<path style="fill-rule:nonzero;fill:rgb(100%,100%,100%);fill-opacity:1;stroke-width:1.3504;stroke-linecap:round;stroke-linejoin:round;stroke:rgb(0%,0%,0%);stroke-opacity:1;stroke-miterlimit:4;" d="M 44.034066 25.499601 C 44.117149 18.901415 40.593039 12.76711 34.825684 9.443784 C 29.065253 6.127382 21.93395 6.127382 16.173519 9.443784 C 10.406164 12.76711 6.888977 18.901415 6.97206 25.499601 C 6.888977 32.097788 10.406164 38.232093 16.173519 41.555419 C 21.93395 44.871821 29.065253 44.871821 34.825684 41.555419 C 40.593039 38.232093 44.117149 32.097788 44.034066 25.499601 " transform="matrix(0.564194,0,0,0.564194,0,0)"/>
<path style="fill:none;stroke-width:1.3504;stroke-linecap:round;stroke-linejoin:round;stroke:rgb(0%,0%,0%);stroke-opacity:1;stroke-miterlimit:4;" d="M 15.938116 9.478402 L 41.243857 16.208137 " transform="matrix(0.564194,0,0,0.564194,0,0)"/>
<path style="fill:none;stroke-width:1.3504;stroke-linecap:round;stroke-linejoin:round;stroke:rgb(0%,0%,0%);stroke-opacity:1;stroke-miterlimit:4;" d="M 15.938116 41.313093 L 41.243857 34.583358 " transform="matrix(0.564194,0,0,0.564194,0,0)"/>
<path style=" stroke:none;fill-rule:evenodd;fill:rgb(100%,100%,100%);fill-opacity:1;" d="M 0.761719 0.761719 L 0.777344 0.761719 L 0.777344 0.777344 L 0.761719 0.777344 Z "/>
<path style=" stroke:none;fill-rule:evenodd;fill:rgb(100%,100%,100%);fill-opacity:1;" d="M 27.734375 27.734375 L 27.75 27.734375 L 27.75 27.75 L 27.734375 27.75 Z "/>
<path style=" stroke:none;fill-rule:evenodd;fill:rgb(100%,100%,100%);fill-opacity:1;" d="M 28.027344 28.261719 L 28.046875 28.261719 L 28.046875 28.28125 L 28.027344 28.28125 Z "/>
<path style=" stroke:none;fill-rule:evenodd;fill:rgb(100%,100%,100%);fill-opacity:1;" d="M 28.03125 28.253906 L 28.0625 28.253906 L 28.0625 28.28125 L 28.03125 28.28125 Z "/>
<path style="fill:none;stroke-width:1.352;stroke-linecap:round;stroke-linejoin:round;stroke:rgb(0%,0%,0%);stroke-opacity:1;stroke-miterlimit:4;" d="M 0.00303275 35.45809 L 7.36958 35.45809 L 5.669608 33.758117 " transform="matrix(0.71003,0,0,0.71003,16.896284,-10.594272)"/>
<path style="fill:none;stroke-width:1.352001;stroke-linecap:round;stroke-linejoin:round;stroke:rgb(0%,0%,0%);stroke-opacity:1;stroke-miterlimit:4;" d="M -0.00500224 35.460359 L 2.406905 35.460359 " transform="matrix(-0.502066,0.502066,-0.502066,-0.502066,39.929852,32.380187)"/>
<path style="fill:none;stroke-width:1.352001;stroke-linecap:round;stroke-linejoin:round;stroke:rgb(0%,0%,0%);stroke-opacity:1;stroke-miterlimit:4;" d="M 0.00107242 35.458952 L 7.369832 35.459305 L 5.671387 33.760414 " transform="matrix(-0.456398,0.543914,-0.543914,-0.456398,32.455088,32.870321)"/>
<path style="fill:none;stroke-width:1.352001;stroke-linecap:round;stroke-linejoin:round;stroke:rgb(0%,0%,0%);stroke-opacity:1;stroke-miterlimit:4;" d="M -0.00246273 35.456459 L 2.410779 35.457734 " transform="matrix(-0.0618833,-0.707328,0.707328,-0.0618833,-15.270889,22.891639)"/>
<path style="fill:none;stroke-width:1.352001;stroke-linecap:round;stroke-linejoin:round;stroke:rgb(0%,0%,0%);stroke-opacity:1;stroke-miterlimit:4;" d="M 0.00195688 35.45821 L 7.370717 35.458563 L 5.672272 33.759671 " transform="matrix(-0.456398,-0.543914,-0.543914,0.456398,32.455088,-3.63122)"/>
<path style="fill:none;stroke-width:1.352001;stroke-linecap:round;stroke-linejoin:round;stroke:rgb(0%,0%,0%);stroke-opacity:1;stroke-miterlimit:4;" d="M 0.00131484 35.458507 L 2.409076 35.457711 " transform="matrix(-0.0618833,-0.707328,-0.707328,0.0618833,35.033985,8.048829)"/>
</g>
<animate
 attributeName="opacity"
 values="1;0"
 calcMode="discrete"
 dur="1000ms"
 begin="0s"
 fill="freeze"
 repeatCount="indefinite"
 id="animate12" />
</svg>

