<?xml version="1.0" encoding="UTF-8"?>
<!--
/*******************************************************************************
* Copyright (c) 2010-2016 ITER Organization.
* All rights reserved. This program and the accompanying materials
* are made available under the terms of the Eclipse Public License v1.0
* which accompanies this distribution, and is available at
* http://www.eclipse.org/legal/epl-v10.html
******************************************************************************/
-->
<svg xmlns="http://www.w3.org/2000/svg" xmlns:xlink="http://www.w3.org/1999/xlink" width="29pt" height="29pt" viewBox="0 0 29 29" version="1.1">
<g id="surface1">
<path style="fill:none;stroke-width:1.688;stroke-linecap:round;stroke-linejoin:round;stroke:rgb(0%,0%,0%);stroke-opacity:1;stroke-miterlimit:4;" d="M 0.848548 0.849904 L 11.55416 0.849904 " transform="matrix(0.451355,0,0,0.451355,-0.0079963,14.00311)"/>
<path style="fill:none;stroke-width:1.688;stroke-linecap:round;stroke-linejoin:round;stroke:rgb(0%,0%,0%);stroke-opacity:1;stroke-miterlimit:4;" d="M 52.230292 0.849904 L 62.892632 0.849904 " transform="matrix(0.451355,0,0,0.451355,-0.0079963,14.00311)"/>
<path style="fill-rule:nonzero;fill:rgb(100%,100%,100%);fill-opacity:1;stroke-width:1.3504;stroke-linecap:round;stroke-linejoin:round;stroke:rgb(0%,0%,0%);stroke-opacity:1;stroke-miterlimit:4;" d="M 44.034066 25.499601 C 44.117149 18.901415 40.593039 12.76711 34.825684 9.443784 C 29.065253 6.127382 21.93395 6.127382 16.173519 9.443784 C 10.406164 12.76711 6.888977 18.901415 6.97206 25.499601 C 6.888977 32.097788 10.406164 38.232093 16.173519 41.555419 C 21.93395 44.871821 29.065253 44.871821 34.825684 41.555419 C 40.593039 38.232093 44.117149 32.097788 44.034066 25.499601 " transform="matrix(0.564194,0,0,0.564194,0,0)"/>
<path style="fill:none;stroke-width:1.3504;stroke-linecap:round;stroke-linejoin:round;stroke:rgb(0%,0%,0%);stroke-opacity:1;stroke-miterlimit:4;" d="M 15.938116 9.478402 L 41.243857 16.208137 " transform="matrix(0.564194,0,0,0.564194,0,0)"/>
<path style="fill:none;stroke-width:1.3504;stroke-linecap:round;stroke-linejoin:round;stroke:rgb(0%,0%,0%);stroke-opacity:1;stroke-miterlimit:4;" d="M 15.938116 41.313093 L 41.243857 34.583358 " transform="matrix(0.564194,0,0,0.564194,0,0)"/>
<path style=" stroke:none;fill-rule:evenodd;fill:rgb(100%,100%,100%);fill-opacity:1;" d="M 0.761719 0.761719 L 0.777344 0.761719 L 0.777344 0.777344 L 0.761719 0.777344 Z "/>
<path style=" stroke:none;fill-rule:evenodd;fill:rgb(100%,100%,100%);fill-opacity:1;" d="M 27.734375 27.734375 L 27.75 27.734375 L 27.75 27.75 L 27.734375 27.75 Z "/>
<path style=" stroke:none;fill-rule:evenodd;fill:rgb(100%,100%,100%);fill-opacity:1;" d="M 28.027344 28.261719 L 28.046875 28.261719 L 28.046875 28.28125 L 28.027344 28.28125 Z "/>
<path style=" stroke:none;fill-rule:evenodd;fill:rgb(100%,100%,100%);fill-opacity:1;" d="M 28.03125 28.253906 L 28.0625 28.253906 L 28.0625 28.28125 L 28.03125 28.28125 Z "/>
<path style="fill:none;stroke-width:1.057546;stroke-linecap:round;stroke-linejoin:round;stroke:rgb(0%,0%,0%);stroke-opacity:1;stroke-miterlimit:4;" d="M 0.000893076 35.396776 L 10.198655 35.396776 L 7.853657 33.701663 " transform="matrix(0.721283,0,0,0.721283,14.444668,-11.691238)"/>
<path style="fill:none;stroke-width:1.057547;stroke-linecap:round;stroke-linejoin:round;stroke:rgb(0%,0%,0%);stroke-opacity:1;stroke-miterlimit:4;" d="M 0.000513648 35.404376 L 2.409258 35.400546 " transform="matrix(-0.510023,0.510023,-0.510023,-0.510023,39.858101,31.892734)"/>
<path style="fill:none;stroke-width:1.057547;stroke-linecap:round;stroke-linejoin:round;stroke:rgb(0%,0%,0%);stroke-opacity:1;stroke-miterlimit:4;" d="M 0.000392199 35.398035 L 11.128996 35.399098 L 8.559686 33.70202 " transform="matrix(-0.463631,0.552534,-0.552534,-0.463631,34.004106,30.317669)"/>
<path style="fill:none;stroke-width:1.057547;stroke-linecap:round;stroke-linejoin:round;stroke:rgb(0%,0%,0%);stroke-opacity:1;stroke-miterlimit:4;" d="M -0.00025665 35.398344 L 2.413574 35.397507 " transform="matrix(-0.0628637,-0.718537,0.718537,-0.0628637,-16.145984,22.279775)"/>
<path style="fill:none;stroke-width:1.057547;stroke-linecap:round;stroke-linejoin:round;stroke:rgb(0%,0%,0%);stroke-opacity:1;stroke-miterlimit:4;" d="M 0.000732334 35.403026 L 11.04126 35.400228 L 8.491357 33.701003 " transform="matrix(-0.463631,-0.552534,-0.552534,0.463631,33.964053,-2.604952)"/>
<path style="fill:none;stroke-width:1.057547;stroke-linecap:round;stroke-linejoin:round;stroke:rgb(0%,0%,0%);stroke-opacity:1;stroke-miterlimit:4;" d="M 0.00100662 35.398402 L 2.409443 35.399711 " transform="matrix(-0.0628637,-0.718537,-0.718537,0.0628637,34.872635,7.209041)"/>
</g>
<animate
 attributeName="opacity"
 values="1;0"
 calcMode="discrete"
 dur="1000ms"
 begin="0s"
 fill="freeze"
 repeatCount="indefinite"
 id="animate12" />
</svg>

