<?xml version="1.0" encoding="UTF-8"?>
<!--
/*******************************************************************************
* Copyright (c) 2010-2018 ITER Organization.
* All rights reserved. This program and the accompanying materials
* are made available under the terms of the Eclipse Public License v1.0
* which accompanies this distribution, and is available at
* http://www.eclipse.org/legal/epl-v10.html
******************************************************************************/
-->
<svg xmlns="http://www.w3.org/2000/svg" xmlns:xlink="http://www.w3.org/1999/xlink" width="29pt" height="29pt" viewBox="0 0 29 29" version="1.1">
<g id="surface0">
<path style="fill:none;stroke-width:1.345125;stroke-linecap:round;stroke-linejoin:round;stroke:rgb(0%,0%,0%);stroke-opacity:1;stroke-miterlimit:4;" d="M 0.665302 25.003125 L 9.192026 25.003125 " transform="matrix(0.575397,0,0,0.575397,0,0)"/>
<path style="fill:none;stroke-width:1.345125;stroke-linecap:round;stroke-linejoin:round;stroke:rgb(0%,0%,0%);stroke-opacity:1;stroke-miterlimit:4;" d="M 41.608513 25.003125 L 50.108082 25.003125 " transform="matrix(0.575397,0,0,0.575397,0,0)"/>
<path style="fill-rule:nonzero;fill:rgb(65.098039%,65.098039%,65.098039%);fill-opacity:1;stroke-width:1.3504;stroke-linecap:round;stroke-linejoin:round;stroke:rgb(0%,0%,0%);stroke-opacity:1;stroke-miterlimit:4;" d="M 44.034391 25.496464 C 44.116176 18.899143 40.599422 12.765271 34.826766 9.446164 C 29.060926 6.127057 21.938818 6.127057 16.172978 9.446164 C 10.407137 12.765271 6.883568 18.899143 6.965353 25.496464 C 6.883568 32.1006 10.407137 38.234473 16.172978 41.55358 C 21.938818 44.872687 29.060926 44.872687 34.826766 41.55358 C 40.599422 38.234473 44.116176 32.1006 44.034391 25.496464 " transform="matrix(0.573149,0,0,0.573149,0,0)"/>
<path style="fill-rule:evenodd;fill:rgb(100%,100%,100%);fill-opacity:1;stroke-width:1.352;stroke-linecap:butt;stroke-linejoin:miter;stroke:rgb(0%,0%,0%);stroke-opacity:1;stroke-miterlimit:4;" d="M 12.606789 38.825108 C 27.90194 53.590733 54.636207 33.855711 39.904526 13.855927 " transform="matrix(0.575397,0,0,0.575397,0,0)"/>
<path style="fill-rule:nonzero;fill:rgb(65.098039%,65.098039%,65.098039%);fill-opacity:1;stroke-width:1.3504;stroke-linecap:round;stroke-linejoin:round;stroke:rgb(0%,0%,0%);stroke-opacity:1;stroke-miterlimit:4;" d="M 15.934438 9.480241 L 41.240071 16.207055 " transform="matrix(0.573149,0,0,0.573149,0,0)"/>
<path style="fill-rule:nonzero;fill:rgb(65.098039%,65.098039%,65.098039%);fill-opacity:1;stroke-width:1.3504;stroke-linecap:round;stroke-linejoin:round;stroke:rgb(0%,0%,0%);stroke-opacity:1;stroke-miterlimit:4;" d="M 15.934438 41.308225 L 41.240071 34.581411 " transform="matrix(0.573149,0,0,0.573149,0,0)"/>
<path style=" stroke:none;fill-rule:evenodd;fill:rgb(65.098039%,65.098039%,65.098039%);fill-opacity:1;" d="M 0.777344 0.777344 L 0.792969 0.777344 L 0.792969 0.792969 L 0.777344 0.792969 Z M 0.777344 0.777344 "/>
<path style=" stroke:none;fill-rule:evenodd;fill:rgb(65.098039%,65.098039%,65.098039%);fill-opacity:1;" d="M 28.472656 28.710938 L 28.492188 28.710938 L 28.492188 28.730469 L 28.472656 28.730469 Z M 28.472656 28.710938 "/>
<path style=" stroke:none;fill-rule:evenodd;fill:rgb(65.098039%,65.098039%,65.098039%);fill-opacity:1;" d="M 28.476562 28.703125 L 28.507812 28.703125 L 28.507812 28.730469 L 28.476562 28.730469 Z M 28.476562 28.703125 "/>
<path style="fill-rule:nonzero;fill:rgb(100%,100%,100%);fill-opacity:1;stroke-width:1.057546;stroke-linecap:round;stroke-linejoin:round;stroke:rgb(0%,0%,0%);stroke-opacity:1;stroke-miterlimit:4;" d="M 0.00250086 35.400838 L 10.200855 35.400838 L 7.849849 33.700224 " transform="matrix(0.732732,0,0,0.732732,14.673949,-11.876813)"/>
<path style=" stroke:none;fill-rule:nonzero;fill:rgb(65.098039%,65.098039%,65.098039%);fill-opacity:1;" d="M 22.148438 14.058594 L 20.902344 15.304688 Z M 22.148438 14.058594 "/>
<path style=" stroke:none;fill-rule:nonzero;fill:rgb(65.098039%,65.098039%,65.098039%);fill-opacity:1;" d="M 22.148438 14.058594 L 20.902344 15.304688 Z M 22.148438 14.058594 "/>
<path style="fill-rule:nonzero;fill:rgb(65.098039%,65.098039%,65.098039%);fill-opacity:1;stroke-width:1.057547;stroke-linecap:round;stroke-linejoin:round;stroke:rgb(0%,0%,0%);stroke-opacity:1;stroke-miterlimit:4;" d="M 0.00188987 35.399888 L 2.406924 35.399888 " transform="matrix(-0.518119,0.518119,-0.518119,-0.518119,40.49077,32.398967)"/>
<path style=" stroke:none;fill-rule:nonzero;fill:rgb(65.098039%,65.098039%,65.098039%);fill-opacity:1;" d="M 9.4375 20.371094 L 9.28125 18.613281 Z M 9.4375 20.371094 "/>
<path style=" stroke:none;fill-rule:nonzero;fill:rgb(65.098039%,65.098039%,65.098039%);fill-opacity:1;" d="M 9.4375 20.371094 L 9.28125 18.613281 Z M 9.4375 20.371094 "/>
<path style="fill-rule:nonzero;fill:rgb(65.098039%,65.098039%,65.098039%);fill-opacity:1;stroke-width:1.057547;stroke-linecap:round;stroke-linejoin:round;stroke:rgb(0%,0%,0%);stroke-opacity:1;stroke-miterlimit:4;" d="M 0.0022386 35.399922 L 2.410683 35.396575 " transform="matrix(-0.0638616,-0.729943,0.729943,-0.0638616,-16.40227,22.633422)"/>
<path style=" stroke:none;fill-rule:nonzero;fill:rgb(65.098039%,65.098039%,65.098039%);fill-opacity:1;" d="M 14.632812 14.027344 L 9.433594 7.832031 L 11.589844 8.460938 Z M 14.632812 14.027344 "/>
<path style=" stroke:none;fill-rule:nonzero;fill:rgb(65.098039%,65.098039%,65.098039%);fill-opacity:1;" d="M 14.632812 14.027344 L 9.433594 7.832031 L 11.589844 8.460938 Z M 14.632812 14.027344 "/>
<path style="fill-rule:nonzero;fill:rgb(65.098039%,65.098039%,65.098039%);fill-opacity:1;stroke-width:1.057547;stroke-linecap:round;stroke-linejoin:round;stroke:rgb(0%,0%,0%);stroke-opacity:1;stroke-miterlimit:4;" d="M -0.000445694 35.400701 L 11.037548 35.401465 L 8.488479 33.698889 " transform="matrix(-0.47099,-0.561304,-0.561304,0.47099,34.503165,-2.6463)"/>
<path style=" stroke:none;fill-rule:nonzero;fill:rgb(65.098039%,65.098039%,65.098039%);fill-opacity:1;" d="M 9.585938 9.582031 L 9.433594 7.824219 Z M 9.585938 9.582031 "/>
<path style=" stroke:none;fill-rule:nonzero;fill:rgb(65.098039%,65.098039%,65.098039%);fill-opacity:1;" d="M 9.585938 9.582031 L 9.433594 7.824219 Z M 9.585938 9.582031 "/>
<path style="fill-rule:nonzero;fill:rgb(65.098039%,65.098039%,65.098039%);fill-opacity:1;stroke-width:1.057547;stroke-linecap:round;stroke-linejoin:round;stroke:rgb(0%,0%,0%);stroke-opacity:1;stroke-miterlimit:4;" d="M 0.00293914 35.400101 L 2.410919 35.398137 " transform="matrix(-0.0638616,-0.729943,-0.729943,0.0638616,35.426169,7.323471)"/>
<path style="fill:none;stroke-width:1.352;stroke-linecap:round;stroke-linejoin:round;stroke:rgb(0%,0%,0%);stroke-opacity:1;stroke-miterlimit:4;" d="M 25.335776 24.541487 L 16.462823 35.525754 L 20.067672 34.602478 " transform="matrix(0.575397,0,0,0.575397,0,0)"/>
</g>
</svg>
