<?xml version="1.0" encoding="UTF-8"?>
<!--
/*******************************************************************************
* Copyright (c) 2010-2016 ITER Organization.
* All rights reserved. This program and the accompanying materials
* are made available under the terms of the Eclipse Public License v1.0
* which accompanies this distribution, and is available at
* http://www.eclipse.org/legal/epl-v10.html
******************************************************************************/
-->
<svg xmlns="http://www.w3.org/2000/svg" xmlns:xlink="http://www.w3.org/1999/xlink" width="29pt" height="29pt" viewBox="0 0 29 29" version="1.1">
<g id="surface1">
<path style="fill:none;stroke-width:1.688;stroke-linecap:round;stroke-linejoin:round;stroke:rgb(0%,0%,0%);stroke-opacity:1;stroke-miterlimit:4;" d="M 0.848548 0.849904 L 11.55416 0.849904 " transform="matrix(0.451355,0,0,0.451355,-0.0079963,14.00311)"/>
<path style="fill:none;stroke-width:1.688;stroke-linecap:round;stroke-linejoin:round;stroke:rgb(0%,0%,0%);stroke-opacity:1;stroke-miterlimit:4;" d="M 52.230292 0.849904 L 62.892632 0.849904 " transform="matrix(0.451355,0,0,0.451355,-0.0079963,14.00311)"/>
<path style="fill-rule:nonzero;fill:rgb(65.098039%,65.098039%,65.098039%);fill-opacity:1;stroke-width:1.3504;stroke-linecap:round;stroke-linejoin:round;stroke:rgb(0%,0%,0%);stroke-opacity:1;stroke-miterlimit:4;" d="M 124.280365 48.286464 C 124.363448 41.688278 120.839338 35.553972 115.071983 32.230646 C 109.311552 28.914244 102.180249 28.914244 96.419818 32.230646 C 90.652463 35.553972 87.135276 41.688278 87.218359 48.286464 C 87.135276 54.88465 90.652463 61.018956 96.419818 64.342281 C 102.180249 67.658684 109.311552 67.658684 115.071983 64.342281 C 120.839338 61.018956 124.363448 54.88465 124.280365 48.286464 " transform="matrix(0.564194,0,0,0.564194,-45.27447,-12.856208)"/>
<path style="fill:none;stroke-width:1.3504;stroke-linecap:round;stroke-linejoin:round;stroke:rgb(0%,0%,0%);stroke-opacity:1;stroke-miterlimit:4;" d="M 96.184415 32.265264 L 121.490156 38.994999 " transform="matrix(0.564194,0,0,0.564194,-45.27447,-12.856208)"/>
<path style="fill:none;stroke-width:1.3504;stroke-linecap:round;stroke-linejoin:round;stroke:rgb(0%,0%,0%);stroke-opacity:1;stroke-miterlimit:4;" d="M 96.184415 64.099956 L 121.490156 57.370221 " transform="matrix(0.564194,0,0,0.564194,-45.27447,-12.856208)"/>
<path style=" stroke:none;fill-rule:evenodd;fill:rgb(100%,100%,100%);fill-opacity:1;" d="M 0.761719 0.761719 L 0.777344 0.761719 L 0.777344 0.777344 L 0.761719 0.777344 Z "/>
<path style=" stroke:none;fill-rule:evenodd;fill:rgb(100%,100%,100%);fill-opacity:1;" d="M 27.734375 27.734375 L 27.75 27.734375 L 27.75 27.75 L 27.734375 27.75 Z "/>
<path style="fill:none;stroke-width:1.622698;stroke-linecap:round;stroke-linejoin:round;stroke:rgb(0%,0%,0%);stroke-opacity:1;stroke-miterlimit:4;" d="M 28.411608 72.064955 C 28.428228 68.657921 26.982316 65.417083 24.439505 63.148497 " transform="matrix(0.470075,0,0,0.470075,6.648312,-19.485328)"/>
<path style="fill:none;stroke-width:1.622698;stroke-linecap:round;stroke-linejoin:round;stroke:rgb(0%,0%,0%);stroke-opacity:1;stroke-miterlimit:4;" d="M 24.439505 80.973102 C 26.974006 78.704516 28.419918 75.463679 28.411608 72.064955 " transform="matrix(0.470075,0,0,0.470075,6.648312,-19.485328)"/>
<path style="fill:none;stroke-width:1.622698;stroke-linecap:round;stroke-linejoin:round;stroke:rgb(0%,0%,0%);stroke-opacity:1;stroke-miterlimit:4;" d="M 8.484614 63.148497 C 5.950113 65.417083 4.5042 68.657921 4.51251 72.064955 " transform="matrix(0.470075,0,0,0.470075,6.648312,-19.485328)"/>
<path style="fill:none;stroke-width:1.622698;stroke-linecap:round;stroke-linejoin:round;stroke:rgb(0%,0%,0%);stroke-opacity:1;stroke-miterlimit:4;" d="M 4.51251 72.064955 C 4.51251 75.463679 5.958422 78.704516 8.484614 80.973102 " transform="matrix(0.470075,0,0,0.470075,6.648312,-19.485328)"/>
<path style="fill:none;stroke-width:1.622698;stroke-linecap:round;stroke-linejoin:round;stroke:rgb(0%,0%,0%);stroke-opacity:1;stroke-miterlimit:4;" d="M 28.411608 72.064955 L 4.51251 72.064955 " transform="matrix(0.470075,0,0,0.470075,6.648312,-19.485328)"/>
<path style=" stroke:none;fill-rule:evenodd;fill:rgb(100%,100%,100%);fill-opacity:1;" d="M 28.027344 28.261719 L 28.046875 28.261719 L 28.046875 28.28125 L 28.027344 28.28125 Z "/>
<path style=" stroke:none;fill-rule:evenodd;fill:rgb(100%,100%,100%);fill-opacity:1;" d="M 28.03125 28.253906 L 28.0625 28.253906 L 28.0625 28.28125 L 28.03125 28.28125 Z "/>
</g>
</svg>
