<?xml version="1.0" encoding="UTF-8"?>
<!--
/*******************************************************************************
* Copyright (c) 2010-2018 ITER Organization.
* All rights reserved. This program and the accompanying materials
* are made available under the terms of the Eclipse Public License v1.0
* which accompanies this distribution, and is available at
* http://www.eclipse.org/legal/epl-v10.html
******************************************************************************/
-->
<svg xmlns="http://www.w3.org/2000/svg" xmlns:xlink="http://www.w3.org/1999/xlink" width="29pt" height="29pt" viewBox="0 0 29 29" version="1.1">
<g id="surface0">
<path style="fill:none;stroke-width:1.345125;stroke-linecap:round;stroke-linejoin:round;stroke:rgb(0%,0%,0%);stroke-opacity:1;stroke-miterlimit:4;" d="M 0.665302 25.003125 L 9.192026 25.003125 " transform="matrix(0.575397,0,0,0.575397,0,0)"/>
<path style="fill:none;stroke-width:1.345125;stroke-linecap:round;stroke-linejoin:round;stroke:rgb(0%,0%,0%);stroke-opacity:1;stroke-miterlimit:4;" d="M 41.608513 25.003125 L 50.108082 25.003125 " transform="matrix(0.575397,0,0,0.575397,0,0)"/>
<path style="fill-rule:nonzero;fill:rgb(100%,100%,100%);fill-opacity:1;stroke-width:1.3504;stroke-linecap:round;stroke-linejoin:round;stroke:rgb(0%,0%,0%);stroke-opacity:1;stroke-miterlimit:4;" d="M 124.28069 48.283327 C 124.362475 41.686006 120.845721 35.552133 115.073065 32.233026 C 109.307225 28.91392 102.185117 28.91392 96.419277 32.233026 C 90.653436 35.552133 87.129867 41.686006 87.211652 48.283327 C 87.129867 54.887463 90.653436 61.021336 96.419277 64.340442 C 102.185117 67.659549 109.307225 67.659549 115.073065 64.340442 C 120.845721 61.021336 124.362475 54.887463 124.28069 48.283327 " transform="matrix(0.573149,0,0,0.573149,-45.993112,-13.060275)"/>
<path style="fill:none;stroke-width:1.3504;stroke-linecap:round;stroke-linejoin:round;stroke:rgb(0%,0%,0%);stroke-opacity:1;stroke-miterlimit:4;" d="M 96.180737 32.267104 L 121.48637 38.993917 " transform="matrix(0.573149,0,0,0.573149,-45.993112,-13.060275)"/>
<path style="fill:none;stroke-width:1.3504;stroke-linecap:round;stroke-linejoin:round;stroke:rgb(0%,0%,0%);stroke-opacity:1;stroke-miterlimit:4;" d="M 96.180737 64.095087 L 121.48637 57.368274 " transform="matrix(0.573149,0,0,0.573149,-45.993112,-13.060275)"/>
<path style=" stroke:none;fill-rule:evenodd;fill:rgb(100%,100%,100%);fill-opacity:1;" d="M 0.777344 0.777344 L 0.792969 0.777344 L 0.792969 0.792969 L 0.777344 0.792969 Z M 0.777344 0.777344 "/>
<path style=" stroke:none;fill-rule:evenodd;fill:rgb(100%,100%,100%);fill-opacity:1;" d="M 28.175781 28.175781 L 28.191406 28.175781 L 28.191406 28.191406 L 28.175781 28.191406 Z M 28.175781 28.175781 "/>
<path style="fill:none;stroke-width:1.406247;stroke-linecap:butt;stroke-linejoin:miter;stroke:rgb(0%,0%,0%);stroke-opacity:1;stroke-miterlimit:3;" d="M -23.218139 19.413211 C -23.155088 19.413211 -23.11568 19.452618 -23.06051 19.452618 C -23.00534 19.476262 -22.989577 19.507788 -22.934406 19.531433 C -22.894999 19.57084 -22.871355 19.62601 -22.839829 19.681181 C -22.800421 19.736351 -22.776777 19.791521 -22.776777 19.846692 C -22.776777 19.901862 -22.776777 19.99644 -22.800421 20.05161 C -22.800421 20.130425 -22.839829 20.185595 -22.871355 20.256528 C -22.894999 20.335343 -22.950169 20.390513 -23.00534 20.445684 C -23.06051 20.540261 -23.155088 20.595432 -23.218139 20.619076 C -23.289073 20.674246 -23.38365 20.729417 -23.470347 20.768824 C -23.588569 20.784587 -23.698909 20.823994 -23.777724 20.823994 C -23.888065 20.823994 -24.037813 20.823994 -24.13239 20.784587 C -24.258494 20.784587 -24.368834 20.729417 -24.487056 20.713654 C -24.597397 20.650602 -24.747145 20.595432 -24.841723 20.500854 C -24.952063 20.445684 -25.070285 20.335343 -25.141219 20.225002 C -25.275204 20.130425 -25.354018 19.99644 -25.440715 19.878218 C -25.495885 19.736351 -25.5747 19.57084 -25.62987 19.413211 C -25.669277 19.287107 -25.724448 19.082189 -25.724448 18.932441 C -25.748092 18.759048 -25.748092 18.569893 -25.724448 18.388619 C -25.68504 18.215227 -25.669277 17.994546 -25.606226 17.821153 C -25.519529 17.655642 -25.440715 17.442843 -25.354018 17.316739 C -25.235796 17.127584 -25.086048 16.94631 -24.975708 16.78868 C -24.841723 16.646814 -24.676212 16.473421 -24.487056 16.363081 C -24.297901 16.229096 -24.092983 16.118755 -23.888065 16.024177 C -23.698909 15.9296 -23.438821 15.850785 -23.218139 15.819259 C -22.989577 15.756207 -22.721607 15.740444 -22.461518 15.740444 C -22.232955 15.740444 -21.957104 15.756207 -21.728541 15.795615 C -21.468452 15.850785 -21.184719 15.9296 -20.940394 16.03994 C -20.711831 16.134518 -20.43598 16.284266 -20.22318 16.449777 C -20.002499 16.583762 -19.773936 16.78868 -19.569018 16.993599 C -19.379862 17.182754 -19.182825 17.442843 -19.025196 17.710813 C -18.899092 17.939375 -18.7257 18.254634 -18.631122 18.514723 C -18.528663 18.798456 -18.426204 19.129478 -18.371034 19.413211 C -18.355271 19.736351 -18.315863 20.075254 -18.315863 20.390513 C -18.355271 20.713654 -18.410441 21.084083 -18.465611 21.383579 C -18.536545 21.706719 -18.694174 22.061385 -18.843922 22.360881 C -18.977907 22.660377 -19.182825 22.999281 -19.379862 23.259369 C -19.569018 23.543102 -19.868514 23.818954 -20.120721 24.047517 C -20.380809 24.307605 -20.711831 24.536168 -20.995564 24.701679 C -21.358112 24.914479 -21.728541 25.079989 -22.067444 25.19033 C -22.406348 25.308552 -22.839829 25.411011 -23.218139 25.4583 C -23.604332 25.505589 -24.037813 25.505589 -24.408242 25.474063 C -24.802315 25.4583 -25.275204 25.40313 -25.62987 25.284908 C -26.039707 25.174567 -26.473188 24.985412 -26.812091 24.812019 C -27.190402 24.630746 -27.584475 24.362775 -27.899734 24.102687 C -28.230756 23.858361 -28.569659 23.503695 -28.877037 23.180555 C -29.121362 22.881059 -29.412977 22.455459 -29.602132 22.077148 C -29.830695 21.706719 -30.035613 21.218068 -30.145954 20.823994 C -30.295702 20.390513 -30.413924 19.878218 -30.429687 19.413211 C -30.484857 18.963967 -30.484857 18.44379 -30.469094 17.994546 C -30.413924 17.505894 -30.319346 16.993599 -30.185361 16.528592 C -30.035613 16.079348 -29.830695 15.574934 -29.602132 15.157215 C -29.381451 14.723734 -29.058311 14.242965 -28.743052 13.880417 C -28.443556 13.509988 -28.033719 13.100151 -27.671171 12.800655 C -27.261335 12.445989 -26.772684 12.138611 -26.32344 11.902167 C -25.874196 11.657842 -25.330374 11.445042 -24.841723 11.295294 C -24.313664 11.129783 -23.714672 11.011561 -23.218139 10.995798 C -22.682199 10.940628 -22.067444 10.940628 -21.523623 10.995798 C -20.995564 11.05885 -20.380809 11.184953 -19.868514 11.334701 C -19.348336 11.508094 -18.749344 11.768182 -18.260693 12.028271 C -17.779923 12.304122 -17.22822 12.682433 -16.794739 13.021336 C -16.384903 13.399647 -15.919896 13.880417 -15.580992 14.313898 C -15.202682 14.763142 -14.832253 15.330608 -14.587927 15.850785 C -14.288431 16.363081 -14.059868 16.993599 -13.894357 17.561065 C -13.720965 18.136412 -13.610624 18.814219 -13.555454 19.413211 C -13.516047 20.020084 -13.516047 20.729417 -13.610624 21.328409 C -13.665795 21.966808 -13.839187 22.660377 -14.004698 23.219962 C -14.209616 23.818954 -14.493349 24.473116 -14.808608 25.064227 C -15.131749 25.584404 -15.541585 26.183396 -15.951422 26.672047 C -16.384903 27.160698 -16.936606 27.688757 -17.433139 28.082831 C -17.945434 28.476904 -18.575952 28.886741 -19.182825 29.162592 C -19.773936 29.485733 -20.49115 29.730058 -21.129549 29.934977 C -21.783711 30.100487 -22.556096 30.21871 -23.218139 30.27388 C -23.888065 30.32905 -24.691975 30.305406 -25.354018 30.21871 C -26.039707 30.139895 -26.827854 29.974384 -27.489898 29.730058 C -28.14406 29.501496 -28.8928 29.162592 -29.491792 28.83157 C -30.130191 28.476904 -30.784353 28.004016 -31.328175 27.539009 C -31.871996 27.050358 -32.431581 26.451366 -32.872943 25.8839 C -33.322187 25.308552 -33.747787 24.591338 -34.063046 23.937176 C -34.401949 23.259369 -34.685682 22.455459 -34.8906 21.738245 C -35.1034 21.028913 -35.229504 20.161951 -35.268911 19.413211 C -35.324081 18.680234 -35.284674 17.789627 -35.174333 17.05665 C -35.1034 16.284266 -34.8906 15.425186 -34.630512 14.707972 C -34.386186 13.967113 -34.007875 13.131677 -33.613802 12.477515 C -33.203965 11.783945 -32.699551 11.05885 -32.179374 10.467739 C -31.627671 9.868747 -30.973508 9.253993 -30.319346 8.765341 C -29.69671 8.27669 -28.8928 7.788039 -28.183467 7.457017 C -27.434727 7.078706 -26.544121 6.755566 -25.779618 6.574292 C -24.975708 6.369374 -24.037813 6.195981 -23.218139 6.156574 C -22.382703 6.101403 -21.413282 6.140811 -20.60149 6.274796 C -19.74241 6.385136 -18.804515 6.629462 -18.000605 6.873788 C -17.212457 7.173284 -16.329732 7.58312 -15.580992 8.016601 C -14.832253 8.442201 -14.036224 9.049074 -13.405706 9.624422 C -12.751544 10.191888 -12.057974 10.940628 -11.55356 11.657842 C -11.041264 12.327767 -10.497443 13.226255 -10.119132 13.998639 C -9.717177 14.786786 -9.370392 15.756207 -9.181237 16.623169 C -8.944793 17.505894 -8.7714 18.538367 -8.755637 19.413211 " transform="matrix(0.495624,0,0,0.495624,25.530914,5.585371)"/>
<path style=" stroke:none;fill-rule:evenodd;fill:rgb(100%,100%,100%);fill-opacity:1;" d="M 28.472656 28.710938 L 28.492188 28.710938 L 28.492188 28.730469 L 28.472656 28.730469 Z M 28.472656 28.710938 "/>
<path style=" stroke:none;fill-rule:evenodd;fill:rgb(100%,100%,100%);fill-opacity:1;" d="M 28.476562 28.703125 L 28.507812 28.703125 L 28.507812 28.730469 L 28.476562 28.730469 Z M 28.476562 28.703125 "/>
</g>
</svg>
