<?xml version="1.0" encoding="UTF-8"?>
<!--
/*******************************************************************************
* Copyright (c) 2010-2016 ITER Organization.
* All rights reserved. This program and the accompanying materials
* are made available under the terms of the Eclipse Public License v1.0
* which accompanies this distribution, and is available at
* http://www.eclipse.org/legal/epl-v10.html
******************************************************************************/
-->
<svg xmlns="http://www.w3.org/2000/svg" xmlns:xlink="http://www.w3.org/1999/xlink" width="29pt" height="29pt" viewBox="0 0 29 29" version="1.1">
<g id="surface1">
<path style="fill:none;stroke-width:1.688;stroke-linecap:<animate
 attributeName="opacity"
 values="1;0"
 calcMode="discrete"
 dur="1000ms"
 begin="0s"
 fill="freeze"
 repeatCount="indefinite"
 id="animate12" />
</svg>
;stroke-linejoin:<animate
 attributeName="opacity"
 values="1;0"
 calcMode="discrete"
 dur="1000ms"
 begin="0s"
 fill="freeze"
 repeatCount="indefinite"
 id="animate12" />
</svg>
;stroke:rgb(0%,0%,0%);stroke-opacity:1;stroke-miterlimit:4;" d="M 0.848548 0.849904 L 11.55416 0.849904 " transform="matrix(0.451355,0,0,0.451355,-0.0079963,14.00311)"/>
<path style="fill:none;stroke-width:1.688;stroke-linecap:<animate
 attributeName="opacity"
 values="1;0"
 calcMode="discrete"
 dur="1000ms"
 begin="0s"
 fill="freeze"
 repeatCount="indefinite"
 id="animate12" />
</svg>
;stroke-linejoin:<animate
 attributeName="opacity"
 values="1;0"
 calcMode="discrete"
 dur="1000ms"
 begin="0s"
 fill="freeze"
 repeatCount="indefinite"
 id="animate12" />
</svg>
;stroke:rgb(0%,0%,0%);stroke-opacity:1;stroke-miterlimit:4;" d="M 52.230292 0.849904 L 62.892632 0.849904 " transform="matrix(0.451355,0,0,0.451355,-0.0079963,14.00311)"/>
<path style="fill-rule:nonzero;fill:rgb(65.098039%,65.098039%,65.098039%);fill-opacity:1;stroke-width:1.3504;stroke-linecap:<animate
 attributeName="opacity"
 values="1;0"
 calcMode="discrete"
 dur="1000ms"
 begin="0s"
 fill="freeze"
 repeatCount="indefinite"
 id="animate12" />
</svg>
;stroke-linejoin:<animate
 attributeName="opacity"
 values="1;0"
 calcMode="discrete"
 dur="1000ms"
 begin="0s"
 fill="freeze"
 repeatCount="indefinite"
 id="animate12" />
</svg>
;stroke:rgb(0%,0%,0%);stroke-opacity:1;stroke-miterlimit:4;" d="M 124.280365 48.286464 C 124.363448 41.688278 120.839338 35.553972 115.071983 32.230646 C 109.311552 28.914244 102.180249 28.914244 96.419818 32.230646 C 90.652463 35.553972 87.135276 41.688278 87.218359 48.286464 C 87.135276 54.88465 90.652463 61.018956 96.419818 64.342281 C 102.180249 67.658684 109.311552 67.658684 115.071983 64.342281 C 120.839338 61.018956 124.363448 54.88465 124.280365 48.286464 " transform="matrix(0.564194,0,0,0.564194,-45.27447,-12.856208)"/>
<path style="fill:none;stroke-width:1.3504;stroke-linecap:<animate
 attributeName="opacity"
 values="1;0"
 calcMode="discrete"
 dur="1000ms"
 begin="0s"
 fill="freeze"
 repeatCount="indefinite"
 id="animate12" />
</svg>
;stroke-linejoin:<animate
 attributeName="opacity"
 values="1;0"
 calcMode="discrete"
 dur="1000ms"
 begin="0s"
 fill="freeze"
 repeatCount="indefinite"
 id="animate12" />
</svg>
;stroke:rgb(0%,0%,0%);stroke-opacity:1;stroke-miterlimit:4;" d="M 96.184415 32.265264 L 121.490156 38.994999 " transform="matrix(0.564194,0,0,0.564194,-45.27447,-12.856208)"/>
<path style="fill:none;stroke-width:1.3504;stroke-linecap:<animate
 attributeName="opacity"
 values="1;0"
 calcMode="discrete"
 dur="1000ms"
 begin="0s"
 fill="freeze"
 repeatCount="indefinite"
 id="animate12" />
</svg>
;stroke-linejoin:<animate
 attributeName="opacity"
 values="1;0"
 calcMode="discrete"
 dur="1000ms"
 begin="0s"
 fill="freeze"
 repeatCount="indefinite"
 id="animate12" />
</svg>
;stroke:rgb(0%,0%,0%);stroke-opacity:1;stroke-miterlimit:4;" d="M 96.184415 64.099956 L 121.490156 57.370221 " transform="matrix(0.564194,0,0,0.564194,-45.27447,-12.856208)"/>
<path style=" stroke:none;fill-rule:evenodd;fill:rgb(100%,100%,100%);fill-opacity:1;" d="M 0.761719 0.761719 L 0.777344 0.761719 L 0.777344 0.777344 L 0.761719 0.777344 Z "/>
<path style=" stroke:none;fill-rule:evenodd;fill:rgb(100%,100%,100%);fill-opacity:1;" d="M 27.734375 27.734375 L 27.75 27.734375 L 27.75 27.75 L 27.734375 27.75 Z "/>
<path style="fill:none;stroke-width:1.406247;stroke-linecap:butt;stroke-linejoin:miter;stroke:rgb(0%,0%,0%);stroke-opacity:1;stroke-miterlimit:3;" d="M -23.217389 19.411835 C -23.153336 19.411835 -23.12131 19.451867 -23.057257 19.451867 C -23.009218 19.475887 -22.985198 19.507913 -22.937159 19.523927 C -22.889119 19.571966 -22.873106 19.620005 -22.84108 19.684058 C -22.801047 19.740104 -22.777027 19.788144 -22.777027 19.852196 C -22.777027 19.900236 -22.777027 19.996315 -22.801047 20.052361 C -22.801047 20.132426 -22.84108 20.188472 -22.873106 20.260532 C -22.889119 20.332591 -22.945165 20.388637 -23.009218 20.444683 C -23.057257 20.540762 -23.153336 20.596808 -23.217389 20.612821 C -23.289448 20.668867 -23.385527 20.732919 -23.473599 20.764946 C -23.585691 20.780959 -23.697783 20.820992 -23.777849 20.820992 C -23.881935 20.820992 -24.034059 20.820992 -24.130138 20.780959 C -24.258244 20.780959 -24.370336 20.732919 -24.482428 20.7089 C -24.59452 20.652854 -24.746645 20.596808 -24.842724 20.500729 C -24.954816 20.444683 -25.066908 20.332591 -25.138967 20.220499 C -25.275079 20.132426 -25.347138 19.996315 -25.443217 19.884222 C -25.499263 19.740104 -25.571322 19.571966 -25.635375 19.411835 C -25.667401 19.283729 -25.723447 19.075558 -25.723447 18.93144 C -25.747467 18.755295 -25.747467 18.571144 -25.723447 18.386993 C -25.683414 18.218855 -25.667401 17.994671 -25.611355 17.818526 C -25.515276 17.658395 -25.443217 17.442217 -25.347138 17.322118 C -25.235046 17.129961 -25.090927 16.945809 -24.970829 16.785678 C -24.842724 16.641559 -24.674585 16.473421 -24.482428 16.361329 C -24.298276 16.225218 -24.090105 16.121132 -23.881935 16.025053 C -23.697783 15.928974 -23.433566 15.856915 -23.217389 15.816882 C -22.985198 15.760836 -22.720981 15.744823 -22.464771 15.744823 C -22.23258 15.744823 -21.95235 15.760836 -21.728166 15.792862 C -21.471955 15.856915 -21.183719 15.928974 -20.943521 16.041066 C -20.719337 16.137145 -20.431101 16.281264 -20.22293 16.449402 C -20.006752 16.585513 -19.774561 16.785678 -19.574397 16.993849 C -19.382239 17.186007 -19.182075 17.442217 -19.02995 17.714441 C -18.901845 17.938625 -18.7257 18.250881 -18.637628 18.515098 C -18.525536 18.795328 -18.429457 19.131604 -18.373411 19.411835 C -18.349391 19.740104 -18.317365 20.068374 -18.317365 20.388637 C -18.349391 20.7089 -18.413444 21.085209 -18.46949 21.381452 C -18.541549 21.701715 -18.693674 22.062011 -18.845799 22.358254 C -18.973904 22.662504 -19.182075 22.99878 -19.382239 23.262997 C -19.574397 23.543227 -19.87064 23.823458 -20.118844 24.047642 C -20.383061 24.303852 -20.719337 24.536043 -20.999567 24.704181 C -21.351857 24.912352 -21.728166 25.08049 -22.064442 25.192582 C -22.400718 25.304674 -22.84108 25.416766 -23.217389 25.456799 C -23.601704 25.512845 -24.034059 25.512845 -24.410368 25.472812 C -24.802691 25.456799 -25.275079 25.400753 -25.635375 25.288661 C -26.035703 25.176569 -26.476065 24.984411 -26.812341 24.816273 C -27.18865 24.632122 -27.580972 24.367905 -27.901235 24.103688 C -28.237511 23.855484 -28.573788 23.503195 -28.870031 23.182932 C -29.118235 22.886688 -29.414478 22.454333 -29.606636 22.078024 C -29.83082 21.701715 -30.030984 21.213314 -30.151083 20.820992 C -30.295201 20.388637 -30.4153 19.884222 -30.431313 19.411835 C -30.487359 18.963466 -30.487359 18.443039 -30.463339 17.994671 C -30.4153 17.50627 -30.319221 16.993849 -30.183109 16.529467 C -30.030984 16.073093 -29.83082 15.576685 -29.606636 15.160343 C -29.382452 14.727988 -29.062189 14.247593 -28.741926 13.879291 C -28.445682 13.510989 -28.029341 13.094647 -27.669045 12.798403 C -27.260709 12.446114 -26.772308 12.141864 -26.32394 11.901667 C -25.875572 11.653463 -25.331125 11.445292 -24.842724 11.293167 C -24.31429 11.125029 -23.713796 11.012937 -23.217389 10.996924 C -22.680948 10.940878 -22.064442 10.940878 -21.519995 10.996924 C -20.999567 11.05297 -20.383061 11.181075 -19.87064 11.341207 C -19.350213 11.501338 -18.74972 11.765555 -18.261319 12.029772 C -17.780924 12.310002 -17.22847 12.686311 -16.796115 13.022587 C -16.38778 13.398896 -15.915392 13.879291 -15.579116 14.319653 C -15.202807 14.768021 -14.826498 15.328481 -14.586301 15.856915 C -14.282051 16.361329 -14.057867 16.993849 -13.889729 17.562316 C -13.72159 18.138789 -13.609498 18.819348 -13.553452 19.411835 C -13.521426 20.020334 -13.521426 20.732919 -13.609498 21.325406 C -13.665544 21.965932 -13.833682 22.662504 -14.001821 23.222964 C -14.209992 23.823458 -14.490222 24.47199 -14.810485 25.05647 C -15.130748 25.584904 -15.539083 26.185397 -15.955425 26.673798 C -16.38778 27.162199 -16.932227 27.682627 -17.436641 28.082956 C -17.941056 28.475278 -18.581582 28.883613 -19.182075 29.163843 C -19.774561 29.484106 -20.495153 29.724304 -21.127673 29.932475 C -21.784212 30.100613 -22.552843 30.212705 -23.217389 30.276757 C -23.881935 30.332803 -24.690599 30.308784 -25.347138 30.212705 C -26.035703 30.140645 -26.828354 29.972507 -27.484893 29.724304 C -28.141433 29.508126 -28.894051 29.163843 -29.494544 28.827567 C -30.127063 28.475278 -30.791609 28.00289 -31.32805 27.538508 C -31.872497 27.050107 -32.432957 26.449614 -32.873319 25.889154 C -33.321687 25.304674 -33.746035 24.592089 -34.066298 23.93555 C -34.402574 23.262997 -34.682805 22.454333 -34.890976 21.741748 C -35.099147 21.029163 -35.227252 20.164453 -35.267285 19.411835 C -35.323331 18.683236 -35.283298 17.7865 -35.171206 17.057901 C -35.099147 16.281264 -34.890976 15.42456 -34.626759 14.711975 C -34.386561 13.959357 -34.010252 13.134679 -33.61793 12.47814 C -33.201588 11.789575 -32.697174 11.05297 -32.176747 10.46849 C -31.632299 9.876003 -30.97576 9.259497 -30.319221 8.763089 C -29.694708 8.274688 -28.894051 7.794294 -28.181465 7.458018 C -27.428847 7.081709 -26.548124 6.753439 -25.779493 6.569288 C -24.970829 6.369123 -24.034059 6.192979 -23.217389 6.160952 C -22.384705 6.104906 -21.407903 6.136933 -20.599239 6.273044 C -19.742535 6.385136 -18.805766 6.63334 -17.997102 6.873538 C -17.212457 7.177787 -16.331734 7.586123 -15.579116 8.018478 C -14.826498 8.442826 -14.041853 9.043319 -13.401327 9.627799 C -12.744788 10.18826 -12.056223 10.940878 -11.551809 11.653463 C -11.039388 12.334022 -10.494941 13.230758 -10.118632 13.991383 C -9.710296 14.784034 -9.37402 15.760836 -9.181862 16.61754 C -8.941665 17.50627 -8.773527 18.531111 -8.757514 19.411835 " transform="matrix(0.48788,0,0,0.48788,25.131993,5.498099)"/>
<path style=" stroke:none;fill-rule:evenodd;fill:rgb(100%,100%,100%);fill-opacity:1;" d="M 28.027344 28.261719 L 28.046875 28.261719 L 28.046875 28.28125 L 28.027344 28.28125 Z "/>
<path style=" stroke:none;fill-rule:evenodd;fill:rgb(100%,100%,100%);fill-opacity:1;" d="M 28.03125 28.253906 L 28.0625 28.253906 L 28.0625 28.28125 L 28.03125 28.28125 Z "/>
</g>
</svg>
