<?xml version="1.0" encoding="UTF-8"?>
<!--
/*******************************************************************************
* Copyright (c) 2010-2018 ITER Organization.
* All rights reserved. This program and the accompanying materials
* are made available under the terms of the Eclipse Public License v1.0
* which accompanies this distribution, and is available at
* http://www.eclipse.org/legal/epl-v10.html
******************************************************************************/
-->
<svg xmlns="http://www.w3.org/2000/svg" xmlns:xlink="http://www.w3.org/1999/xlink" width="29pt" height="29pt" viewBox="0 0 29 29" version="1.1">
<g id="surface0">
<path style="fill:none;stroke-width:1.688;stroke-linecap:round;stroke-linejoin:round;stroke:rgb(0%,0%,0%);stroke-opacity:1;stroke-miterlimit:4;" d="M 0.852605 0.845982 L 11.552807 0.845982 " transform="matrix(0.458519,0,0,0.458519,-0.00812322,14.225382)"/>
<path style="fill:none;stroke-width:1.345125;stroke-linecap:round;stroke-linejoin:round;stroke:rgb(0%,0%,0%);stroke-opacity:1;stroke-miterlimit:4;" d="M 41.608513 25.003125 L 50.108082 25.003125 " transform="matrix(0.575397,0,0,0.575397,0,0)"/>
<path style="fill-rule:nonzero;fill:rgb(100%,100%,100%);fill-opacity:1;stroke-width:1.345125;stroke-linecap:round;stroke-linejoin:round;stroke:rgb(0%,0%,0%);stroke-opacity:1;stroke-miterlimit:4;" d="M 43.862392 24.996336 C 43.943858 18.424784 40.440841 12.314871 34.690733 9.008728 C 28.947414 5.702586 21.853125 5.702586 16.109806 9.008728 C 10.366487 12.314871 6.856681 18.424784 6.938147 24.996336 C 6.856681 31.574677 10.366487 37.677802 16.109806 40.990733 C 21.853125 44.296875 28.947414 44.296875 34.690733 40.990733 C 40.440841 37.677802 43.943858 31.574677 43.862392 24.996336 " transform="matrix(0.575397,0,0,0.575397,0,0)"/>
<path style="fill:none;stroke-width:1.3504;stroke-linecap:round;stroke-linejoin:round;stroke:rgb(0%,0%,0%);stroke-opacity:1;stroke-miterlimit:4;" d="M 96.180737 32.267104 L 121.48637 38.993917 " transform="matrix(0.573149,0,0,0.573149,-45.993112,-13.060275)"/>
<path style="fill:none;stroke-width:1.3504;stroke-linecap:round;stroke-linejoin:round;stroke:rgb(0%,0%,0%);stroke-opacity:1;stroke-miterlimit:4;" d="M 96.180737 64.095087 L 121.48637 57.368274 " transform="matrix(0.573149,0,0,0.573149,-45.993112,-13.060275)"/>
<path style=" stroke:none;fill-rule:evenodd;fill:rgb(100%,100%,100%);fill-opacity:1;" d="M 0.777344 0.777344 L 0.792969 0.777344 L 0.792969 0.792969 L 0.777344 0.792969 Z M 0.777344 0.777344 "/>
<path style=" stroke:none;fill-rule:evenodd;fill:rgb(100%,100%,100%);fill-opacity:1;" d="M 28.175781 28.175781 L 28.191406 28.175781 L 28.191406 28.191406 L 28.175781 28.191406 Z M 28.175781 28.175781 "/>
<path style="fill:none;stroke-width:1.349997;stroke-linecap:round;stroke-linejoin:round;stroke:rgb(0%,0%,0%);stroke-opacity:1;stroke-miterlimit:3;" d="M 21.338234 69.915272 L 12.830155 58.407707 " transform="matrix(0.477946,0,0,0.477946,6.848341,-18.790757)"/>
<path style="fill:none;stroke-width:1.349997;stroke-linecap:round;stroke-linejoin:round;stroke:rgb(0%,0%,0%);stroke-opacity:1;stroke-miterlimit:3;" d="M 21.338234 69.915272 L 12.830155 81.431009 " transform="matrix(0.477946,0,0,0.477946,6.848341,-18.790757)"/>
<path style="fill:none;stroke-width:1.349997;stroke-linecap:round;stroke-linejoin:round;stroke:rgb(0%,0%,0%);stroke-opacity:1;stroke-miterlimit:3;" d="M 12.298911 69.866234 L 3.799005 58.358669 " transform="matrix(0.477946,0,0,0.477946,6.848341,-18.790757)"/>
<path style="fill:none;stroke-width:1.349997;stroke-linecap:round;stroke-linejoin:round;stroke:rgb(0%,0%,0%);stroke-opacity:1;stroke-miterlimit:3;" d="M 12.298911 69.874407 L 3.799005 81.381972 " transform="matrix(0.477946,0,0,0.477946,6.848341,-18.790757)"/>
<path style=" stroke:none;fill-rule:evenodd;fill:rgb(100%,100%,100%);fill-opacity:1;" d="M 28.472656 28.710938 L 28.492188 28.710938 L 28.492188 28.730469 L 28.472656 28.730469 Z M 28.472656 28.710938 "/>
<path style=" stroke:none;fill-rule:evenodd;fill:rgb(100%,100%,100%);fill-opacity:1;" d="M 28.476562 28.703125 L 28.507812 28.703125 L 28.507812 28.730469 L 28.476562 28.730469 Z M 28.476562 28.703125 "/>
</g>
</svg>
