<?xml version="1.0" encoding="UTF-8"?>
<!--
/*******************************************************************************
* Copyright (c) 2010-2018 ITER Organization.
* All rights reserved. This program and the accompanying materials
* are made available under the terms of the Eclipse Public License v1.0
* which accompanies this distribution, and is available at
* http://www.eclipse.org/legal/epl-v10.html
******************************************************************************/
-->
<svg xmlns="http://www.w3.org/2000/svg" xmlns:xlink="http://www.w3.org/1999/xlink" width="29pt" height="29pt" viewBox="0 0 29 29" version="1.1">
<g id="surface0">
<path style="fill:none;stroke-width:1.345125;stroke-linecap:round;stroke-linejoin:round;stroke:rgb(0%,0%,0%);stroke-opacity:1;stroke-miterlimit:4;" d="M 0.665302 25.003125 L 9.192026 25.003125 " transform="matrix(0.575397,0,0,0.575397,0,0)"/>
<path style="fill:none;stroke-width:1.345125;stroke-linecap:round;stroke-linejoin:round;stroke:rgb(0%,0%,0%);stroke-opacity:1;stroke-miterlimit:4;" d="M 41.391272 25.003125 L 49.890841 25.003125 " transform="matrix(0.575397,0,0,0.575397,0,0)"/>
<path style="fill-rule:nonzero;fill:rgb(100%,100%,100%);fill-opacity:1;stroke-width:1.3504;stroke-linecap:round;stroke-linejoin:round;stroke:rgb(0%,0%,0%);stroke-opacity:1;stroke-miterlimit:4;" d="M 124.28069 48.283327 C 124.362475 41.686006 120.845721 35.552133 115.073065 32.233026 C 109.307225 28.91392 102.185117 28.91392 96.419277 32.233026 C 90.653436 35.552133 87.129867 41.686006 87.211652 48.283327 C 87.129867 54.887463 90.653436 61.021336 96.419277 64.340442 C 102.185117 67.659549 109.307225 67.659549 115.073065 64.340442 C 120.845721 61.021336 124.362475 54.887463 124.28069 48.283327 " transform="matrix(0.573149,0,0,0.573149,-45.993112,-13.060275)"/>
<path style="fill:none;stroke-width:1.3504;stroke-linecap:round;stroke-linejoin:round;stroke:rgb(0%,0%,0%);stroke-opacity:1;stroke-miterlimit:4;" d="M 96.180737 32.267104 L 121.48637 38.993917 " transform="matrix(0.573149,0,0,0.573149,-45.993112,-13.060275)"/>
<path style="fill:none;stroke-width:1.3504;stroke-linecap:round;stroke-linejoin:round;stroke:rgb(0%,0%,0%);stroke-opacity:1;stroke-miterlimit:4;" d="M 96.180737 64.095087 L 121.48637 57.368274 " transform="matrix(0.573149,0,0,0.573149,-45.993112,-13.060275)"/>
<path style=" stroke:none;fill-rule:evenodd;fill:rgb(100%,100%,100%);fill-opacity:1;" d="M 0.777344 0.777344 L 0.792969 0.777344 L 0.792969 0.792969 L 0.777344 0.792969 Z M 0.777344 0.777344 "/>
<path style=" stroke:none;fill-rule:evenodd;fill:rgb(100%,100%,100%);fill-opacity:1;" d="M 28.175781 28.175781 L 28.191406 28.175781 L 28.191406 28.191406 L 28.175781 28.191406 Z M 28.175781 28.175781 "/>
<path style="fill:none;stroke-width:1.349993;stroke-linecap:round;stroke-linejoin:round;stroke:rgb(0%,0%,0%);stroke-opacity:1;stroke-miterlimit:3;" d="M 20.630866 68.160882 C 20.765872 63.806933 18.512956 59.731435 14.758098 57.512271 C 11.011677 55.293107 6.345526 55.293107 2.590668 57.512271 C -1.155753 59.731435 -3.408668 63.806933 -3.273662 68.160882 C -3.408668 72.523268 -1.155753 76.607204 2.590668 78.826368 C 6.345526 81.037094 11.011677 81.037094 14.758098 78.826368 C 18.512956 76.607204 20.765872 72.523268 20.630866 68.160882 Z M 20.630866 68.160882 " transform="matrix(0.462942,0,0,0.462942,10.597547,-16.941243)"/>
<path style="fill:none;stroke-width:1.349993;stroke-linecap:round;stroke-linejoin:round;stroke:rgb(0%,0%,0%);stroke-opacity:1;stroke-miterlimit:3;" d="M 20.630866 68.160882 C 20.765872 63.806933 18.512956 59.731435 14.758098 57.512271 C 11.011677 55.293107 6.345526 55.293107 2.590668 57.512271 C -1.155753 59.731435 -3.408668 63.806933 -3.273662 68.160882 C -3.408668 72.523268 -1.155753 76.607204 2.590668 78.826368 C 6.345526 81.037094 11.011677 81.037094 14.758098 78.826368 C 18.512956 76.607204 20.765872 72.523268 20.630866 68.160882 Z M 20.630866 68.160882 " transform="matrix(0.462942,0,0,0.462942,10.597547,-16.941243)"/>
<path style="fill-rule:evenodd;fill:rgb(100%,100%,100%);fill-opacity:1;stroke-width:1.349997;stroke-linecap:round;stroke-linejoin:round;stroke:rgb(0%,0%,0%);stroke-opacity:1;stroke-miterlimit:3;" d="M 14.74966 68.110254 C 14.74966 64.760414 12.032661 62.043415 8.682821 62.043415 C 5.324542 62.043415 2.607543 64.760414 2.607543 68.110254 C 2.607543 71.460095 5.324542 74.177093 8.682821 74.177093 C 12.032661 74.177093 14.74966 71.460095 14.74966 68.110254 Z M 14.74966 68.110254 " transform="matrix(0.462942,0,0,0.462942,10.597547,-16.941243)"/>
<path style=" stroke:none;fill-rule:evenodd;fill:rgb(100%,100%,100%);fill-opacity:1;" d="M 28.472656 28.710938 L 28.492188 28.710938 L 28.492188 28.730469 L 28.472656 28.730469 Z M 28.472656 28.710938 "/>
<path style=" stroke:none;fill-rule:evenodd;fill:rgb(100%,100%,100%);fill-opacity:1;" d="M 28.476562 28.703125 L 28.507812 28.703125 L 28.507812 28.730469 L 28.476562 28.730469 Z M 28.476562 28.703125 "/>
</g>
</svg>
