<?xml version="1.0" encoding="UTF-8"?>
<!--
/*******************************************************************************
* Copyright (c) 2010-2016 ITER Organization.
* All rights reserved. This program and the accompanying materials
* are made available under the terms of the Eclipse Public License v1.0
* which accompanies this distribution, and is available at
* http://www.eclipse.org/legal/epl-v10.html
******************************************************************************/
-->
<svg xmlns="http://www.w3.org/2000/svg" xmlns:xlink="http://www.w3.org/1999/xlink" width="56pt" height="40pt" viewBox="0 0 56 40" version="1.1">
<g id="surface1">
<path style=" stroke:none;fill-rule:evenodd;fill:rgb(100%,100%,100%);fill-opacity:1;" d="M 27.925781 19.761719 L 27.960938 19.761719 L 27.960938 19.789063 L 27.925781 19.789063 Z "/>
<path style=" stroke:none;fill-rule:evenodd;fill:rgb(100%,100%,100%);fill-opacity:1;" d="M 27.925781 19.761719 L 27.960938 19.761719 L 27.960938 19.789063 L 27.925781 19.789063 Z "/>
<path style=" stroke:none;fill-rule:evenodd;fill:rgb(65.098039%,65.098039%,65.098039%);fill-opacity:1;" d="M 5.667969 33.410156 L 22.976563 33.410156 L 22.976563 6.136719 L 5.667969 6.136719 Z "/>
<path style="fill:none;stroke-width:0.716885;stroke-linecap:round;stroke-linejoin:round;stroke:rgb(0%,0%,0%);stroke-opacity:1;stroke-miterlimit:4;" d="M -0.00163378 69.469825 L 24.810268 69.239647 " transform="matrix(1.047884,0,0,1.069147,22.978275,-59.05077)"/>
<path style="fill:none;stroke-width:0.716885;stroke-linecap:round;stroke-linejoin:round;stroke:rgb(0%,0%,0%);stroke-opacity:1;stroke-miterlimit:4;" d="M -0.00163378 69.469106 L 24.79163 69.18047 " transform="matrix(1.047884,0,0,1.069147,22.978275,-49.952345)"/>
<path style="fill:none;stroke-width:0.716885;stroke-linecap:round;stroke-linejoin:round;stroke:rgb(0%,0%,0%);stroke-opacity:1;stroke-miterlimit:4;" d="M 0.0202689 61.019658 C 1.612018 63.668529 1.600835 67.446367 0.00163013 69.47047 " transform="matrix(1.047884,0,0,1.069147,48.955323,-50.262397)"/>
<path style="fill:none;stroke-width:0.716885;stroke-linecap:round;stroke-linejoin:round;stroke:rgb(0%,0%,0%);stroke-opacity:1;stroke-miterlimit:4;" d="M 5.780049 59.829379 L 0.00203694 69.471269 L 4.680363 67.768684 " transform="matrix(1.047884,0,0,1.069147,12.017397,-54.196845)"/>
<path style="fill:none;stroke-width:0.716885;stroke-linecap:round;stroke-linejoin:round;stroke:rgb(0%,0%,0%);stroke-opacity:1;stroke-miterlimit:4;" d="M 0.000633689 69.468235 L 0.000633689 65.781737 " transform="matrix(1.047884,0,0,1.069147,10.288398,-44.79907)"/>
<path style="fill:none;stroke-width:0.716885;stroke-linecap:round;stroke-linejoin:round;stroke:rgb(0%,0%,0%);stroke-opacity:1;stroke-miterlimit:4;" d="M 6.330353 58.978706 L 0.000633689 69.468235 L 3.579273 67.769304 " transform="matrix(1.047884,0,0,1.069147,10.288398,-44.79907)"/>
<path style="fill:none;stroke-width:0.716885;stroke-linecap:round;stroke-linejoin:round;stroke:rgb(0%,0%,0%);stroke-opacity:1;stroke-miterlimit:4;" d="M 0.000705608 43.961546 L 16.518365 43.961546 L 16.518365 69.471086 L 0.000705608 69.471086 Z " transform="matrix(1.047884,0,0,1.069147,5.667229,-40.864618)"/>
</g>
</svg>
