<?xml version="1.0" encoding="UTF-8"?>
<!--
/*******************************************************************************
* Copyright (c) 2010-2018 ITER Organization.
* All rights reserved. This program and the accompanying materials
* are made available under the terms of the Eclipse Public License v1.0
* which accompanies this distribution, and is available at
* http://www.eclipse.org/legal/epl-v10.html
******************************************************************************/
-->
<svg xmlns="http://www.w3.org/2000/svg" xmlns:xlink="http://www.w3.org/1999/xlink" width="92pt" height="75pt" viewBox="0 0 92 75" version="1.1">
<g id="surface0">
<path style=" stroke:none;fill-rule:evenodd;fill:rgb(100%,100%,100%);fill-opacity:1;" d="M 0.765625 0.773438 L 0.78125 0.773438 L 0.78125 0.792969 L 0.765625 0.792969 Z M 0.765625 0.773438 "/>
<path style=" stroke:none;fill-rule:evenodd;fill:rgb(100%,100%,100%);fill-opacity:1;" d="M 91.078125 73.953125 L 91.09375 73.953125 L 91.09375 73.972656 L 91.078125 73.972656 Z M 91.078125 73.953125 "/>
<path style="fill-rule:evenodd;fill:rgb(100%,100%,100%);fill-opacity:1;stroke-width:0.72;stroke-linecap:round;stroke-linejoin:round;stroke:rgb(0%,0%,0%);stroke-opacity:1;stroke-miterlimit:3;" d="M 17.269115 52.211235 C 14.779418 49.720683 10.741474 49.720683 8.2481 52.211235 L 12.760446 56.720368 Z M 17.269115 61.229501 C 19.758813 58.738949 19.758813 54.701786 17.269115 52.211235 L 12.760446 56.720368 Z M 3.739431 65.738634 L 5.990088 63.480437 C 2.253703 59.744609 2.253703 53.685235 5.990088 49.949407 L 3.739431 47.698471 C -1.243642 52.679575 -1.243642 60.75753 3.739431 65.738634 Z M 5.990088 63.480437 L 8.2481 61.229501 C 5.758402 58.738949 5.758402 54.701786 8.2481 52.211235 L 5.990088 49.949407 C 2.253703 53.685235 2.253703 59.744609 5.990088 63.480437 Z M 5.990088 63.480437 C 9.726472 67.216264 15.783387 67.216264 19.519772 63.480437 L 17.269115 61.229501 C 14.779418 63.720052 10.741474 63.720052 8.2481 61.229501 Z M 21.781462 47.698471 C 16.79839 42.717368 8.722503 42.717368 3.739431 47.698471 L 5.990088 49.949407 C 9.726472 46.213579 15.783387 46.213579 19.519772 49.949407 Z M 19.519772 49.949407 C 15.783387 46.213579 9.726472 46.213579 5.990088 49.949407 L 8.2481 52.211235 C 10.741474 49.720683 14.779418 49.720683 17.269115 52.211235 Z M 12.760446 56.720368 L 8.2481 52.211235 C 5.758402 54.701786 5.758402 58.738949 8.2481 61.229501 Z M 17.269115 61.229501 L 12.760446 56.720368 L 8.2481 61.229501 C 10.741474 63.720052 14.779418 63.720052 17.269115 61.229501 Z M 19.519772 63.480437 C 23.256157 59.744609 23.256157 53.685235 19.519772 49.949407 L 17.269115 52.211235 C 19.758813 54.701786 19.758813 58.738949 17.269115 61.229501 Z M 21.781462 65.738634 C 26.760856 60.75753 26.760856 52.679575 21.781462 47.698471 L 19.519772 49.949407 C 23.256157 53.685235 23.256157 59.744609 19.519772 63.480437 Z M 3.739431 65.738634 C 8.722503 70.723368 16.79839 70.723368 21.781462 65.738634 L 19.519772 63.480437 C 15.783387 67.216264 9.726472 67.216264 5.990088 63.480437 Z M 3.739431 65.738634 " transform="matrix(1.06219,0,0,1.075941,32.379577,-23.648881)"/>
</g>
</svg>
