<?xml version="1.0" encoding="UTF-8"?>
<!--
/*******************************************************************************
* Copyright (c) 2010-2018 ITER Organization.
* All rights reserved. This program and the accompanying materials
* are made available under the terms of the Eclipse Public License v1.0
* which accompanies this distribution, and is available at
* http://www.eclipse.org/legal/epl-v10.html
******************************************************************************/
-->
<svg xmlns="http://www.w3.org/2000/svg" xmlns:xlink="http://www.w3.org/1999/xlink" width="37pt" height="46pt" viewBox="0 0 37 46" version="1.1">
<g id="surface1">
<path style="fill:none;stroke-width:0.01;stroke-linecap:round;stroke-linejoin:round;stroke:rgb(100%,100%,100%);stroke-opacity:1;stroke-miterlimit:3;" d="M 0.000819858 43.222273 L 0.0297845 43.222273 L 0.0297845 43.247889 L 0.000819858 43.247889 Z M 0.000819858 43.222273 " transform="matrix(1.078901,0,0,1.06745,0.0108342,-46.125894)"/>
<path style="fill:none;stroke-width:0.01;stroke-linecap:round;stroke-linejoin:round;stroke:rgb(100%,100%,100%);stroke-opacity:1;stroke-miterlimit:3;" d="M -0.000160214 43.221312 L 0.0288045 43.221312 L 0.0288045 43.250587 L -0.000160214 43.250587 Z M -0.000160214 43.221312 " transform="matrix(1.078901,0,0,1.06745,36.67986,-0.835805)"/>
<path style=" stroke:none;fill-rule:evenodd;fill:rgb(100%,100%,100%);fill-opacity:1;" d="M 26.308594 31.777344 L 10.414062 31.777344 C 12.054688 34.585938 15.082031 36.316406 18.359375 36.316406 C 21.640625 36.316406 24.667969 34.585938 26.308594 31.777344 Z M 26.308594 31.777344 C 24.667969 28.96875 21.640625 27.238281 18.359375 27.238281 C 15.082031 27.238281 12.054688 28.96875 10.414062 31.777344 Z M 26.308594 31.777344 "/>
<path style="fill:none;stroke-width:0.72;stroke-linecap:round;stroke-linejoin:round;stroke:rgb(0%,0%,0%);stroke-opacity:1;stroke-miterlimit:3;" d="M 14.73134 30.4894 L -0.000815316 30.4894 C 1.51983 33.120524 4.325782 34.741648 7.363452 34.741648 C 10.404743 34.741648 13.210695 33.120524 14.73134 30.4894 " transform="matrix(1.078901,0,0,1.06745,10.414942,-0.768564)"/>
<path style="fill:none;stroke-width:0.72;stroke-linecap:round;stroke-linejoin:round;stroke:rgb(0%,0%,0%);stroke-opacity:1;stroke-miterlimit:3;" d="M 14.73134 30.4894 C 13.210695 27.858275 10.404743 26.237151 7.363452 26.237151 C 4.325782 26.237151 1.51983 27.858275 -0.000815316 30.4894 L 14.73134 30.4894 " transform="matrix(1.078901,0,0,1.06745,10.414942,-0.768564)"/>
<path style="fill:none;stroke-width:0.72;stroke-linecap:round;stroke-linejoin:round;stroke:rgb(0%,0%,0%);stroke-opacity:1;stroke-miterlimit:3;" d="M 7.359832 43.249805 L 7.359832 34.748967 " transform="matrix(1.078901,0,0,1.06745,10.414942,-0.768564)"/>
</g>
</svg>
