<?xml version="1.0" encoding="UTF-8"?>
<!--
/*******************************************************************************
* Copyright (c) 2010-2018 ITER Organization.
* All rights reserved. This program and the accompanying materials
* are made available under the terms of the Eclipse Public License v1.0
* which accompanies this distribution, and is available at
* http://www.eclipse.org/legal/epl-v10.html
******************************************************************************/
-->
<svg xmlns="http://www.w3.org/2000/svg" xmlns:xlink="http://www.w3.org/1999/xlink" width="37pt" height="29pt" viewBox="0 0 37 29" version="1.1">
<g id="surface1">
<path style=" stroke:none;fill-rule:evenodd;fill:rgb(100%,100%,100%);fill-opacity:1;" d="M 0.753906 0.765625 L 0.769531 0.765625 L 0.769531 0.78125 L 0.753906 0.78125 Z M 0.753906 0.765625 "/>
<path style=" stroke:none;fill-rule:evenodd;fill:rgb(100%,100%,100%);fill-opacity:1;" d="M 36.277344 27.792969 L 36.292969 27.792969 L 36.292969 27.808594 L 36.277344 27.808594 Z M 36.277344 27.792969 "/>
<path style="fill:none;stroke-width:2.16;stroke-linecap:butt;stroke-linejoin:miter;stroke:rgb(0%,0%,0%);stroke-opacity:1;stroke-miterlimit:3;" d="M 0.0000726805 26.899588 L 7.440992 26.899588 " transform="matrix(0.000000000000000064,1.062012,-1.044804,0.000000000000000065,46.632147,15.691329)"/>
<path style="fill:none;stroke-width:2.16;stroke-linecap:butt;stroke-linejoin:miter;stroke:rgb(0%,0%,0%);stroke-opacity:1;stroke-miterlimit:3;" d="M 0.0000859954 26.899588 L 7.441006 26.899588 " transform="matrix(0.000000000000000064,1.062012,-1.044804,0.000000000000000065,46.632147,5.531159)"/>
<path style="fill:none;stroke-width:0.72;stroke-linecap:round;stroke-linejoin:round;stroke:rgb(0%,0%,0%);stroke-opacity:1;stroke-miterlimit:3;" d="M 0.0000859954 26.900642 L 17.01158 26.900642 " transform="matrix(0.000000000000000064,1.062012,-1.044804,0.000000000000000065,51.074655,5.531159)"/>
<path style="fill:none;stroke-width:0.72;stroke-linecap:round;stroke-linejoin:round;stroke:rgb(0%,0%,0%);stroke-opacity:1;stroke-miterlimit:3;" d="M 0.0000859954 26.898634 L 17.01158 26.898634 " transform="matrix(0.000000000000000064,1.062012,-1.044804,0.000000000000000065,42.189744,5.531159)"/>
</g>
</svg>
