<?xml version="1.0" encoding="UTF-8"?>
<!--
/*******************************************************************************
* Copyright (c) 2010-2018 ITER Organization.
* All rights reserved. This program and the accompanying materials
* are made available under the terms of the Eclipse Public License v1.0
* which accompanies this distribution, and is available at
* http://www.eclipse.org/legal/epl-v10.html
******************************************************************************/
-->
<svg xmlns="http://www.w3.org/2000/svg" xmlns:xlink="http://www.w3.org/1999/xlink" width="38pt" height="29pt" viewBox="0 0 38 29" version="1.1">
<g id="surface1">
<path style=" stroke:none;fill-rule:evenodd;fill:rgb(100%,100%,100%);fill-opacity:1;" d="M 0.917969 0.765625 L 0.9375 0.765625 L 0.9375 0.78125 L 0.917969 0.78125 Z M 0.917969 0.765625 "/>
<path style=" stroke:none;fill-rule:evenodd;fill:rgb(100%,100%,100%);fill-opacity:1;" d="M 36.699219 27.792969 L 36.71875 27.792969 L 36.71875 27.808594 L 36.699219 27.808594 Z M 36.699219 27.792969 "/>
<path style=" stroke:none;fill-rule:evenodd;fill:rgb(100%,100%,100%);fill-opacity:1;" d="M 4.324219 8.703125 L 32.964844 8.703125 L 32.964844 20.746094 L 4.324219 20.746094 Z M 4.324219 8.703125 "/>
<path style="fill:none;stroke-width:0.72;stroke-linecap:round;stroke-linejoin:round;stroke:rgb(0%,0%,0%);stroke-opacity:1;stroke-miterlimit:3;" d="M -0.00106547 26.901279 L 11.338735 26.901279 " transform="matrix(0.000000000000000064,1.062009,-1.052411,0.000000000000000065,36.236987,8.704257)"/>
<path style="fill:none;stroke-width:0.72;stroke-linecap:round;stroke-linejoin:round;stroke:rgb(0%,0%,0%);stroke-opacity:1;stroke-miterlimit:3;" d="M -0.00106547 26.899236 L 11.338735 26.899236 " transform="matrix(0.000000000000000064,1.062009,-1.052411,0.000000000000000065,39.816868,8.704257)"/>
<path style="fill:none;stroke-width:0.72;stroke-linecap:round;stroke-linejoin:round;stroke:rgb(0%,0%,0%);stroke-opacity:1;stroke-miterlimit:3;" d="M -0.00106547 26.900806 L 11.338735 26.900806 " transform="matrix(0.000000000000000064,1.062009,-1.052411,0.000000000000000065,43.396645,8.704257)"/>
<path style="fill:none;stroke-width:0.72;stroke-linecap:round;stroke-linejoin:round;stroke:rgb(0%,0%,0%);stroke-opacity:1;stroke-miterlimit:3;" d="M -0.00106547 26.898763 L 11.338735 26.898763 " transform="matrix(0.000000000000000064,1.062009,-1.052411,0.000000000000000065,46.976527,8.704257)"/>
<path style="fill:none;stroke-width:0.72;stroke-linecap:round;stroke-linejoin:round;stroke:rgb(0%,0%,0%);stroke-opacity:1;stroke-miterlimit:3;" d="M -0.00106547 26.900433 L 11.338735 26.900433 " transform="matrix(0.000000000000000064,1.062009,-1.052411,0.000000000000000065,50.556409,8.704257)"/>
<path style="fill:none;stroke-width:0.72;stroke-linecap:round;stroke-linejoin:round;stroke:rgb(0%,0%,0%);stroke-opacity:1;stroke-miterlimit:3;" d="M -0.00106547 26.898391 L 11.338735 26.898391 " transform="matrix(0.000000000000000064,1.062009,-1.052411,0.000000000000000065,54.136291,8.704257)"/>
<path style="fill:none;stroke-width:0.72;stroke-linecap:round;stroke-linejoin:round;stroke:rgb(0%,0%,0%);stroke-opacity:1;stroke-miterlimit:3;" d="M -0.00106547 26.89996 L 11.338735 26.89996 " transform="matrix(0.000000000000000064,1.062009,-1.052411,0.000000000000000065,57.716068,8.704257)"/>
<path style="fill:none;stroke-width:0.72;stroke-linecap:round;stroke-linejoin:round;stroke:rgb(0%,0%,0%);stroke-opacity:1;stroke-miterlimit:3;" d="M -0.000042363 26.8983 L -0.000042363 15.569534 " transform="matrix(1.052411,0,0,1.062009,4.335982,-7.831859)"/>
<path style="fill:none;stroke-width:0.72;stroke-linecap:round;stroke-linejoin:round;stroke:rgb(0%,0%,0%);stroke-opacity:1;stroke-miterlimit:3;" d="M 3.399958 26.897595 L 0.0000271768 26.897595 " transform="matrix(1.052411,0,0,1.062009,0.757784,-13.842829)"/>
<path style="fill:none;stroke-width:0.72;stroke-linecap:round;stroke-linejoin:round;stroke:rgb(0%,0%,0%);stroke-opacity:1;stroke-miterlimit:3;" d="M 2.828375 26.897595 L 0.0000485563 26.897595 " transform="matrix(1.052411,0,0,1.062009,32.976511,-13.842829)"/>
<path style="fill:none;stroke-width:0.72;stroke-linecap:round;stroke-linejoin:round;stroke:rgb(0%,0%,0%);stroke-opacity:1;stroke-miterlimit:3;" d="M 0.0000485563 26.8983 L 0.0000485563 15.569534 " transform="matrix(1.052411,0,0,1.062009,32.976511,-7.831859)"/>
</g>
</svg>
