<?xml version="1.0" encoding="UTF-8"?>
<!--
/*******************************************************************************
* Copyright (c) 2010-2018 ITER Organization.
* All rights reserved. This program and the accompanying materials
* are made available under the terms of the Eclipse Public License v1.0
* which accompanies this distribution, and is available at
* http://www.eclipse.org/legal/epl-v10.html
******************************************************************************/
-->
<svg xmlns="http://www.w3.org/2000/svg" xmlns:xlink="http://www.w3.org/1999/xlink" width="38pt" height="30pt" viewBox="0 0 38 30" version="1.1">
<g id="surface1">
<path style=" stroke:none;fill-rule:evenodd;fill:rgb(100%,100%,100%);fill-opacity:1;" d="M 32.46875 14.960938 C 32.527344 10.019531 29.972656 5.429688 25.785156 2.941406 C 21.59375 0.457031 16.414062 0.457031 12.226562 2.941406 C 8.039062 5.429688 5.484375 10.019531 5.542969 14.960938 C 5.484375 19.898438 8.039062 24.488281 12.226562 26.976562 C 16.414062 29.464844 21.59375 29.464844 25.785156 26.976562 C 29.972656 24.488281 32.527344 19.898438 32.46875 14.960938 Z M 32.46875 14.960938 "/>
<path style="fill-rule:evenodd;fill:rgb(100%,100%,100%);fill-opacity:1;stroke-width:0.72;stroke-linecap:round;stroke-linejoin:round;stroke:rgb(0%,0%,0%);stroke-opacity:1;stroke-miterlimit:3;" d="M 2.478466 27.81225 L 23.027691 12.401634 C 19.748584 7.93649 13.959527 6.104285 8.705655 7.864212 C 3.451783 9.624138 -0.0647553 14.570073 -0.00186579 20.110082 C -0.0314308 22.876999 0.839059 25.577868 2.478466 27.81225 Z M 2.478466 27.81225 " transform="matrix(1.052156,-0.0862528,0.0846545,1.072023,3.881585,-5.507856)"/>
<path style="fill-rule:evenodd;fill:rgb(0%,0%,0%);fill-opacity:1;stroke-width:0.72;stroke-linecap:round;stroke-linejoin:round;stroke:rgb(0%,0%,0%);stroke-opacity:1;stroke-miterlimit:3;" d="M 0.000285696 23.279489 C 3.283372 27.74131 9.06874 29.573218 14.318632 27.816615 C 19.571922 26.063929 23.092149 21.118291 23.029259 15.578282 C 23.066202 12.811959 22.199984 10.104145 20.560576 7.869763 Z M 0.000285696 23.279489 " transform="matrix(1.052156,-0.0862528,0.0846545,1.072023,6.872736,-0.854568)"/>
</g>
</svg>
