<?xml version="1.0" encoding="UTF-8"?>
<!--
/*******************************************************************************
* Copyright (c) 2010-2018 ITER Organization.
* All rights reserved. This program and the accompanying materials
* are made available under the terms of the Eclipse Public License v1.0
* which accompanies this distribution, and is available at
* http://www.eclipse.org/legal/epl-v10.html
******************************************************************************/
-->
<svg xmlns="http://www.w3.org/2000/svg" xmlns:xlink="http://www.w3.org/1999/xlink" width="29pt" height="38pt" viewBox="0 0 29 38" version="1.1">
<g id="surface1">
<path style=" stroke:none;fill-rule:evenodd;fill:rgb(100%,100%,100%);fill-opacity:1;" d="M 1.0625 1.050781 L 1.078125 1.050781 L 1.078125 1.074219 L 1.0625 1.074219 Z M 1.0625 1.050781 "/>
<path style=" stroke:none;fill-rule:evenodd;fill:rgb(100%,100%,100%);fill-opacity:1;" d="M 28.140625 36.828125 L 28.15625 36.828125 L 28.15625 36.851562 L 28.140625 36.851562 Z M 28.140625 36.828125 "/>
<path style="fill:none;stroke-width:1;stroke-linecap:round;stroke-linejoin:round;stroke:rgb(0%,0%,0%);stroke-opacity:1;stroke-miterlimit:3;" d="M -0.00159599 35.739052 L 12.759259 35.739052 " transform="matrix(0.000000000000000065,1.052413,-1.062011,0.000000000000000064,52.56072,1.052461)"/>
<path style="fill:none;stroke-width:1;stroke-linecap:round;stroke-linejoin:round;stroke:rgb(0%,0%,0%);stroke-opacity:1;stroke-miterlimit:3;" d="M 0.000460837 35.739065 L 25.512212 35.739065 " transform="matrix(1.062011,0,0,1.052413,1.062011,-23.131781)"/>
<path style="fill:none;stroke-width:1;stroke-linecap:round;stroke-linejoin:round;stroke:rgb(0%,0%,0%);stroke-opacity:1;stroke-miterlimit:3;" d="M 0.00044846 35.740782 L 17.011961 35.740782 " transform="matrix(1.062011,0,0,1.052413,5.577649,-18.657026)"/>
<path style="fill:none;stroke-width:1;stroke-linecap:round;stroke-linejoin:round;stroke:rgb(0%,0%,0%);stroke-opacity:1;stroke-miterlimit:3;" d="M 0.000436083 35.740989 L 8.500675 35.740989 " transform="matrix(1.062011,0,0,1.052413,10.093287,-13.883807)"/>
</g>
</svg>
