<?xml version="1.0" encoding="UTF-8"?>
<!--
/*******************************************************************************
* Copyright (c) 2010-2018 ITER Organization.
* All rights reserved. This program and the accompanying materials
* are made available under the terms of the Eclipse Public License v1.0
* which accompanies this distribution, and is available at
* http://www.eclipse.org/legal/epl-v10.html
******************************************************************************/
-->
<svg xmlns="http://www.w3.org/2000/svg" xmlns:xlink="http://www.w3.org/1999/xlink" width="20pt" height="38pt" viewBox="0 0 20 38" version="1.1">
<g id="surface1">
<path style=" stroke:none;fill-rule:evenodd;fill:rgb(100%,100%,100%);fill-opacity:1;" d="M 0.777344 1.054688 L 0.789062 1.054688 L 0.789062 1.078125 L 0.777344 1.078125 Z M 0.777344 1.054688 "/>
<path style=" stroke:none;fill-rule:evenodd;fill:rgb(100%,100%,100%);fill-opacity:1;" d="M 19.148438 36.9375 L 19.160156 36.9375 L 19.160156 36.960938 L 19.148438 36.960938 Z M 19.148438 36.9375 "/>
<path style="fill-rule:evenodd;fill:rgb(100%,100%,100%);fill-opacity:1;stroke-width:1;stroke-linecap:round;stroke-linejoin:round;stroke:rgb(0%,0%,0%);stroke-opacity:1;stroke-miterlimit:3;" d="M 0.00130588 10.501233 L 8.502119 10.501233 L 8.502119 36.013608 L 0.00130588 36.013608 Z M 0.00130588 10.501233 " transform="matrix(1.080779,0,0,1.055554,5.373589,-5.54165)"/>
<path style="fill:none;stroke-width:1;stroke-linecap:square;stroke-linejoin:miter;stroke:rgb(0%,0%,0%);stroke-opacity:1;stroke-miterlimit:3;" d="M -0.00122544 36.009052 L 4.250837 36.009052 Z M -0.00122544 36.009052 " transform="matrix(0.000000000000000066,-1.055554,1.080779,0.000000000000000065,-28.952982,5.541675)"/>
<path style="fill:none;stroke-width:1;stroke-linecap:round;stroke-linejoin:round;stroke:rgb(0%,0%,0%);stroke-opacity:1;stroke-miterlimit:3;" d="M -0.00122544 36.009052 L 4.250837 36.009052 " transform="matrix(0.000000000000000066,-1.055554,1.080779,0.000000000000000065,-28.952982,5.541675)"/>
<path style="fill:none;stroke-width:1;stroke-linecap:square;stroke-linejoin:miter;stroke:rgb(0%,0%,0%);stroke-opacity:1;stroke-miterlimit:3;" d="M -0.00170541 36.009705 L 4.250357 36.009705 Z M -0.00170541 36.009705 " transform="matrix(0.000000000000000066,1.055554,-1.080779,0.000000000000000065,48.891189,32.47055)"/>
<path style="fill:none;stroke-width:1;stroke-linecap:round;stroke-linejoin:round;stroke:rgb(0%,0%,0%);stroke-opacity:1;stroke-miterlimit:3;" d="M -0.00170541 36.009705 L 4.250357 36.009705 " transform="matrix(0.000000000000000066,1.055554,-1.080779,0.000000000000000065,48.891189,32.47055)"/>
<path style="fill:none;stroke-width:1;stroke-linecap:square;stroke-linejoin:miter;stroke:rgb(0%,0%,0%);stroke-opacity:1;stroke-miterlimit:3;" d="M 0.00130588 36.010571 L 8.498505 36.010571 Z M 0.00130588 36.010571 " transform="matrix(1.080779,0,0,1.055554,5.373589,-27.983756)"/>
<path style="fill:none;stroke-width:1;stroke-linecap:round;stroke-linejoin:round;stroke:rgb(0%,0%,0%);stroke-opacity:1;stroke-miterlimit:3;" d="M 0.00130588 36.010571 L 8.498505 36.010571 " transform="matrix(1.080779,0,0,1.055554,5.373589,-27.983756)"/>
<path style="fill:none;stroke-width:1;stroke-linecap:square;stroke-linejoin:miter;stroke:rgb(0%,0%,0%);stroke-opacity:1;stroke-miterlimit:3;" d="M 0.00130588 36.010797 L 8.498505 36.010797 Z M 0.00130588 36.010797 " transform="matrix(1.080779,0,0,1.055554,5.373589,-19.007433)"/>
<path style="fill:none;stroke-width:1;stroke-linecap:round;stroke-linejoin:round;stroke:rgb(0%,0%,0%);stroke-opacity:1;stroke-miterlimit:3;" d="M 0.00130588 36.010797 L 8.498505 36.010797 " transform="matrix(1.080779,0,0,1.055554,5.373589,-19.007433)"/>
<path style="fill:none;stroke-width:1;stroke-linecap:square;stroke-linejoin:miter;stroke:rgb(0%,0%,0%);stroke-opacity:1;stroke-miterlimit:3;" d="M 0.00130588 36.007373 L 8.498505 36.007373 Z M 0.00130588 36.007373 " transform="matrix(1.080779,0,0,1.055554,5.373589,-10.031162)"/>
<path style="fill:none;stroke-width:1;stroke-linecap:round;stroke-linejoin:round;stroke:rgb(0%,0%,0%);stroke-opacity:1;stroke-miterlimit:3;" d="M 0.00130588 36.007373 L 8.498505 36.007373 " transform="matrix(1.080779,0,0,1.055554,5.373589,-10.031162)"/>
</g>
</svg>
