<?xml version="1.0" encoding="UTF-8"?>
<!--
/*******************************************************************************
* Copyright (c) 2010-2018 ITER Organization.
* All rights reserved. This program and the accompanying materials
* are made available under the terms of the Eclipse Public License v1.0
* which accompanies this distribution, and is available at
* http://www.eclipse.org/legal/epl-v10.html
******************************************************************************/
-->
<svg xmlns="http://www.w3.org/2000/svg" xmlns:xlink="http://www.w3.org/1999/xlink" width="39pt" height="39pt" viewBox="0 0 39 39" version="1.1">
<g id="surface1">
<path style=" stroke:none;fill-rule:evenodd;fill:rgb(100%,100%,100%);fill-opacity:1;" d="M 1.085938 1.085938 L 1.105469 1.085938 L 1.105469 1.105469 L 1.085938 1.105469 Z M 1.085938 1.085938 "/>
<path style=" stroke:none;fill-rule:evenodd;fill:rgb(100%,100%,100%);fill-opacity:1;" d="M 37.910156 37.910156 L 37.933594 37.910156 L 37.933594 37.933594 L 37.910156 37.933594 Z M 37.910156 37.910156 "/>
<path style="fill:none;stroke-width:1;stroke-linecap:round;stroke-linejoin:round;stroke:rgb(0%,0%,0%);stroke-opacity:1;stroke-miterlimit:3;" d="M 0.0024022 36.020843 L 34.019173 36.020843 " transform="matrix(1.083335,0,0,1.083335,1.083335,-19.815613)"/>
<path style="fill:none;stroke-width:1;stroke-linecap:round;stroke-linejoin:round;stroke:rgb(0%,0%,0%);stroke-opacity:1;stroke-miterlimit:3;" d="M 0.000849514 36.019443 L 17.009235 36.019443 " transform="matrix(1.083335,0,0,1.083335,10.295955,-22.118783)"/>
<path style="fill:none;stroke-width:1;stroke-linecap:round;stroke-linejoin:round;stroke:rgb(0%,0%,0%);stroke-opacity:1;stroke-miterlimit:3;" d="M 0.0024022 36.020037 L 14.461513 36.020037 " transform="matrix(0.000000000000000067,1.083335,-1.083335,0.000000000000000067,58.525677,1.083335)"/>
<path style="fill:none;stroke-width:1;stroke-linecap:round;stroke-linejoin:round;stroke:rgb(0%,0%,0%);stroke-opacity:1;stroke-miterlimit:3;" d="M 0.000141353 36.018692 L 17.008527 36.018692 " transform="matrix(0.000000000000000067,-1.083335,1.083335,0.000000000000000067,-19.508595,37.933747)"/>
</g>
</svg>
