<?xml version="1.0" encoding="UTF-8" standalone="no"?>
<!--
/*******************************************************************************
* Copyright (c) 2010-2016 ITER Organization.
* All rights reserved. This program and the accompanying materials
* are made available under the terms of the Eclipse Public License v1.0
* which accompanies this distribution, and is available at
* http://www.eclipse.org/legal/epl-v10.html
******************************************************************************/
-->
<!--
/*******************************************************************************
* Copyright (c) 2010-2016 ITER Organization.
* All rights reserved. This program and the accompanying materials
* are made available under the terms of the Eclipse Public License v1.0
* which accompanies this distribution, and is available at
* http://www.eclipse.org/legal/epl-v10.html
******************************************************************************/
-->

<svg
   xmlns:dc="http://purl.org/dc/elements/1.1/"
   xmlns:cc="http://creativecommons.org/ns#"
   xmlns:rdf="http://www.w3.org/1999/02/22-rdf-syntax-ns#"
   xmlns:svg="http://www.w3.org/2000/svg"
   xmlns="http://www.w3.org/2000/svg"
   xmlns:sodipodi="http://sodipodi.sourceforge.net/DTD/sodipodi-0.dtd"
   xmlns:inkscape="http://www.inkscape.org/namespaces/inkscape"
   width="68pt"
   height="68pt"
   viewBox="0 0 68 68"
   version="1.1"
   id="svg2"
   inkscape:version="0.91 r13725"
   sodipodi:docname="BJ Junction Box.svg">
  <metadata
     id="metadata27">
    <rdf:RDF>
      <cc:Work
         rdf:about="">
        <dc:format>image/svg+xml</dc:format>
        <dc:type
           rdf:resource="http://purl.org/dc/dcmitype/StillImage" />
        <dc:title />
      </cc:Work>
    </rdf:RDF>
  </metadata>
  <defs
     id="defs25" />
  <sodipodi:namedview
     pagecolor="#ffffff"
     bordercolor="#666666"
     borderopacity="1"
     objecttolerance="10"
     gridtolerance="10"
     guidetolerance="10"
     inkscape:pageopacity="0"
     inkscape:pageshadow="2"
     inkscape:window-width="1366"
     inkscape:window-height="706"
     id="namedview23"
     showgrid="false"
     inkscape:zoom="2.7764706"
     inkscape:cx="-10.625"
     inkscape:cy="42.5"
     inkscape:window-x="-8"
     inkscape:window-y="-8"
     inkscape:window-maximized="1"
     inkscape:current-layer="svg2" />
  <g
     id="surface1"
     transform="matrix(0.76332207,0,0,0.76333124,8.0351289,8.0348171)">
    <path
       style="fill:#ffffff;fill-opacity:1;fill-rule:evenodd;stroke:#000000;stroke-width:1.31013003;stroke-linecap:round;stroke-linejoin:round;stroke-miterlimit:3;stroke-opacity:1;stroke-dasharray:none"
       d="m 9.17228e-4,2.000917 34.014641772,0 0,34.014642 -34.014641772,0 z"
       transform="matrix(1.888892,0,0,1.888892,1.888892,-1.888892)"
       id="path5"
       inkscape:connector-curvature="0" />
    <path
       style="fill:#ffffff;fill-opacity:1;fill-rule:evenodd;stroke:#000000;stroke-width:1.31013003;stroke-linecap:round;stroke-linejoin:round;stroke-miterlimit:3;stroke-opacity:1;stroke-dasharray:none"
       d="m 5.07851e-4,31.764378 8.503660149,0 0,4.25183 -8.503660149,0 z"
       transform="matrix(1.888892,0,0,1.888892,25.983416,-42.046368)"
       id="path7"
       inkscape:connector-curvature="0" />
    <path
       style="fill:#ffffff;fill-opacity:1;fill-rule:evenodd;stroke:#000000;stroke-width:0.23999999;stroke-linecap:round;stroke-linejoin:round;stroke-miterlimit:3;stroke-opacity:1"
       d="m 1.418233,35.307693 c 0,-0.392922 -0.318473,-0.709328 -0.709327,-0.709328 -0.390855,0 -0.709328176,0.316406 -0.709328176,0.709328 0,0.390854 0.318473176,0.707259 0.709328176,0.707259 0.390854,0 0.709327,-0.316405 0.709327,-0.707259 z"
       transform="matrix(1.888892,0,0,1.888892,32.485172,-44.723684)"
       id="path9"
       inkscape:connector-curvature="0" />
    <path
       style="fill:#ffffff;fill-opacity:1;fill-rule:evenodd;stroke:#000000;stroke-width:1.31013003;stroke-linecap:round;stroke-linejoin:round;stroke-miterlimit:3;stroke-opacity:1;stroke-dasharray:none"
       d="m 5.07851e-4,31.764308 8.503660149,0 0,4.25183 -8.503660149,0 z"
       transform="matrix(1.888892,0,0,1.888892,25.983416,-34.014986)"
       id="path11"
       inkscape:connector-curvature="0" />
    <path
       style="fill:#ffffff;fill-opacity:1;fill-rule:evenodd;stroke:#000000;stroke-width:0.23999999;stroke-linecap:round;stroke-linejoin:round;stroke-miterlimit:3;stroke-opacity:1"
       d="m 1.418233,35.307523 c 0,-0.390854 -0.318473,-0.709328 -0.709327,-0.709328 -0.390855,0 -0.709328176,0.318474 -0.709328176,0.709328 0,0.390854 0.318473176,0.70726 0.709328176,0.70726 0.390854,0 0.709327,-0.316406 0.709327,-0.70726 z"
       transform="matrix(1.888892,0,0,1.888892,32.485172,-36.692114)"
       id="path13"
       inkscape:connector-curvature="0" />
    <path
       style="fill:#ffffff;fill-opacity:1;fill-rule:evenodd;stroke:#000000;stroke-width:1.31013003;stroke-linecap:round;stroke-linejoin:round;stroke-miterlimit:3;stroke-opacity:1;stroke-dasharray:none"
       d="m 5.07851e-4,31.764138 8.503660149,0 0,4.25183 -8.503660149,0 z"
       transform="matrix(1.888892,0,0,1.888892,25.983416,-25.983416)"
       id="path15"
       inkscape:connector-curvature="0" />
    <path
       style="fill:#ffffff;fill-opacity:1;fill-rule:evenodd;stroke:#000000;stroke-width:0.23999999;stroke-linecap:round;stroke-linejoin:round;stroke-miterlimit:3;stroke-opacity:1"
       d="m 1.418233,35.307353 c 0,-0.390854 -0.318473,-0.709328 -0.709327,-0.709328 -0.390855,0 -0.709328176,0.318474 -0.709328176,0.709328 0,0.390854 0.318473176,0.709328 0.709328176,0.709328 0.390854,0 0.709327,-0.318474 0.709327,-0.709328 z"
       transform="matrix(1.888892,0,0,1.888892,32.485172,-28.660543)"
       id="path17"
       inkscape:connector-curvature="0" />
    <path
       style="fill:#ffffff;fill-opacity:1;fill-rule:evenodd;stroke:#000000;stroke-width:1.31013003;stroke-linecap:round;stroke-linejoin:round;stroke-miterlimit:3;stroke-opacity:1;stroke-dasharray:none"
       d="m 5.07851e-4,31.764008 8.503660149,0 0,4.25183 -8.503660149,0 z"
       transform="matrix(1.888892,0,0,1.888892,25.983416,-17.951921)"
       id="path19"
       inkscape:connector-curvature="0" />
    <path
       style="fill:#ffffff;fill-opacity:1;fill-rule:evenodd;stroke:#000000;stroke-width:0.23999999;stroke-linecap:round;stroke-linejoin:round;stroke-miterlimit:3;stroke-opacity:1"
       d="m 1.418233,35.307283 c 0,-0.390854 -0.318473,-0.709327 -0.709327,-0.709327 -0.390855,0 -0.709328176,0.318473 -0.709328176,0.709327 0,0.390854 0.318473176,0.709328 0.709328176,0.709328 0.390854,0 0.709327,-0.318474 0.709327,-0.709328 z"
       transform="matrix(1.888892,0,0,1.888892,32.485172,-20.629161)"
       id="path21"
       inkscape:connector-curvature="0" />
  </g>
</svg>
