<?xml version="1.0" encoding="UTF-8" standalone="no"?>
<!-- Generated by Microsoft Visio 11.0, SVG Export, v1.0 search.svg Page-1 -->

<svg
   xmlns:v="http://schemas.microsoft.com/visio/2003/SVGExtensions/"
   xmlns:dc="http://purl.org/dc/elements/1.1/"
   xmlns:cc="http://creativecommons.org/ns#"
   xmlns:rdf="http://www.w3.org/1999/02/22-rdf-syntax-ns#"
   xmlns:svg="http://www.w3.org/2000/svg"
   xmlns="http://www.w3.org/2000/svg"
   xmlns:sodipodi="http://sodipodi.sourceforge.net/DTD/sodipodi-0.dtd"
   xmlns:inkscape="http://www.inkscape.org/namespaces/inkscape"
   width="40"
   height="39.373585"
   viewBox="0 0 32.00003 31.498849"
   xml:space="preserve"
   color-interpolation-filters="sRGB"
   class="st2"
   id="svg2"
   version="1.1"
   inkscape:version="0.48.4 r9939"
   sodipodi:docname="search.svg"
   style="font-size:12px;fill:none;stroke-linecap:square;stroke-miterlimit:3;overflow:visible"><metadata
   id="metadata19"><rdf:RDF><cc:Work
       rdf:about=""><dc:format>image/svg+xml</dc:format><dc:type
         rdf:resource="http://purl.org/dc/dcmitype/StillImage" /></cc:Work></rdf:RDF></metadata><defs
   id="defs17" /><sodipodi:namedview
   pagecolor="#ffffff"
   bordercolor="#666666"
   borderopacity="1"
   objecttolerance="10"
   gridtolerance="10"
   guidetolerance="10"
   inkscape:pageopacity="0"
   inkscape:pageshadow="2"
   inkscape:window-width="943"
   inkscape:window-height="758"
   id="namedview15"
   showgrid="false"
   fit-margin-top="0"
   fit-margin-left="0"
   fit-margin-right="0"
   fit-margin-bottom="0"
   inkscape:zoom="14.062706"
   inkscape:cx="16.000351"
   inkscape:cy="21.305991"
   inkscape:window-x="32"
   inkscape:window-y="142"
   inkscape:window-maximized="0"
   inkscape:current-layer="svg2" />
	<v:documentProperties
   v:langID="1033"
   v:metric="true"
   v:viewMarkup="false" />

	<style
   type="text/css"
   id="style4">
	
		.st1 {fill:#404040;stroke:none;stroke-linecap:butt;stroke-width:0.75}
		.st2 {fill:none;fill-rule:evenodd;font-size:12px;overflow:visible;stroke-linecap:square;stroke-miterlimit:3}
	
	</style>

	<g
   v:mID="0"
   v:index="1"
   v:groupContext="foregroundPage"
   id="g6"
   transform="matrix(2.7785413,0,0,2.7785413,-2.0926738,-2.0839146)">
		<title
   id="title8">Page-1</title>
		<v:pageProperties
   v:drawingScale="0.0393701"
   v:pageScale="0.0393701"
   v:drawingUnits="24"
   v:shadowOffsetX="8.50394"
   v:shadowOffsetY="-8.50394" />
		<g
   id="shape1-1"
   v:mID="1"
   v:groupContext="shape"
   transform="translate(0.75,-0.75)">
			<title
   id="title11">Search</title>
			<v:userDefs>
				<v:ud
   v:nameU="msvShapeCategories"
   v:prompt=""
   v:val="VT4(Icon)" />
				<v:ud
   v:nameU="visVersion"
   v:prompt=""
   v:val="VT0(14):26" />
				<v:ud
   v:nameU="msvThemeColors"
   v:val="VT0(36):26" />
			</v:userDefs>
			<path
   d="M 7.56,1.5 A 3.96009,3.89773 -180 0 0 3.6,5.4 3.93911,3.87708 -180 0 0 4.45,7.8 1.00238,0.986594 -180 0 0 4.129958,7.975041 L 0.25,11.22 A 0.671642,0.661065 -180 0 0 0.1902395,12.189811 L 0.61,12.63 A 0.632235,0.622279 -180 0 0 1.570487,12.60732 L 4.93,8.77 A 0.987897,0.97234 -180 0 0 5.110721,8.457124 3.93946,3.87742 -180 0 0 7.56,9.3 3.96009,3.89773 -180 0 0 11.52,5.4 3.96009,3.89773 -180 0 0 7.56,1.5 z m 0,7.09 A 3.24398,3.19289 0 0 1 4.32,5.4 3.24398,3.19289 0 0 1 7.56,2.21 3.24398,3.19289 0 0 1 10.8,5.4 3.24398,3.19289 0 0 1 7.56,8.59 z"
   class="st1"
   id="path13"
   inkscape:connector-curvature="0"
   style="fill:#404040;stroke:none" />
		</g>
	</g>
</svg>