<?xml version="1.0" encoding="UTF-8"?>
<!--
/*******************************************************************************
* Copyright (c) 2010-2018 ITER Organization.
* All rights reserved. This program and the accompanying materials
* are made available under the terms of the Eclipse Public License v1.0
* which accompanies this distribution, and is available at
* http://www.eclipse.org/legal/epl-v10.html
******************************************************************************/
-->
<svg xmlns="http://www.w3.org/2000/svg" xmlns:xlink="http://www.w3.org/1999/xlink" width="48pt" height="54pt" viewBox="0 0 48 54" version="1.1">
<g id="surface1">
<path style=" stroke:none;fill-rule:evenodd;fill:rgb(100%,100%,100%);fill-opacity:1;" d="M 5.851562 26.90625 C 5.851562 26.765625 5.75 26.652344 5.625 26.652344 C 5.496094 26.652344 5.398438 26.765625 5.398438 26.90625 C 5.398438 27.046875 5.496094 27.164062 5.625 27.164062 C 5.75 27.164062 5.851562 27.046875 5.851562 26.90625 Z M 42.300781 26.90625 C 42.300781 26.765625 42.199219 26.652344 42.074219 26.652344 C 41.949219 26.652344 41.847656 26.765625 41.847656 26.90625 C 41.847656 27.046875 41.949219 27.164062 42.074219 27.164062 C 42.199219 27.164062 42.300781 27.046875 42.300781 26.90625 Z M 10.179688 26.90625 C 10.230469 25.054688 9.375 23.320312 7.945312 22.375 C 6.515625 21.433594 4.738281 21.433594 3.308594 22.375 C 1.878906 23.320312 1.023438 25.054688 1.074219 26.90625 C 1.023438 28.761719 1.878906 30.496094 3.308594 31.4375 C 4.738281 32.382812 6.515625 32.382812 7.945312 31.4375 C 9.375 30.496094 10.230469 28.761719 10.179688 26.90625 Z M 46.632812 26.90625 C 46.679688 25.054688 45.824219 23.320312 44.394531 22.375 C 42.964844 21.433594 41.191406 21.433594 39.757812 22.375 C 38.332031 23.320312 37.472656 25.054688 37.523438 26.90625 C 37.472656 28.761719 38.332031 30.496094 39.757812 31.4375 C 41.191406 32.382812 42.964844 32.382812 44.394531 31.4375 C 45.824219 30.496094 46.679688 28.761719 46.632812 26.90625 Z M 10.179688 1.488281 L 10.179688 52.316406 L 37.523438 52.316406 L 37.523438 1.488281 Z M 10.179688 1.488281 "/>
<path style="fill:none;stroke-width:0.72;stroke-linecap:round;stroke-linejoin:round;stroke:rgb(0%,0%,0%);stroke-opacity:1;stroke-miterlimit:3;" d="M 0.430805 50.770311 C 0.430805 50.62957 0.336013 50.514755 0.215701 50.514755 C 0.0990341 50.514755 0.0042424 50.62957 0.0042424 50.770311 C 0.0042424 50.911052 0.0990341 51.025866 0.215701 51.025866 C 0.336013 51.025866 0.430805 50.911052 0.430805 50.770311 Z M 0.430805 50.770311 " transform="matrix(1.071429,0,0,1.054688,5.401705,-26.636656)"/>
<path style="fill:none;stroke-width:0.72;stroke-linecap:round;stroke-linejoin:round;stroke:rgb(0%,0%,0%);stroke-opacity:1;stroke-miterlimit:3;" d="M 0.430081 50.770311 C 0.430081 50.62957 0.335289 50.514755 0.218623 50.514755 C 0.101956 50.514755 0.00351857 50.62957 0.00351857 50.770311 C 0.00351857 50.911052 0.101956 51.025866 0.218623 51.025866 C 0.335289 51.025866 0.430081 50.911052 0.430081 50.770311 Z M 0.430081 50.770311 " transform="matrix(1.071429,0,0,1.054688,41.851699,-26.636656)"/>
<path style="fill:none;stroke-width:0.72;stroke-linecap:round;stroke-linejoin:round;stroke:rgb(0%,0%,0%);stroke-opacity:1;stroke-miterlimit:3;" d="M 8.49905 45.772715 C 8.546446 43.909752 7.748009 42.169012 6.413634 41.224567 C 5.079259 40.276419 3.420404 40.276419 2.086029 41.224567 C 0.751654 42.169012 -0.0467831 43.909752 0.0006127 45.772715 C -0.0467831 47.628271 0.751654 49.372715 2.086029 50.31716 C 3.420404 51.265308 5.079259 51.265308 6.413634 50.31716 C 7.748009 49.372715 8.546446 47.628271 8.49905 45.772715 Z M 8.49905 45.772715 " transform="matrix(1.071429,0,0,1.054688,1.073562,-21.361848)"/>
<path style="fill:none;stroke-width:0.72;stroke-linecap:round;stroke-linejoin:round;stroke:rgb(0%,0%,0%);stroke-opacity:1;stroke-miterlimit:3;" d="M 34.020926 51.021304 L 0.0016549 51.021304 " transform="matrix(1.071429,0,0,1.054688,5.627133,-21.530281)"/>
<path style="fill:none;stroke-width:0.72;stroke-linecap:round;stroke-linejoin:round;stroke:rgb(0%,0%,0%);stroke-opacity:1;stroke-miterlimit:3;" d="M 8.501972 45.772715 C 8.545722 43.909752 7.747285 42.169012 6.41291 41.224567 C 5.078535 40.276419 3.423326 40.276419 2.085306 41.224567 C 0.754576 42.169012 -0.047507 43.909752 -0.000111133 45.772715 C -0.047507 47.628271 0.754576 49.372715 2.085306 50.31716 C 3.423326 51.265308 5.078535 51.265308 6.41291 50.31716 C 7.747285 49.372715 8.545722 47.628271 8.501972 45.772715 Z M 8.501972 45.772715 " transform="matrix(1.071429,0,0,1.054688,37.523557,-21.361848)"/>
<path style="fill:none;stroke-width:0.72;stroke-linecap:round;stroke-linejoin:round;stroke:rgb(0%,0%,0%);stroke-opacity:1;stroke-miterlimit:3;" d="M -0.0009386 2.835839 L 25.519895 2.835839 L 25.519895 51.024727 L -0.0009386 51.024727 Z M -0.0009386 2.835839 " transform="matrix(1.071429,0,0,1.054688,10.180693,-1.49483)"/>
<path style="fill:none;stroke-width:0.72;stroke-linecap:round;stroke-linejoin:round;stroke:rgb(0%,0%,0%);stroke-opacity:1;stroke-miterlimit:3;" d="M -0.0009386 35.731522 L 12.759478 51.020411 " transform="matrix(1.071429,0,0,1.054688,10.180693,-1.802777)"/>
<path style="fill:none;stroke-width:0.72;stroke-linecap:round;stroke-linejoin:round;stroke:rgb(0%,0%,0%);stroke-opacity:1;stroke-miterlimit:3;" d="M 12.759887 35.731522 L -0.0005294 51.020411 " transform="matrix(1.071429,0,0,1.054688,23.85213,-1.802777)"/>
<path style="fill:none;stroke-width:0.72;stroke-linecap:round;stroke-linejoin:round;stroke:rgb(0%,0%,0%);stroke-opacity:1;stroke-dasharray:10.8,6.48;stroke-miterlimit:3;" d="M 0.00143837 51.018484 L 34.020709 51.018484 " transform="matrix(1.071429,0,0,1.054688,5.877365,-33.359339)"/>
</g>
</svg>
