<?xml version="1.0" encoding="UTF-8"?>
<!--
/*******************************************************************************
* Copyright (c) 2010-2018 ITER Organization.
* All rights reserved. This program and the accompanying materials
* are made available under the terms of the Eclipse Public License v1.0
* which accompanies this distribution, and is available at
* http://www.eclipse.org/legal/epl-v10.html
******************************************************************************/
-->
<svg xmlns="http://www.w3.org/2000/svg" xmlns:xlink="http://www.w3.org/1999/xlink" width="29pt" height="45pt" viewBox="0 0 29 45" version="1.1">
<g id="surface1">
<path style=" stroke:none;fill-rule:evenodd;fill:rgb(100%,100%,100%);fill-opacity:1;" d="M 1.050781 0.273438 L 28.144531 0.273438 L 28.144531 44.671875 L 1.050781 44.671875 Z M 1.050781 0.273438 "/>
<path style="fill:none;stroke-width:0.72;stroke-linecap:round;stroke-linejoin:round;stroke:rgb(0%,0%,0%);stroke-opacity:1;stroke-miterlimit:3;" d="M 26.501132 34.383482 L 13.601822 42.893667 L 0.989408 34.383482 " transform="matrix(1.062012,0,0,1.044245,0.0000186049,-0.115718)"/>
<path style="fill:none;stroke-width:0.72;stroke-linecap:round;stroke-linejoin:round;stroke:rgb(0%,0%,0%);stroke-opacity:1;stroke-miterlimit:3;" d="M 0.989408 42.893667 L 0.989408 0.376408 L 26.501132 0.376408 L 26.501132 42.893667 L 0.989408 42.893667 " transform="matrix(1.062012,0,0,1.044245,0.0000186049,-0.115718)"/>
<path style="fill:none;stroke-width:0.72;stroke-linecap:round;stroke-linejoin:round;stroke:rgb(0%,0%,0%);stroke-opacity:1;stroke-miterlimit:3;" d="M 9.489638 8.87537 L 0.989408 8.87537 " transform="matrix(1.062012,0,0,1.044245,0.0000186049,-0.115718)"/>
<path style="fill:none;stroke-width:0.72;stroke-linecap:round;stroke-linejoin:round;stroke:rgb(0%,0%,0%);stroke-opacity:1;stroke-miterlimit:3;" d="M 18.000902 8.87537 L 26.501132 8.87537 " transform="matrix(1.062012,0,0,1.044245,0.0000186049,-0.115718)"/>
<path style="fill:none;stroke-width:0.72;stroke-linecap:round;stroke-linejoin:round;stroke:rgb(0%,0%,0%);stroke-opacity:1;stroke-dasharray:5.04,3.6;stroke-miterlimit:3;" d="M 17.993546 8.87163 L 17.993546 25.884519 " transform="matrix(1.062012,0,0,1.044245,0.0000186049,-0.115718)"/>
<path style="fill:none;stroke-width:0.72;stroke-linecap:round;stroke-linejoin:round;stroke:rgb(0%,0%,0%);stroke-opacity:1;stroke-dasharray:5.04,3.6;stroke-miterlimit:3;" d="M 9.489638 8.87163 L 9.489638 25.884519 " transform="matrix(1.062012,0,0,1.044245,0.0000186049,-0.115718)"/>
<path style="fill:none;stroke-width:0.72;stroke-linecap:round;stroke-linejoin:round;stroke:rgb(0%,0%,0%);stroke-opacity:1;stroke-miterlimit:3;" d="M 9.493316 25.884519 L 17.993546 25.884519 " transform="matrix(1.062012,0,0,1.044245,0.0000186049,-0.115718)"/>
</g>
</svg>
