<?xml version="1.0" encoding="UTF-8"?>
<!--
/*******************************************************************************
* Copyright (c) 2010-2018 ITER Organization.
* All rights reserved. This program and the accompanying materials
* are made available under the terms of the Eclipse Public License v1.0
* which accompanies this distribution, and is available at
* http://www.eclipse.org/legal/epl-v10.html
******************************************************************************/
-->
<svg xmlns="http://www.w3.org/2000/svg" xmlns:xlink="http://www.w3.org/1999/xlink" width="48pt" height="57pt" viewBox="0 0 48 57" version="1.1">
<g id="surface1">
<path style=" stroke:none;fill-rule:evenodd;fill:rgb(100%,100%,100%);fill-opacity:1;" d="M 0.785156 0.777344 L 0.800781 0.777344 L 0.800781 0.792969 L 0.785156 0.792969 Z M 0.785156 0.777344 "/>
<path style=" stroke:none;fill-rule:evenodd;fill:rgb(100%,100%,100%);fill-opacity:1;" d="M 47.066406 55.765625 L 47.082031 55.765625 L 47.082031 55.78125 L 47.066406 55.78125 Z M 47.066406 55.765625 "/>
<path style=" stroke:none;fill-rule:evenodd;fill:rgb(100%,100%,100%);fill-opacity:1;" d="M 10.046875 51.1875 L 37.808594 51.1875 L 37.808594 5.378906 L 10.046875 5.378906 Z M 10.046875 51.1875 "/>
<path style="fill:none;stroke-width:0.72;stroke-linecap:round;stroke-linejoin:round;stroke:rgb(0%,0%,0%);stroke-opacity:1;stroke-miterlimit:3;" d="M -0.000077751 52.499506 L 25.509494 52.499506 L 25.509494 9.980536 L -0.000077751 9.980536 L -0.000077751 52.499506 " transform="matrix(1.088286,0,0,1.077368,10.04696,-5.373808)"/>
<path style="fill:none;stroke-width:0.72;stroke-linecap:round;stroke-linejoin:round;stroke:rgb(0%,0%,0%);stroke-opacity:1;stroke-miterlimit:3;" d="M -0.000077751 45.411198 L -0.000077751 52.499506 L 25.509494 52.499506 L 25.509494 45.411198 " transform="matrix(1.088286,0,0,1.077368,10.04696,-5.373808)"/>
<path style="fill:none;stroke-width:0.72;stroke-linecap:round;stroke-linejoin:round;stroke:rgb(0%,0%,0%);stroke-opacity:1;stroke-miterlimit:3;" d="M 25.509494 18.479254 L 25.509494 17.061593 " transform="matrix(1.088286,0,0,1.077368,10.04696,-5.373808)"/>
<path style="fill:none;stroke-width:0.72;stroke-linecap:round;stroke-linejoin:round;stroke:rgb(0%,0%,0%);stroke-opacity:1;stroke-miterlimit:3;" d="M -0.000077751 43.989911 L -0.000077751 45.411198 " transform="matrix(1.088286,0,0,1.077368,10.04696,-5.373808)"/>
<path style="fill:none;stroke-width:0.72;stroke-linecap:round;stroke-linejoin:round;stroke:rgb(0%,0%,0%);stroke-opacity:1;stroke-miterlimit:3;" d="M -0.000077751 18.479254 L -0.000077751 43.989911 " transform="matrix(1.088286,0,0,1.077368,10.04696,-5.373808)"/>
<path style="fill:none;stroke-width:0.72;stroke-linecap:round;stroke-linejoin:round;stroke:rgb(0%,0%,0%);stroke-opacity:1;stroke-miterlimit:3;" d="M 4.249723 43.989911 L -0.000077751 43.989911 " transform="matrix(1.088286,0,0,1.077368,10.04696,-5.373808)"/>
<path style="fill:none;stroke-width:0.72;stroke-linecap:round;stroke-linejoin:round;stroke:rgb(0%,0%,0%);stroke-opacity:1;stroke-miterlimit:3;" d="M 17.009893 43.989911 L 8.499524 43.989911 " transform="matrix(1.088286,0,0,1.077368,10.04696,-5.373808)"/>
<path style="fill:none;stroke-width:0.72;stroke-linecap:round;stroke-linejoin:round;stroke:rgb(0%,0%,0%);stroke-opacity:1;stroke-miterlimit:3;" d="M 17.009893 18.479254 L 25.509494 18.479254 " transform="matrix(1.088286,0,0,1.077368,10.04696,-5.373808)"/>
<path style="fill:none;stroke-width:0.72;stroke-linecap:round;stroke-linejoin:round;stroke:rgb(0%,0%,0%);stroke-opacity:1;stroke-miterlimit:3;" d="M -0.000077751 18.479254 L 8.499524 18.479254 " transform="matrix(1.088286,0,0,1.077368,10.04696,-5.373808)"/>
<path style="fill:none;stroke-width:0.72;stroke-linecap:round;stroke-linejoin:round;stroke:rgb(0%,0%,0%);stroke-opacity:1;stroke-miterlimit:3;" d="M -0.000077751 17.061593 L -0.000077751 18.479254 " transform="matrix(1.088286,0,0,1.077368,10.04696,-5.373808)"/>
<path style="fill:none;stroke-width:0.72;stroke-linecap:round;stroke-linejoin:round;stroke:rgb(0%,0%,0%);stroke-opacity:1;stroke-miterlimit:3;" d="M 25.509494 17.061593 L 25.509494 9.980536 L -0.000077751 9.980536 L -0.000077751 17.061593 " transform="matrix(1.088286,0,0,1.077368,10.04696,-5.373808)"/>
<path style="fill:none;stroke-width:0.72;stroke-linecap:round;stroke-linejoin:round;stroke:rgb(0%,0%,0%);stroke-opacity:1;stroke-miterlimit:3;" d="M 8.499524 18.479254 L 8.499524 23.199958 " transform="matrix(1.088286,0,0,1.077368,10.04696,-5.373808)"/>
<path style="fill:none;stroke-width:0.72;stroke-linecap:round;stroke-linejoin:round;stroke:rgb(0%,0%,0%);stroke-opacity:1;stroke-miterlimit:3;" d="M 8.499524 38.319265 L 8.499524 33.602186 " transform="matrix(1.088286,0,0,1.077368,10.04696,-5.373808)"/>
<path style="fill:none;stroke-width:0.72;stroke-linecap:round;stroke-linejoin:round;stroke:rgb(0%,0%,0%);stroke-opacity:1;stroke-miterlimit:3;" d="M 8.499524 38.319265 L 17.009893 38.319265 " transform="matrix(1.088286,0,0,1.077368,10.04696,-5.373808)"/>
<path style="fill:none;stroke-width:0.72;stroke-linecap:round;stroke-linejoin:round;stroke:rgb(0%,0%,0%);stroke-opacity:1;stroke-miterlimit:3;" d="M 8.499524 26.977972 L 8.499524 30.451424 " transform="matrix(1.088286,0,0,1.077368,10.04696,-5.373808)"/>
<path style="fill:none;stroke-width:0.72;stroke-linecap:round;stroke-linejoin:round;stroke:rgb(0%,0%,0%);stroke-opacity:1;stroke-miterlimit:3;" d="M 17.009893 38.319265 L 17.009893 33.602186 " transform="matrix(1.088286,0,0,1.077368,10.04696,-5.373808)"/>
<path style="fill:none;stroke-width:0.72;stroke-linecap:round;stroke-linejoin:round;stroke:rgb(0%,0%,0%);stroke-opacity:1;stroke-miterlimit:3;" d="M 17.009893 26.977972 L 17.009893 30.53119 " transform="matrix(1.088286,0,0,1.077368,10.04696,-5.373808)"/>
<path style="fill:none;stroke-width:0.72;stroke-linecap:round;stroke-linejoin:round;stroke:rgb(0%,0%,0%);stroke-opacity:1;stroke-miterlimit:3;" d="M 17.009893 18.479254 L 17.009893 23.199958 " transform="matrix(1.088286,0,0,1.077368,10.04696,-5.373808)"/>
<path style="fill:none;stroke-width:0.72;stroke-linecap:round;stroke-linejoin:round;stroke:rgb(0%,0%,0%);stroke-opacity:1;stroke-miterlimit:3;" d="M 25.509494 43.989911 L 21.259693 43.989911 " transform="matrix(1.088286,0,0,1.077368,10.04696,-5.373808)"/>
<path style="fill:none;stroke-width:0.72;stroke-linecap:round;stroke-linejoin:round;stroke:rgb(0%,0%,0%);stroke-opacity:1;stroke-miterlimit:3;" d="M 25.509494 45.411198 L 25.509494 43.989911 " transform="matrix(1.088286,0,0,1.077368,10.04696,-5.373808)"/>
<path style="fill:none;stroke-width:0.72;stroke-linecap:round;stroke-linejoin:round;stroke:rgb(0%,0%,0%);stroke-opacity:1;stroke-miterlimit:3;" d="M 25.509494 43.989911 L 25.509494 18.479254 " transform="matrix(1.088286,0,0,1.077368,10.04696,-5.373808)"/>
</g>
</svg>
