<?xml version="1.0" encoding="UTF-8"?>
<!--
/*******************************************************************************
* Copyright (c) 2010-2018 ITER Organization.
* All rights reserved. This program and the accompanying materials
* are made available under the terms of the Eclipse Public License v1.0
* which accompanies this distribution, and is available at
* http://www.eclipse.org/legal/epl-v10.html
******************************************************************************/
-->
<svg xmlns="http://www.w3.org/2000/svg" xmlns:xlink="http://www.w3.org/1999/xlink" width="48pt" height="57pt" viewBox="0 0 48 57" version="1.1">
<g id="surface1">
<path style=" stroke:none;fill-rule:evenodd;fill:rgb(100%,100%,100%);fill-opacity:1;" d="M 0.785156 0.777344 L 0.800781 0.777344 L 0.800781 0.792969 L 0.785156 0.792969 Z M 0.785156 0.777344 "/>
<path style=" stroke:none;fill-rule:evenodd;fill:rgb(100%,100%,100%);fill-opacity:1;" d="M 47.066406 55.765625 L 47.082031 55.765625 L 47.082031 55.78125 L 47.066406 55.78125 Z M 47.066406 55.765625 "/>
<path style=" stroke:none;fill-rule:evenodd;fill:rgb(100%,100%,100%);fill-opacity:1;" d="M 9.902344 51.101562 L 37.664062 51.101562 L 37.664062 5.289062 L 9.902344 5.289062 Z M 9.902344 51.101562 "/>
<path style="fill:none;stroke-width:0.72;stroke-linecap:round;stroke-linejoin:round;stroke:rgb(0%,0%,0%);stroke-opacity:1;stroke-miterlimit:3;" d="M 12.890363 43.990937 L 25.650533 35.492219 " transform="matrix(1.088286,0,0,1.077368,9.901281,-5.288975)"/>
<path style="fill:none;stroke-width:0.72;stroke-linecap:round;stroke-linejoin:round;stroke:rgb(0%,0%,0%);stroke-opacity:1;stroke-miterlimit:3;" d="M 0.000976217 52.341 L 25.510548 52.341 L 25.510548 9.818404 L 0.000976217 9.818404 L 0.000976217 52.341 " transform="matrix(1.088286,0,0,1.077368,9.901281,-5.288975)"/>
<path style="fill:none;stroke-width:0.72;stroke-linecap:round;stroke-linejoin:round;stroke:rgb(0%,0%,0%);stroke-opacity:1;stroke-miterlimit:3;" d="M 0.130193 43.990937 L 0.130193 52.500532 " transform="matrix(1.088286,0,0,1.077368,9.901281,-5.288975)"/>
<path style="fill:none;stroke-width:0.72;stroke-linecap:round;stroke-linejoin:round;stroke:rgb(0%,0%,0%);stroke-opacity:1;stroke-miterlimit:3;" d="M 0.130193 52.500532 L 12.890363 52.500532 " transform="matrix(1.088286,0,0,1.077368,9.901281,-5.288975)"/>
<path style="fill:none;stroke-width:0.72;stroke-linecap:round;stroke-linejoin:round;stroke:rgb(0%,0%,0%);stroke-opacity:1;stroke-miterlimit:3;" d="M 0.130193 43.990937 L 12.890363 52.500532 " transform="matrix(1.088286,0,0,1.077368,9.901281,-5.288975)"/>
<path style="fill:none;stroke-width:0.72;stroke-linecap:round;stroke-linejoin:round;stroke:rgb(0%,0%,0%);stroke-opacity:1;stroke-miterlimit:3;" d="M 0.130193 35.492219 L 12.890363 43.990937 " transform="matrix(1.088286,0,0,1.077368,9.901281,-5.288975)"/>
<path style="fill:none;stroke-width:0.72;stroke-linecap:round;stroke-linejoin:round;stroke:rgb(0%,0%,0%);stroke-opacity:1;stroke-miterlimit:3;" d="M 25.650533 43.990937 L 25.650533 9.981562 L 0.130193 9.981562 L 0.130193 43.990937 " transform="matrix(1.088286,0,0,1.077368,9.901281,-5.288975)"/>
<path style="fill:none;stroke-width:0.72;stroke-linecap:round;stroke-linejoin:round;stroke:rgb(0%,0%,0%);stroke-opacity:1;stroke-miterlimit:3;" d="M 12.890363 52.500532 L 25.650533 52.500532 L 25.650533 43.990937 " transform="matrix(1.088286,0,0,1.077368,9.901281,-5.288975)"/>
<path style="fill:none;stroke-width:0.72;stroke-linecap:round;stroke-linejoin:round;stroke:rgb(0%,0%,0%);stroke-opacity:1;stroke-miterlimit:3;" d="M 12.890363 52.500532 L 25.650533 43.990937 " transform="matrix(1.088286,0,0,1.077368,9.901281,-5.288975)"/>
</g>
</svg>
