<?xml version="1.0" encoding="UTF-8"?>
<!--
/*******************************************************************************
* Copyright (c) 2010-2018 ITER Organization.
* All rights reserved. This program and the accompanying materials
* are made available under the terms of the Eclipse Public License v1.0
* which accompanies this distribution, and is available at
* http://www.eclipse.org/legal/epl-v10.html
******************************************************************************/
-->
<svg xmlns="http://www.w3.org/2000/svg" xmlns:xlink="http://www.w3.org/1999/xlink" width="48pt" height="57pt" viewBox="0 0 48 57" version="1.1">
<g id="surface1">
<path style=" stroke:none;fill-rule:evenodd;fill:rgb(100%,100%,100%);fill-opacity:1;" d="M 0.785156 0.777344 L 0.800781 0.777344 L 0.800781 0.792969 L 0.785156 0.792969 Z M 0.785156 0.777344 "/>
<path style=" stroke:none;fill-rule:evenodd;fill:rgb(100%,100%,100%);fill-opacity:1;" d="M 47.066406 55.765625 L 47.082031 55.765625 L 47.082031 55.78125 L 47.066406 55.78125 Z M 47.066406 55.765625 "/>
<path style="fill-rule:evenodd;fill:rgb(100%,100%,100%);fill-opacity:1;stroke-width:0.72;stroke-linecap:round;stroke-linejoin:round;stroke:rgb(0%,0%,0%);stroke-opacity:1;stroke-miterlimit:3;" d="M 0.000306852 9.977146 L 25.513468 9.977146 L 25.513468 52.496094 L 0.000306852 52.496094 Z M 0.000306852 9.977146 " transform="matrix(1.088286,0,0,1.077369,9.519197,-5.366255)"/>
<path style="fill:none;stroke-width:0.72;stroke-linecap:round;stroke-linejoin:round;stroke:rgb(0%,0%,0%);stroke-opacity:1;stroke-dasharray:5.04,3.6;stroke-miterlimit:3;" d="M 0.000306852 52.502429 L 25.509879 52.502429 " transform="matrix(1.088286,0,0,1.077369,9.519197,-42.013706)"/>
<path style="fill:none;stroke-width:0.72;stroke-linecap:round;stroke-linejoin:round;stroke:rgb(0%,0%,0%);stroke-opacity:1;stroke-dasharray:5.04,3.6;stroke-miterlimit:3;" d="M 0.000306852 52.497692 L 25.509879 52.497692 " transform="matrix(1.088286,0,0,1.077369,9.519197,-14.528134)"/>
<path style="fill:none;stroke-width:0.72;stroke-linecap:round;stroke-linejoin:round;stroke:rgb(0%,0%,0%);stroke-opacity:1;stroke-miterlimit:3;" d="M 0.000306852 52.50087 L 25.509879 52.50087 " transform="matrix(1.088286,0,0,1.077369,9.519197,-32.85187)"/>
<path style="fill:none;stroke-width:0.72;stroke-linecap:round;stroke-linejoin:round;stroke:rgb(0%,0%,0%);stroke-opacity:1;stroke-miterlimit:3;" d="M 0.000306852 52.499311 L 25.509879 52.499311 " transform="matrix(1.088286,0,0,1.077369,9.519197,-23.690034)"/>
</g>
</svg>
