<?xml version="1.0" encoding="UTF-8"?>
<!--
/*******************************************************************************
* Copyright (c) 2010-2018 ITER Organization.
* All rights reserved. This program and the accompanying materials
* are made available under the terms of the Eclipse Public License v1.0
* which accompanies this distribution, and is available at
* http://www.eclipse.org/legal/epl-v10.html
******************************************************************************/
-->
<svg xmlns="http://www.w3.org/2000/svg" xmlns:xlink="http://www.w3.org/1999/xlink" width="29pt" height="46pt" viewBox="0 0 29 46" version="1.1">
<g id="surface0">
<path style="fill:none;stroke-width:0.72;stroke-linecap:round;stroke-linejoin:round;stroke:rgb(0%,0%,0%);stroke-opacity:1;stroke-miterlimit:3;" d="M 0.0000922115 43.962639 L 6.267682 43.962639 " transform="matrix(1.062011,0,0,1.040379,10.980371,-41.374515)"/>
<path style=" stroke:none;fill-rule:evenodd;fill:rgb(100%,100%,100%);fill-opacity:1;" d="M 10.980469 4.359375 L 4.324219 4.359375 L 4.324219 11.132812 L 0.765625 11.132812 L 0.765625 17.90625 L 4.324219 17.90625 L 4.324219 44.984375 L 24.308594 44.984375 L 24.308594 17.90625 L 27.855469 17.90625 L 27.855469 11.132812 L 24.308594 11.132812 L 24.308594 4.359375 L 17.640625 4.359375 L 17.640625 0.75 L 10.980469 0.75 Z M 10.980469 4.359375 "/>
<path style="fill:none;stroke-width:0.72;stroke-linecap:round;stroke-linejoin:round;stroke:rgb(0%,0%,0%);stroke-opacity:1;stroke-miterlimit:3;" d="M 3.351702 7.681107 L 22.169183 7.681107 " transform="matrix(1.062011,0,0,1.040379,0.764674,-0.749073)"/>
<path style="fill:none;stroke-width:0.72;stroke-linecap:round;stroke-linejoin:round;stroke:rgb(0%,0%,0%);stroke-opacity:1;stroke-miterlimit:3;" d="M 9.619291 4.910181 L 3.351702 4.910181 L 3.351702 11.42073 L 0.000895541 11.42073 L 0.000895541 17.93128 L 3.351702 17.93128 L 3.351702 43.958459 L 22.169183 43.958459 L 22.169183 17.93128 L 25.508955 17.93128 L 25.508955 11.42073 L 22.169183 11.42073 L 22.169183 4.910181 L 15.890559 4.910181 L 15.890559 1.440891 L 9.619291 1.440891 L 9.619291 4.910181 " transform="matrix(1.062011,0,0,1.040379,0.764674,-0.749073)"/>
<path style="fill:none;stroke-width:0.72;stroke-linecap:round;stroke-linejoin:round;stroke:rgb(0%,0%,0%);stroke-opacity:1;stroke-miterlimit:3;" d="M 3.351702 11.42073 L 3.351702 17.93128 " transform="matrix(1.062011,0,0,1.040379,0.764674,-0.749073)"/>
<path style="fill:none;stroke-width:0.72;stroke-linecap:round;stroke-linejoin:round;stroke:rgb(0%,0%,0%);stroke-opacity:1;stroke-miterlimit:3;" d="M 22.169183 11.42073 L 22.169183 17.93128 " transform="matrix(1.062011,0,0,1.040379,0.764674,-0.749073)"/>
</g>
</svg>
