<?xml version="1.0" encoding="UTF-8"?>
<!--
/*******************************************************************************
* Copyright (c) 2010-2018 ITER Organization.
* All rights reserved. This program and the accompanying materials
* are made available under the terms of the Eclipse Public License v1.0
* which accompanies this distribution, and is available at
* http://www.eclipse.org/legal/epl-v10.html
******************************************************************************/
-->
<svg xmlns="http://www.w3.org/2000/svg" xmlns:xlink="http://www.w3.org/1999/xlink" width="67pt" height="75pt" viewBox="0 0 67 75" version="1.1">
<g id="surface0">
<path style="fill:none;stroke-width:0.72;stroke-linecap:butt;stroke-linejoin:miter;stroke:rgb(0%,0%,0%);stroke-opacity:1;stroke-miterlimit:3;" d="M 8.01749 69.472027 L -0.00214528 69.472027 L 4.009468 67.700326 Z M 8.01749 69.472027 " transform="matrix(1.087662,0,0,1.075944,43.721083,-56.154233)"/>
<path style="fill:none;stroke-width:0.72;stroke-linecap:butt;stroke-linejoin:miter;stroke:rgb(0%,0%,0%);stroke-opacity:1;stroke-miterlimit:3;" d="M 5.337624 66.440322 C 5.387904 65.351161 4.888697 64.316459 4.044713 63.757357 C 3.197139 63.198255 2.141262 63.198255 1.297279 63.757357 C 0.449704 64.316459 -0.0495028 65.351161 0.000777094 66.440322 C -0.0495028 67.529482 0.449704 68.560554 1.297279 69.123286 C 2.141262 69.682389 3.197139 69.682389 4.044713 69.123286 C 4.888697 68.560554 5.387904 67.529482 5.337624 66.440322 Z M 5.337624 66.440322 " transform="matrix(1.087662,0,0,1.075944,30.643686,-29.341507)"/>
<path style="fill:none;stroke-width:0.72;stroke-linecap:butt;stroke-linejoin:miter;stroke:rgb(0%,0%,0%);stroke-opacity:1;stroke-miterlimit:3;" d="M 32.078702 69.467788 L 0.000158748 69.467788 " transform="matrix(1.087662,0,0,1.075944,1.566234,-0.774672)"/>
<path style="fill:none;stroke-width:0.72;stroke-linecap:butt;stroke-linejoin:miter;stroke:rgb(0%,0%,0%);stroke-opacity:1;stroke-miterlimit:3;" d="M 26.728772 16.229635 C 26.811375 10.885489 24.283017 5.908027 20.113381 3.206909 C 15.943745 0.509422 10.782878 0.509422 6.616833 3.206909 C 2.447197 5.908027 -0.084752 10.885489 0.00144203 16.229635 L 0.00144203 69.467788 " transform="matrix(1.087662,0,0,1.075944,19.006244,-0.774672)"/>
<path style="fill:none;stroke-width:0.72;stroke-linecap:butt;stroke-linejoin:miter;stroke:rgb(0%,0%,0%);stroke-opacity:1;stroke-miterlimit:3;" d="M 0.00144203 60.39831 L 13.390247 60.39831 L 13.390247 69.471015 " transform="matrix(1.087662,0,0,1.075944,19.006244,-35.571112)"/>
<path style="fill:none;stroke-width:0.72;stroke-linecap:round;stroke-linejoin:round;stroke:rgb(0%,0%,0%);stroke-opacity:1;stroke-miterlimit:3;" d="M 32.078776 63.560797 L 32.078776 69.467676 L 0.000233425 69.467676 " transform="matrix(1.087662,0,0,1.075944,19.011465,-13.50502)"/>
<path style="fill:none;stroke-width:0.72;stroke-linecap:round;stroke-linejoin:round;stroke:rgb(0%,0%,0%);stroke-opacity:1;stroke-miterlimit:3;" d="M 21.377739 57.631704 L 21.377739 69.470876 L 0.00162133 69.470876 L 0.00162133 57.631704 L 21.377739 57.631704 L 16.030118 51.721194 " transform="matrix(1.087662,0,0,1.075944,42.27558,-19.863931)"/>
<path style="fill:none;stroke-width:0.72;stroke-linecap:round;stroke-linejoin:round;stroke:rgb(0%,0%,0%);stroke-opacity:1;stroke-miterlimit:3;" d="M 0.00162133 57.631704 L 21.377739 57.631704 L 21.377739 69.470876 L 0.00162133 69.470876 Z M 0.00162133 57.631704 " transform="matrix(1.087662,0,0,1.075944,42.27558,-19.863931)"/>
<path style="fill:none;stroke-width:0.72;stroke-linecap:round;stroke-linejoin:round;stroke:rgb(0%,0%,0%);stroke-opacity:1;stroke-miterlimit:3;" d="M 0.001051 67.889954 L 1.419661 69.469237 " transform="matrix(1.087662,0,0,1.075944,47.315263,-38.112168)"/>
<path style="fill:none;stroke-width:0.72;stroke-linecap:round;stroke-linejoin:round;stroke:rgb(0%,0%,0%);stroke-opacity:1;stroke-miterlimit:3;" d="M 0.00162133 69.471821 L 5.342059 63.561312 " transform="matrix(1.087662,0,0,1.075944,42.27558,-32.60323)"/>
<path style="fill:none;stroke-width:0.72;stroke-linecap:round;stroke-linejoin:round;stroke:rgb(0%,0%,0%);stroke-opacity:1;stroke-miterlimit:3;" d="M 1.421713 67.889954 L -0.000488108 69.469237 " transform="matrix(1.087662,0,0,1.075944,58.941937,-38.112168)"/>
</g>
</svg>
