<?xml version="1.0" encoding="UTF-8"?>
<!--
/*******************************************************************************
* Copyright (c) 2010-2018 ITER Organization.
* All rights reserved. This program and the accompanying materials
* are made available under the terms of the Eclipse Public License v1.0
* which accompanies this distribution, and is available at
* http://www.eclipse.org/legal/epl-v10.html
******************************************************************************/
-->
<svg xmlns="http://www.w3.org/2000/svg" xmlns:xlink="http://www.w3.org/1999/xlink" width="53pt" height="29pt" viewBox="0 0 53 29" version="1.1">
<g id="surface0">
<path style="fill-rule:evenodd;fill:rgb(100%,100%,100%);fill-opacity:1;stroke-width:0.72;stroke-linecap:round;stroke-linejoin:round;stroke:rgb(0%,0%,0%);stroke-opacity:1;stroke-miterlimit:3;" d="M 12.330891 20.787298 C 12.330891 17.381323 9.570374 14.622703 6.164493 14.622703 C 2.762342 14.622703 0.00182524 17.381323 0.00182524 20.787298 C 0.00182524 24.193273 2.762342 26.951892 6.164493 26.951892 C 9.570374 26.951892 12.330891 24.193273 12.330891 20.787298 Z M 12.330891 20.787298 " transform="matrix(1.047132,0,0,1.062012,12.107464,-3.248241)"/>
<path style="fill:none;stroke-width:0.72;stroke-linecap:round;stroke-linejoin:round;stroke:rgb(0%,0%,0%);stroke-opacity:1;stroke-miterlimit:3;" d="M 34.021478 26.948943 L -0.0000275571 26.948943 C -0.0000275571 17.554925 7.617507 9.941136 17.010725 9.941136 C 26.403944 9.941136 34.021478 17.554925 34.021478 26.948943 Z M 34.021478 26.948943 " transform="matrix(1.047132,0,0,1.062012,0.753935,-0.76464)"/>
<path style="fill:none;stroke-width:0.72;stroke-linecap:round;stroke-linejoin:round;stroke:rgb(0%,0%,0%);stroke-opacity:1;stroke-miterlimit:3;" d="M -0.000908727 26.949036 L 19.028006 26.949036 " transform="matrix(1.047132,0,0,1.062012,18.563452,-18.827239)"/>
<path style=" stroke:none;fill-rule:evenodd;fill:rgb(0%,0%,0%);fill-opacity:1;" d="M 38.488281 6.351562 L 45.273438 9.792969 L 38.488281 13.234375 L 38.488281 6.351562 "/>
</g>
</svg>
