<?xml version="1.0" encoding="UTF-8"?>
<!--
/*******************************************************************************
* Copyright (c) 2010-2016 ITER Organization.
* All rights reserved. This program and the accompanying materials
* are made available under the terms of the Eclipse Public License v1.0
* which accompanies this distribution, and is available at
* http://www.eclipse.org/legal/epl-v10.html
******************************************************************************/
-->
<svg xmlns="http://www.w3.org/2000/svg" xmlns:xlink="http://www.w3.org/1999/xlink" width="29pt" height="29pt" viewBox="0 0 29 29" version="1.1">
<g id="surface1">
<path style=" stroke:none;fill-rule:evenodd;fill:rgb(100%,100%,100%);fill-opacity:1;" d="M 1.199219 0.761719 L 1.21875 0.761719 L 1.21875 0.777344 L 1.199219 0.777344 Z "/>
<path style=" stroke:none;fill-rule:evenodd;fill:rgb(100%,100%,100%);fill-opacity:1;" d="M 28.167969 27.734375 L 28.1875 27.734375 L 28.1875 27.75 L 28.167969 27.75 Z "/>
<path style="fill-rule:evenodd;fill:rgb(100%,100%,100%);fill-opacity:1;stroke-width:1.352;stroke-linecap:round;stroke-linejoin:round;stroke:rgb(0%,0%,0%);stroke-opacity:1;stroke-miterlimit:4;" d="M 16.583046 33.46866 L 16.583046 17.530543 L 48.473126 33.46866 L 48.473126 17.530543 Z " transform="matrix(0.564194,0,0,0.564194,-3.965428,0)"/>
<path style="fill:none;stroke-width:0.721066;stroke-linecap:round;stroke-linejoin:round;stroke:rgb(0%,0%,0%);stroke-opacity:1;stroke-miterlimit:4;" d="M 0.00245867 26.949872 L 24.740033 26.949896 " transform="matrix(0.946182,-0.473092,0.473092,0.946182,-11.607563,-4.467061)"/>
<path style=" stroke:none;fill-rule:evenodd;fill:rgb(0%,0%,0%);fill-opacity:1;" d="M 23.019531 7.539063 L 28.128906 7.539063 L 25.09375 11.59375 C 25.082031 9.992188 24.328125 8.488281 23.050781 7.523438 "/>
<path style="fill:none;stroke-width:1.689;stroke-linecap:round;stroke-linejoin:round;stroke:rgb(0%,0%,0%);stroke-opacity:1;stroke-miterlimit:3;" d="M 0.84538 0.849904 L 11.550992 0.849904 " transform="matrix(0.451355,0,0,0.451355,-0.00266012,14.00311)"/>
<path style="fill:none;stroke-width:1.689;stroke-linecap:round;stroke-linejoin:round;stroke:rgb(0%,0%,0%);stroke-opacity:1;stroke-miterlimit:3;" d="M 52.227124 0.849904 L 62.889464 0.849904 " transform="matrix(0.451355,0,0,0.451355,-0.00266012,14.00311)"/>
<path style="fill-rule:evenodd;fill:rgb(65.098039%,65.098039%,65.098039%);fill-opacity:1;stroke-width:1.665354;stroke-linecap:round;stroke-linejoin:round;stroke:rgb(0%,0%,0%);stroke-opacity:1;stroke-miterlimit:4;" d="M 0.848998 0.845271 L 0.848998 20.767921 M 0.848998 20.767921 L 20.762994 10.806596 L 0.848998 0.845271 " transform="matrix(0.451355,0,0,0.451355,5.02305,9.509108)"/>
</g>
</svg>
