<?xml version="1.0" encoding="UTF-8"?>
<!--
/*******************************************************************************
* Copyright (c) 2010-2018 ITER Organization.
* All rights reserved. This program and the accompanying materials
* are made available under the terms of the Eclipse Public License v1.0
* which accompanies this distribution, and is available at
* http://www.eclipse.org/legal/epl-v10.html
******************************************************************************/
-->
<svg xmlns="http://www.w3.org/2000/svg" xmlns:xlink="http://www.w3.org/1999/xlink" width="29pt" height="29pt" viewBox="0 0 29 29" version="1.1">
<g id="surface0">
<path style=" stroke:none;fill-rule:evenodd;fill:rgb(100%,100%,100%);fill-opacity:1;" d="M 1.21875 0.777344 L 1.234375 0.777344 L 1.234375 0.792969 L 1.21875 0.792969 Z M 1.21875 0.777344 "/>
<path style=" stroke:none;fill-rule:evenodd;fill:rgb(100%,100%,100%);fill-opacity:1;" d="M 28.617188 28.175781 L 28.636719 28.175781 L 28.636719 28.191406 L 28.617188 28.191406 Z M 28.617188 28.175781 "/>
<path style="fill-rule:evenodd;fill:rgb(65.098039%,65.098039%,65.098039%);fill-opacity:1;stroke-width:1.352;stroke-linecap:round;stroke-linejoin:round;stroke:rgb(0%,0%,0%);stroke-opacity:1;stroke-miterlimit:4;" d="M 16.583695 33.470499 L 16.583695 17.529245 L 48.473017 33.470499 L 48.473017 17.529245 Z M 16.583695 33.470499 " transform="matrix(0.573149,0,0,0.573149,-4.028371,0)"/>
<path style="fill:none;stroke-width:0.721066;stroke-linecap:round;stroke-linejoin:round;stroke:rgb(0%,0%,0%);stroke-opacity:1;stroke-miterlimit:4;" d="M -0.000534444 26.950569 L 24.740652 26.950592 " transform="matrix(0.9612,-0.480601,0.480601,0.9612,-11.79181,-4.537967)"/>
<path style=" stroke:none;fill-rule:evenodd;fill:rgb(0%,0%,0%);fill-opacity:1;" d="M 23.382812 7.660156 L 28.574219 7.660156 L 25.492188 11.777344 C 25.480469 10.148438 24.714844 8.621094 23.414062 7.644531 "/>
<path style="fill:none;stroke-width:1.345922;stroke-linecap:round;stroke-linejoin:round;stroke:rgb(0%,0%,0%);stroke-opacity:1;stroke-miterlimit:3;" d="M 0.672091 25.003125 L 9.198815 25.003125 " transform="matrix(0.575397,0,0,0.575397,0,0)"/>
<path style="fill:none;stroke-width:1.345922;stroke-linecap:round;stroke-linejoin:round;stroke:rgb(0%,0%,0%);stroke-opacity:1;stroke-miterlimit:3;" d="M 41.615302 25.003125 L 50.114871 25.003125 " transform="matrix(0.575397,0,0,0.575397,0,0)"/>
</g>
</svg>
