<?xml version="1.0" encoding="UTF-8"?>
<!--
/*******************************************************************************
* Copyright (c) 2010-2018 ITER Organization.
* All rights reserved. This program and the accompanying materials
* are made available under the terms of the Eclipse Public License v1.0
* which accompanies this distribution, and is available at
* http://www.eclipse.org/legal/epl-v10.html
******************************************************************************/
-->
<svg xmlns="http://www.w3.org/2000/svg" xmlns:xlink="http://www.w3.org/1999/xlink" width="29pt" height="29pt" viewBox="0 0 29 29" version="1.1">
<g id="surface0">
<path style=" stroke:none;fill-rule:evenodd;fill:rgb(100%,100%,100%);fill-opacity:1;" d="M 0.785156 0.386719 L 0.800781 0.386719 L 0.800781 0.402344 L 0.785156 0.402344 Z M 0.785156 0.386719 "/>
<path style=" stroke:none;fill-rule:evenodd;fill:rgb(100%,100%,100%);fill-opacity:1;" d="M 28.183594 27.789062 L 28.199219 27.789062 L 28.199219 27.800781 L 28.183594 27.800781 Z M 28.183594 27.789062 "/>
<path style="fill-rule:nonzero;fill:rgb(100%,100%,100%);fill-opacity:1;stroke-width:1.3504;stroke-linecap:round;stroke-linejoin:round;stroke:rgb(0%,0%,0%);stroke-opacity:1;stroke-miterlimit:3.285714;" d="M -56.847934 14.037503 L -50.37329 14.037503 L -50.37329 1.088216 L -63.322577 1.088216 L -63.322577 14.037503 L -56.847934 14.037503 " transform="matrix(0.573149,0,0,0.573149,47.207355,0.75129)"/>
<path style="fill:none;stroke-width:1.3504;stroke-linecap:round;stroke-linejoin:round;stroke:rgb(0%,0%,0%);stroke-opacity:1;stroke-miterlimit:3.285714;" d="M -56.847934 14.582736 L -56.847934 22.584032 " transform="matrix(0.573149,0,0,0.573149,47.207355,0.75129)"/>
<path style="fill-rule:evenodd;fill:rgb(65.098039%,65.098039%,65.098039%);fill-opacity:1;stroke-width:1.3504;stroke-linecap:round;stroke-linejoin:round;stroke:rgb(0%,0%,0%);stroke-opacity:1;stroke-miterlimit:3.285714;" d="M -72.809633 15.543709 L -72.809633 31.478147 M -72.809633 31.478147 L -56.86838 23.510928 L -72.809633 15.543709 " transform="matrix(0.573149,0,0,0.573149,47.207355,0.75129)"/>
<path style="fill-rule:evenodd;fill:rgb(100%,100%,100%);fill-opacity:1;stroke-width:1.3504;stroke-linecap:round;stroke-linejoin:round;stroke:rgb(0%,0%,0%);stroke-opacity:1;stroke-miterlimit:3.285714;" d="M -57.386351 23.510928 L -41.438282 31.478147 L -41.438282 15.543709 L -57.386351 23.510928 " transform="matrix(0.573149,0,0,0.573149,47.207355,0.75129)"/>
<path style="fill-rule:evenodd;fill:rgb(65.098039%,65.098039%,65.098039%);fill-opacity:1;stroke-width:1.3504;stroke-linecap:round;stroke-linejoin:round;stroke:rgb(0%,0%,0%);stroke-opacity:1;stroke-miterlimit:3.285714;" d="M -57.086473 23.715391 L -65.053692 39.656644 L -49.098808 39.656644 Z M -57.086473 23.715391 " transform="matrix(0.573149,0,0,0.573149,47.207355,0.75129)"/>
<path style="fill:none;stroke-width:1.345125;stroke-linecap:round;stroke-linejoin:round;stroke:rgb(0%,0%,0%);stroke-opacity:1;stroke-miterlimit:3.285714;" d="M 0.678879 25.003125 L 9.205603 25.003125 " transform="matrix(0.575397,0,0,0.575397,0,0)"/>
<path style="fill:none;stroke-width:1.345125;stroke-linecap:round;stroke-linejoin:round;stroke:rgb(0%,0%,0%);stroke-opacity:1;stroke-miterlimit:3.285714;" d="M 41.622091 25.003125 L 50.121659 25.003125 " transform="matrix(0.575397,0,0,0.575397,0,0)"/>
<path style="fill:none;stroke-width:1.345125;stroke-linecap:round;stroke-linejoin:round;stroke:rgb(0%,0%,0%);stroke-opacity:1;stroke-miterlimit:3.285714;" d="M 25.003125 40.956789 L 25.003125 49.456358 " transform="matrix(0.575397,0,0,0.575397,0,0)"/>
</g>
</svg>
