<?xml version="1.0" encoding="UTF-8"?>
<!--
/*******************************************************************************
* Copyright (c) 2010-2016 ITER Organization.
* All rights reserved. This program and the accompanying materials
* are made available under the terms of the Eclipse Public License v1.0
* which accompanies this distribution, and is available at
* http://www.eclipse.org/legal/epl-v10.html
******************************************************************************/
-->
<svg xmlns="http://www.w3.org/2000/svg" xmlns:xlink="http://www.w3.org/1999/xlink" width="29pt" height="29pt" viewBox="0 0 29 29" version="1.1">
<g id="surface1">
<path style="fill-rule:nonzero;fill:rgb(100%,100%,100%);fill-opacity:1;stroke-width:1.3504;stroke-linecap:round;stroke-linejoin:round;stroke:rgb(0%,0%,0%);stroke-opacity:1;stroke-miterlimit:3;" d="M 25.499601 16.457386 L 31.973163 16.457386 L 31.973163 3.503339 L 19.02604 3.503339 L 19.02604 16.457386 L 25.499601 16.457386 " transform="matrix(0.564194,0,0,0.564194,0,0)"/>
<path style=" stroke:none;fill-rule:evenodd;fill:rgb(100%,100%,100%);fill-opacity:1;" d="M 0.761719 0.761719 L 0.777344 0.761719 L 0.777344 0.777344 L 0.761719 0.777344 Z "/>
<path style=" stroke:none;fill-rule:evenodd;fill:rgb(100%,100%,100%);fill-opacity:1;" d="M 27.734375 27.734375 L 27.75 27.734375 L 27.75 27.75 L 27.734375 27.75 Z "/>
<path style="fill:none;stroke-width:1.3504;stroke-linecap:round;stroke-linejoin:round;stroke:rgb(0%,0%,0%);stroke-opacity:1;stroke-miterlimit:3;" d="M -65.110451 18.294724 L -65.110451 26.2984 " transform="matrix(0.564194,0,0,0.564194,51.121636,-0.731927)"/>
<path style="fill-rule:evenodd;fill:rgb(100%,100%,100%);fill-opacity:1;stroke-width:1.3504;stroke-linecap:round;stroke-linejoin:round;stroke:rgb(0%,0%,0%);stroke-opacity:1;stroke-miterlimit:3;" d="M 9.554561 33.46866 L 9.554561 17.530543 L 41.444641 33.46866 L 41.444641 17.530543 Z " transform="matrix(0.564194,0,0,0.564194,0,0)"/>
<path style="fill:none;stroke-width:1.688;stroke-linecap:round;stroke-linejoin:round;stroke:rgb(0%,0%,0%);stroke-opacity:1;stroke-miterlimit:3;" d="M 0.848548 0.849904 L 11.55416 0.849904 " transform="matrix(0.451355,0,0,0.451355,-0.00799647,14.00311)"/>
<path style="fill:none;stroke-width:1.688;stroke-linecap:round;stroke-linejoin:round;stroke:rgb(0%,0%,0%);stroke-opacity:1;stroke-miterlimit:3;" d="M 52.230293 0.849904 L 62.892632 0.849904 " transform="matrix(0.451355,0,0,0.451355,-0.00799647,14.00311)"/>
<path style="fill-rule:evenodd;fill:rgb(65.098039%,65.098039%,65.098039%);fill-opacity:1;stroke-width:1.3504;stroke-linecap:round;stroke-linejoin:round;stroke:rgb(0%,0%,0%);stroke-opacity:1;stroke-miterlimit:3.285714;" d="M 9.326083 17.516696 L 9.326083 33.454812 M 9.326083 33.454812 L 25.264199 25.485754 L 9.326083 17.516696 " transform="matrix(0.564194,0,0,0.564194,0,0)"/>
</g>
</svg>
