<?xml version="1.0" encoding="UTF-8"?>
<!--
/*******************************************************************************
* Copyright (c) 2010-2016 ITER Organization.
* All rights reserved. This program and the accompanying materials
* are made available under the terms of the Eclipse Public License v1.0
* which accompanies this distribution, and is available at
* http://www.eclipse.org/legal/epl-v10.html
******************************************************************************/
-->
<svg xmlns="http://www.w3.org/2000/svg" xmlns:xlink="http://www.w3.org/1999/xlink" width="29pt" height="29pt" viewBox="0 0 29 29" version="1.1">
<g id="surface1">
<path style=" stroke:none;fill-rule:evenodd;fill:rgb(100%,100%,100%);fill-opacity:1;" d="M 0.773438 0.378906 L 0.789063 0.378906 L 0.789063 0.394531 L 0.773438 0.394531 Z "/>
<path style=" stroke:none;fill-rule:evenodd;fill:rgb(100%,100%,100%);fill-opacity:1;" d="M 27.742188 27.351563 L 27.757813 27.351563 L 27.757813 27.367188 L 27.742188 27.367188 Z "/>
<path style="fill-rule:nonzero;fill:rgb(100%,100%,100%);fill-opacity:1;stroke-width:1.3504;stroke-linecap:round;stroke-linejoin:round;stroke:rgb(0%,0%,0%);stroke-opacity:1;stroke-miterlimit:3.285714;" d="M -56.844472 14.038801 L -50.37091 14.038801 L -50.37091 1.091678 L -63.324957 1.091678 L -63.324957 14.038801 L -56.844472 14.038801 " transform="matrix(0.564194,0,0,0.564194,46.46974,0.739551)"/>
<path style="fill:none;stroke-width:1.3504;stroke-linecap:round;stroke-linejoin:round;stroke:rgb(0%,0%,0%);stroke-opacity:1;stroke-miterlimit:3.285714;" d="M -56.844472 14.585765 L -56.844472 22.582517 " transform="matrix(0.564194,0,0,0.564194,46.46974,0.739551)"/>
<path style="fill-rule:evenodd;fill:rgb(65.098039%,65.098039%,65.098039%);fill-opacity:1;stroke-width:1.3504;stroke-linecap:round;stroke-linejoin:round;stroke:rgb(0%,0%,0%);stroke-opacity:1;stroke-miterlimit:3.285714;" d="M -72.810283 15.541221 L -72.810283 31.479337 M -72.810283 31.479337 L -56.872166 23.510279 L -72.810283 15.541221 " transform="matrix(0.564194,0,0,0.564194,46.46974,0.739551)"/>
<path style="fill-rule:evenodd;fill:rgb(100%,100%,100%);fill-opacity:1;stroke-width:1.3504;stroke-linecap:round;stroke-linejoin:round;stroke:rgb(0%,0%,0%);stroke-opacity:1;stroke-miterlimit:3.285714;" d="M -57.391436 23.510279 L -41.432549 31.479337 L -41.432549 15.541221 L -57.391436 23.510279 " transform="matrix(0.564194,0,0,0.564194,46.46974,0.739551)"/>
<path style="fill-rule:evenodd;fill:rgb(65.098039%,65.098039%,65.098039%);fill-opacity:1;stroke-width:1.3504;stroke-linecap:round;stroke-linejoin:round;stroke:rgb(0%,0%,0%);stroke-opacity:1;stroke-miterlimit:3.285714;" d="M -57.086798 23.717987 L -65.055856 39.656103 L -49.103892 39.656103 Z " transform="matrix(0.564194,0,0,0.564194,46.46974,0.739551)"/>
<path style="fill:none;stroke-width:1.3504;stroke-linecap:round;stroke-linejoin:round;stroke:rgb(0%,0%,0%);stroke-opacity:1;stroke-miterlimit:3.285714;" d="M -81.679408 23.510279 L -73.121844 23.510279 " transform="matrix(0.564194,0,0,0.564194,46.46974,0.739551)"/>
<path style="fill:none;stroke-width:1.3504;stroke-linecap:round;stroke-linejoin:round;stroke:rgb(0%,0%,0%);stroke-opacity:1;stroke-miterlimit:3.285714;" d="M -40.580947 23.510279 L -32.044154 23.510279 " transform="matrix(0.564194,0,0,0.564194,46.46974,0.739551)"/>
<path style="fill:none;stroke-width:1.3504;stroke-linecap:round;stroke-linejoin:round;stroke:rgb(0%,0%,0%);stroke-opacity:1;stroke-miterlimit:3.285714;" d="M -56.844472 39.808422 L -56.844472 48.338292 " transform="matrix(0.564194,0,0,0.564194,46.46974,0.739551)"/>
</g>
<animate
 attributeName="opacity"
 values="1;0"
 calcMode="discrete"
 dur="1000ms"
 begin="0s"
 fill="freeze"
 repeatCount="indefinite"
 id="animate12" />
</svg>

