<?xml version="1.0" encoding="UTF-8"?>
<!--
/*******************************************************************************
* Copyright (c) 2010-2016 ITER Organization.
* All rights reserved. This program and the accompanying materials
* are made available under the terms of the Eclipse Public License v1.0
* which accompanies this distribution, and is available at
* http://www.eclipse.org/legal/epl-v10.html
******************************************************************************/
-->
<svg xmlns="http://www.w3.org/2000/svg" xmlns:xlink="http://www.w3.org/1999/xlink" width="29pt" height="29pt" viewBox="0 0 29 29" version="1.1">
<g id="surface1">
<path style=" stroke:none;fill-rule:evenodd;fill:rgb(65.098039%,65.098039%,65.098039%);fill-opacity:1;" d="M 0.761719 0.761719 L 0.777344 0.761719 L 0.777344 0.777344 L 0.761719 0.777344 Z "/>
<path style=" stroke:none;fill-rule:evenodd;fill:rgb(65.098039%,65.098039%,65.098039%);fill-opacity:1;" d="M 27.734375 27.734375 L 27.75 27.734375 L 27.75 27.75 L 27.734375 27.75 Z "/>
<path style="fill-rule:nonzero;fill:rgb(65.098039%,65.098039%,65.098039%);fill-opacity:1;stroke-width:1.3512;stroke-linecap:round;stroke-linejoin:round;stroke:rgb(0%,0%,0%);stroke-opacity:1;stroke-miterlimit:3;" d="M 25.493041 13.466783 L 35.469942 13.466783 C 35.469942 7.962525 31.004223 3.496806 25.499964 3.496806 C 19.995706 3.496806 15.529987 7.962525 15.529987 13.466783 L 25.493041 13.466783 " transform="matrix(0.564194,0,0,0.564194,-0.000204802,-0.000220036)"/>
<path style="fill:none;stroke-width:1.3512;stroke-linecap:round;stroke-linejoin:round;stroke:rgb(0%,0%,0%);stroke-opacity:1;stroke-miterlimit:3;" d="M 25.499964 13.314464 L 25.499964 24.793785 " transform="matrix(0.564194,0,0,0.564194,-0.000204802,-0.000220036)"/>
<path style="fill-rule:evenodd;fill:rgb(65.098039%,65.098039%,65.098039%);fill-opacity:1;stroke-width:1.3512;stroke-linecap:round;stroke-linejoin:round;stroke:rgb(0%,0%,0%);stroke-opacity:1;stroke-miterlimit:3;" d="M 9.554924 33.46905 L 9.554924 17.530933 L 41.445004 33.46905 L 41.445004 17.530933 Z " transform="matrix(0.564194,0,0,0.564194,-0.000204802,-0.000220036)"/>
<path style="fill:none;stroke-width:1.689;stroke-linecap:round;stroke-linejoin:round;stroke:rgb(0%,0%,0%);stroke-opacity:1;stroke-miterlimit:3;" d="M 0.848548 0.849904 L 11.55416 0.849904 " transform="matrix(0.451355,0,0,0.451355,-0.00799647,14.00311)"/>
<path style="fill:none;stroke-width:1.689;stroke-linecap:round;stroke-linejoin:round;stroke:rgb(0%,0%,0%);stroke-opacity:1;stroke-miterlimit:3;" d="M 52.230293 0.849904 L 62.892632 0.849904 " transform="matrix(0.451355,0,0,0.451355,-0.00799647,14.00311)"/>
</g>
</svg>
