<?xml version="1.0" encoding="UTF-8"?>
<!--
/*******************************************************************************
* Copyright (c) 2010-2016 ITER Organization.
* All rights reserved. This program and the accompanying materials
* are made available under the terms of the Eclipse Public License v1.0
* which accompanies this distribution, and is available at
* http://www.eclipse.org/legal/epl-v10.html
******************************************************************************/
-->
<svg xmlns="http://www.w3.org/2000/svg" xmlns:xlink="http://www.w3.org/1999/xlink" width="29pt" height="29pt" viewBox="0 0 29 29" version="1.1">
<g id="surface1">
<path style=" stroke:none;fill-rule:evenodd;fill:rgb(100%,100%,100%);fill-opacity:1;" d="M 0.773438 0.378906 L 0.789063 0.378906 L 0.789063 0.394531 L 0.773438 0.394531 Z "/>
<path style=" stroke:none;fill-rule:evenodd;fill:rgb(100%,100%,100%);fill-opacity:1;" d="M 27.742188 27.351563 L 27.757813 27.351563 L 27.757813 27.367188 L 27.742188 27.367188 Z "/>
<path style="fill-rule:nonzero;fill:rgb(65.098039%,65.098039%,65.098039%);fill-opacity:1;stroke-width:1.3504;stroke-linecap:round;stroke-linejoin:round;stroke:rgb(0%,0%,0%);stroke-opacity:1;stroke-miterlimit:3.285714;" d="M 25.503836 16.025392 L 31.977398 16.025392 L 31.977398 3.078269 L 19.023351 3.078269 L 19.023351 16.025392 L 25.503836 16.025392 " transform="matrix(0.564194,0,0,0.564194,0.00932962,-0.381272)"/>
<path style="fill:none;stroke-width:1.3504;stroke-linecap:round;stroke-linejoin:round;stroke:rgb(0%,0%,0%);stroke-opacity:1;stroke-miterlimit:3.285714;" d="M 25.503836 16.572356 L 25.503836 24.569109 " transform="matrix(0.564194,0,0,0.564194,0.00932962,-0.381272)"/>
<path style="fill-rule:evenodd;fill:rgb(65.098039%,65.098039%,65.098039%);fill-opacity:1;stroke-width:1.3504;stroke-linecap:round;stroke-linejoin:round;stroke:rgb(0%,0%,0%);stroke-opacity:1;stroke-miterlimit:3.285714;" d="M 9.538025 17.527813 L 9.538025 33.465929 M 9.538025 33.465929 L 25.476142 25.496871 L 9.538025 17.527813 " transform="matrix(0.564194,0,0,0.564194,0.00932962,-0.381272)"/>
<path style="fill-rule:evenodd;fill:rgb(65.098039%,65.098039%,65.098039%);fill-opacity:1;stroke-width:1.3504;stroke-linecap:round;stroke-linejoin:round;stroke:rgb(0%,0%,0%);stroke-opacity:1;stroke-miterlimit:3.285714;" d="M 24.956872 25.496871 L 40.915759 33.465929 L 40.915759 17.527813 L 24.956872 25.496871 " transform="matrix(0.564194,0,0,0.564194,0.00932962,-0.381272)"/>
<path style="fill-rule:evenodd;fill:rgb(100%,100%,100%);fill-opacity:1;stroke-width:1.3504;stroke-linecap:round;stroke-linejoin:round;stroke:rgb(0%,0%,0%);stroke-opacity:1;stroke-miterlimit:3.285714;" d="M 25.26151 25.704579 L 17.292452 41.642695 L 33.244416 41.642695 Z " transform="matrix(0.564194,0,0,0.564194,0.00932962,-0.381272)"/>
<path style="fill:none;stroke-width:1.3504;stroke-linecap:round;stroke-linejoin:round;stroke:rgb(0%,0%,0%);stroke-opacity:1;stroke-miterlimit:3.285714;" d="M 0.6689 25.496871 L 9.226464 25.496871 " transform="matrix(0.564194,0,0,0.564194,0.00932962,-0.381272)"/>
<path style="fill:none;stroke-width:1.3504;stroke-linecap:round;stroke-linejoin:round;stroke:rgb(0%,0%,0%);stroke-opacity:1;stroke-miterlimit:3.285714;" d="M 41.767361 25.496871 L 50.304154 25.496871 " transform="matrix(0.564194,0,0,0.564194,0.00932962,-0.381272)"/>
<path style="fill:none;stroke-width:1.3504;stroke-linecap:round;stroke-linejoin:round;stroke:rgb(0%,0%,0%);stroke-opacity:1;stroke-miterlimit:3.285714;" d="M 25.503836 41.795014 L 25.503836 50.324883 " transform="matrix(0.564194,0,0,0.564194,0.00932962,-0.381272)"/>
</g>
</svg>
