<?xml version="1.0" encoding="UTF-8"?>
<!--
/*******************************************************************************
* Copyright (c) 2010-2016 ITER Organization.
* All rights reserved. This program and the accompanying materials
* are made available under the terms of the Eclipse Public License v1.0
* which accompanies this distribution, and is available at
* http://www.eclipse.org/legal/epl-v10.html
******************************************************************************/
-->
<svg xmlns="http://www.w3.org/2000/svg" xmlns:xlink="http://www.w3.org/1999/xlink" width="29pt" height="29pt" viewBox="0 0 29 29" version="1.1">
<g id="surface1">
<path style=" stroke:none;fill-rule:evenodd;fill:rgb(100%,100%,100%);fill-opacity:1;" d="M 0.761719 0.761719 L 0.777344 0.761719 L 0.777344 0.777344 L 0.761719 0.777344 Z "/>
<path style=" stroke:none;fill-rule:evenodd;fill:rgb(100%,100%,100%);fill-opacity:1;" d="M 27.734375 27.734375 L 27.75 27.734375 L 27.75 27.75 L 27.734375 27.75 Z "/>
<path style="fill-rule:evenodd;fill:rgb(100%,100%,100%);fill-opacity:1;stroke-width:1.3504;stroke-linecap:round;stroke-linejoin:round;stroke:rgb(0%,0%,0%);stroke-opacity:1;stroke-miterlimit:3.285714;" d="M 9.540714 17.530543 L 9.540714 33.46866 M 9.540714 33.46866 L 25.478831 25.499601 L 9.540714 17.530543 " transform="matrix(0.564194,0,0,0.564194,0,0)"/>
<path style="fill-rule:evenodd;fill:rgb(100%,100%,100%);fill-opacity:1;stroke-width:1.3504;stroke-linecap:round;stroke-linejoin:round;stroke:rgb(0%,0%,0%);stroke-opacity:1;stroke-miterlimit:3.285714;" d="M 24.959561 25.499601 L 40.911525 33.46866 L 40.911525 17.530543 L 24.959561 25.499601 " transform="matrix(0.564194,0,0,0.564194,0,0)"/>
<path style="fill-rule:evenodd;fill:rgb(100%,100%,100%);fill-opacity:1;stroke-width:1.3504;stroke-linecap:round;stroke-linejoin:round;stroke:rgb(0%,0%,0%);stroke-opacity:1;stroke-miterlimit:3.285714;" d="M 25.264199 25.700386 L 17.295141 41.638502 L 33.247105 41.638502 Z " transform="matrix(0.564194,0,0,0.564194,0,0)"/>
<path style="fill:none;stroke-width:1.3504;stroke-linecap:round;stroke-linejoin:round;stroke:rgb(0%,0%,0%);stroke-opacity:1;stroke-miterlimit:3.285714;" d="M 0.664665 25.499601 L 9.229153 25.499601 " transform="matrix(0.564194,0,0,0.564194,0,0)"/>
<path style="fill:none;stroke-width:1.3504;stroke-linecap:round;stroke-linejoin:round;stroke:rgb(0%,0%,0%);stroke-opacity:1;stroke-miterlimit:3.285714;" d="M 41.77005 25.499601 L 50.29992 25.499601 " transform="matrix(0.564194,0,0,0.564194,0,0)"/>
<path style="fill:none;stroke-width:1.3504;stroke-linecap:round;stroke-linejoin:round;stroke:rgb(0%,0%,0%);stroke-opacity:1;stroke-miterlimit:3.285714;" d="M 25.499601 41.790821 L 25.499601 50.327614 " transform="matrix(0.564194,0,0,0.564194,0,0)"/>
<path style="fill:none;stroke-width:1.349995;stroke-linecap:round;stroke-linejoin:round;stroke:rgb(0%,0%,0%);stroke-opacity:1;stroke-miterlimit:3;" d="M -136.880262 21.821127 L -95.394079 1.080453 L -89.052066 -2.096529 " transform="matrix(0.564194,0,0,0.584035,78.121536,8.388509)"/>
<path style=" stroke:none;fill-rule:evenodd;fill:rgb(0%,0%,0%);fill-opacity:1;" d="M 23.148438 6.789063 L 28.261719 6.789063 L 25.226563 10.984375 C 25.21875 9.328125 24.460938 7.769531 23.179688 6.769531 "/>
</g>
</svg>
