<?xml version="1.0" encoding="UTF-8"?>
<!--
/*******************************************************************************
* Copyright (c) 2010-2016 ITER Organization.
* All rights reserved. This program and the accompanying materials
* are made available under the terms of the Eclipse Public License v1.0
* which accompanies this distribution, and is available at
* http://www.eclipse.org/legal/epl-v10.html
******************************************************************************/
-->
<svg xmlns="http://www.w3.org/2000/svg" xmlns:xlink="http://www.w3.org/1999/xlink" width="29pt" height="29pt" viewBox="0 0 29 29" version="1.1">
<g id="surface1">
<path style=" stroke:none;fill-rule:evenodd;fill:rgb(100%,100%,100%);fill-opacity:1;" d="M 0.761719 0.761719 L 0.777344 0.761719 L 0.777344 0.777344 L 0.761719 0.777344 Z "/>
<path style="fill:none;stroke-width:1.3512;stroke-linecap:round;stroke-linejoin:round;stroke:rgb(0%,0%,0%);stroke-opacity:1;stroke-miterlimit:3;" d="M 25.499601 41.763127 L 25.499601 50.327614 " transform="matrix(0.564194,0,0,0.564194,0,0)"/>
<path style="fill:none;stroke-width:1.3512;stroke-linecap:round;stroke-linejoin:round;stroke:rgb(0%,0%,0%);stroke-opacity:1;stroke-miterlimit:3;" d="M 41.776974 25.499601 L 50.306843 25.499601 " transform="matrix(0.564194,0,0,0.564194,0,0)"/>
<path style="fill-rule:evenodd;fill:rgb(65.098039%,65.098039%,65.098039%);fill-opacity:1;stroke-width:1.3504;stroke-linecap:round;stroke-linejoin:round;stroke:rgb(0%,0%,0%);stroke-opacity:1;stroke-miterlimit:3.285714;" d="M 17.530543 41.562343 L 33.46866 41.562343 M 33.46866 41.562343 L 25.499601 25.624226 L 17.530543 41.562343 " transform="matrix(0.564194,0,0,0.564194,0,0)"/>
<path style="fill-rule:evenodd;fill:rgb(100%,100%,100%);fill-opacity:1;stroke-width:1.3504;stroke-linecap:round;stroke-linejoin:round;stroke:rgb(0%,0%,0%);stroke-opacity:1;stroke-miterlimit:3.285714;" d="M 25.679615 25.499601 L 41.631578 33.46866 L 41.631578 17.530543 L 25.679615 25.499601 " transform="matrix(0.564194,0,0,0.564194,0,0)"/>
</g>
</svg>
