<?xml version="1.0" encoding="UTF-8"?>
<!--
/*******************************************************************************
* Copyright (c) 2010-2018 ITER Organization.
* All rights reserved. This program and the accompanying materials
* are made available under the terms of the Eclipse Public License v1.0
* which accompanies this distribution, and is available at
* http://www.eclipse.org/legal/epl-v10.html
******************************************************************************/
-->
<svg xmlns="http://www.w3.org/2000/svg" xmlns:xlink="http://www.w3.org/1999/xlink" width="29pt" height="29pt" viewBox="0 0 29 29" version="1.1">
<g id="surface0">
<path style=" stroke:none;fill-rule:evenodd;fill:rgb(100%,100%,100%);fill-opacity:1;" d="M 0.554688 0.15625 L 0.570312 0.15625 L 0.570312 0.171875 L 0.554688 0.171875 Z M 0.554688 0.15625 "/>
<path style=" stroke:none;fill-rule:evenodd;fill:rgb(100%,100%,100%);fill-opacity:1;" d="M 27.953125 27.554688 L 27.96875 27.554688 L 27.96875 27.570312 L 27.953125 27.570312 Z M 27.953125 27.554688 "/>
<path style="fill-rule:evenodd;fill:rgb(65.098039%,65.098039%,65.098039%);fill-opacity:1;stroke-width:1.3504;stroke-linecap:round;stroke-linejoin:round;stroke:rgb(0%,0%,0%);stroke-opacity:1;stroke-miterlimit:3.285714;" d="M 9.539382 17.529185 L 9.539382 33.470438 M 9.539382 33.470438 L 25.480636 25.496404 L 9.539382 17.529185 " transform="matrix(0.573149,0,0,0.573149,-0.221397,-0.621059)"/>
<path style="fill-rule:evenodd;fill:rgb(100%,100%,100%);fill-opacity:1;stroke-width:1.3504;stroke-linecap:round;stroke-linejoin:round;stroke:rgb(0%,0%,0%);stroke-opacity:1;stroke-miterlimit:3.285714;" d="M 24.955849 25.496404 L 40.910733 33.470438 L 40.910733 17.529185 L 24.955849 25.496404 " transform="matrix(0.573149,0,0,0.573149,-0.221397,-0.621059)"/>
<path style="fill-rule:evenodd;fill:rgb(65.098039%,65.098039%,65.098039%);fill-opacity:1;stroke-width:1.3504;stroke-linecap:round;stroke-linejoin:round;stroke:rgb(0%,0%,0%);stroke-opacity:1;stroke-miterlimit:3.285714;" d="M 25.262543 25.700866 L 17.295323 41.64212 L 33.250208 41.64212 Z M 25.262543 25.700866 " transform="matrix(0.573149,0,0,0.573149,-0.221397,-0.621059)"/>
<path style="fill:none;stroke-width:1.3504;stroke-linecap:round;stroke-linejoin:round;stroke:rgb(0%,0%,0%);stroke-opacity:1;stroke-miterlimit:3.285714;" d="M 0.665713 25.496404 L 9.225873 25.496404 " transform="matrix(0.573149,0,0,0.573149,-0.221397,-0.621059)"/>
<path style="fill:none;stroke-width:1.3504;stroke-linecap:round;stroke-linejoin:round;stroke:rgb(0%,0%,0%);stroke-opacity:1;stroke-miterlimit:3.285714;" d="M 41.769476 25.496404 L 50.302374 25.496404 " transform="matrix(0.573149,0,0,0.573149,-0.221397,-0.621059)"/>
<path style="fill:none;stroke-width:1.3504;stroke-linecap:round;stroke-linejoin:round;stroke:rgb(0%,0%,0%);stroke-opacity:1;stroke-miterlimit:3.285714;" d="M 25.501082 41.792059 L 25.501082 50.324958 " transform="matrix(0.573149,0,0,0.573149,-0.221397,-0.621059)"/>
</g>
</svg>
