<?xml version="1.0" encoding="UTF-8"?>
<!--
/*******************************************************************************
* Copyright (c) 2010-2016 ITER Organization.
* All rights reserved. This program and the accompanying materials
* are made available under the terms of the Eclipse Public License v1.0
* which accompanies this distribution, and is available at
* http://www.eclipse.org/legal/epl-v10.html
******************************************************************************/
-->
<svg xmlns="http://www.w3.org/2000/svg" xmlns:xlink="http://www.w3.org/1999/xlink" width="29pt" height="29pt" viewBox="0 0 29 29" version="1.1">
<g id="surface1">
<path style="fill-rule:evenodd;fill:rgb(100%,100%,100%);fill-opacity:1;stroke-width:0.72;stroke-linecap:round;stroke-linejoin:round;stroke:rgb(100%,100%,100%);stroke-opacity:1;stroke-miterlimit:3;" d="M 8.170134 5.980532 L 14.122574 5.980532 L 14.122574 8.247776 L 8.170134 8.247776 Z " transform="matrix(1.057864,0,0,1.057864,2.411793,6.728095)"/>
<path style="fill-rule:evenodd;fill:rgb(0%,0%,0%);fill-opacity:1;stroke-width:0.720002;stroke-linecap:round;stroke-linejoin:round;stroke:rgb(0%,0%,0%);stroke-opacity:1;stroke-miterlimit:3;" d="M 4.253704 24.825551 C 4.253704 23.651311 3.301018 22.698625 2.126777 22.698625 C 0.952537 22.698625 -0.000149143 23.651311 -0.000149143 24.825551 C -0.000149143 25.999792 0.952537 26.952478 2.126777 26.952478 C 3.301018 26.952478 4.253704 25.999792 4.253704 24.825551 Z " transform="matrix(1.057864,0,0,1.057864,3.168127,-16.3441)"/>
<path style=" stroke:none;fill-rule:evenodd;fill:rgb(100%,100%,100%);fill-opacity:1;" d="M 5.417969 18.910156 L 5.417969 9.917969 L 23.410156 18.910156 L 23.410156 9.917969 Z "/>
<path style="fill:none;stroke-width:1.350005;stroke-linecap:round;stroke-linejoin:round;stroke:rgb(0%,0%,0%);stroke-opacity:1;stroke-miterlimit:3;" d="M 5.328267 21.543512 L 5.328267 5.605396 L 37.218347 21.543512 L 37.218347 5.605396 " transform="matrix(0.564194,0,0,0.564194,2.411793,6.728095)"/>
<path style="fill:none;stroke-width:1.689;stroke-linecap:round;stroke-linejoin:round;stroke:rgb(0%,0%,0%);stroke-opacity:1;stroke-miterlimit:3;" d="M 0.84538 0.849904 L 11.550992 0.849904 " transform="matrix(0.451355,0,0,0.451355,-0.00266014,14.00311)"/>
<path style="fill:none;stroke-width:1.689;stroke-linecap:round;stroke-linejoin:round;stroke:rgb(0%,0%,0%);stroke-opacity:1;stroke-miterlimit:3;" d="M 52.227124 0.849904 L 62.889464 0.849904 " transform="matrix(0.451355,0,0,0.451355,-0.00266014,14.00311)"/>
</g>
<animate
 attributeName="opacity"
 values="1;0"
 calcMode="discrete"
 dur="1000ms"
 begin="0s"
 fill="freeze"
 repeatCount="indefinite"
 id="animate12" />
</svg>

