<?xml version="1.0" encoding="UTF-8"?>
<!--
/*******************************************************************************
* Copyright (c) 2010-2018 ITER Organization.
* All rights reserved. This program and the accompanying materials
* are made available under the terms of the Eclipse Public License v1.0
* which accompanies this distribution, and is available at
* http://www.eclipse.org/legal/epl-v10.html
******************************************************************************/
-->
<svg xmlns="http://www.w3.org/2000/svg" xmlns:xlink="http://www.w3.org/1999/xlink" width="29pt" height="29pt" viewBox="0 0 29 29" version="1.1">
<g id="surface0">
<path style="fill-rule:evenodd;fill:rgb(100%,100%,100%);fill-opacity:1;stroke-width:0.72;stroke-linecap:round;stroke-linejoin:round;stroke:rgb(100%,100%,100%);stroke-opacity:1;stroke-miterlimit:3;" d="M 8.170422 5.980359 L 14.120728 5.980359 L 14.120728 8.248527 L 8.170422 8.248527 Z M 8.170422 5.980359 " transform="matrix(1.074656,0,0,1.074656,2.450075,6.83489)"/>
<path style="fill-rule:evenodd;fill:rgb(0%,0%,0%);fill-opacity:1;stroke-width:0.720002;stroke-linecap:round;stroke-linejoin:round;stroke:rgb(0%,0%,0%);stroke-opacity:1;stroke-miterlimit:3;" d="M 4.253127 24.82809 C 4.253127 23.650387 3.300787 22.698048 2.12672 22.698048 C 0.952652 22.698048 0.000312429 23.650387 0.000312429 24.82809 C 0.000312429 25.998523 0.952652 26.950862 2.12672 26.950862 C 3.300787 26.950862 4.253127 25.998523 4.253127 24.82809 Z M 4.253127 24.82809 " transform="matrix(1.074656,0,0,1.074656,3.218414,-16.603531)"/>
<path style=" stroke:none;fill-rule:evenodd;fill:rgb(65.098039%,65.098039%,65.098039%);fill-opacity:1;" d="M 5.503906 19.207031 L 5.503906 10.074219 L 23.78125 19.207031 L 23.78125 10.074219 Z M 5.503906 19.207031 "/>
<path style="fill:none;stroke-width:1.350005;stroke-linecap:round;stroke-linejoin:round;stroke:rgb(0%,0%,0%);stroke-opacity:1;stroke-miterlimit:3;" d="M 5.328159 21.545351 L 5.328159 5.604097 L 37.217482 21.545351 L 37.217482 5.604097 " transform="matrix(0.573149,0,0,0.573149,2.450075,6.83489)"/>
<path style="fill:none;stroke-width:1.345922;stroke-linecap:round;stroke-linejoin:round;stroke:rgb(0%,0%,0%);stroke-opacity:1;stroke-miterlimit:3;" d="M 0.672091 25.003125 L 9.198815 25.003125 " transform="matrix(0.575397,0,0,0.575397,0,0)"/>
<path style="fill:none;stroke-width:1.345922;stroke-linecap:round;stroke-linejoin:round;stroke:rgb(0%,0%,0%);stroke-opacity:1;stroke-miterlimit:3;" d="M 41.615302 25.003125 L 50.114871 25.003125 " transform="matrix(0.575397,0,0,0.575397,0,0)"/>
</g>
</svg>
