<?xml version="1.0" encoding="UTF-8"?>
<!--
/*******************************************************************************
* Copyright (c) 2010-2016 ITER Organization.
* All rights reserved. This program and the accompanying materials
* are made available under the terms of the Eclipse Public License v1.0
* which accompanies this distribution, and is available at
* http://www.eclipse.org/legal/epl-v10.html
******************************************************************************/
-->
<svg xmlns="http://www.w3.org/2000/svg" xmlns:xlink="http://www.w3.org/1999/xlink" width="29pt" height="29pt" viewBox="0 0 29 29" version="1.1">
<g id="surface1">
<path style=" stroke:none;fill-rule:evenodd;fill:rgb(100%,100%,100%);fill-opacity:1;" d="M 0.761719 0.761719 L 0.777344 0.761719 L 0.777344 0.777344 L 0.761719 0.777344 Z "/>
<path style="fill:none;stroke-width:1.3512;stroke-linecap:round;stroke-linejoin:round;stroke:rgb(0%,0%,0%);stroke-opacity:1;stroke-miterlimit:3;" d="M 25.499601 41.763127 L 25.499601 50.327614 " transform="matrix(0.564194,0,0,0.564194,0,0)"/>
<path style="fill:none;stroke-width:1.3512;stroke-linecap:round;stroke-linejoin:round;stroke:rgb(0%,0%,0%);stroke-opacity:1;stroke-miterlimit:3;" d="M 41.776974 25.499601 L 50.306843 25.499601 " transform="matrix(0.564194,0,0,0.564194,0,0)"/>
<path style=" stroke:none;fill-rule:evenodd;fill:rgb(0%,0%,0%);fill-opacity:1;" d="M 20.296875 9.664063 L 18.28125 8.992188 L 18.28125 9.664063 Z M 20.296875 9.664063 L 18.28125 9.664063 L 18.28125 10.332031 Z "/>
<path style="fill:none;stroke-width:1.349996;stroke-linecap:round;stroke-linejoin:round;stroke:rgb(0%,0%,0%);stroke-opacity:1;stroke-miterlimit:3;" d="M 87.051245 22.906055 L 75.166218 31.554783 " transform="matrix(0.42004,0,0,0.42004,-19.986887,-5.234742)"/>
<path style="fill:none;stroke-width:1.349996;stroke-linecap:round;stroke-linejoin:round;stroke:rgb(0%,0%,0%);stroke-opacity:1;stroke-miterlimit:3;" d="M 78.337419 22.868856 L 84.35433 18.479394 " transform="matrix(0.42004,0,0,0.42004,-19.986887,-5.234742)"/>
<path style="fill:none;stroke-width:1.349996;stroke-linecap:round;stroke-linejoin:round;stroke:rgb(0%,0%,0%);stroke-opacity:1;stroke-miterlimit:3;" d="M 95.904567 35.46996 L 91.105917 33.870411 L 91.105917 35.46996 L 95.904567 35.46996 " transform="matrix(0.42004,0,0,0.42004,-19.986887,-5.234742)"/>
<path style="fill:none;stroke-width:1.349996;stroke-linecap:round;stroke-linejoin:round;stroke:rgb(0%,0%,0%);stroke-opacity:1;stroke-miterlimit:3;" d="M 95.904567 35.46996 L 91.105917 35.46996 L 91.105917 37.06021 L 95.904567 35.46996 " transform="matrix(0.42004,0,0,0.42004,-19.986887,-5.234742)"/>
<path style="fill:none;stroke-width:1.349996;stroke-linecap:round;stroke-linejoin:round;stroke:rgb(0%,0%,0%);stroke-opacity:1;stroke-miterlimit:3;" d="M 91.105917 35.46996 L 86.316568 35.46996 " transform="matrix(0.42004,0,0,0.42004,-19.986887,-5.234742)"/>
<path style="fill:none;stroke-width:1.349996;stroke-linecap:round;stroke-linejoin:round;stroke:rgb(0%,0%,0%);stroke-opacity:1;stroke-miterlimit:3;" d="M 89.506368 27.481511 L 73.575968 40.25001 " transform="matrix(0.42004,0,0,0.42004,-19.986887,-5.234742)"/>
<path style="fill:none;stroke-width:1.349996;stroke-linecap:round;stroke-linejoin:round;stroke:rgb(0%,0%,0%);stroke-opacity:1;stroke-miterlimit:3;" d="M 81.545818 45.03006 L 81.545818 13.132062 " transform="matrix(0.42004,0,0,0.42004,-19.986887,-5.234742)"/>
<path style="fill-rule:evenodd;fill:rgb(65.098039%,65.098039%,65.098039%);fill-opacity:1;stroke-width:1.3504;stroke-linecap:round;stroke-linejoin:round;stroke:rgb(0%,0%,0%);stroke-opacity:1;stroke-miterlimit:3.285714;" d="M -50.296208 57.397562 L -34.358092 57.397562 M -34.358092 57.397562 L -42.32715 41.459446 L -50.296208 57.397562 " transform="matrix(0.564194,0,0,0.564194,38.161968,-9.266165)"/>
<path style="fill-rule:evenodd;fill:rgb(100%,100%,100%);fill-opacity:1;stroke-width:1.3504;stroke-linecap:round;stroke-linejoin:round;stroke:rgb(0%,0%,0%);stroke-opacity:1;stroke-miterlimit:3.285714;" d="M -42.15406 41.334821 L -26.202096 49.303879 L -26.202096 33.365763 L -42.15406 41.334821 " transform="matrix(0.564194,0,0,0.564194,38.161968,-9.266165)"/>
</g>
</svg>
