<?xml version="1.0" encoding="UTF-8"?>
<!--
/*******************************************************************************
* Copyright (c) 2010-2018 ITER Organization.
* All rights reserved. This program and the accompanying materials
* are made available under the terms of the Eclipse Public License v1.0
* which accompanies this distribution, and is available at
* http://www.eclipse.org/legal/epl-v10.html
******************************************************************************/
-->
<svg xmlns="http://www.w3.org/2000/svg" xmlns:xlink="http://www.w3.org/1999/xlink" width="29pt" height="29pt" viewBox="0 0 29 29" version="1.1">
<g id="surface0">
<path style=" stroke:none;fill-rule:evenodd;fill:rgb(100%,100%,100%);fill-opacity:1;" d="M 0.777344 0.777344 L 0.792969 0.777344 L 0.792969 0.792969 L 0.777344 0.792969 Z M 0.777344 0.777344 "/>
<path style="fill-rule:evenodd;fill:rgb(65.098039%,65.098039%,65.098039%);fill-opacity:1;stroke-width:0.72;stroke-linecap:round;stroke-linejoin:round;stroke:rgb(0%,0%,0%);stroke-opacity:1;stroke-miterlimit:3;" d="M 8.50165 18.45012 L -0.000344222 14.200941 L -0.000344222 22.6993 Z M 8.50165 18.45012 L 4.248835 26.948479 L 12.758099 26.948479 Z M 8.50165 18.45012 " transform="matrix(0,-1.074656,1.074656,0,-5.343157,23.620724)"/>
<path style="fill:none;stroke-width:1.345922;stroke-linecap:round;stroke-linejoin:round;stroke:rgb(0%,0%,0%);stroke-opacity:1;stroke-miterlimit:3;" d="M 25.003125 41.601724 L 25.003125 50.128448 " transform="matrix(0.575397,0,0,0.575397,0,0)"/>
<path style="fill:none;stroke-width:1.345922;stroke-linecap:round;stroke-linejoin:round;stroke:rgb(0%,0%,0%);stroke-opacity:1;stroke-miterlimit:3;" d="M 41.615302 25.003125 L 50.114871 25.003125 " transform="matrix(0.575397,0,0,0.575397,0,0)"/>
<path style=" stroke:none;fill-rule:evenodd;fill:rgb(65.098039%,65.098039%,65.098039%);fill-opacity:1;" d="M 20.617188 9.816406 L 18.570312 9.136719 L 18.570312 9.816406 Z M 20.617188 9.816406 L 18.570312 9.816406 L 18.570312 10.496094 Z M 20.617188 9.816406 "/>
<path style="fill-rule:nonzero;fill:rgb(65.098039%,65.098039%,65.098039%);fill-opacity:1;stroke-width:1.349996;stroke-linecap:round;stroke-linejoin:round;stroke:rgb(0%,0%,0%);stroke-opacity:1;stroke-miterlimit:3;" d="M 87.047903 22.907653 L 75.165492 31.549407 " transform="matrix(0.426707,0,0,0.426707,-20.304139,-5.317834)"/>
<path style="fill-rule:nonzero;fill:rgb(65.098039%,65.098039%,65.098039%);fill-opacity:1;stroke-width:1.349996;stroke-linecap:round;stroke-linejoin:round;stroke:rgb(0%,0%,0%);stroke-opacity:1;stroke-miterlimit:3;" d="M 78.332914 22.861881 L 84.356509 18.486078 " transform="matrix(0.426707,0,0,0.426707,-20.304139,-5.317834)"/>
<path style="fill-rule:nonzero;fill:rgb(65.098039%,65.098039%,65.098039%);fill-opacity:1;stroke-width:1.349996;stroke-linecap:round;stroke-linejoin:round;stroke:rgb(0%,0%,0%);stroke-opacity:1;stroke-miterlimit:3;" d="M 95.900207 35.46749 L 91.103302 33.874625 L 91.103302 35.46749 L 95.900207 35.46749 " transform="matrix(0.426707,0,0,0.426707,-20.304139,-5.317834)"/>
<path style="fill-rule:nonzero;fill:rgb(65.098039%,65.098039%,65.098039%);fill-opacity:1;stroke-width:1.349996;stroke-linecap:round;stroke-linejoin:round;stroke:rgb(0%,0%,0%);stroke-opacity:1;stroke-miterlimit:3;" d="M 95.900207 35.46749 L 91.103302 35.46749 L 91.103302 37.060356 L 95.900207 35.46749 " transform="matrix(0.426707,0,0,0.426707,-20.304139,-5.317834)"/>
<path style="fill:none;stroke-width:1.349996;stroke-linecap:round;stroke-linejoin:round;stroke:rgb(0%,0%,0%);stroke-opacity:1;stroke-miterlimit:3;" d="M 91.103302 35.46749 L 86.315551 35.46749 " transform="matrix(0.426707,0,0,0.426707,-20.304139,-5.317834)"/>
<path style="fill-rule:nonzero;fill:rgb(65.098039%,65.098039%,65.098039%);fill-opacity:1;stroke-width:1.349996;stroke-linecap:round;stroke-linejoin:round;stroke:rgb(0%,0%,0%);stroke-opacity:1;stroke-miterlimit:3;" d="M 89.510436 27.475699 L 73.572626 40.255241 " transform="matrix(0.426707,0,0,0.426707,-20.304139,-5.317834)"/>
<path style="fill:none;stroke-width:1.349996;stroke-linecap:round;stroke-linejoin:round;stroke:rgb(0%,0%,0%);stroke-opacity:1;stroke-miterlimit:3;" d="M 81.546108 45.033838 L 81.546108 13.139909 " transform="matrix(0.426707,0,0,0.426707,-20.304139,-5.317834)"/>
</g>
</svg>
