<?xml version="1.0" encoding="UTF-8" standalone="no"?>
<!--
/*******************************************************************************
* Copyright (c) 2010-2016 ITER Organization.
* All rights reserved. This program and the accompanying materials
* are made available under the terms of the Eclipse Public License v1.0
* which accompanies this distribution, and is available at
* http://www.eclipse.org/legal/epl-v10.html
******************************************************************************/
-->
<svg xmlns="http://www.w3.org/2000/svg" xmlns:xlink="http://www.w3.org/1999/xlink" width="99pt" height="70pt" viewBox="0 0 99 70" version="1.1">
<g id="surface1">
<path style=" stroke:none;fill-rule:evenodd;fill:rgb(100%,100%,100%);fill-opacity:1;" d="M 49.46875 34.777344 L 49.53125 34.777344 L 49.53125 34.828125 L 49.46875 34.828125 Z "/>
<path style=" stroke:none;fill-rule:evenodd;fill:rgb(100%,100%,100%);fill-opacity:1;" d="M 49.46875 34.777344 L 49.53125 34.777344 L 49.53125 34.828125 L 49.46875 34.828125 Z "/>
<path style=" stroke:none;fill-rule:evenodd;fill:rgb(65.098039%,65.098039%,65.098039%);fill-opacity:1;" d="M 10.039063 58.804688 L 40.703125 58.804688 L 40.703125 10.800781 L 10.039063 10.800781 Z "/>
<path style="fill:none;stroke-width:0.716885;stroke-linecap:round;stroke-linejoin:round;stroke:rgb(0%,0%,0%);stroke-opacity:1;stroke-miterlimit:4;" d="M -0.000671574 69.4704 L 24.809906 69.239973 " transform="matrix(1.856252,0,0,1.881698,40.704372,-103.929355)"/>
<path style="fill:none;stroke-width:0.716885;stroke-linecap:round;stroke-linejoin:round;stroke:rgb(0%,0%,0%);stroke-opacity:1;stroke-miterlimit:4;" d="M -0.000671574 69.469598 L 24.790967 69.178969 " transform="matrix(1.856252,0,0,1.881698,40.704372,-87.916127)"/>
<path style="fill:none;stroke-width:0.716885;stroke-linecap:round;stroke-linejoin:round;stroke:rgb(0%,0%,0%);stroke-opacity:1;stroke-miterlimit:4;" d="M 0.0199081 61.019985 C 1.610815 63.66678 1.602398 67.44495 0.000968711 69.468969 " transform="matrix(1.856252,0,0,1.881698,86.720858,-88.461819)"/>
<path style="fill:none;stroke-width:0.716885;stroke-linecap:round;stroke-linejoin:round;stroke:rgb(0%,0%,0%);stroke-opacity:1;stroke-miterlimit:4;" d="M 5.779207 59.829872 L 0.000594125 69.470432 L 4.678619 67.770256 " transform="matrix(1.856252,0,0,1.881698,21.28796,-95.386448)"/>
<path style="fill:none;stroke-width:0.716885;stroke-linecap:round;stroke-linejoin:round;stroke:rgb(0%,0%,0%);stroke-opacity:1;stroke-miterlimit:4;" d="M 0.00075402 69.469889 L 0.00075402 65.780984 " transform="matrix(1.856252,0,0,1.881698,18.225163,-78.846363)"/>
<path style="fill:none;stroke-width:0.716885;stroke-linecap:round;stroke-linejoin:round;stroke:rgb(0%,0%,0%);stroke-opacity:1;stroke-miterlimit:4;" d="M 6.328609 58.980279 L 0.00075402 69.469889 L 3.578191 67.769713 " transform="matrix(1.856252,0,0,1.881698,18.225163,-78.846363)"/>
<path style="fill:none;stroke-width:0.716885;stroke-linecap:round;stroke-linejoin:round;stroke:rgb(0%,0%,0%);stroke-opacity:1;stroke-miterlimit:4;" d="M -0.000016058 43.961625 L 16.519325 43.961625 L 16.519325 69.470499 L -0.000016058 69.470499 Z " transform="matrix(1.856252,0,0,1.881698,10.039092,-71.921728)"/>
</g>
</svg>
