<?xml version="1.0" encoding="UTF-8"?>
<!--
/*******************************************************************************
* Copyright (c) 2010-2018 ITER Organization.
* All rights reserved. This program and the accompanying materials
* are made available under the terms of the Eclipse Public License v1.0
* which accompanies this distribution, and is available at
* http://www.eclipse.org/legal/epl-v10.html
******************************************************************************/
-->
<svg xmlns="http://www.w3.org/2000/svg" xmlns:xlink="http://www.w3.org/1999/xlink" width="57pt" height="84pt" viewBox="0 0 57 84" version="1.1">
<g id="surface1">
<path style="fill-rule:evenodd;fill:rgb(100%,100%,100%);fill-opacity:1;stroke-width:0.72;stroke-linecap:round;stroke-linejoin:round;stroke:rgb(0%,0%,0%);stroke-opacity:1;stroke-miterlimit:3;" d="M 11.940684 78.030024 L 0.00115861 78.030024 L 0.00115861 65.861936 C 0.00115861 63.470667 5.349109 61.532097 11.94431 61.532097 C 18.543137 61.532097 23.891087 63.470667 23.891087 65.861936 L 23.891087 78.030024 Z M 11.940684 78.030024 " transform="matrix(1.07737,0,0,1.069973,15.44797,-65.068175)"/>
<path style="fill-rule:evenodd;fill:rgb(100%,100%,100%);fill-opacity:1;stroke-width:0.72;stroke-linecap:round;stroke-linejoin:round;stroke:rgb(0%,0%,0%);stroke-opacity:1;stroke-miterlimit:3;" d="M 25.530278 16.757919 C 11.429818 16.757919 -0.0021058 23.617756 0.00151993 32.080291 L 0.00151993 78.029156 L 51.051785 78.029156 L 51.051785 32.080291 C 51.816814 28.170293 49.470967 24.271248 44.605239 21.350614 C 39.73951 18.429981 32.803491 16.761569 25.530278 16.757919 Z M 25.530278 16.757919 " transform="matrix(1.07737,0,0,1.069973,0.775706,-0.770371)"/>
</g>
</svg>
