<?xml version="1.0" encoding="UTF-8"?>
<!--
/*******************************************************************************
* Copyright (c) 2010-2018 ITER Organization.
* All rights reserved. This program and the accompanying materials
* are made available under the terms of the Eclipse Public License v1.0
* which accompanies this distribution, and is available at
* http://www.eclipse.org/legal/epl-v10.html
******************************************************************************/
-->
<svg xmlns="http://www.w3.org/2000/svg" xmlns:xlink="http://www.w3.org/1999/xlink" width="57pt" height="84pt" viewBox="0 0 57 84" version="1.1">
<g id="surface1">
<path style="fill-rule:evenodd;fill:rgb(0%,0%,0%);fill-opacity:1;stroke-width:0.72;stroke-linecap:round;stroke-linejoin:round;stroke:rgb(0%,0%,0%);stroke-opacity:1;stroke-miterlimit:3;" d="M 1.416804 77.295704 C 1.416804 76.905069 1.101366 76.583799 0.709787 76.583799 C 0.318207 76.583799 -0.000857142 76.905069 -0.000857142 77.295704 C -0.000857142 77.686339 0.318207 78.003959 0.709787 78.003959 C 1.101366 78.003959 1.416804 77.686339 1.416804 77.295704 Z M 1.416804 77.295704 " transform="matrix(1.077368,0,0,1.069972,27.512642,-61.895665)"/>
<path style="fill-rule:evenodd;fill:rgb(0%,0%,0%);fill-opacity:1;stroke-width:0.72;stroke-linecap:round;stroke-linejoin:round;stroke:rgb(0%,0%,0%);stroke-opacity:1;stroke-miterlimit:3;" d="M 1.418145 77.295704 C 1.418145 76.905069 1.099081 76.583799 0.707502 76.583799 C 0.315923 76.583799 0.00048379 76.905069 0.00048379 77.295704 C 0.00048379 77.686339 0.315923 78.003959 0.707502 78.003959 C 1.099081 78.003959 1.418145 77.686339 1.418145 77.295704 Z M 1.418145 77.295704 " transform="matrix(1.077368,0,0,1.069972,48.890104,-61.895665)"/>
<path style="fill-rule:evenodd;fill:rgb(0%,0%,0%);fill-opacity:1;stroke-width:0.72;stroke-linecap:round;stroke-linejoin:round;stroke:rgb(0%,0%,0%);stroke-opacity:1;stroke-miterlimit:3;" d="M 1.419462 77.294565 C 1.419462 76.903929 1.100398 76.58631 0.708819 76.58631 C 0.317239 76.58631 -0.00182513 76.903929 -0.00182513 77.294565 C -0.00182513 77.6852 0.317239 78.002819 0.708819 78.002819 C 1.100398 78.002819 1.419462 77.6852 1.419462 77.294565 Z M 1.419462 77.294565 " transform="matrix(1.077368,0,0,1.069972,6.12306,-19.417883)"/>
<path style="fill-rule:evenodd;fill:rgb(0%,0%,0%);fill-opacity:1;stroke-width:0.72;stroke-linecap:round;stroke-linejoin:round;stroke:rgb(0%,0%,0%);stroke-opacity:1;stroke-miterlimit:3;" d="M 1.419907 77.294565 C 1.419907 76.903929 1.100843 76.58631 0.709264 76.58631 C 0.317685 76.58631 -0.00137995 76.903929 -0.00137995 77.294565 C -0.00137995 77.6852 0.317685 78.002819 0.709264 78.002819 C 1.100843 78.002819 1.419907 77.6852 1.419907 77.294565 Z M 1.419907 77.294565 " transform="matrix(1.077368,0,0,1.069972,27.524924,-19.417883)"/>
<path style="fill-rule:evenodd;fill:rgb(0%,0%,0%);fill-opacity:1;stroke-width:0.72;stroke-linecap:round;stroke-linejoin:round;stroke:rgb(0%,0%,0%);stroke-opacity:1;stroke-miterlimit:3;" d="M 1.417722 77.294565 C 1.417722 76.903929 1.102284 76.58631 0.710704 76.58631 C 0.319125 76.58631 0.0000607158 76.903929 0.0000607158 77.294565 C 0.0000607158 77.6852 0.319125 78.002819 0.710704 78.002819 C 1.102284 78.002819 1.417722 77.6852 1.417722 77.294565 Z M 1.417722 77.294565 " transform="matrix(1.077368,0,0,1.069972,48.902278,-19.417883)"/>
<path style="fill-rule:evenodd;fill:rgb(0%,0%,0%);fill-opacity:1;stroke-width:0.72;stroke-linecap:round;stroke-linejoin:round;stroke:rgb(0%,0%,0%);stroke-opacity:1;stroke-miterlimit:3;" d="M 1.419462 77.29427 C 1.419462 76.903635 1.100398 76.586015 0.708819 76.586015 C 0.317239 76.586015 -0.00182513 76.903635 -0.00182513 77.29427 C -0.00182513 77.684905 0.317239 78.002524 0.708819 78.002524 C 1.100398 78.002524 1.419462 77.684905 1.419462 77.29427 Z M 1.419462 77.29427 " transform="matrix(1.077368,0,0,1.069972,6.12306,-40.972255)"/>
<path style="fill-rule:evenodd;fill:rgb(0%,0%,0%);fill-opacity:1;stroke-width:0.72;stroke-linecap:round;stroke-linejoin:round;stroke:rgb(0%,0%,0%);stroke-opacity:1;stroke-miterlimit:3;" d="M 1.419907 77.29427 C 1.419907 76.903635 1.100843 76.586015 0.709264 76.586015 C 0.317685 76.586015 -0.00137995 76.903635 -0.00137995 77.29427 C -0.00137995 77.684905 0.317685 78.002524 0.709264 78.002524 C 1.100843 78.002524 1.419907 77.684905 1.419907 77.29427 Z M 1.419907 77.29427 " transform="matrix(1.077368,0,0,1.069972,27.524924,-40.972255)"/>
<path style="fill-rule:evenodd;fill:rgb(0%,0%,0%);fill-opacity:1;stroke-width:0.72;stroke-linecap:round;stroke-linejoin:round;stroke:rgb(0%,0%,0%);stroke-opacity:1;stroke-miterlimit:3;" d="M 1.417722 77.29427 C 1.417722 76.903635 1.102284 76.586015 0.710704 76.586015 C 0.319125 76.586015 0.0000607158 76.903635 0.0000607158 77.29427 C 0.0000607158 77.684905 0.319125 78.002524 0.710704 78.002524 C 1.102284 78.002524 1.417722 77.684905 1.417722 77.29427 Z M 1.417722 77.29427 " transform="matrix(1.077368,0,0,1.069972,48.902278,-40.972255)"/>
<path style="fill-rule:evenodd;fill:rgb(0%,0%,0%);fill-opacity:1;stroke-width:0.72;stroke-linecap:round;stroke-linejoin:round;stroke:rgb(0%,0%,0%);stroke-opacity:1;stroke-miterlimit:3;" d="M 1.41832 77.292407 C 1.41832 76.901772 1.099255 76.584153 0.711302 76.584153 C 0.319723 76.584153 0.000658199 76.901772 0.000658199 77.292407 C 0.000658199 77.686693 0.319723 78.004312 0.711302 78.004312 C 1.099255 78.004312 1.41832 77.686693 1.41832 77.292407 Z M 1.41832 77.292407 " transform="matrix(1.077368,0,0,1.069972,16.811791,-51.579637)"/>
<path style="fill-rule:evenodd;fill:rgb(0%,0%,0%);fill-opacity:1;stroke-width:0.72;stroke-linecap:round;stroke-linejoin:round;stroke:rgb(0%,0%,0%);stroke-opacity:1;stroke-miterlimit:3;" d="M 1.418815 77.292407 C 1.418815 76.901772 1.099751 76.584153 0.708171 76.584153 C 0.316592 76.584153 0.00115352 76.901772 0.00115352 77.292407 C 0.00115352 77.686693 0.316592 78.004312 0.708171 78.004312 C 1.099751 78.004312 1.418815 77.686693 1.418815 77.292407 Z M 1.418815 77.292407 " transform="matrix(1.077368,0,0,1.069972,38.213601,-51.579637)"/>
<path style="fill-rule:evenodd;fill:rgb(0%,0%,0%);fill-opacity:1;stroke-width:0.72;stroke-linecap:round;stroke-linejoin:round;stroke:rgb(0%,0%,0%);stroke-opacity:1;stroke-miterlimit:3;" d="M 1.41832 77.295538 C 1.41832 76.901252 1.099255 76.587283 0.711302 76.587283 C 0.319723 76.587283 0.000658199 76.901252 0.000658199 77.295538 C 0.000658199 77.686173 0.319723 78.003792 0.711302 78.003792 C 1.099255 78.003792 1.41832 77.686173 1.41832 77.295538 Z M 1.41832 77.295538 " transform="matrix(1.077368,0,0,1.069972,16.811791,-30.340799)"/>
<path style="fill-rule:evenodd;fill:rgb(0%,0%,0%);fill-opacity:1;stroke-width:0.72;stroke-linecap:round;stroke-linejoin:round;stroke:rgb(0%,0%,0%);stroke-opacity:1;stroke-miterlimit:3;" d="M 1.418815 77.295538 C 1.418815 76.901252 1.099751 76.587283 0.708171 76.587283 C 0.316592 76.587283 0.00115352 76.901252 0.00115352 77.295538 C 0.00115352 77.686173 0.316592 78.003792 0.708171 78.003792 C 1.099751 78.003792 1.418815 77.686173 1.418815 77.295538 Z M 1.418815 77.295538 " transform="matrix(1.077368,0,0,1.069972,38.213601,-30.340799)"/>
<path style="fill:none;stroke-width:0.72;stroke-linecap:round;stroke-linejoin:round;stroke:rgb(0%,0%,0%);stroke-opacity:1;stroke-miterlimit:3;" d="M 0.001521 77.999709 L 51.051841 77.999709 " transform="matrix(1.077368,0,0,1.069972,0.775705,-68.262213)"/>
<path style="fill:none;stroke-width:0.72;stroke-linecap:round;stroke-linejoin:round;stroke:rgb(0%,0%,0%);stroke-opacity:1;stroke-miterlimit:3;" d="M 0.001521 78.000185 L 51.051841 78.000185 " transform="matrix(1.077368,0,0,1.069972,0.775705,-15.165066)"/>
<path style="fill:none;stroke-width:0.719999;stroke-linecap:round;stroke-linejoin:round;stroke:rgb(0%,0%,0%);stroke-opacity:1;stroke-miterlimit:3;" d="M 0.001521 1.439036 L 51.051841 1.439036 L 51.051841 78.003521 L 0.001521 78.003521 Z M 0.001521 1.439036 " transform="matrix(1.077368,0,0,1.069972,0.775705,-0.770197)"/>
<path style="fill-rule:evenodd;fill:rgb(0%,0%,0%);fill-opacity:1;stroke-width:0.72;stroke-linecap:round;stroke-linejoin:round;stroke:rgb(0%,0%,0%);stroke-opacity:1;stroke-miterlimit:3;" d="M 1.416329 77.295704 C 1.416329 76.905069 1.100891 76.583799 0.709311 76.583799 C 0.317732 76.583799 0.00229354 76.905069 0.00229354 77.295704 C 0.00229354 77.686339 0.317732 78.003959 0.709311 78.003959 C 1.100891 78.003959 1.416329 77.686339 1.416329 77.295704 Z M 1.416329 77.295704 " transform="matrix(1.077368,0,0,1.069972,6.11081,-61.895665)"/>
</g>
</svg>
