<?xml version="1.0" encoding="UTF-8"?>
<!--
/*******************************************************************************
* Copyright (c) 2010-2018 ITER Organization.
* All rights reserved. This program and the accompanying materials
* are made available under the terms of the Eclipse Public License v1.0
* which accompanies this distribution, and is available at
* http://www.eclipse.org/legal/epl-v10.html
******************************************************************************/
-->
<svg xmlns="http://www.w3.org/2000/svg" xmlns:xlink="http://www.w3.org/1999/xlink" width="57pt" height="83pt" viewBox="0 0 57 83" version="1.1">
<g id="surface1">
<path style=" stroke:none;fill-rule:evenodd;fill:rgb(100%,100%,100%);fill-opacity:1;" d="M 0.777344 0.769531 L 0.792969 0.769531 L 0.792969 0.789062 L 0.777344 0.789062 Z M 0.777344 0.769531 "/>
<path style=" stroke:none;fill-rule:evenodd;fill:rgb(100%,100%,100%);fill-opacity:1;" d="M 55.746094 82.726562 L 55.765625 82.726562 L 55.765625 82.746094 L 55.746094 82.746094 Z M 55.746094 82.726562 "/>
<path style="fill-rule:evenodd;fill:rgb(100%,100%,100%);fill-opacity:1;stroke-width:0.72;stroke-linecap:round;stroke-linejoin:round;stroke:rgb(0%,0%,0%);stroke-opacity:1;stroke-miterlimit:3;" d="M 0.000772464 44.899639 L 0.000772464 77.978622 L 6.382069 77.978622 L 6.382069 62.401959 C 2.270484 57.565935 0.000772464 51.344023 0.000772464 44.899639 Z M 51.018515 44.899639 C 51.127287 35.373476 46.290554 26.522022 38.353816 21.726117 C 30.417078 16.930211 20.605835 16.930211 12.665471 21.726117 C 4.728733 26.522022 -0.108 35.373476 0.000772464 44.899639 C -0.108 54.425803 4.728733 63.277257 12.665471 68.073162 C 20.605835 72.869068 30.417078 72.869068 38.353816 68.073162 C 46.290554 63.277257 51.127287 54.425803 51.018515 44.899639 Z M 44.648095 62.401959 L 44.648095 77.978622 L 51.018515 77.978622 L 51.018515 44.899639 C 51.022141 51.344023 48.756055 57.565935 44.648095 62.401959 Z M 44.648095 62.401959 " transform="matrix(1.077367,0,0,1.071063,0.784324,-9.879424)"/>
</g>
</svg>
