<?xml version="1.0" encoding="UTF-8"?>
<!--
/*******************************************************************************
* Copyright (c) 2010-2018 ITER Organization.
* All rights reserved. This program and the accompanying materials
* are made available under the terms of the Eclipse Public License v1.0
* which accompanies this distribution, and is available at
* http://www.eclipse.org/legal/epl-v10.html
******************************************************************************/
-->
<svg xmlns="http://www.w3.org/2000/svg" xmlns:xlink="http://www.w3.org/1999/xlink" width="93pt" height="129pt" viewBox="0 0 93 129" version="1.1">
<g id="surface1">
<path style=" stroke:none;fill-rule:evenodd;fill:rgb(100%,100%,100%);fill-opacity:1;" d="M 0.773438 1.066406 L 0.828125 1.066406 L 0.828125 1.144531 L 0.773438 1.144531 Z M 0.773438 1.066406 "/>
<path style=" stroke:none;fill-rule:evenodd;fill:rgb(100%,100%,100%);fill-opacity:1;" d="M 92.027344 127.898438 L 92.082031 127.898438 L 92.082031 127.976562 L 92.027344 127.976562 Z M 92.027344 127.898438 "/>
<path style="fill:none;stroke-width:1;stroke-linecap:round;stroke-linejoin:round;stroke:rgb(0%,0%,0%);stroke-opacity:1;stroke-miterlimit:3;" d="M 51.023038 95.542172 C 51.023038 81.452447 39.599716 70.030426 25.513378 70.030426 C 11.423402 70.030426 0.0000798683 81.452447 0.0000798683 95.542172 C 0.0000798683 109.635561 11.423402 121.053917 25.513378 121.053917 C 39.599716 121.053917 51.023038 109.635561 51.023038 95.542172 Z M 51.023038 95.542172 " transform="matrix(1.073735,0,0,1.065992,19.03507,-55.456551)"/>
<path style="fill:none;stroke-width:1;stroke-linecap:round;stroke-linejoin:round;stroke:rgb(0%,0%,0%);stroke-opacity:1;stroke-miterlimit:3;" d="M 51.023038 95.543361 C 51.023038 81.453637 39.599716 70.031616 25.513378 70.031616 C 11.423402 70.031616 0.0000798683 81.453637 0.0000798683 95.543361 C 0.0000798683 109.633085 11.423402 121.055106 25.513378 121.055106 C 39.599716 121.055106 51.023038 109.633085 51.023038 95.543361 Z M 51.023038 95.543361 " transform="matrix(1.073735,0,0,1.065992,19.03507,-19.1961)"/>
<path style="fill:none;stroke-width:1;stroke-linecap:round;stroke-linejoin:round;stroke:rgb(0%,0%,0%);stroke-opacity:1;stroke-miterlimit:3;" d="M 0.00105864 121.060299 L 17.011332 121.060299 " transform="matrix(0.000000000000000066,-1.065992,1.073735,0.000000000000000066,-83.553134,19.196441)"/>
<path style="fill:none;stroke-width:1;stroke-linecap:round;stroke-linejoin:round;stroke:rgb(0%,0%,0%);stroke-opacity:1;stroke-miterlimit:3;" d="M 0.000232717 121.060972 L 17.010506 121.060972 " transform="matrix(0.000000000000000066,1.065992,-1.073735,0.000000000000000066,176.409325,109.847408)"/>
<path style="fill:none;stroke-width:1;stroke-linecap:round;stroke-linejoin:round;stroke:rgb(0%,0%,0%);stroke-opacity:1;stroke-dasharray:7,10;stroke-miterlimit:3;" d="M 0.0000798683 121.060108 L 51.0194 121.060108 " transform="matrix(1.073735,0,0,1.065992,19.03507,-64.521744)"/>
</g>
</svg>
