<?xml version="1.0" encoding="UTF-8" standalone="no"?>
<!--
/*******************************************************************************
* Copyright (c) 2010-2017 ITER Organization.
* All rights reserved. This program and the accompanying materials
* are made available under the terms of the Eclipse Public License v1.0
* which accompanies this distribution, and is available at
* http://www.eclipse.org/legal/epl-v10.html
******************************************************************************/
-->
<svg
   xmlns:dc="http://purl.org/dc/elements/1.1/"
   xmlns:cc="http://creativecommons.org/ns#"
   xmlns:rdf="http://www.w3.org/1999/02/22-rdf-syntax-ns#"
   xmlns:svg="http://www.w3.org/2000/svg"
   xmlns="http://www.w3.org/2000/svg"
   id="svg2"
   version="1.1"
   viewBox="0 0 99 63"
   height="78.75"
   width="123.75">
  <metadata
     id="metadata21">
    <rdf:RDF>
      <cc:Work
         rdf:about="">
        <dc:format>image/svg+xml</dc:format>
        <dc:type
           rdf:resource="http://purl.org/dc/dcmitype/StillImage" />
        <dc:title></dc:title>
      </cc:Work>
    </rdf:RDF>
  </metadata>
  <defs
     id="defs19" />
  <g
     style="stroke-width:4.24908209;stroke-miterlimit:4;stroke-dasharray:none"
     id="surface1-1"
     transform="matrix(0,0.440754,-0.440754,0,99.411946,-4.2337962)">
    <path
       id="path5-7"
       d="m 1.351563,1.875 0.097656,0 0,0.136719 -0.097656,0 z"
       style="fill:#ffffff;fill-opacity:1;fill-rule:evenodd;stroke:none" />
    <path
       id="path7-4"
       d="m 160.69922,224.46875 0.0977,0 0,0.14062 -0.0977,0 z"
       style="fill:#ffffff;fill-opacity:1;fill-rule:evenodd;stroke:none" />
    <path
       id="path9-0"
       transform="matrix(1.874994,0,0,1.870855,32.708488,-97.331999)"
       d="m 51.024375,95.546602 c 0,-14.089477 -11.422951,-25.510557 -25.512576,-25.510557 -14.089625,0 -25.512575711,11.42108 -25.512575711,25.510557 0,14.089478 11.422950711,25.512648 25.512575711,25.512648 14.089625,0 25.512576,-11.42317 25.512576,-25.512648 z"
       style="fill:none;stroke:#000000;stroke-width:2.26868987;stroke-linecap:round;stroke-linejoin:round;stroke-miterlimit:4;stroke-opacity:1;stroke-dasharray:none" />
    <path
       id="path11-9"
       transform="matrix(1.874994,0,0,1.870855,32.708488,-33.693731)"
       d="m 51.024375,95.547862 c 0,-14.089477 -11.422951,-25.512645 -25.512576,-25.512645 -14.089625,0 -25.512575711,11.423168 -25.512575711,25.512645 0,14.089478 11.422950711,25.510558 25.512575711,25.510558 14.089625,0 25.512576,-11.42108 25.512576,-25.510558 z"
       style="fill:none;stroke:#000000;stroke-width:2.26868987;stroke-linecap:round;stroke-linejoin:round;stroke-miterlimit:4;stroke-opacity:1;stroke-dasharray:none" />
    <path
       id="path13-4"
       transform="matrix(0,-1.870855,1.874994,0,-145.93142,33.694105)"
       d="m -6.45373e-4,121.05962 17.010518373,0"
       style="fill:none;stroke:#000000;stroke-width:2.26868987;stroke-linecap:round;stroke-linejoin:round;stroke-miterlimit:4;stroke-opacity:1;stroke-dasharray:none" />
    <path
       id="path15-8"
       transform="matrix(0,1.870855,-1.874994,0,308.03754,192.78977)"
       d="m -3.80505e-4,121.05997 17.010517505,0"
       style="fill:none;stroke:#000000;stroke-width:2.26868987;stroke-linecap:round;stroke-linejoin:round;stroke-miterlimit:4;stroke-opacity:1;stroke-dasharray:none" />
  </g>
</svg>
