<?xml version="1.0" encoding="UTF-8"?>
<!--
/*******************************************************************************
* Copyright (c) 2010-2018 ITER Organization.
* All rights reserved. This program and the accompanying materials
* are made available under the terms of the Eclipse Public License v1.0
* which accompanies this distribution, and is available at
* http://www.eclipse.org/legal/epl-v10.html
******************************************************************************/
-->
<svg xmlns="http://www.w3.org/2000/svg" xmlns:xlink="http://www.w3.org/1999/xlink" width="112pt" height="57pt" viewBox="0 0 112 57" version="1.1">
<g id="surface0">
<path style=" stroke:none;fill-rule:evenodd;fill:rgb(100%,100%,100%);fill-opacity:1;" d="M 1.074219 1.078125 L 1.144531 1.078125 L 1.144531 1.109375 L 1.074219 1.109375 Z M 1.074219 1.078125 "/>
<path style=" stroke:none;fill-rule:evenodd;fill:rgb(100%,100%,100%);fill-opacity:1;" d="M 110.792969 56.015625 L 110.859375 56.015625 L 110.859375 56.046875 L 110.792969 56.046875 Z M 110.792969 56.015625 "/>
<path style="fill:none;stroke-width:1;stroke-linecap:round;stroke-linejoin:round;stroke:rgb(0%,0%,0%);stroke-opacity:1;stroke-miterlimit:3;" d="M 51.022728 27.511345 C 51.022728 13.421754 39.599752 2.000702 25.511657 2.000702 C 11.423562 2.000702 0.000585448 13.421754 0.000585448 27.511345 C 0.000585448 41.600936 11.423562 53.021988 25.511657 53.021988 C 39.599752 53.021988 51.022728 41.600936 51.022728 27.511345 Z M 51.022728 27.511345 " transform="matrix(1.07582,0,0,1.077369,55.96812,-1.077369)"/>
<path style=" stroke:none;fill-rule:nonzero;fill:rgb(0%,0%,0%);fill-opacity:1;" d="M 75.4375 33.960938 L 75.4375 24.707031 L 78.621094 24.707031 C 79.339844 24.710938 79.886719 24.753906 80.265625 24.839844 C 80.792969 24.964844 81.246094 25.1875 81.621094 25.503906 C 82.109375 25.917969 82.472656 26.445312 82.714844 27.085938 C 82.953125 27.730469 83.074219 28.460938 83.078125 29.285156 C 83.074219 29.988281 82.992188 30.609375 82.832031 31.152344 C 82.664062 31.695312 82.457031 32.144531 82.203125 32.5 C 81.945312 32.859375 81.660156 33.136719 81.359375 33.339844 C 81.054688 33.542969 80.6875 33.699219 80.257812 33.804688 C 79.824219 33.910156 79.332031 33.960938 78.773438 33.960938 Z M 76.660156 32.867188 L 78.632812 32.867188 C 79.242188 32.871094 79.71875 32.816406 80.066406 32.699219 C 80.414062 32.589844 80.691406 32.429688 80.898438 32.21875 C 81.1875 31.933594 81.410156 31.542969 81.574219 31.046875 C 81.734375 30.558594 81.8125 29.964844 81.816406 29.265625 C 81.8125 28.300781 81.65625 27.554688 81.339844 27.035156 C 81.023438 26.515625 80.636719 26.167969 80.183594 25.988281 C 79.855469 25.863281 79.328125 25.800781 78.601562 25.800781 L 76.660156 25.800781 Z M 76.660156 32.867188 "/>
<path style=" stroke:none;fill-rule:nonzero;fill:rgb(0%,0%,0%);fill-opacity:1;" d="M 83.746094 33.960938 L 87.296875 24.707031 L 88.613281 24.707031 L 92.394531 33.960938 L 91.003906 33.960938 L 89.925781 31.160156 L 86.058594 31.160156 L 85.046875 33.960938 Z M 86.414062 30.160156 L 89.546875 30.160156 L 88.582031 27.597656 C 88.285156 26.820312 88.066406 26.183594 87.925781 25.679688 C 87.804688 26.273438 87.636719 26.863281 87.425781 27.449219 Z M 86.414062 30.160156 "/>
<path style="fill:none;stroke-width:1;stroke-linecap:round;stroke-linejoin:round;stroke:rgb(0%,0%,0%);stroke-opacity:1;stroke-miterlimit:3;" d="M -0.000585448 53.020441 L 25.510486 53.020441 " transform="matrix(-1.07582,0.000000000000000132,-0.000000000000000132,-1.077369,55.96812,85.688983)"/>
<path style="fill:none;stroke-width:1;stroke-linecap:round;stroke-linejoin:round;stroke:rgb(0%,0%,0%);stroke-opacity:1;stroke-miterlimit:3;" d="M 0.000701754 53.02 L 51.021988 53.02 " transform="matrix(0.000000000000000066,1.077369,-1.07582,0.000000000000000066,58.188397,1.077369)"/>
<path style="fill:none;stroke-width:1;stroke-linecap:round;stroke-linejoin:round;stroke:rgb(0%,0%,0%);stroke-opacity:1;stroke-miterlimit:3;" d="M 0.000121525 53.02229 L 25.510765 53.02229 " transform="matrix(0.000000000000000066,1.077369,-1.07582,0.000000000000000066,85.56586,14.820182)"/>
<path style="fill:none;stroke-width:1;stroke-linecap:round;stroke-linejoin:round;stroke:rgb(0%,0%,0%);stroke-opacity:1;stroke-miterlimit:3;" d="M -0.000963179 53.021694 L 28.521176 53.021482 " transform="matrix(0.962242,0.481815,-0.481122,0.963628,26.655364,-49.983355)"/>
<path style="fill:none;stroke-width:1;stroke-linecap:round;stroke-linejoin:round;stroke:rgb(0%,0%,0%);stroke-opacity:1;stroke-miterlimit:3;" d="M -0.000704926 53.021445 L 28.521434 53.021657 " transform="matrix(0.962242,-0.481815,0.481122,0.963628,-24.434889,4.953582)"/>
</g>
</svg>
