<?xml version="1.0" encoding="UTF-8"?>
<!--
/*******************************************************************************
* Copyright (c) 2010-2018 ITER Organization.
* All rights reserved. This program and the accompanying materials
* are made available under the terms of the Eclipse Public License v1.0
* which accompanies this distribution, and is available at
* http://www.eclipse.org/legal/epl-v10.html
******************************************************************************/
-->
<svg xmlns="http://www.w3.org/2000/svg" xmlns:xlink="http://www.w3.org/1999/xlink" width="56pt" height="29pt" viewBox="0 0 56 29" version="1.1">
<g id="surface0">
<path style="fill-rule:evenodd;fill:rgb(100%,100%,100%);fill-opacity:1;stroke-width:0.720001;stroke-linecap:butt;stroke-linejoin:miter;stroke:rgb(0%,0%,0%);stroke-opacity:1;stroke-miterlimit:3;" d="M -0.00129581 14.200497 C 0.0835854 7.211972 5.766934 1.595405 12.753024 1.595405 C 19.742804 1.595405 25.426153 7.211972 25.511034 14.200497 C 25.566391 18.794532 23.145433 23.06121 19.17816 25.371101 C 15.207197 27.68467 10.302541 27.68467 6.331578 25.371101 C 2.364306 23.06121 -0.0529626 18.794532 -0.00129581 14.200497 Z M -0.00129581 14.200497 " transform="matrix(1.058465,0,0,1.062009,0.76309,-0.764647)"/>
<path style="fill-rule:evenodd;fill:rgb(100%,100%,100%);fill-opacity:1;stroke-width:0.720001;stroke-linecap:butt;stroke-linejoin:miter;stroke:rgb(0%,0%,0%);stroke-opacity:1;stroke-miterlimit:3;" d="M -0.00234073 1.602025 L 12.75936 1.602025 L -0.00234073 27.110139 L 12.75936 27.110139 Z M -0.00234073 1.602025 " transform="matrix(1.058465,0,0,1.062009,41.268103,-0.931834)"/>
<path style="fill:none;stroke-width:0.720001;stroke-linecap:butt;stroke-linejoin:miter;stroke:rgb(0%,0%,0%);stroke-opacity:1;stroke-dasharray:1.44,0.720001;stroke-miterlimit:3;" d="M -0.00076244 27.110117 L 18.879764 27.110117 " transform="matrix(1.058465,0,0,1.062009,27.766432,-14.478685)"/>
<path style=" stroke:none;fill-rule:nonzero;fill:rgb(0%,0%,0%);fill-opacity:1;" d="M 12.089844 10.394531 L 12.089844 5.835938 L 12.992188 5.835938 L 14.070312 9.0625 C 14.164062 9.367188 14.238281 9.589844 14.289062 9.738281 C 14.335938 9.574219 14.417969 9.332031 14.527344 9.007812 L 15.617188 5.835938 L 16.425781 5.835938 L 16.425781 10.394531 L 15.847656 10.394531 L 15.847656 6.578125 L 14.523438 10.394531 L 13.984375 10.394531 L 12.667969 6.511719 L 12.667969 10.394531 Z M 12.089844 10.394531 "/>
</g>
</svg>
