<?xml version="1.0" encoding="UTF-8"?>
<!--
/*******************************************************************************
* Copyright (c) 2010-2018 ITER Organization.
* All rights reserved. This program and the accompanying materials
* are made available under the terms of the Eclipse Public License v1.0
* which accompanies this distribution, and is available at
* http://www.eclipse.org/legal/epl-v10.html
******************************************************************************/
-->
<svg xmlns="http://www.w3.org/2000/svg" xmlns:xlink="http://www.w3.org/1999/xlink" width="93pt" height="129pt" viewBox="0 0 93 129" version="1.1">
<g id="surface1">
<path style=" stroke:none;fill-rule:evenodd;fill:rgb(100%,100%,100%);fill-opacity:1;" d="M 0.773438 1.066406 L 0.828125 1.066406 L 0.828125 1.144531 L 0.773438 1.144531 Z M 0.773438 1.066406 "/>
<path style=" stroke:none;fill-rule:evenodd;fill:rgb(100%,100%,100%);fill-opacity:1;" d="M 92.027344 127.898438 L 92.082031 127.898438 L 92.082031 127.980469 L 92.027344 127.980469 Z M 92.027344 127.898438 "/>
<path style="fill:none;stroke-width:0.999998;stroke-linecap:round;stroke-linejoin:round;stroke:rgb(0%,0%,0%);stroke-opacity:1;stroke-miterlimit:3;" d="M 51.022661 95.547864 C 51.022661 81.458125 39.602965 70.036092 25.512974 70.036092 C 11.422983 70.036092 -0.000351307 81.458125 -0.000351307 95.547864 C -0.000351307 109.637604 11.422983 121.059637 25.512974 121.059637 C 39.602965 121.059637 51.022661 109.637604 51.022661 95.547864 Z M 51.022661 95.547864 " transform="matrix(1.073734,0,0,1.065991,18.730846,-55.458604)"/>
<path style="fill:none;stroke-width:0.999998;stroke-linecap:round;stroke-linejoin:round;stroke:rgb(0%,0%,0%);stroke-opacity:1;stroke-miterlimit:3;" d="M 51.022661 95.549176 C 51.022661 81.459436 39.602965 70.033739 25.512974 70.033739 C 11.422983 70.033739 -0.000351307 81.459436 -0.000351307 95.549176 C -0.000351307 109.638915 11.422983 121.057284 25.512974 121.057284 C 39.602965 121.057284 51.022661 109.638915 51.022661 95.549176 Z M 51.022661 95.549176 " transform="matrix(1.073734,0,0,1.065991,18.730846,-19.198283)"/>
<path style="fill:none;stroke-width:0.999998;stroke-linecap:round;stroke-linejoin:round;stroke:rgb(0%,0%,0%);stroke-opacity:1;stroke-miterlimit:3;" d="M -0.000677798 121.060746 L 17.009614 121.060746 " transform="matrix(0.000000000000000066,-1.065991,1.073734,0.000000000000000066,-83.569101,19.198496)"/>
<path style="fill:none;stroke-width:0.999998;stroke-linecap:round;stroke-linejoin:round;stroke:rgb(0%,0%,0%);stroke-opacity:1;stroke-miterlimit:3;" d="M -0.0015392 121.060447 L 17.008752 121.060447 " transform="matrix(0.000000000000000066,1.065991,-1.073734,0.000000000000000066,176.40081,109.849297)"/>
</g>
</svg>
