<?xml version="1.0" encoding="UTF-8"?>
<!--
/*******************************************************************************
* Copyright (c) 2010-2018 ITER Organization.
* All rights reserved. This program and the accompanying materials
* are made available under the terms of the Eclipse Public License v1.0
* which accompanies this distribution, and is available at
* http://www.eclipse.org/legal/epl-v10.html
******************************************************************************/
-->
<svg xmlns="http://www.w3.org/2000/svg" xmlns:xlink="http://www.w3.org/1999/xlink" width="94pt" height="130pt" viewBox="0 0 94 130" version="1.1">
<g id="surface1">
<path style="fill:none;stroke-width:1;stroke-linecap:round;stroke-linejoin:round;stroke:rgb(0%,0%,0%);stroke-opacity:1;stroke-miterlimit:3;" d="M 51.023052 95.543359 C 51.023052 81.454555 39.601237 70.032378 25.5124 70.032378 C 11.423564 70.032378 -0.00187431 81.454555 -0.00187431 95.543359 C -0.00187431 109.632163 11.423564 121.05434 25.5124 121.05434 C 39.601237 121.05434 51.023052 109.632163 51.023052 95.543359 Z M 51.023052 95.543359 " transform="matrix(1.077981,0,0,1.075211,19.412177,-55.936302)"/>
<path style="fill:none;stroke-width:1;stroke-linecap:round;stroke-linejoin:round;stroke:rgb(0%,0%,0%);stroke-opacity:1;stroke-miterlimit:3;" d="M -0.00097074 121.05833 L 17.008772 121.05833 " transform="matrix(0.000000000000000066,1.075211,-1.077981,0.000000000000000066,177.408749,1.075262)"/>
<path style="fill:none;stroke-width:1;stroke-linecap:round;stroke-linejoin:round;stroke:rgb(0%,0%,0%);stroke-opacity:1;stroke-miterlimit:3;" d="M 51.025059 95.543507 C 51.025059 81.454703 39.599621 70.028893 25.514408 70.028893 C 11.421948 70.028893 0.000133481 81.454703 0.000133481 95.543507 C 0.000133481 109.632312 11.421948 121.054488 25.514408 121.054488 C 39.599621 121.054488 51.025059 109.632312 51.025059 95.543507 Z M 51.025059 95.543507 " transform="matrix(1.077981,0,0,1.075211,1.077981,-19.362243)"/>
<path style="fill:none;stroke-width:1;stroke-linecap:round;stroke-linejoin:round;stroke:rgb(0%,0%,0%);stroke-opacity:1;stroke-miterlimit:3;" d="M 51.024767 95.543507 C 51.024767 81.454703 39.602953 70.028893 25.510493 70.028893 C 11.421656 70.028893 -0.000158466 81.454703 -0.000158466 95.543507 C -0.000158466 109.632312 11.421656 121.054488 25.510493 121.054488 C 39.602953 121.054488 51.024767 109.632312 51.024767 95.543507 Z M 51.024767 95.543507 " transform="matrix(1.077981,0,0,1.075211,37.746265,-19.362243)"/>
<path style="fill:none;stroke-width:1;stroke-linecap:round;stroke-linejoin:round;stroke:rgb(0%,0%,0%);stroke-opacity:1;stroke-miterlimit:3;" d="M -0.000425113 121.059846 L 17.009318 121.059846 " transform="matrix(0.000000000000000066,1.075211,-1.077981,0.000000000000000066,159.074446,110.797332)"/>
<path style="fill:none;stroke-width:1;stroke-linecap:round;stroke-linejoin:round;stroke:rgb(0%,0%,0%);stroke-opacity:1;stroke-miterlimit:3;" d="M -0.000425113 121.060437 L 17.009318 121.060437 " transform="matrix(0.000000000000000066,1.075211,-1.077981,0.000000000000000066,195.743052,110.797332)"/>
</g>
</svg>
