<?xml version="1.0" encoding="UTF-8"?>
<!--
/*******************************************************************************
* Copyright (c) 2010-2018 ITER Organization.
* All rights reserved. This program and the accompanying materials
* are made available under the terms of the Eclipse Public License v1.0
* which accompanies this distribution, and is available at
* http://www.eclipse.org/legal/epl-v10.html
******************************************************************************/
-->
<svg xmlns="http://www.w3.org/2000/svg" xmlns:xlink="http://www.w3.org/1999/xlink" width="29pt" height="56pt" viewBox="0 0 29 56" version="1.1">
<g id="surface0">
<path style=" stroke:none;fill-rule:evenodd;fill:rgb(100%,100%,100%);fill-opacity:1;" d="M 0.765625 1.058594 L 0.78125 1.058594 L 0.78125 1.089844 L 0.765625 1.089844 Z M 0.765625 1.058594 "/>
<path style=" stroke:none;fill-rule:evenodd;fill:rgb(100%,100%,100%);fill-opacity:1;" d="M 27.84375 55.03125 L 27.859375 55.03125 L 27.859375 55.066406 L 27.84375 55.066406 Z M 27.84375 55.03125 "/>
<path style="fill:none;stroke-width:0.576391;stroke-linecap:square;stroke-linejoin:miter;stroke:rgb(0%,0%,0%);stroke-opacity:1;stroke-miterlimit:3;" d="M 0.000748984 53.018877 L 17.010077 53.018877 Z M 0.000748984 53.018877 " transform="matrix(0,3.185982,-1.062012,0,70.60745,1.079645)"/>
<path style="fill:none;stroke-width:0.576391;stroke-linecap:round;stroke-linejoin:round;stroke:rgb(0%,0%,0%);stroke-opacity:1;stroke-miterlimit:3;" d="M 0.000748984 53.018877 L 17.010077 53.018877 " transform="matrix(0,3.185982,-1.062012,0,70.60745,1.079645)"/>
<path style="fill:none;stroke-width:1;stroke-linecap:round;stroke-linejoin:round;stroke:rgb(0%,0%,0%);stroke-opacity:1;stroke-miterlimit:3;" d="M 0.000707886 53.020008 L 8.499875 53.020008 " transform="matrix(0,1.058468,-1.062012,0,64.803964,23.413313)"/>
<path style="fill:none;stroke-width:1;stroke-linecap:square;stroke-linejoin:miter;stroke:rgb(0%,0%,0%);stroke-opacity:1;stroke-miterlimit:3;" d="M 0.00172414 53.019405 L 4.25 53.019405 Z M 0.00172414 53.019405 " transform="matrix(1.062012,0,0,1.058468,9.0802,-27.943548)"/>
<path style="fill:none;stroke-width:1;stroke-linecap:round;stroke-linejoin:round;stroke:rgb(0%,0%,0%);stroke-opacity:1;stroke-miterlimit:3;" d="M 0.00172414 53.019405 L 4.25 53.019405 " transform="matrix(1.062012,0,0,1.058468,9.0802,-27.943548)"/>
</g>
</svg>
