<?xml version="1.0" encoding="UTF-8" standalone="no"?>
<!--
/*******************************************************************************
* Copyright (c) 2010-2016 ITER Organization.
* All rights reserved. This program and the accompanying materials
* are made available under the terms of the Eclipse Public License v1.0
* which accompanies this distribution, and is available at
* http://www.eclipse.org/legal/epl-v10.html
******************************************************************************/
-->
<!-- Created with Inkscape (http://www.inkscape.org/) -->

<svg
   xmlns:dc="http://purl.org/dc/elements/1.1/"
   xmlns:cc="http://creativecommons.org/ns#"
   xmlns:rdf="http://www.w3.org/1999/02/22-rdf-syntax-ns#"
   xmlns:svg="http://www.w3.org/2000/svg"
   xmlns="http://www.w3.org/2000/svg"
   xmlns:sodipodi="http://sodipodi.sourceforge.net/DTD/sodipodi-0.dtd"
   xmlns:inkscape="http://www.inkscape.org/namespaces/inkscape"
   width="36.913116pt"
   height="67.123894pt"
   viewBox="0 0 46.141397 83.904866"
   id="svg4164"
   version="1.1"
   inkscape:version="0.91 r13725"
   sodipodi:docname="OL_EE0731.svg">
  <defs
     id="defs4166" />
  <sodipodi:namedview
     id="base"
     pagecolor="#ffffff"
     bordercolor="#666666"
     borderopacity="1.0"
     inkscape:pageopacity="0.0"
     inkscape:pageshadow="2"
     inkscape:zoom="1.62"
     inkscape:cx="-21.01251"
     inkscape:cy="-26.61901"
     inkscape:document-units="px"
     inkscape:current-layer="layer1"
     showgrid="false"
     units="pt"
     fit-margin-left="9.8"
     fit-margin-right="9.8"
     fit-margin-top="0"
     fit-margin-bottom="0"
     inkscape:window-width="1366"
     inkscape:window-height="706"
     inkscape:window-x="-8"
     inkscape:window-y="-8"
     inkscape:window-maximized="1" />
  <metadata
     id="metadata4169">
    <rdf:RDF>
      <cc:Work
         rdf:about="">
        <dc:format>image/svg+xml</dc:format>
        <dc:type
           rdf:resource="http://purl.org/dc/dcmitype/StillImage" />
        <dc:title></dc:title>
      </cc:Work>
    </rdf:RDF>
  </metadata>
  <g
     inkscape:label="Layer 1"
     inkscape:groupmode="layer"
     id="layer1"
     transform="translate(-322.64359,-421.83834)">
    <g
       transform="matrix(1.25,0,0,1.25,333.16507,420.64381)"
       id="surface1"
       style="stroke-width:1.88;stroke-miterlimit:3;stroke-dasharray:none">
      <path
         inkscape:connector-curvature="0"
         style="fill:#ffffff;fill-opacity:1;fill-rule:evenodd;stroke:none;stroke-width:1.88;stroke-miterlimit:3;stroke-dasharray:none"
         d="m 1.382813,1.917969 0.011718,0 0,0.039062 -0.011718,0 z"
         id="path5" />
      <path
         inkscape:connector-curvature="0"
         style="fill:#ffffff;fill-opacity:1;fill-rule:evenodd;stroke:none;stroke-width:1.88;stroke-miterlimit:3;stroke-dasharray:none"
         d="m 17.726563,67.074219 0.01172,0 0,0.03906 -0.01172,0 z"
         id="path7" />
      <path
         inkscape:connector-curvature="0"
         style="fill:none;stroke:#000000;stroke-width:0.97923153;stroke-linecap:round;stroke-linejoin:round;stroke-miterlimit:3;stroke-opacity:1;stroke-dasharray:none"
         d="m 5.16263e-4,27.510439 c 2.346089737,0 4.249366737,1.903529 4.249366737,4.249313 0.00203,1.129074 -0.444843,2.211273 -1.241091,3.012223 -0.79828,0.798911 -1.880934,1.24728 -3.008275737,1.24728"
         transform="matrix(1.923081,0,0,1.91667,9.561507,-50.814379)"
         id="path9" />
      <path
         inkscape:connector-curvature="0"
         style="fill:none;stroke:#000000;stroke-width:0.97923153;stroke-linecap:round;stroke-linejoin:round;stroke-miterlimit:3;stroke-opacity:1;stroke-dasharray:none"
         d="M 5.16263e-4,27.509241 C 2.346606,27.511279 4.249883,29.41277 4.249883,31.760591 4.251914,32.889665 3.80504,33.971864 3.008792,34.770776 2.210512,35.569687 1.127858,36.020094 5.16263e-4,36.020094"
         transform="matrix(1.923081,0,0,1.91667,9.561507,-34.515207)"
         id="path11" />
      <path
         inkscape:connector-curvature="0"
         style="fill:none;stroke:#000000;stroke-width:0.97923153;stroke-linecap:round;stroke-linejoin:round;stroke-miterlimit:3;stroke-opacity:1;stroke-dasharray:none"
         d="M 5.16263e-4,27.51002 C 2.346606,27.512058 4.249883,29.413549 4.249883,31.759333 4.251914,32.888407 3.80504,33.972644 3.008792,34.771555 2.210512,35.570467 1.127858,36.018836 5.16263e-4,36.020874"
         transform="matrix(1.923081,0,0,1.91667,9.561507,-18.215919)"
         id="path13" />
      <path
         inkscape:connector-curvature="0"
         style="fill:none;stroke:#000000;stroke-width:0.97923153;stroke-linecap:round;stroke-linejoin:round;stroke-miterlimit:3;stroke-opacity:1;stroke-dasharray:none"
         d="m 5.16263e-4,27.51082 c 2.346089737,0 4.249366737,1.90149 4.249366737,4.249312 0.00203,1.129074 -0.444843,2.211273 -1.241091,3.010185 -0.79828,0.798911 -1.880934,1.249318 -3.008275737,1.249318"
         transform="matrix(1.923081,0,0,1.91667,9.561507,-1.91667)"
         id="path15" />
    </g>
  </g>
</svg>
