<?xml version="1.0" encoding="UTF-8"?>
<!--
/*******************************************************************************
* Copyright (c) 2010-2018 ITER Organization.
* All rights reserved. This program and the accompanying materials
* are made available under the terms of the Eclipse Public License v1.0
* which accompanies this distribution, and is available at
* http://www.eclipse.org/legal/epl-v10.html
******************************************************************************/
-->
<svg xmlns="http://www.w3.org/2000/svg" xmlns:xlink="http://www.w3.org/1999/xlink" width="29pt" height="38pt" viewBox="0 0 29 38" version="1.1">
<g id="surface0">
<path style=" stroke:none;fill-rule:evenodd;fill:rgb(100%,100%,100%);fill-opacity:1;" d="M 1.0625 1.050781 L 1.078125 1.050781 L 1.078125 1.074219 L 1.0625 1.074219 Z M 1.0625 1.050781 "/>
<path style=" stroke:none;fill-rule:evenodd;fill:rgb(100%,100%,100%);fill-opacity:1;" d="M 28.140625 36.828125 L 28.15625 36.828125 L 28.15625 36.851562 L 28.140625 36.851562 Z M 28.140625 36.828125 "/>
<path style=" stroke:none;fill-rule:evenodd;fill:rgb(100%,100%,100%);fill-opacity:1;" d="M 1.0625 1.054688 L 1.078125 1.054688 L 1.078125 1.074219 L 1.0625 1.074219 Z M 1.0625 1.054688 "/>
<path style=" stroke:none;fill-rule:evenodd;fill:rgb(100%,100%,100%);fill-opacity:1;" d="M 28.140625 36.832031 L 28.15625 36.832031 L 28.15625 36.851562 L 28.140625 36.851562 Z M 28.140625 36.832031 "/>
<path style="fill:none;stroke-width:1;stroke-linecap:round;stroke-linejoin:round;stroke:rgb(0%,0%,0%);stroke-opacity:1;stroke-miterlimit:3;" d="M 0.000371329 27.510256 C 2.347039 27.510256 4.248649 29.41065 4.248649 31.76016 C 4.252328 32.888519 3.803592 33.972338 3.009109 34.770355 C 2.210947 35.572083 1.129567 36.0212 0.000371329 36.0212 " transform="matrix(1.062011,0,0,1.052413,19.124606,-27.901381)"/>
<path style="fill:none;stroke-width:1;stroke-linecap:round;stroke-linejoin:round;stroke:rgb(0%,0%,0%);stroke-opacity:1;stroke-miterlimit:3;" d="M 0.000371329 27.509874 C 2.347039 27.509874 4.248649 29.41398 4.248649 31.759779 C 4.252328 32.888138 3.803592 33.971956 3.009109 34.769973 C 2.210947 35.56799 1.129567 36.020818 0.000371329 36.020818 " transform="matrix(1.062011,0,0,1.052413,19.124606,-18.95176)"/>
<path style="fill:none;stroke-width:1;stroke-linecap:round;stroke-linejoin:round;stroke:rgb(0%,0%,0%);stroke-opacity:1;stroke-miterlimit:3;" d="M 0.000371329 27.509442 C 2.347039 27.509442 4.248649 29.413548 4.248649 31.759347 C 4.252328 32.891417 3.803592 33.971524 3.009109 34.769541 C 2.210947 35.57127 1.129567 36.020386 0.000371329 36.020386 " transform="matrix(1.062011,0,0,1.052413,19.124606,-10.002087)"/>
<path style="fill:none;stroke-width:1;stroke-linecap:round;stroke-linejoin:round;stroke:rgb(0%,0%,0%);stroke-opacity:1;stroke-miterlimit:3;" d="M 0.000449637 27.510256 C 2.347118 27.510256 4.248728 29.41065 4.248728 31.76016 C 4.252406 32.888519 3.807348 33.972338 3.009187 34.770355 C 2.211026 35.572083 1.129646 36.0212 0.000449637 36.0212 " transform="matrix(1.062011,0,0,1.052413,1.062022,-27.901381)"/>
<path style="fill:none;stroke-width:1;stroke-linecap:round;stroke-linejoin:round;stroke:rgb(0%,0%,0%);stroke-opacity:1;stroke-miterlimit:3;" d="M 0.000449637 27.509874 C 2.347118 27.509874 4.248728 29.41398 4.248728 31.759779 C 4.252406 32.888138 3.807348 33.971956 3.009187 34.769973 C 2.211026 35.56799 1.129646 36.020818 0.000449637 36.020818 " transform="matrix(1.062011,0,0,1.052413,1.062022,-18.95176)"/>
<path style="fill:none;stroke-width:1;stroke-linecap:round;stroke-linejoin:round;stroke:rgb(0%,0%,0%);stroke-opacity:1;stroke-miterlimit:3;" d="M 0.000449637 27.509442 C 2.347118 27.509442 4.248728 29.413548 4.248728 31.759347 C 4.252406 32.891417 3.807348 33.971524 3.009187 34.769541 C 2.211026 35.57127 1.129646 36.020386 0.000449637 36.020386 " transform="matrix(1.062011,0,0,1.052413,1.062022,-10.002087)"/>
<path style="fill:none;stroke-width:1;stroke-linecap:round;stroke-linejoin:round;stroke:rgb(0%,0%,0%);stroke-opacity:1;stroke-miterlimit:3;" d="M 0.000449637 27.512722 C 2.347118 27.512722 4.248728 29.413116 4.248728 31.758915 C 4.252406 32.887274 3.807348 33.971092 3.009187 34.772821 C 2.211026 35.570838 1.129646 36.019954 0.000449637 36.019954 " transform="matrix(1.062011,0,0,1.052413,1.062022,-1.052413)"/>
<path style="fill:none;stroke-width:1;stroke-linecap:round;stroke-linejoin:round;stroke:rgb(0%,0%,0%);stroke-opacity:1;stroke-miterlimit:3;" d="M -0.00147331 36.017858 L 8.498335 36.017858 " transform="matrix(0.000000000000000065,1.052413,-1.062011,0.000000000000000064,57.380273,27.907801)"/>
</g>
</svg>
