<?xml version="1.0" encoding="UTF-8"?>
<!--
/*******************************************************************************
* Copyright (c) 2010-2018 ITER Organization.
* All rights reserved. This program and the accompanying materials
* are made available under the terms of the Eclipse Public License v1.0
* which accompanies this distribution, and is available at
* http://www.eclipse.org/legal/epl-v10.html
******************************************************************************/
-->
<svg xmlns="http://www.w3.org/2000/svg" xmlns:xlink="http://www.w3.org/1999/xlink" width="41pt" height="12pt" viewBox="0 0 41 12" version="1.1">
<g id="surface0">
<path style="fill:none;stroke-width:1.00056;stroke-linecap:round;stroke-linejoin:round;stroke:rgb(0%,0%,0%);stroke-opacity:1;stroke-miterlimit:4;" d="M 14.000417 8.500077 C 14.000417 10.984554 11.312121 12.999672 7.998248 12.999672 C 4.684374 12.999672 2.000306 10.984554 2.000306 8.500077 C 2.000306 6.015599 4.684374 4.000482 7.998248 4.000482 C 11.312121 4.000482 14.000417 6.015599 14.000417 8.500077 Z M 14.000417 8.500077 " transform="matrix(0.924145,0,0,1.248376,-1.407167,-4.525356)"/>
<path style="fill:none;stroke-width:1.009761;stroke-linecap:round;stroke-linejoin:round;stroke:rgb(0%,0%,0%);stroke-opacity:1;stroke-miterlimit:4;" d="M 47.000066 8.998919 C 47.000066 11.76287 44.539721 14.001843 41.502066 14.001843 C 38.460537 14.001843 36.000192 11.76287 36.000192 8.998919 C 36.000192 6.238446 38.460537 3.999472 41.502066 3.999472 C 44.539721 3.999472 47.000066 6.238446 47.000066 8.998919 Z M 47.000066 8.998919 " transform="matrix(1.008179,0,0,1.123562,-6.779019,-4.024904)"/>
<path style="fill:none;stroke-width:1.25;stroke-linecap:round;stroke-linejoin:round;stroke:rgb(0%,0%,0%);stroke-opacity:1;stroke-miterlimit:4;" d="M 7.527439 1038.908381 L 40.783537 1038.908381 " transform="matrix(0.854167,0,0,0.865385,0,-898.582673)"/>
<path style="fill:none;stroke-width:1.25;stroke-linecap:round;stroke-linejoin:round;stroke:rgb(0%,0%,0%);stroke-opacity:1;stroke-miterlimit:4;" d="M 6.969512 1051.890325 L 40.998476 1051.890325 " transform="matrix(0.854167,0,0,0.865385,0,-898.582673)"/>
</g>
</svg>
