<?xml version="1.0" encoding="UTF-8"?>
<!--
/*******************************************************************************
* Copyright (c) 2010-2018 ITER Organization.
* All rights reserved. This program and the accompanying materials
* are made available under the terms of the Eclipse Public License v1.0
* which accompanies this distribution, and is available at
* http://www.eclipse.org/legal/epl-v10.html
******************************************************************************/
-->
<svg xmlns="http://www.w3.org/2000/svg" xmlns:xlink="http://www.w3.org/1999/xlink" width="20pt" height="38pt" viewBox="0 0 20 38" version="1.1">
<g id="surface0">
<path style=" stroke:none;fill-rule:evenodd;fill:rgb(100%,100%,100%);fill-opacity:1;" d="M 0.777344 1.050781 L 0.789062 1.050781 L 0.789062 1.074219 L 0.777344 1.074219 Z M 0.777344 1.050781 "/>
<path style=" stroke:none;fill-rule:evenodd;fill:rgb(100%,100%,100%);fill-opacity:1;" d="M 19.148438 36.933594 L 19.160156 36.933594 L 19.160156 36.957031 L 19.148438 36.957031 Z M 19.148438 36.933594 "/>
<path style="fill:none;stroke-width:0.999997;stroke-linecap:round;stroke-linejoin:round;stroke:rgb(0%,0%,0%);stroke-opacity:1;stroke-miterlimit:3;" d="M 0.000269917 35.729042 L 8.929971 35.729042 " transform="matrix(0.000000000000000066,-1.055554,1.080779,0.000000000000000065,-28.650353,10.48466)"/>
<path style="fill-rule:evenodd;fill:rgb(100%,100%,100%);fill-opacity:1;stroke-width:0.72;stroke-linecap:round;stroke-linejoin:round;stroke:rgb(0%,0%,0%);stroke-opacity:1;stroke-miterlimit:3;" d="M 0.000211863 19.776307 L 15.953693 19.776307 L 15.953693 35.733569 L 0.000211863 35.733569 Z M 0.000211863 19.776307 " transform="matrix(1.080779,0,0,1.055554,1.257584,-10.304647)"/>
<path style="fill:none;stroke-width:1;stroke-linecap:round;stroke-linejoin:round;stroke:rgb(0%,0%,0%);stroke-opacity:1;stroke-miterlimit:3;" d="M -0.000807506 35.72916 L 21.11022 35.730189 " transform="matrix(0.764226,0.746389,-0.764226,0.746389,29.083119,-15.397729)"/>
<path style="fill:none;stroke-width:1;stroke-linecap:round;stroke-linejoin:round;stroke:rgb(0%,0%,0%);stroke-opacity:1;stroke-miterlimit:3;" d="M -0.000713104 35.730741 L 21.81109 35.729195 " transform="matrix(0.764226,-0.746389,0.764226,0.746389,-25.649571,0.435894)"/>
<path style="fill-rule:evenodd;fill:rgb(0%,0%,0%);fill-opacity:1;stroke-width:1;stroke-linecap:round;stroke-linejoin:round;stroke:rgb(0%,0%,0%);stroke-opacity:1;stroke-miterlimit:3;" d="M 3.588812 33.936184 C 3.588812 32.944406 2.78644 32.141362 1.796124 32.141362 C 0.802194 32.141362 -0.000178743 32.944406 -0.000178743 33.936184 C -0.000178743 34.927962 0.802194 35.731006 1.796124 35.731006 C 2.78644 35.731006 3.588812 34.927962 3.588812 33.936184 Z M 3.588812 33.936184 " transform="matrix(1.080779,0,0,1.055554,7.883006,-16.68866)"/>
</g>
</svg>
