<?xml version="1.0" encoding="UTF-8"?>
<!--
/*******************************************************************************
* Copyright (c) 2010-2018 ITER Organization.
* All rights reserved. This program and the accompanying materials
* are made available under the terms of the Eclipse Public License v1.0
* which accompanies this distribution, and is available at
* http://www.eclipse.org/legal/epl-v10.html
******************************************************************************/
-->
<svg xmlns="http://www.w3.org/2000/svg" xmlns:xlink="http://www.w3.org/1999/xlink" width="20pt" height="38pt" viewBox="0 0 20 38" version="1.1">
<g id="surface0">
<path style=" stroke:none;fill-rule:evenodd;fill:rgb(100%,100%,100%);fill-opacity:1;" d="M 0.777344 1.054688 L 0.789062 1.054688 L 0.789062 1.074219 L 0.777344 1.074219 Z M 0.777344 1.054688 "/>
<path style=" stroke:none;fill-rule:evenodd;fill:rgb(100%,100%,100%);fill-opacity:1;" d="M 19.148438 36.9375 L 19.160156 36.9375 L 19.160156 36.957031 L 19.148438 36.957031 Z M 19.148438 36.9375 "/>
<path style="fill-rule:evenodd;fill:rgb(100%,100%,100%);fill-opacity:1;stroke-width:1;stroke-linecap:round;stroke-linejoin:round;stroke:rgb(0%,0%,0%);stroke-opacity:1;stroke-miterlimit:3;" d="M 0.00204188 10.501107 L 8.506469 10.501107 L 8.506469 36.013482 L 0.00204188 36.013482 Z M 0.00204188 10.501107 " transform="matrix(1.080779,0,0,1.055554,4.595449,-5.541517)"/>
<path style=" stroke:none;fill-rule:nonzero;fill:rgb(0%,0%,0%);fill-opacity:1;" d="M 6.285156 22.667969 L 6.285156 22.226562 L 8.175781 19.917969 C 8.308594 19.757812 8.433594 19.617188 8.554688 19.492188 L 6.5 19.492188 L 6.5 19.066406 L 9.140625 19.066406 L 9.140625 19.492188 L 7.070312 21.992188 L 6.847656 22.242188 L 9.199219 22.242188 L 9.199219 22.667969 Z M 6.285156 22.667969 "/>
<path style="fill:none;stroke-width:1;stroke-linecap:round;stroke-linejoin:round;stroke:rgb(0%,0%,0%);stroke-opacity:1;stroke-miterlimit:3;" d="M -0.00118944 36.008508 L 4.250873 36.008508 " transform="matrix(0.000000000000000066,-1.055554,1.080779,0.000000000000000065,-29.729738,5.541713)"/>
<path style="fill:none;stroke-width:1;stroke-linecap:round;stroke-linejoin:round;stroke:rgb(0%,0%,0%);stroke-opacity:1;stroke-miterlimit:3;" d="M 0.0018592 36.009135 L 4.250221 36.009135 " transform="matrix(0.000000000000000066,1.055554,-1.080779,0.000000000000000065,48.417916,32.470694)"/>
</g>
</svg>
