<?xml version="1.0" encoding="UTF-8"?>
<!--
/*******************************************************************************
* Copyright (c) 2010-2018 ITER Organization.
* All rights reserved. This program and the accompanying materials
* are made available under the terms of the Eclipse Public License v1.0
* which accompanies this distribution, and is available at
* http://www.eclipse.org/legal/epl-v10.html
******************************************************************************/
-->
<svg xmlns="http://www.w3.org/2000/svg" xmlns:xlink="http://www.w3.org/1999/xlink" width="20pt" height="65pt" viewBox="0 0 20 65" version="1.1">
<g id="surface0">
<path style=" stroke:none;fill-rule:evenodd;fill:rgb(100%,100%,100%);fill-opacity:1;" d="M 0.777344 8.328125 L 0.789062 8.328125 L 0.789062 8.363281 L 0.777344 8.363281 Z M 0.777344 8.328125 "/>
<path style=" stroke:none;fill-rule:evenodd;fill:rgb(100%,100%,100%);fill-opacity:1;" d="M 19.148438 63.375 L 19.160156 63.375 L 19.160156 63.414062 L 19.148438 63.414062 Z M 19.148438 63.375 "/>
<path style="fill-rule:evenodd;fill:rgb(100%,100%,100%);fill-opacity:1;stroke-width:1;stroke-linecap:round;stroke-linejoin:round;stroke:rgb(0%,0%,0%);stroke-opacity:1;stroke-miterlimit:3;" d="M 0.00130325 34.228917 L 8.50213 34.228917 L 8.50213 59.738865 L 0.00130325 59.738865 Z M 0.00130325 34.228917 " transform="matrix(1.080777,0,0,1.079542,5.373591,-14.849992)"/>
<path style="fill:none;stroke-width:1;stroke-linecap:round;stroke-linejoin:round;stroke:rgb(0%,0%,0%);stroke-opacity:1;stroke-miterlimit:3;" d="M -0.000496844 59.739804 L 12.548227 59.739804 " transform="matrix(0.000000000000000066,1.079542,-1.080777,0.000000000000000066,74.534173,49.859911)"/>
<path style="fill:none;stroke-width:1;stroke-linecap:round;stroke-linejoin:round;stroke:rgb(0%,0%,0%);stroke-opacity:1;stroke-miterlimit:3;" d="M -0.00153422 59.739804 L 16.921874 59.739804 " transform="matrix(0.000000000000000066,1.079542,-1.080777,0.000000000000000066,74.534173,8.329781)"/>
<path style=" stroke:none;fill-rule:evenodd;fill:rgb(0%,0%,0%);fill-opacity:1;" d="M 12.605469 26.597656 L 9.96875 34.496094 L 7.332031 26.597656 L 12.605469 26.597656 "/>
</g>
</svg>
