<?xml version="1.0" encoding="UTF-8"?>
<!--
/*******************************************************************************
* Copyright (c) 2010-2018 ITER Organization.
* All rights reserved. This program and the accompanying materials
* are made available under the terms of the Eclipse Public License v1.0
* which accompanies this distribution, and is available at
* http://www.eclipse.org/legal/epl-v10.html
******************************************************************************/
-->
<svg xmlns="http://www.w3.org/2000/svg" xmlns:xlink="http://www.w3.org/1999/xlink" width="25pt" height="37pt" viewBox="0 0 25 37" version="1.1">
<g id="surface0">
<path style="fill-rule:evenodd;fill:rgb(100%,100%,100%);fill-opacity:1;stroke-width:1;stroke-linecap:round;stroke-linejoin:round;stroke:rgb(0%,0%,0%);stroke-opacity:1;stroke-miterlimit:3;" d="M 17.008331 27.027486 C 17.008331 22.327896 13.198461 18.521864 8.504092 18.521864 C 3.809722 18.521864 -0.000148163 22.327896 -0.000148163 27.027486 C -0.000148163 31.723337 3.809722 35.529369 8.504092 35.529369 C 13.198461 35.529369 17.008331 31.723337 17.008331 27.027486 Z M 17.008331 27.027486 " transform="matrix(1.077587,0,0,1.044805,3.15641,-9.422055)"/>
<path style="fill:none;stroke-width:1;stroke-linecap:round;stroke-linejoin:round;stroke:rgb(0%,0%,0%);stroke-opacity:1;stroke-miterlimit:3;" d="M -0.00043347 35.529675 L 8.019153 35.529675 " transform="matrix(0.000000000000000066,1.044805,-1.077587,0.000000000000000064,50.606647,27.699672)"/>
<path style="fill:none;stroke-width:1;stroke-linecap:round;stroke-linejoin:round;stroke:rgb(0%,0%,0%);stroke-opacity:1;stroke-miterlimit:3;" d="M -0.00175782 35.529675 L 8.021567 35.529675 " transform="matrix(0.000000000000000066,1.044805,-1.077587,0.000000000000000064,50.606647,1.044805)"/>
<path style="fill:none;stroke-width:1;stroke-linecap:round;stroke-linejoin:round;stroke:rgb(0%,0%,0%);stroke-opacity:1;stroke-miterlimit:3;" d="M 0.00102657 35.531549 L 15.631134 35.530901 " transform="matrix(0.761969,0.738789,-0.761969,0.738789,33.487231,-13.258894)"/>
<path style="fill:none;stroke-width:1;stroke-linecap:round;stroke-linejoin:round;stroke:rgb(0%,0%,0%);stroke-opacity:1;stroke-miterlimit:3;" d="M 0.00024125 35.528673 L 15.630349 35.529321 " transform="matrix(-0.761969,0.738789,-0.761969,-0.738789,45.400068,39.337863)"/>
</g>
</svg>
