<?xml version="1.0" encoding="UTF-8" standalone="no"?>
<!--
/*******************************************************************************
* Copyright (c) 2010-2016 ITER Organization.
* All rights reserved. This program and the accompanying materials
* are made available under the terms of the Eclipse Public License v1.0
* which accompanies this distribution, and is available at
* http://www.eclipse.org/legal/epl-v10.html
******************************************************************************/
-->
<!-- Created with Inkscape (http://www.inkscape.org/) -->

<svg
   xmlns:dc="http://purl.org/dc/elements/1.1/"
   xmlns:cc="http://creativecommons.org/ns#"
   xmlns:rdf="http://www.w3.org/1999/02/22-rdf-syntax-ns#"
   xmlns:svg="http://www.w3.org/2000/svg"
   xmlns="http://www.w3.org/2000/svg"
   xmlns:sodipodi="http://sodipodi.sourceforge.net/DTD/sodipodi-0.dtd"
   xmlns:inkscape="http://www.inkscape.org/namespaces/inkscape"
   width="68.386787pt"
   height="65.177704pt"
   viewBox="0 0 85.483487 81.472132"
   id="svg4176"
   version="1.1"
   inkscape:version="0.91 r13725"
   sodipodi:docname="OL_EE0732.svg">
  <defs
     id="defs4178" />
  <sodipodi:namedview
     id="base"
     pagecolor="#ffffff"
     bordercolor="#666666"
     borderopacity="1.0"
     inkscape:pageopacity="0.0"
     inkscape:pageshadow="2"
     inkscape:zoom="0.98994949"
     inkscape:cx="-26.073776"
     inkscape:cy="-2.7608653"
     inkscape:document-units="px"
     inkscape:current-layer="layer1"
     showgrid="false"
     units="pt"
     fit-margin-top="0"
     fit-margin-bottom="0"
     fit-margin-left="9.8"
     fit-margin-right="9.8"
     inkscape:window-width="1366"
     inkscape:window-height="706"
     inkscape:window-x="-8"
     inkscape:window-y="-8"
     inkscape:window-maximized="1" />
  <metadata
     id="metadata4181">
    <rdf:RDF>
      <cc:Work
         rdf:about="">
        <dc:format>image/svg+xml</dc:format>
        <dc:type
           rdf:resource="http://purl.org/dc/dcmitype/StillImage" />
        <dc:title></dc:title>
      </cc:Work>
    </rdf:RDF>
  </metadata>
  <g
     inkscape:label="Layer 1"
     inkscape:groupmode="layer"
     id="layer1"
     transform="translate(-402.97254,-434.48328)">
    <g
       transform="matrix(1.25,0,0,1.25,414.06736,433.32237)"
       id="surface1">
      <path
         inkscape:connector-curvature="0"
         style="fill:#ffffff;fill-opacity:1;fill-rule:evenodd;stroke:none"
         d="m 1.875,1.859375 0.03125,0 0,0.042969 -0.03125,0 z"
         id="path5" />
      <path
         inkscape:connector-curvature="0"
         style="fill:#ffffff;fill-opacity:1;fill-rule:evenodd;stroke:none"
         d="m 49.679688,65.128906 0.03125,0 0,0.03906 -0.03125,0 z"
         id="path7" />
      <path
         inkscape:connector-curvature="0"
         style="fill:none;stroke:#000000;stroke-width:1;stroke-linecap:round;stroke-linejoin:round;stroke-miterlimit:3;stroke-opacity:1"
         d="m 4.06881e-4,27.510858 c 2.345830119,0 4.247910119,1.901583 4.249994119,4.248128 0.00208,1.129196 -0.445833,2.212217 -1.241665,3.011889 -0.797916,0.799673 -1.879164,1.248833 -3.008329119,1.248833"
         transform="matrix(1.875003,0,0,1.861114,33.764862,-49.341464)"
         id="path9" />
      <path
         inkscape:connector-curvature="0"
         style="fill:none;stroke:#000000;stroke-width:1;stroke-linecap:round;stroke-linejoin:round;stroke-miterlimit:3;stroke-opacity:1"
         d="M 4.06881e-4,27.509511 C 2.346237,27.51161 4.248317,29.413193 4.250401,31.759738 4.252484,32.888934 3.804568,33.971955 3.008736,34.771627 2.21082,35.569201 1.129572,36.020459 4.06881e-4,36.020459"
         transform="matrix(1.875003,0,0,1.861114,33.764862,-33.514738)"
         id="path11" />
      <path
         inkscape:connector-curvature="0"
         style="fill:none;stroke:#000000;stroke-width:1;stroke-linecap:round;stroke-linejoin:round;stroke-miterlimit:3;stroke-opacity:1"
         d="M 4.06881e-4,27.510203 C 2.346237,27.510203 4.248317,29.413885 4.250401,31.76043 4.252484,32.889626 3.804568,33.972647 3.008736,34.77022 2.21082,35.569892 1.129572,36.019052 4.06881e-4,36.019052"
         transform="matrix(1.875003,0,0,1.861114,33.764862,-17.6879)"
         id="path13" />
      <path
         inkscape:connector-curvature="0"
         style="fill:none;stroke:#000000;stroke-width:1;stroke-linecap:round;stroke-linejoin:round;stroke-miterlimit:3;stroke-opacity:1"
         d="m 4.06881e-4,27.510914 c 2.345830119,0 4.247910119,1.901583 4.249994119,4.248128 0.00208,1.129197 -0.445833,2.212217 -1.241665,3.01189 -0.797916,0.799672 -1.879164,1.248832 -3.008329119,1.248832"
         transform="matrix(1.875003,0,0,1.861114,33.764862,-1.8611)"
         id="path15" />
      <path
         inkscape:connector-curvature="0"
         style="fill:none;stroke:#000000;stroke-width:1;stroke-linecap:round;stroke-linejoin:round;stroke-miterlimit:3;stroke-opacity:1"
         d="M -1.46887e-6,27.510858 C 2.345828,27.510858 4.247909,29.412441 4.249992,31.758986 4.252076,32.888182 3.806243,33.971203 3.008327,34.770875 2.210412,35.570548 1.129164,36.019708 -1.46887e-6,36.019708"
         transform="matrix(1.875003,0,0,1.861114,1.875003,-49.341464)"
         id="path17" />
      <path
         inkscape:connector-curvature="0"
         style="fill:none;stroke:#000000;stroke-width:1;stroke-linecap:round;stroke-linejoin:round;stroke-miterlimit:3;stroke-opacity:1"
         d="M -1.46887e-6,27.509511 C 2.345828,27.51161 4.247909,29.413193 4.249992,31.759738 4.252076,32.888934 3.806243,33.971955 3.008327,34.771627 2.210412,35.569201 1.129164,36.020459 -1.46887e-6,36.020459"
         transform="matrix(1.875003,0,0,1.861114,1.875003,-33.514738)"
         id="path19" />
      <path
         inkscape:connector-curvature="0"
         style="fill:none;stroke:#000000;stroke-width:1;stroke-linecap:round;stroke-linejoin:round;stroke-miterlimit:3;stroke-opacity:1"
         d="M -1.46887e-6,27.510203 C 2.345828,27.510203 4.247909,29.413885 4.249992,31.76043 4.252076,32.889626 3.806243,33.972647 3.008327,34.77022 2.210412,35.569892 1.129164,36.019052 -1.46887e-6,36.019052"
         transform="matrix(1.875003,0,0,1.861114,1.875003,-17.6879)"
         id="path21" />
      <path
         inkscape:connector-curvature="0"
         style="fill:none;stroke:#000000;stroke-width:1;stroke-linecap:round;stroke-linejoin:round;stroke-miterlimit:3;stroke-opacity:1"
         d="M -1.46887e-6,27.510914 C 2.345828,27.510914 4.247909,29.412497 4.249992,31.759042 4.252076,32.888239 3.806243,33.971259 3.008327,34.770932 2.210412,35.570604 1.129164,36.019764 -1.46887e-6,36.019764"
         transform="matrix(1.875003,0,0,1.861114,1.875003,-1.8611)"
         id="path23" />
    </g>
  </g>
</svg>
