<?xml version="1.0" encoding="UTF-8"?>
<!--
/*******************************************************************************
* Copyright (c) 2010-2018 ITER Organization.
* All rights reserved. This program and the accompanying materials
* are made available under the terms of the Eclipse Public License v1.0
* which accompanies this distribution, and is available at
* http://www.eclipse.org/legal/epl-v10.html
******************************************************************************/
-->
<svg xmlns="http://www.w3.org/2000/svg" xmlns:xlink="http://www.w3.org/1999/xlink" width="40pt" height="76pt" viewBox="0 0 40 76" version="1.1">
<g id="surface0">
<path style=" stroke:none;fill-rule:evenodd;fill:rgb(100%,100%,100%);fill-opacity:1;" d="M 1.089844 2.171875 L 1.113281 2.171875 L 1.113281 2.21875 L 1.089844 2.21875 Z M 1.089844 2.171875 "/>
<path style=" stroke:none;fill-rule:evenodd;fill:rgb(100%,100%,100%);fill-opacity:1;" d="M 38.148438 75.570312 L 38.171875 75.570312 L 38.171875 75.617188 L 38.148438 75.617188 Z M 38.148438 75.570312 "/>
<path style="fill-rule:evenodd;fill:rgb(100%,100%,100%);fill-opacity:1;stroke-width:0.999999;stroke-linecap:round;stroke-linejoin:round;stroke:rgb(0%,0%,0%);stroke-opacity:1;stroke-miterlimit:3;" d="M -0.000263867 36.749937 L 34.016319 36.749937 L 34.016319 70.763094 L -0.000263867 70.763094 Z M -0.000263867 36.749937 " transform="matrix(1.090116,0,0,1.079545,1.090131,-19.138071)"/>
<path style="fill:none;stroke-width:0.999999;stroke-linecap:round;stroke-linejoin:round;stroke:rgb(0%,0%,0%);stroke-opacity:1;stroke-miterlimit:3;" d="M 34.019903 62.262232 L 17.009819 70.761903 L -0.000263867 62.262232 " transform="matrix(1.090116,0,0,1.079545,1.090131,-46.679753)"/>
<path style="fill:none;stroke-width:0.999999;stroke-linecap:round;stroke-linejoin:round;stroke:rgb(0%,0%,0%);stroke-opacity:1;stroke-miterlimit:3;" d="M -0.00156355 70.75934 L 24.469431 70.759784 L 30.068399 70.760513 " transform="matrix(0.770828,-0.763354,0.770828,0.763354,-44.186641,-24.304666)"/>
<path style=" stroke:none;fill-rule:evenodd;fill:rgb(0%,0%,0%);fill-opacity:1;" d="M 27.0625 8.894531 L 33.535156 6.757812 L 31.378906 13.167969 L 27.0625 8.894531 "/>
<path style="fill:none;stroke-width:0.999999;stroke-linecap:round;stroke-linejoin:round;stroke:rgb(0%,0%,0%);stroke-opacity:1;stroke-miterlimit:3;" d="M 0.0011832 70.757576 L 25.510933 70.757576 " transform="matrix(1.090116,0,0,1.079545,5.725273,-37.4993)"/>
<path style="fill:none;stroke-width:0.999999;stroke-linecap:round;stroke-linejoin:round;stroke:rgb(0%,0%,0%);stroke-opacity:1;stroke-miterlimit:3;" d="M -0.000653095 70.759148 L 12.761518 70.759148 " transform="matrix(0.000000000000000067,1.079545,-1.090116,0.000000000000000066,102.952105,32.008518)"/>
<path style="fill:none;stroke-width:0.999999;stroke-linecap:round;stroke-linejoin:round;stroke:rgb(0%,0%,0%);stroke-opacity:1;stroke-miterlimit:3;" d="M -0.000240702 70.760383 L 8.49943 70.760383 " transform="matrix(0.000000000000000067,1.079545,-1.090116,0.000000000000000066,95.226889,42.71901)"/>
<path style="fill:none;stroke-width:0.999999;stroke-linecap:round;stroke-linejoin:round;stroke:rgb(0%,0%,0%);stroke-opacity:1;stroke-miterlimit:3;" d="M -0.000653095 70.759917 L 12.761518 70.759917 " transform="matrix(0.000000000000000067,1.079545,-1.090116,0.000000000000000066,89.046694,32.008518)"/>
<path style="fill:none;stroke-width:0.999999;stroke-linecap:round;stroke-linejoin:round;stroke:rgb(0%,0%,0%);stroke-opacity:1;stroke-miterlimit:3;" d="M 0.000734947 70.759336 L 14.258725 70.760116 " transform="matrix(-0.97503,0.482787,-0.487514,-0.965575,60.30938,107.221516)"/>
<path style="fill:none;stroke-width:0.999999;stroke-linecap:round;stroke-linejoin:round;stroke:rgb(0%,0%,0%);stroke-opacity:1;stroke-miterlimit:3;" d="M -0.000287614 70.759112 L 14.259321 70.761568 " transform="matrix(-0.97503,-0.482787,0.487514,-0.965575,-8.687741,107.221516)"/>
</g>
</svg>
