<?xml version="1.0" encoding="UTF-8"?>
<!--
/*******************************************************************************
* Copyright (c) 2010-2018 ITER Organization.
* All rights reserved. This program and the accompanying materials
* are made available under the terms of the Eclipse Public License v1.0
* which accompanies this distribution, and is available at
* http://www.eclipse.org/legal/epl-v10.html
******************************************************************************/
-->
<svg xmlns="http://www.w3.org/2000/svg" xmlns:xlink="http://www.w3.org/1999/xlink" width="39pt" height="75pt" viewBox="0 0 39 75" version="1.1">
<g id="surface0">
<path style=" stroke:none;fill-rule:evenodd;fill:rgb(100%,100%,100%);fill-opacity:1;" d="M 1.085938 0.773438 L 1.105469 0.773438 L 1.105469 0.820312 L 1.085938 0.820312 Z M 1.085938 0.773438 "/>
<path style=" stroke:none;fill-rule:evenodd;fill:rgb(100%,100%,100%);fill-opacity:1;" d="M 37.910156 73.925781 L 37.933594 73.925781 L 37.933594 73.972656 L 37.910156 73.972656 Z M 37.910156 73.925781 "/>
<path style="fill-rule:evenodd;fill:rgb(100%,100%,100%);fill-opacity:1;stroke-width:1;stroke-linecap:round;stroke-linejoin:round;stroke:rgb(0%,0%,0%);stroke-opacity:1;stroke-miterlimit:3;" d="M 0.00240432 35.455797 L 34.015641 35.455797 L 34.015641 69.470289 L 0.00240432 69.470289 Z M 0.00240432 35.455797 " transform="matrix(1.083333,0,0,1.075943,1.083333,-19.074198)"/>
<path style="fill:none;stroke-width:1;stroke-linecap:round;stroke-linejoin:round;stroke:rgb(0%,0%,0%);stroke-opacity:1;stroke-miterlimit:3;" d="M 34.019247 60.95967 L 17.010826 69.469647 L 0.00240432 60.95967 " transform="matrix(1.083333,0,0,1.075943,1.083333,-46.518819)"/>
<path style="fill:none;stroke-width:1;stroke-linecap:round;stroke-linejoin:round;stroke:rgb(0%,0%,0%);stroke-opacity:1;stroke-miterlimit:3;" d="M 0.00162771 69.469157 L 25.508851 69.469157 " transform="matrix(1.083333,0,0,1.075943,5.689643,-37.178449)"/>
<path style="fill:none;stroke-width:1;stroke-linecap:round;stroke-linejoin:round;stroke:rgb(0%,0%,0%);stroke-opacity:1;stroke-miterlimit:3;" d="M 0.00119209 69.470007 L 7.439898 69.470007 " transform="matrix(1.083333,0,0,1.075943,24.498709,-32.222332)"/>
<path style="fill:none;stroke-width:1;stroke-linecap:round;stroke-linejoin:round;stroke:rgb(0%,0%,0%);stroke-opacity:1;stroke-miterlimit:3;" d="M -0.000880448 69.470928 L 14.259007 69.469109 " transform="matrix(0.968962,-0.481177,0.484482,0.962352,-23.359692,-17.469214)"/>
<path style="fill:none;stroke-width:1;stroke-linecap:round;stroke-linejoin:round;stroke:rgb(0%,0%,0%);stroke-opacity:1;stroke-miterlimit:3;" d="M 0.000663095 69.470754 L 3.902107 69.470754 " transform="matrix(1.083333,0,0,1.075943,6.0735,-31.078605)"/>
<path style="fill:none;stroke-width:1;stroke-linecap:round;stroke-linejoin:round;stroke:rgb(0%,0%,0%);stroke-opacity:1;stroke-miterlimit:3;" d="M 0.00108043 67.368935 C 0.0479555 68.545229 0.985456 69.467385 2.12488 69.467385 C 3.264303 69.467385 4.201804 68.545229 4.252284 67.368935 " transform="matrix(1.083333,0,0,1.075943,5.908986,-28.879667)"/>
</g>
</svg>
