<?xml version="1.0" encoding="UTF-8"?>
<!--
/*******************************************************************************
* Copyright (c) 2010-2018 ITER Organization.
* All rights reserved. This program and the accompanying materials
* are made available under the terms of the Eclipse Public License v1.0
* which accompanies this distribution, and is available at
* http://www.eclipse.org/legal/epl-v10.html
******************************************************************************/
-->
<svg xmlns="http://www.w3.org/2000/svg" xmlns:xlink="http://www.w3.org/1999/xlink" width="39pt" height="75pt" viewBox="0 0 39 75" version="1.1">
<g id="surface1">
<path style=" stroke:none;fill-rule:evenodd;fill:rgb(100%,100%,100%);fill-opacity:1;" d="M 1.085938 0.773438 L 1.109375 0.773438 L 1.109375 0.820312 L 1.085938 0.820312 Z M 1.085938 0.773438 "/>
<path style=" stroke:none;fill-rule:evenodd;fill:rgb(100%,100%,100%);fill-opacity:1;" d="M 37.914062 73.925781 L 37.9375 73.925781 L 37.9375 73.972656 L 37.914062 73.972656 Z M 37.914062 73.925781 "/>
<path style="fill-rule:evenodd;fill:rgb(100%,100%,100%);fill-opacity:1;stroke-width:0.999999;stroke-linecap:round;stroke-linejoin:round;stroke:rgb(0%,0%,0%);stroke-opacity:1;stroke-miterlimit:3;" d="M 0.00240644 35.455771 L 34.01568 35.455771 L 34.01568 69.470299 L 0.00240644 69.470299 Z M 0.00240644 35.455771 " transform="matrix(1.083332,0,0,1.075942,1.083331,-19.07413)"/>
<path style="fill:none;stroke-width:0.999999;stroke-linecap:round;stroke-linejoin:round;stroke:rgb(0%,0%,0%);stroke-opacity:1;stroke-miterlimit:3;" d="M 34.019285 60.96087 L 17.010846 69.470856 L 0.00240644 60.96087 " transform="matrix(1.083332,0,0,1.075942,1.083331,-46.516135)"/>
<path style="fill-rule:evenodd;fill:rgb(100%,100%,100%);fill-opacity:1;stroke-width:0.999999;stroke-linecap:round;stroke-linejoin:round;stroke:rgb(0%,0%,0%);stroke-opacity:1;stroke-miterlimit:3;" d="M 0.000873341 69.468125 L 8.499684 53.878587 L 17.009313 69.468125 Z M 0.000873341 69.468125 " transform="matrix(1.083332,0,0,1.075942,10.295929,-23.946791)"/>
<path style="fill:none;stroke-width:0.999999;stroke-linecap:round;stroke-linejoin:round;stroke:rgb(0%,0%,0%);stroke-opacity:1;stroke-miterlimit:3;" d="M -0.000659227 52.459046 L -0.000659227 65.209502 L 8.501758 69.468125 " transform="matrix(1.083332,0,0,1.075942,19.508527,-23.946791)"/>
<path style="fill:none;stroke-width:0.999999;stroke-linecap:round;stroke-linejoin:round;stroke:rgb(0%,0%,0%);stroke-opacity:1;stroke-miterlimit:3;" d="M 0.000873341 69.468125 L 8.499684 65.209502 " transform="matrix(1.083332,0,0,1.075942,10.295929,-23.946791)"/>
</g>
</svg>
