<?xml version="1.0" encoding="UTF-8"?>
<!--
/*******************************************************************************
* Copyright (c) 2010-2018 ITER Organization.
* All rights reserved. This program and the accompanying materials
* are made available under the terms of the Eclipse Public License v1.0
* which accompanies this distribution, and is available at
* http://www.eclipse.org/legal/epl-v10.html
******************************************************************************/
-->
<svg xmlns="http://www.w3.org/2000/svg" xmlns:xlink="http://www.w3.org/1999/xlink" width="37pt" height="37pt" viewBox="0 0 37 37" version="1.1">
<g id="surface1">
<path style="fill:none;stroke-width:0.01;stroke-linecap:round;stroke-linejoin:round;stroke:rgb(100%,100%,100%);stroke-opacity:1;stroke-miterlimit:3;" d="M 0.000861774 34.714624 L 0.0298265 34.714624 L 0.0298265 34.743589 L 0.000861774 34.743589 Z M 0.000861774 34.714624 " transform="matrix(1.078899,0,0,1.078899,0.010789,-37.44187)"/>
<path style="fill:none;stroke-width:0.01;stroke-linecap:round;stroke-linejoin:round;stroke:rgb(100%,100%,100%);stroke-opacity:1;stroke-miterlimit:3;" d="M 0.00112211 34.714602 L 0.0264662 34.714602 L 0.0264662 34.743567 L 0.00112211 34.743567 Z M 0.00112211 34.714602 " transform="matrix(1.078899,0,0,1.078899,36.678477,-0.789502)"/>
<path style="fill:none;stroke-width:0.72;stroke-linecap:round;stroke-linejoin:round;stroke:rgb(0%,0%,0%);stroke-opacity:1;stroke-miterlimit:3;" d="M 5.667832 17.729476 L 0.00161274 17.729476 " transform="matrix(1.078899,0,0,1.078899,9.181854,-0.77676)"/>
<path style="fill:none;stroke-width:0.72;stroke-linecap:round;stroke-linejoin:round;stroke:rgb(0%,0%,0%);stroke-opacity:1;stroke-miterlimit:3;" d="M 5.667832 9.228336 L 5.667832 26.241478 " transform="matrix(1.078899,0,0,1.078899,9.181854,-0.77676)"/>
<path style="fill:none;stroke-width:0.72;stroke-linecap:round;stroke-linejoin:round;stroke:rgb(0%,0%,0%);stroke-opacity:1;stroke-miterlimit:3;" d="M 8.499132 9.228336 L 8.499132 34.738997 " transform="matrix(1.078899,0,0,1.078899,9.181854,-0.77676)"/>
<path style="fill:none;stroke-width:0.72;stroke-linecap:round;stroke-linejoin:round;stroke:rgb(0%,0%,0%);stroke-opacity:1;stroke-miterlimit:3;" d="M 11.341293 17.729476 L 17.011134 17.729476 " transform="matrix(1.078899,0,0,1.078899,9.181854,-0.77676)"/>
<path style="fill:none;stroke-width:0.72;stroke-linecap:round;stroke-linejoin:round;stroke:rgb(0%,0%,0%);stroke-opacity:1;stroke-miterlimit:3;" d="M 11.341293 9.228336 L 11.341293 26.241478 " transform="matrix(1.078899,0,0,1.078899,9.181854,-0.77676)"/>
</g>
</svg>
