<?xml version="1.0" encoding="UTF-8"?>
<!--
/*******************************************************************************
* Copyright (c) 2010-2018 ITER Organization.
* All rights reserved. This program and the accompanying materials
* are made available under the terms of the Eclipse Public License v1.0
* which accompanies this distribution, and is available at
* http://www.eclipse.org/legal/epl-v10.html
******************************************************************************/
-->
<svg xmlns="http://www.w3.org/2000/svg" xmlns:xlink="http://www.w3.org/1999/xlink" width="29pt" height="29pt" viewBox="0 0 29 29" version="1.1">
<g id="surface1">
<path style=" stroke:none;fill-rule:evenodd;fill:rgb(100%,100%,100%);fill-opacity:1;" d="M 0.765625 0.765625 L 0.78125 0.765625 L 0.78125 0.78125 L 0.765625 0.78125 Z M 0.765625 0.765625 "/>
<path style=" stroke:none;fill-rule:evenodd;fill:rgb(100%,100%,100%);fill-opacity:1;" d="M 27.84375 27.84375 L 27.859375 27.84375 L 27.859375 27.859375 L 27.84375 27.859375 Z M 27.84375 27.84375 "/>
<path style="fill:none;stroke-width:0.72;stroke-linecap:round;stroke-linejoin:round;stroke:rgb(0%,0%,0%);stroke-opacity:1;stroke-miterlimit:3;" d="M 6.378822 18.448738 L 0.000897562 18.448738 " transform="matrix(1.062013,0,0,1.062013,5.280297,-5.280297)"/>
<path style="fill:none;stroke-width:0.72;stroke-linecap:round;stroke-linejoin:round;stroke:rgb(0%,0%,0%);stroke-opacity:1;stroke-miterlimit:3;" d="M 6.378822 26.948959 L 10.630771 26.948959 L 10.630771 12.070814 " transform="matrix(1.062013,0,0,1.062013,5.280297,-5.280297)"/>
<path style="fill:none;stroke-width:0.72;stroke-linecap:round;stroke-linejoin:round;stroke:rgb(0%,0%,0%);stroke-opacity:1;stroke-miterlimit:3;" d="M 10.630771 9.941161 L 6.378822 9.941161 L 6.378822 24.83034 " transform="matrix(1.062013,0,0,1.062013,5.280297,-5.280297)"/>
<path style="fill:none;stroke-width:0.72;stroke-linecap:round;stroke-linejoin:round;stroke:rgb(0%,0%,0%);stroke-opacity:1;stroke-miterlimit:3;" d="M 10.630771 18.448738 L 17.008696 18.448738 " transform="matrix(1.062013,0,0,1.062013,5.280297,-5.280297)"/>
</g>
</svg>
