<?xml version="1.0" encoding="UTF-8" standalone="no"?>
<!--
/*******************************************************************************
* Copyright (c) 2010-2018 ITER Organization.
* All rights reserved. This program and the accompanying materials
* are made available under the terms of the Eclipse Public License v1.0
* which accompanies this distribution, and is available at
* http://www.eclipse.org/legal/epl-v10.html
******************************************************************************/
-->
<svg xmlns="http://www.w3.org/2000/svg" xmlns:xlink="http://www.w3.org/1999/xlink" width="51pt" height="82pt" viewBox="0 0 51 82" version="1.1">
<g id="surface1">
<path style=" stroke:none;fill-rule:evenodd;fill:rgb(100%,100%,100%);fill-opacity:1;" d="M 40.972656 15.023438 L 9.828125 15.023438 L 9.828125 51.109375 L 25.40625 66.578125 L 40.972656 51.109375 Z "/>
<path style="fill:none;stroke-width:2.067999;stroke-linecap:round;stroke-linejoin:round;stroke:rgb(0%,0%,0%);stroke-opacity:1;stroke-miterlimit:4;" d="M 1.353114 1.34162 L 49.178141 1.34162 " transform="matrix(0.651218,0,0,0.650598,8.946952,14.150582)"/>
<path style="fill:none;stroke-width:2.067999;stroke-linecap:round;stroke-linejoin:round;stroke:rgb(0%,0%,0%);stroke-opacity:1;stroke-miterlimit:4;" d="M 49.178141 1.34162 L 1.353114 1.34162 L 1.353114 56.807382 L 25.274625 80.58357 L 49.178141 56.807382 L 49.178141 1.34162 " transform="matrix(0.651218,0,0,0.650598,8.946952,14.150582)"/>
<path style="fill:none;stroke-width:2.067999;stroke-linecap:round;stroke-linejoin:round;stroke:rgb(0%,0%,0%);stroke-opacity:1;stroke-miterlimit:4;" d="M 1.353114 1.34162 L 1.353114 56.807382 L 25.274625 80.58357 L 49.178141 56.807382 " transform="matrix(0.651218,0,0,0.650598,8.946952,14.150582)"/>
<path style="fill:none;stroke-width:2.067999;stroke-linecap:round;stroke-linejoin:round;stroke:rgb(0%,0%,0%);stroke-opacity:1;stroke-miterlimit:4;" d="M 25.274625 56.807382 L 25.274625 17.186407 " transform="matrix(0.651218,0,0,0.650598,8.946952,14.150582)"/>
<path style="fill:none;stroke-width:2.067999;stroke-linecap:round;stroke-linejoin:round;stroke:rgb(0%,0%,0%);stroke-opacity:1;stroke-miterlimit:4;" d="M 49.178141 1.34162 L 49.178141 56.807382 " transform="matrix(0.651218,0,0,0.650598,8.946952,14.150582)"/>
</g>
</svg>
