<?xml version="1.0" encoding="UTF-8" standalone="no"?>
<!--
/*******************************************************************************
* Copyright (c) 2010-2017 ITER Organization.
* All rights reserved. This program and the accompanying materials
* are made available under the terms of the Eclipse Public License v1.0
* which accompanies this distribution, and is available at
* http://www.eclipse.org/legal/epl-v10.html
******************************************************************************/
-->
<svg xmlns="http://www.w3.org/2000/svg" xmlns:xlink="http://www.w3.org/1999/xlink" width="51pt" height="51pt" viewBox="0 0 51 51" version="1.1">
  <g
     id="g3768">
    <g
       id="g3777">
      <path
         id="path5"
         d="m 49.179688,25.273438 c 0.105468,-8.609375 -4.433594,-16.613282 -11.875,-20.949219 -7.441407,-4.3359378 -16.636719,-4.3359378 -24.078125,0 -7.441407,4.335937 -11.980469,12.339844 -11.875,20.949219 -0.105469,8.613281 4.433593,16.617187 11.875,20.953125 7.441406,4.332031 16.636718,4.332031 24.078125,0 7.441406,-4.335938 11.980468,-12.339844 11.875,-20.953125 z"
         style="fill:none;fill-opacity:1;fill-rule:evenodd;stroke:none" />
      <path
         style="fill:#ffffff;stroke:#000000;stroke-width:1.34512436000000000;stroke-linecap:round;stroke-linejoin:round;stroke-miterlimit:4;stroke-opacity:1;fill-opacity:1"
         d="m 43.722653,25.285363 c 0.08203,-6.574218 -3.421874,-12.679686 -9.164062,-15.9921876 -5.746093,-3.3085933 -12.843749,-3.3085933 -18.585935,0 -5.742188,3.3125016 -9.2460932,9.4179696 -9.1640632,15.9921876 -0.08203,6.574219 3.4218752,12.683594 9.1640632,15.992187 5.742186,3.304688 12.839842,3.304688 18.585935,0 5.742188,-3.308593 9.246093,-9.417968 9.164062,-15.992187"
         id="path15-1" />
      <path
         id="path7"
         d="M 18.403457,8.1329309 41.96611,17.081712"
         style="fill:none;stroke:#000000;stroke-width:1.15903187;stroke-linecap:round;stroke-linejoin:round;stroke-miterlimit:3;stroke-opacity:1" />
      <path
         id="path9"
         d="M 41.210934,25.273435 C 36.296871,28.394527 30.476559,28.828121 25.679685,26.429685 20.886717,24.031246 17.738279,19.117184 17.28906,13.312499"
         style="fill:none;stroke:#000000;stroke-width:1.35000145;stroke-linecap:round;stroke-linejoin:round;stroke-miterlimit:3;stroke-opacity:1" />
      <path
         id="path13"
         d="M 17.973686,42.179776 41.747574,33.235862"
         style="fill:none;stroke:#000000;stroke-width:1.16389906;stroke-linecap:round;stroke-linejoin:round;stroke-miterlimit:3;stroke-opacity:1" />
      <path
         id="path15"
         d="M 17.28906,37.218744 C 19.476561,24.246091 29.519528,19.230466 41.210934,25.273435"
         style="fill:none;stroke:#000000;stroke-width:1.35000145;stroke-linecap:round;stroke-linejoin:round;stroke-miterlimit:3;stroke-opacity:1" />
      <path
         id="path17"
         d="m 17.28906,37.218744 c 4.51172,-0.656249 7.933593,-5.812499 7.933593,-11.953123 0,-6.140624 -3.421873,-11.296874 -7.933593,-11.953122"
         style="fill:none;stroke:#000000;stroke-width:1.35000145;stroke-linecap:round;stroke-linejoin:round;stroke-miterlimit:3;stroke-opacity:1" />
    </g>
  </g>
<animate
 attributeName="opacity"
 values="1;0"
 calcMode="discrete"
 dur="1000ms"
 begin="0s"
 fill="freeze"
 repeatCount="indefinite"
 id="animate12" /></svg>
