<?xml version="1.0" encoding="UTF-8"?>
<!--
/*******************************************************************************
* Copyright (c) 2010-2018 ITER Organization.
* All rights reserved. This program and the accompanying materials
* are made available under the terms of the Eclipse Public License v1.0
* which accompanies this distribution, and is available at
* http://www.eclipse.org/legal/epl-v10.html
******************************************************************************/
-->
<svg xmlns="http://www.w3.org/2000/svg" xmlns:xlink="http://www.w3.org/1999/xlink" width="57pt" height="57pt" viewBox="0 0 57 57" version="1.1">
<g id="surface1">
<path style="fill:none;stroke-width:1;stroke-linecap:round;stroke-linejoin:round;stroke:rgb(0%,0%,0%);stroke-opacity:1;stroke-miterlimit:3;" d="M 51.021988 27.511345 C 51.021988 13.421754 39.600936 2.000702 25.511345 2.000702 C 11.421754 2.000702 0.000701754 13.421754 0.000701754 27.511345 C 0.000701754 41.600936 11.421754 53.021988 25.511345 53.021988 C 39.600936 53.021988 51.021988 41.600936 51.021988 27.511345 Z M 51.021988 27.511345 " transform="matrix(1.077369,0,0,1.077369,1.077369,-1.077369)"/>
<path style=" stroke:none;fill-rule:nonzero;fill:rgb(0%,0%,0%);fill-opacity:1;" d="M 24.136719 24.800781 L 24.136719 15.546875 L 25.980469 15.546875 L 28.171875 22.097656 C 28.371094 22.710938 28.519531 23.167969 28.609375 23.46875 C 28.714844 23.132812 28.878906 22.636719 29.105469 21.984375 L 31.320312 15.546875 L 32.96875 15.546875 L 32.96875 24.800781 L 31.785156 24.800781 L 31.785156 17.054688 L 29.097656 24.800781 L 27.992188 24.800781 L 25.316406 16.921875 L 25.316406 24.800781 Z M 24.136719 24.800781 "/>
<path style="fill:none;stroke-width:1;stroke-linecap:round;stroke-linejoin:round;stroke:rgb(0%,0%,0%);stroke-opacity:1;stroke-miterlimit:3;" d="M 0.000121525 53.021587 L 25.510765 53.021587 " transform="matrix(1.077369,0,0,1.077369,14.820182,-19.401156)"/>
<path style="fill:none;stroke-width:1;stroke-linecap:round;stroke-linejoin:round;stroke:rgb(100%,0%,0%);stroke-opacity:1;stroke-dasharray:3,3;stroke-miterlimit:3;" d="M 0.000121525 53.018582 L 25.510765 53.018582 " transform="matrix(1.077369,0,0,1.077369,14.820182,-16.347137)"/>
</g>
</svg>
