<?xml version="1.0" encoding="UTF-8"?>
<!--
/*******************************************************************************
* Copyright (c) 2010-2018 ITER Organization.
* All rights reserved. This program and the accompanying materials
* are made available under the terms of the Eclipse Public License v1.0
* which accompanies this distribution, and is available at
* http://www.eclipse.org/legal/epl-v10.html
******************************************************************************/
-->
<svg xmlns="http://www.w3.org/2000/svg" xmlns:xlink="http://www.w3.org/1999/xlink" width="31pt" height="31pt" viewBox="0 0 31 31" version="1.1">
<g id="surface1">
<path style="fill-rule:evenodd;fill:rgb(65.098039%,65.098039%,65.098039%);fill-opacity:1;stroke-width:1.03895;stroke-linecap:round;stroke-linejoin:round;stroke:rgb(0%,0%,0%);stroke-opacity:1;stroke-miterlimit:4;" d="M 0.00149303 1.459797 L 25.513273 1.459797 L 25.513273 26.971577 L 0.00149303 26.971577 Z M 0.00149303 1.459797 " transform="matrix(0.790995,0,0,0.790995,5.405069,4.247652)"/>
<path style="fill:none;stroke-width:1.03895;stroke-linecap:round;stroke-linejoin:round;stroke:rgb(0%,0%,0%);stroke-opacity:1;stroke-miterlimit:4;" d="M 25.508335 14.217587 L 12.757383 26.968538 L 0.00149303 14.217587 L 12.757383 1.461697 Z M 25.508335 14.217587 " transform="matrix(0.790995,0,0,0.790995,5.405069,4.246149)"/>
<path style="fill:none;stroke-width:1.03895;stroke-linecap:round;stroke-linejoin:round;stroke:rgb(0%,0%,0%);stroke-opacity:1;stroke-miterlimit:4;" d="M 0.00149303 26.968545 L 25.508335 26.968545 " transform="matrix(0.790995,0,0,0.790995,5.405069,-5.8437)"/>
<path style="fill-rule:evenodd;fill:rgb(100%,100%,100%);fill-opacity:1;stroke-width:1.948027;stroke-linecap:butt;stroke-linejoin:miter;stroke:rgb(0%,0%,0%);stroke-opacity:1;stroke-miterlimit:4;" d="M 1.371313 1.386433 L 1.399092 1.386433 L 1.399092 1.414212 L 1.371313 1.414212 Z M 1.371313 1.386433 " transform="matrix(0.421865,0,0,0.421865,4.835554,4.833081)"/>
<path style="fill-rule:evenodd;fill:rgb(100%,100%,100%);fill-opacity:1;stroke-width:1.948027;stroke-linecap:butt;stroke-linejoin:miter;stroke:rgb(0%,0%,0%);stroke-opacity:1;stroke-miterlimit:4;" d="M 49.178021 49.19314 L 49.205799 49.19314 L 49.205799 49.220919 L 49.178021 49.220919 Z M 49.178021 49.19314 " transform="matrix(0.421865,0,0,0.421865,4.835554,4.833081)"/>
<path style="fill:none;stroke-width:1.5;stroke-linecap:butt;stroke-linejoin:round;stroke:rgb(0%,0%,0%);stroke-opacity:1;stroke-miterlimit:3;" d="M 0.75189 25.5 L 8.752772 25.5 " transform="matrix(0.607843,0,0,0.607843,0,0)"/>
<path style="fill:none;stroke-width:1.5;stroke-linecap:butt;stroke-linejoin:round;stroke:rgb(0%,0%,0%);stroke-opacity:1;stroke-miterlimit:3;" d="M 42.247228 25.5 L 50.24811 25.5 " transform="matrix(0.607843,0,0,0.607843,0,0)"/>
</g>
</svg>
