<?xml version="1.0" encoding="UTF-8"?>
<!--
/*******************************************************************************
* Copyright (c) 2010-2018 ITER Organization.
* All rights reserved. This program and the accompanying materials
* are made available under the terms of the Eclipse Public License v1.0
* which accompanies this distribution, and is available at
* http://www.eclipse.org/legal/epl-v10.html
******************************************************************************/
-->
<svg xmlns="http://www.w3.org/2000/svg" xmlns:xlink="http://www.w3.org/1999/xlink" width="39pt" height="56pt" viewBox="0 0 39 56" version="1.1">
<g id="surface0">
<path style="fill-rule:evenodd;fill:rgb(100%,100%,100%);fill-opacity:1;stroke-width:1;stroke-linecap:round;stroke-linejoin:round;stroke:rgb(0%,0%,0%);stroke-opacity:1;stroke-miterlimit:3;" d="M 0.00237255 2.000119 L 34.015592 2.000119 L 34.015592 53.024643 L 0.00237255 53.024643 Z M 0.00237255 2.000119 " transform="matrix(1.083333,0,0,1.058468,1.083367,-1.058468)"/>
<path style=" stroke:none;fill-rule:nonzero;fill:rgb(0%,0%,0%);fill-opacity:1;" d="M 11.550781 43.207031 L 13.457031 38.359375 L 14.164062 38.359375 L 16.195312 43.207031 L 15.445312 43.207031 L 14.867188 41.738281 L 12.792969 41.738281 L 12.246094 43.207031 Z M 12.984375 41.214844 L 14.664062 41.214844 L 14.144531 39.875 C 13.988281 39.46875 13.871094 39.132812 13.792969 38.867188 C 13.730469 39.179688 13.640625 39.488281 13.527344 39.792969 Z M 12.984375 41.214844 "/>
<path style=" stroke:none;fill-rule:nonzero;fill:rgb(0%,0%,0%);fill-opacity:1;" d="M 16.640625 43.207031 L 16.640625 38.359375 L 17.25 38.359375 L 17.25 40.097656 C 17.53125 39.777344 17.890625 39.617188 18.328125 39.617188 C 18.589844 39.617188 18.824219 39.667969 19.019531 39.769531 C 19.21875 39.875 19.355469 40.015625 19.441406 40.195312 C 19.523438 40.378906 19.566406 40.640625 19.570312 40.984375 L 19.570312 43.207031 L 18.960938 43.207031 L 18.960938 40.984375 C 18.960938 40.683594 18.894531 40.46875 18.761719 40.332031 C 18.628906 40.199219 18.441406 40.132812 18.203125 40.128906 C 18.023438 40.132812 17.851562 40.179688 17.691406 40.265625 C 17.53125 40.359375 17.417969 40.480469 17.351562 40.640625 C 17.28125 40.796875 17.25 41.011719 17.25 41.289062 L 17.25 43.207031 Z M 16.640625 43.207031 "/>
<path style="fill:none;stroke-width:1;stroke-linecap:round;stroke-linejoin:round;stroke:rgb(0%,0%,0%);stroke-opacity:1;stroke-miterlimit:3;" d="M 0.00237255 53.021538 L 34.019197 53.021538 " transform="matrix(1.083333,0,0,1.058468,1.083367,-37.062994)"/>
</g>
</svg>
