<?xml version="1.0" encoding="UTF-8"?>
<!--
/*******************************************************************************
* Copyright (c) 2010-2018 ITER Organization.
* All rights reserved. This program and the accompanying materials
* are made available under the terms of the Eclipse Public License v1.0
* which accompanies this distribution, and is available at
* http://www.eclipse.org/legal/epl-v10.html
******************************************************************************/
-->
<svg xmlns="http://www.w3.org/2000/svg" xmlns:xlink="http://www.w3.org/1999/xlink" width="39pt" height="39pt" viewBox="0 0 39 39" version="1.1">
<g id="surface0">
<path style="fill-rule:evenodd;fill:rgb(100%,100%,100%);fill-opacity:1;stroke-width:1;stroke-linecap:round;stroke-linejoin:round;stroke:rgb(0%,0%,0%);stroke-opacity:1;stroke-miterlimit:3;" d="M 34.01566 19.00723 C 34.01566 9.614191 26.400268 2.002405 17.00723 2.002405 C 7.614191 2.002405 0.00240485 9.614191 0.00240485 19.00723 C 0.00240485 28.400268 7.614191 36.01566 17.00723 36.01566 C 26.400268 36.01566 34.01566 28.400268 34.01566 19.00723 Z M 34.01566 19.00723 " transform="matrix(1.083332,0,0,1.083332,1.083332,-1.083332)"/>
<path style="fill:none;stroke-width:0.750001;stroke-linecap:round;stroke-linejoin:round;stroke:rgb(0%,0%,0%);stroke-opacity:1;stroke-miterlimit:3;" d="M 2.181155 36.020944 L 2.181155 29.49089 L 2.199184 29.379111 L 2.199184 29.368293 L 2.220818 29.292572 L 2.242453 29.249303 L 2.260482 29.169976 L 2.260482 29.14113 L 2.300145 29.058197 L 2.339809 29.04738 L 2.401107 28.971658 L 2.419136 28.939207 L 2.480434 28.888726 L 2.498463 28.888726 L 2.559761 28.849062 L 2.581396 28.849062 L 2.639088 28.809399 L 2.660723 28.809399 L 2.722021 28.780552 L 2.819377 28.780552 L 2.85904 28.769735 L 3.0213 28.769735 L 3.039329 28.780552 L 3.14029 28.780552 L 3.201588 28.809399 L 3.219617 28.809399 L 3.298944 28.820216 L 3.320579 28.820216 L 3.381877 28.849062 L 3.417935 28.859879 L 3.49005 28.899543 L 3.500868 28.928389 L 3.569377 28.971658 L 3.580195 28.971658 L 3.648704 29.018534 L 3.659522 29.04738 L 3.728031 29.101466 L 3.738849 29.130312 L 3.821781 29.209639 L 3.890291 29.26012 L 4.020099 29.451226 L 4.131878 29.60988 L 4.218416 29.739688 L 4.290532 29.898342 L 4.341013 30.060602 L 4.42034 30.251708 L 4.460003 30.410362 L 4.499667 30.579833 L 4.53933 30.770939 L 4.578994 30.929593 L 4.578994 31.488488 L 4.568176 31.661565 L 4.53933 31.849065 L 4.499667 32.022142 L 4.460003 32.209642 L 4.409522 32.371902 L 4.341013 32.530556 L 4.25808 32.68921 L 4.178753 32.85147 L 4.099426 33.010124 L 4.009282 33.129115 L 3.897503 33.26974 L 3.810964 33.410365 L 3.659522 33.511326 L 3.569377 33.608682 L 3.417935 33.709644 L 3.298944 33.810606 L 3.161925 33.868298 L 2.880675 33.990894 L 2.722021 34.030558 L 2.581396 34.048587 L 2.419136 34.070221 L 2.278511 34.091856 L 2.137885 34.070221 L 1.979231 34.048587 L 1.838606 34.030558 L 1.701587 33.990894 L 1.539327 33.929596 L 1.420337 33.868298 L 1.261683 33.788971 L 1.131875 33.709644 L 1.009279 33.608682 L 0.890288 33.489692 L 0.771298 33.38873 L 0.648701 33.248105 L 0.569374 33.129115 L 0.47923 32.981278 L 0.367451 32.85147 L 0.29173 32.68921 L 0.241249 32.530556 L 0.169134 32.33945 L 0.118653 32.180796 L 0.0789892 32.011325 L 0.0393257 31.820219 L 0.0104795 31.650748 L -0.000337806 31.459642 L -0.000337806 31.099064 L 0.0104795 30.929593 L 0.0393257 30.742093 L 0.0789892 30.569016 L 0.118653 30.381516 L 0.169134 30.208439 L 0.208797 30.049785 L 0.29173 29.891131 L 0.367451 29.728871 " transform="matrix(1.083332,0,0,1.083332,17.02771,-15.581244)"/>
</g>
</svg>
