<?xml version="1.0" encoding="UTF-8"?>
<!--
/*******************************************************************************
* Copyright (c) 2010-2018 ITER Organization.
* All rights reserved. This program and the accompanying materials
* are made available under the terms of the Eclipse Public License v1.0
* which accompanies this distribution, and is available at
* http://www.eclipse.org/legal/epl-v10.html
******************************************************************************/
-->
<svg xmlns="http://www.w3.org/2000/svg" xmlns:xlink="http://www.w3.org/1999/xlink" width="39pt" height="39pt" viewBox="0 0 39 39" version="1.1">
<g id="surface0">
<path style="fill-rule:evenodd;fill:rgb(100%,100%,100%);fill-opacity:1;stroke-width:1;stroke-linecap:round;stroke-linejoin:round;stroke:rgb(0%,0%,0%);stroke-opacity:1;stroke-miterlimit:3;" d="M 34.015567 19.007182 C 34.015567 9.614169 26.400195 2.002402 17.007182 2.002402 C 7.614169 2.002402 0.0024022 9.614169 0.0024022 19.007182 C 0.0024022 28.400195 7.614169 36.015567 17.007182 36.015567 C 26.400195 36.015567 34.015567 28.400195 34.015567 19.007182 Z M 34.015567 19.007182 " transform="matrix(1.083335,0,0,1.083335,1.083335,-1.083335)"/>
<path style=" stroke:none;fill-rule:nonzero;fill:rgb(0%,0%,0%);fill-opacity:1;" d="M 10.335938 21.492188 L 10.734375 21.546875 C 10.6875 21.820312 10.578125 22.035156 10.398438 22.1875 C 10.21875 22.34375 10 22.417969 9.742188 22.417969 C 9.417969 22.417969 9.152344 22.3125 8.957031 22.101562 C 8.757812 21.886719 8.660156 21.582031 8.660156 21.183594 C 8.660156 20.929688 8.703125 20.703125 8.789062 20.511719 C 8.871094 20.316406 9 20.175781 9.175781 20.078125 C 9.347656 19.980469 9.539062 19.933594 9.746094 19.933594 C 10.003906 19.933594 10.214844 20 10.378906 20.128906 C 10.542969 20.261719 10.648438 20.445312 10.695312 20.683594 L 10.304688 20.746094 C 10.265625 20.585938 10.199219 20.46875 10.105469 20.386719 C 10.007812 20.304688 9.894531 20.265625 9.761719 20.265625 C 9.558594 20.265625 9.390625 20.339844 9.265625 20.484375 C 9.136719 20.628906 9.074219 20.859375 9.074219 21.171875 C 9.074219 21.492188 9.132812 21.726562 9.257812 21.871094 C 9.378906 22.019531 9.542969 22.089844 9.738281 22.085938 C 9.894531 22.089844 10.027344 22.039062 10.136719 21.941406 C 10.242188 21.847656 10.308594 21.699219 10.335938 21.492188 Z M 10.335938 21.492188 "/>
<path style=" stroke:none;fill-rule:nonzero;fill:rgb(0%,0%,0%);fill-opacity:1;" d="M 10.929688 21.175781 C 10.925781 20.738281 11.050781 20.410156 11.296875 20.195312 C 11.5 20.023438 11.746094 19.933594 12.042969 19.933594 C 12.367188 19.933594 12.636719 20.039062 12.84375 20.253906 C 13.050781 20.46875 13.15625 20.765625 13.15625 21.140625 C 13.15625 21.449219 13.109375 21.691406 13.019531 21.867188 C 12.925781 22.042969 12.792969 22.179688 12.617188 22.273438 C 12.441406 22.371094 12.25 22.417969 12.042969 22.417969 C 11.707031 22.417969 11.4375 22.3125 11.234375 22.097656 C 11.027344 21.886719 10.925781 21.578125 10.929688 21.175781 Z M 11.34375 21.175781 C 11.339844 21.480469 11.40625 21.710938 11.542969 21.863281 C 11.675781 22.015625 11.839844 22.089844 12.042969 22.085938 C 12.242188 22.089844 12.410156 22.015625 12.542969 21.859375 C 12.675781 21.710938 12.742188 21.476562 12.742188 21.164062 C 12.742188 20.867188 12.671875 20.648438 12.539062 20.496094 C 12.40625 20.34375 12.242188 20.269531 12.042969 20.265625 C 11.839844 20.269531 11.675781 20.34375 11.542969 20.492188 C 11.40625 20.644531 11.339844 20.871094 11.34375 21.175781 Z M 11.34375 21.175781 "/>
<path style=" stroke:none;fill-rule:nonzero;fill:rgb(0%,0%,0%);fill-opacity:1;" d="M 13.46875 21.65625 L 13.867188 21.59375 C 13.886719 21.753906 13.949219 21.878906 14.054688 21.960938 C 14.15625 22.046875 14.300781 22.089844 14.484375 22.085938 C 14.667969 22.089844 14.804688 22.050781 14.894531 21.976562 C 14.984375 21.898438 15.027344 21.8125 15.03125 21.710938 C 15.027344 21.621094 14.988281 21.546875 14.910156 21.492188 C 14.851562 21.460938 14.714844 21.414062 14.5 21.355469 C 14.199219 21.285156 13.996094 21.21875 13.882812 21.164062 C 13.765625 21.109375 13.679688 21.035156 13.625 20.9375 C 13.566406 20.84375 13.535156 20.734375 13.535156 20.617188 C 13.535156 20.511719 13.558594 20.417969 13.605469 20.324219 C 13.65625 20.234375 13.722656 20.160156 13.808594 20.097656 C 13.867188 20.054688 13.953125 20.015625 14.0625 19.980469 C 14.167969 19.949219 14.285156 19.933594 14.410156 19.933594 C 14.597656 19.933594 14.761719 19.960938 14.902344 20.011719 C 15.042969 20.066406 15.148438 20.140625 15.214844 20.234375 C 15.28125 20.324219 15.328125 20.449219 15.355469 20.601562 L 14.960938 20.652344 C 14.941406 20.53125 14.890625 20.4375 14.804688 20.367188 C 14.714844 20.300781 14.59375 20.265625 14.441406 20.265625 C 14.253906 20.265625 14.121094 20.296875 14.042969 20.355469 C 13.964844 20.417969 13.925781 20.492188 13.925781 20.570312 C 13.925781 20.625 13.941406 20.671875 13.976562 20.710938 C 14.007812 20.757812 14.058594 20.792969 14.128906 20.820312 C 14.167969 20.835938 14.285156 20.871094 14.484375 20.921875 C 14.769531 21 14.96875 21.0625 15.082031 21.109375 C 15.195312 21.160156 15.28125 21.230469 15.347656 21.320312 C 15.410156 21.414062 15.445312 21.53125 15.445312 21.667969 C 15.445312 21.800781 15.402344 21.929688 15.324219 22.046875 C 15.246094 22.167969 15.136719 22.257812 14.988281 22.324219 C 14.839844 22.386719 14.671875 22.417969 14.484375 22.417969 C 14.175781 22.417969 13.9375 22.355469 13.777344 22.226562 C 13.617188 22.101562 13.511719 21.910156 13.46875 21.65625 Z M 13.46875 21.65625 "/>
<path style=" stroke:none;fill-rule:nonzero;fill:rgb(0%,0%,0%);fill-opacity:1;" d=""/>
<path style=" stroke:none;fill-rule:nonzero;fill:rgb(0%,0%,0%);fill-opacity:1;" d=""/>
<path style="fill:none;stroke-width:0.75;stroke-linecap:square;stroke-linejoin:miter;stroke:rgb(100%,100%,100%);stroke-opacity:1;stroke-miterlimit:3;" d="M 0.000751288 35.968611 L 0.0404147 36.019091 Z M 0.000751288 35.968611 " transform="matrix(1.083335,0,0,1.083335,27.569499,-22.126215)"/>
<path style="fill:none;stroke-width:0.75;stroke-linecap:square;stroke-linejoin:miter;stroke:rgb(100%,100%,100%);stroke-opacity:1;stroke-miterlimit:3;" d="M 0.277571 31.310314 L 0.15858 31.548294 L 0.129734 31.67089 L 0.0900709 31.800698 L 0.0612248 31.941323 L 0.0287729 32.07113 L 0.0107441 32.211755 L -0.0000731809 32.337957 L -0.0000731809 32.608389 L 0.0107441 32.749014 L 0.0287729 32.882427 L 0.0612248 33.019446 L 0.0900709 33.149253 L 0.129734 33.268244 L 0.180215 33.408868 L 0.219878 33.531464 L 0.277571 33.650454 L 0.360503 33.74781 L 0.429013 33.859589 L 0.490311 33.949733 L 0.580455 34.050694 L 0.670599 34.130021 L 0.760743 34.220165 L 0.850887 34.288675 L 0.941031 34.349973 L 1.060021 34.407665 L 1.150165 34.461751 L 1.269155 34.501415 L 1.380934 34.530261 L 1.481896 34.54829 L 1.600886 34.559107 L 1.709059 34.580741 L 1.81002 34.559107 L 1.92901 34.54829 L 2.040789 34.530261 L 2.159779 34.501415 L 2.26074 34.461751 L 2.368913 34.407665 L 2.469875 34.371607 L 2.560019 34.288675 L 2.668192 34.220165 L 2.740307 34.140838 L 2.84848 34.068723 L 2.920595 33.96055 L 2.999922 33.859589 L 3.068431 33.769445 L 3.129729 33.650454 L 3.191027 33.531464 L 3.252325 33.408868 L 3.2992 33.289878 L 3.338864 33.170888 L 3.371315 33.030263 L 3.400162 32.900456 L 3.421796 32.759831 L 3.432613 32.630023 L 3.432613 32.211755 L 3.400162 32.092765 L 3.371315 31.95214 L 3.338864 31.818727 L 3.310018 31.699737 L 3.252325 31.559112 L 3.209056 31.440122 L 3.158575 31.321131 L 3.090066 31.22017 L 3.010739 31.10118 L 2.909778 30.960555 L 2.859297 30.920892 L 2.801605 30.859594 L 2.790788 30.841565 L 2.740307 30.801901 L 2.72949 30.780267 L 2.679009 30.740603 L 2.668192 30.740603 L 2.621317 30.708152 L 2.610499 30.690123 L 2.560019 30.661277 L 2.527567 30.650459 L 2.491509 30.632431 L 2.469875 30.632431 L 2.408577 30.621613 L 2.397759 30.621613 L 2.350884 30.599979 L 2.278769 30.599979 L 2.26074 30.589161 L 2.14175 30.589161 L 2.109298 30.599979 L 2.040789 30.599979 L 1.990308 30.621613 L 1.979491 30.621613 L 1.92901 30.650459 L 1.918193 30.650459 L 1.871318 30.679306 L 1.860501 30.679306 L 1.81002 30.718969 L 1.799203 30.740603 L 1.748722 30.801901 L 1.719876 30.809113 L 1.69103 30.870411 L 1.69103 30.88844 L 1.680213 30.949738 L 1.662184 30.98219 L 1.651366 31.039882 L 1.651366 31.050699 L 1.629732 31.130026 L 1.629732 36.019441 Z M 0.277571 31.310314 " transform="matrix(1.083335,0,0,1.083335,24.421954,-16.696907)"/>
<path style="fill:none;stroke-width:0.75;stroke-linecap:square;stroke-linejoin:miter;stroke:rgb(0%,0%,0%);stroke-opacity:1;stroke-miterlimit:3;" d="M 0.277571 31.310314 L 0.15858 31.548294 L 0.129734 31.67089 L 0.0900709 31.800698 L 0.0612248 31.941323 L 0.0287729 32.07113 L 0.0107441 32.211755 L -0.0000731809 32.337957 L -0.0000731809 32.608389 L 0.0107441 32.749014 L 0.0287729 32.882427 L 0.0612248 33.019446 L 0.0900709 33.149253 L 0.129734 33.268244 L 0.180215 33.408868 L 0.219878 33.531464 L 0.277571 33.650454 L 0.360503 33.74781 L 0.429013 33.859589 L 0.490311 33.949733 L 0.580455 34.050694 L 0.670599 34.130021 L 0.760743 34.220165 L 0.850887 34.288675 L 0.941031 34.349973 L 1.060021 34.407665 L 1.150165 34.461751 L 1.269155 34.501415 L 1.380934 34.530261 L 1.481896 34.54829 L 1.600886 34.559107 L 1.709059 34.580741 L 1.81002 34.559107 L 1.92901 34.54829 L 2.040789 34.530261 L 2.159779 34.501415 L 2.26074 34.461751 L 2.368913 34.407665 L 2.469875 34.371607 L 2.560019 34.288675 L 2.668192 34.220165 L 2.740307 34.140838 L 2.84848 34.068723 L 2.920595 33.96055 L 2.999922 33.859589 L 3.068431 33.769445 L 3.129729 33.650454 L 3.191027 33.531464 L 3.252325 33.408868 L 3.2992 33.289878 L 3.338864 33.170888 L 3.371315 33.030263 L 3.400162 32.900456 L 3.421796 32.759831 L 3.432613 32.630023 L 3.432613 32.211755 L 3.400162 32.092765 L 3.371315 31.95214 L 3.338864 31.818727 L 3.310018 31.699737 L 3.252325 31.559112 L 3.209056 31.440122 L 3.158575 31.321131 L 3.090066 31.22017 L 3.010739 31.10118 L 2.909778 30.960555 L 2.859297 30.920892 L 2.801605 30.859594 L 2.790788 30.841565 L 2.740307 30.801901 L 2.72949 30.780267 L 2.679009 30.740603 L 2.668192 30.740603 L 2.621317 30.708152 L 2.610499 30.690123 L 2.560019 30.661277 L 2.527567 30.650459 L 2.491509 30.632431 L 2.469875 30.632431 L 2.408577 30.621613 L 2.397759 30.621613 L 2.350884 30.599979 L 2.278769 30.599979 L 2.26074 30.589161 L 2.14175 30.589161 L 2.109298 30.599979 L 2.040789 30.599979 L 1.990308 30.621613 L 1.979491 30.621613 L 1.92901 30.650459 L 1.918193 30.650459 L 1.871318 30.679306 L 1.860501 30.679306 L 1.81002 30.718969 L 1.799203 30.740603 L 1.748722 30.801901 L 1.719876 30.809113 L 1.69103 30.870411 L 1.69103 30.88844 L 1.680213 30.949738 L 1.662184 30.98219 L 1.651366 31.039882 L 1.651366 31.050699 L 1.629732 31.130026 L 1.629732 36.019441 Z M 0.277571 31.310314 " transform="matrix(1.083335,0,0,1.083335,24.421954,-16.696907)"/>
<path style="fill:none;stroke-width:0.75;stroke-linecap:round;stroke-linejoin:round;stroke:rgb(0%,0%,0%);stroke-opacity:1;stroke-miterlimit:3;" d="M 0.277571 31.310314 L 0.15858 31.548294 L 0.129734 31.67089 L 0.0900709 31.800698 L 0.0612248 31.941323 L 0.0287729 32.07113 L 0.0107441 32.211755 L -0.0000731809 32.337957 L -0.0000731809 32.608389 L 0.0107441 32.749014 L 0.0287729 32.882427 L 0.0612248 33.019446 L 0.0900709 33.149253 L 0.129734 33.268244 L 0.180215 33.408868 L 0.219878 33.531464 L 0.277571 33.650454 L 0.360503 33.74781 L 0.429013 33.859589 L 0.490311 33.949733 L 0.580455 34.050694 L 0.670599 34.130021 L 0.760743 34.220165 L 0.850887 34.288675 L 0.941031 34.349973 L 1.060021 34.407665 L 1.150165 34.461751 L 1.269155 34.501415 L 1.380934 34.530261 L 1.481896 34.54829 L 1.600886 34.559107 L 1.709059 34.580741 L 1.81002 34.559107 L 1.92901 34.54829 L 2.040789 34.530261 L 2.159779 34.501415 L 2.26074 34.461751 L 2.368913 34.407665 L 2.469875 34.371607 L 2.560019 34.288675 L 2.668192 34.220165 L 2.740307 34.140838 L 2.84848 34.068723 L 2.920595 33.96055 L 2.999922 33.859589 L 3.068431 33.769445 L 3.129729 33.650454 L 3.191027 33.531464 L 3.252325 33.408868 L 3.2992 33.289878 L 3.338864 33.170888 L 3.371315 33.030263 L 3.400162 32.900456 L 3.421796 32.759831 L 3.432613 32.630023 L 3.432613 32.211755 L 3.400162 32.092765 L 3.371315 31.95214 L 3.338864 31.818727 L 3.310018 31.699737 L 3.252325 31.559112 L 3.209056 31.440122 L 3.158575 31.321131 L 3.090066 31.22017 L 3.010739 31.10118 L 2.909778 30.960555 L 2.859297 30.920892 L 2.801605 30.859594 L 2.790788 30.841565 L 2.740307 30.801901 L 2.72949 30.780267 L 2.679009 30.740603 L 2.668192 30.740603 L 2.621317 30.708152 L 2.610499 30.690123 L 2.560019 30.661277 L 2.527567 30.650459 L 2.491509 30.632431 L 2.469875 30.632431 L 2.408577 30.621613 L 2.397759 30.621613 L 2.350884 30.599979 L 2.278769 30.599979 L 2.26074 30.589161 L 2.14175 30.589161 L 2.109298 30.599979 L 2.040789 30.599979 L 1.990308 30.621613 L 1.979491 30.621613 L 1.92901 30.650459 L 1.918193 30.650459 L 1.871318 30.679306 L 1.860501 30.679306 L 1.81002 30.718969 L 1.799203 30.740603 L 1.748722 30.801901 L 1.719876 30.809113 L 1.69103 30.870411 L 1.69103 30.88844 L 1.680213 30.949738 L 1.662184 30.98219 L 1.651366 31.039882 L 1.651366 31.050699 L 1.629732 31.130026 L 1.629732 36.019441 " transform="matrix(1.083335,0,0,1.083335,24.421954,-16.696907)"/>
<path style="fill:none;stroke-width:0.75;stroke-linecap:square;stroke-linejoin:miter;stroke:rgb(100%,100%,100%);stroke-opacity:1;stroke-miterlimit:3;" d="M 1.629732 36.019441 L 1.629732 31.130026 L 1.651366 31.050699 L 1.651366 31.039882 L 1.662184 30.98219 L 1.680213 30.949738 L 1.69103 30.88844 L 1.69103 30.870411 L 1.719876 30.809113 L 1.748722 30.801901 L 1.799203 30.740603 L 1.81002 30.718969 L 1.860501 30.679306 L 1.871318 30.679306 L 1.918193 30.650459 L 1.92901 30.650459 L 1.979491 30.621613 L 1.990308 30.621613 L 2.040789 30.599979 L 2.109298 30.599979 L 2.14175 30.589161 L 2.26074 30.589161 L 2.278769 30.599979 L 2.350884 30.599979 L 2.397759 30.621613 L 2.408577 30.621613 L 2.469875 30.632431 L 2.491509 30.632431 L 2.527567 30.650459 L 2.560019 30.661277 L 2.610499 30.690123 L 2.621317 30.708152 L 2.668192 30.740603 L 2.679009 30.740603 L 2.72949 30.780267 L 2.740307 30.801901 L 2.790788 30.841565 L 2.801605 30.859594 L 2.859297 30.920892 L 2.909778 30.960555 L 3.010739 31.10118 L 3.090066 31.22017 L 3.158575 31.321131 L 3.209056 31.440122 L 3.252325 31.559112 L 3.310018 31.699737 L 3.338864 31.818727 L 3.371315 31.95214 L 3.400162 32.092765 L 3.432613 32.211755 L 3.432613 32.630023 L 3.421796 32.759831 L 3.400162 32.900456 L 3.371315 33.030263 L 3.338864 33.170888 L 3.2992 33.289878 L 3.252325 33.408868 L 3.191027 33.531464 L 3.129729 33.650454 L 3.068431 33.769445 L 2.999922 33.859589 L 2.920595 33.96055 L 2.84848 34.068723 L 2.740307 34.140838 L 2.668192 34.220165 L 2.560019 34.288675 L 2.469875 34.371607 L 2.368913 34.407665 L 2.26074 34.461751 L 2.159779 34.501415 L 2.040789 34.530261 L 1.92901 34.54829 L 1.81002 34.559107 L 1.709059 34.580741 L 1.600886 34.559107 L 1.481896 34.54829 L 1.380934 34.530261 L 1.269155 34.501415 L 1.150165 34.461751 L 1.060021 34.407665 L 0.941031 34.349973 L 0.850887 34.288675 L 0.760743 34.220165 L 0.670599 34.130021 L 0.580455 34.050694 L 0.490311 33.949733 L 0.429013 33.859589 L 0.360503 33.74781 L 0.277571 33.650454 L 0.219878 33.531464 L 0.180215 33.408868 L 0.129734 33.268244 L 0.0900709 33.149253 L 0.0612248 33.019446 L 0.0287729 32.882427 L 0.0107441 32.749014 L -0.0000731809 32.608389 L -0.0000731809 32.337957 L 0.0107441 32.211755 L 0.0287729 32.07113 L 0.0612248 31.941323 L 0.0900709 31.800698 L 0.129734 31.67089 L 0.15858 31.548294 L 0.277571 31.310314 Z M 1.629732 36.019441 " transform="matrix(1.083335,0,0,1.083335,24.421954,-16.696907)"/>
<path style="fill:none;stroke-width:0.75;stroke-linecap:square;stroke-linejoin:miter;stroke:rgb(0%,0%,0%);stroke-opacity:1;stroke-miterlimit:3;" d="M 1.629732 36.019441 L 1.629732 31.130026 L 1.651366 31.050699 L 1.651366 31.039882 L 1.662184 30.98219 L 1.680213 30.949738 L 1.69103 30.88844 L 1.69103 30.870411 L 1.719876 30.809113 L 1.748722 30.801901 L 1.799203 30.740603 L 1.81002 30.718969 L 1.860501 30.679306 L 1.871318 30.679306 L 1.918193 30.650459 L 1.92901 30.650459 L 1.979491 30.621613 L 1.990308 30.621613 L 2.040789 30.599979 L 2.109298 30.599979 L 2.14175 30.589161 L 2.26074 30.589161 L 2.278769 30.599979 L 2.350884 30.599979 L 2.397759 30.621613 L 2.408577 30.621613 L 2.469875 30.632431 L 2.491509 30.632431 L 2.527567 30.650459 L 2.560019 30.661277 L 2.610499 30.690123 L 2.621317 30.708152 L 2.668192 30.740603 L 2.679009 30.740603 L 2.72949 30.780267 L 2.740307 30.801901 L 2.790788 30.841565 L 2.801605 30.859594 L 2.859297 30.920892 L 2.909778 30.960555 L 3.010739 31.10118 L 3.090066 31.22017 L 3.158575 31.321131 L 3.209056 31.440122 L 3.252325 31.559112 L 3.310018 31.699737 L 3.338864 31.818727 L 3.371315 31.95214 L 3.400162 32.092765 L 3.432613 32.211755 L 3.432613 32.630023 L 3.421796 32.759831 L 3.400162 32.900456 L 3.371315 33.030263 L 3.338864 33.170888 L 3.2992 33.289878 L 3.252325 33.408868 L 3.191027 33.531464 L 3.129729 33.650454 L 3.068431 33.769445 L 2.999922 33.859589 L 2.920595 33.96055 L 2.84848 34.068723 L 2.740307 34.140838 L 2.668192 34.220165 L 2.560019 34.288675 L 2.469875 34.371607 L 2.368913 34.407665 L 2.26074 34.461751 L 2.159779 34.501415 L 2.040789 34.530261 L 1.92901 34.54829 L 1.81002 34.559107 L 1.709059 34.580741 L 1.600886 34.559107 L 1.481896 34.54829 L 1.380934 34.530261 L 1.269155 34.501415 L 1.150165 34.461751 L 1.060021 34.407665 L 0.941031 34.349973 L 0.850887 34.288675 L 0.760743 34.220165 L 0.670599 34.130021 L 0.580455 34.050694 L 0.490311 33.949733 L 0.429013 33.859589 L 0.360503 33.74781 L 0.277571 33.650454 L 0.219878 33.531464 L 0.180215 33.408868 L 0.129734 33.268244 L 0.0900709 33.149253 L 0.0612248 33.019446 L 0.0287729 32.882427 L 0.0107441 32.749014 L -0.0000731809 32.608389 L -0.0000731809 32.337957 L 0.0107441 32.211755 L 0.0287729 32.07113 L 0.0612248 31.941323 L 0.0900709 31.800698 L 0.129734 31.67089 L 0.15858 31.548294 L 0.277571 31.310314 Z M 1.629732 36.019441 " transform="matrix(1.083335,0,0,1.083335,24.421954,-16.696907)"/>
<path style="fill:none;stroke-width:0.75;stroke-linecap:round;stroke-linejoin:round;stroke:rgb(0%,0%,0%);stroke-opacity:1;stroke-miterlimit:3;" d="M 1.629732 36.019441 L 1.629732 31.130026 L 1.651366 31.050699 L 1.651366 31.039882 L 1.662184 30.98219 L 1.680213 30.949738 L 1.69103 30.88844 L 1.69103 30.870411 L 1.719876 30.809113 L 1.748722 30.801901 L 1.799203 30.740603 L 1.81002 30.718969 L 1.860501 30.679306 L 1.871318 30.679306 L 1.918193 30.650459 L 1.92901 30.650459 L 1.979491 30.621613 L 1.990308 30.621613 L 2.040789 30.599979 L 2.109298 30.599979 L 2.14175 30.589161 L 2.26074 30.589161 L 2.278769 30.599979 L 2.350884 30.599979 L 2.397759 30.621613 L 2.408577 30.621613 L 2.469875 30.632431 L 2.491509 30.632431 L 2.527567 30.650459 L 2.560019 30.661277 L 2.610499 30.690123 L 2.621317 30.708152 L 2.668192 30.740603 L 2.679009 30.740603 L 2.72949 30.780267 L 2.740307 30.801901 L 2.790788 30.841565 L 2.801605 30.859594 L 2.859297 30.920892 L 2.909778 30.960555 L 3.010739 31.10118 L 3.090066 31.22017 L 3.158575 31.321131 L 3.209056 31.440122 L 3.252325 31.559112 L 3.310018 31.699737 L 3.338864 31.818727 L 3.371315 31.95214 L 3.400162 32.092765 L 3.432613 32.211755 L 3.432613 32.630023 L 3.421796 32.759831 L 3.400162 32.900456 L 3.371315 33.030263 L 3.338864 33.170888 L 3.2992 33.289878 L 3.252325 33.408868 L 3.191027 33.531464 L 3.129729 33.650454 L 3.068431 33.769445 L 2.999922 33.859589 L 2.920595 33.96055 L 2.84848 34.068723 L 2.740307 34.140838 L 2.668192 34.220165 L 2.560019 34.288675 L 2.469875 34.371607 L 2.368913 34.407665 L 2.26074 34.461751 L 2.159779 34.501415 L 2.040789 34.530261 L 1.92901 34.54829 L 1.81002 34.559107 L 1.709059 34.580741 L 1.600886 34.559107 L 1.481896 34.54829 L 1.380934 34.530261 L 1.269155 34.501415 L 1.150165 34.461751 L 1.060021 34.407665 L 0.941031 34.349973 L 0.850887 34.288675 L 0.760743 34.220165 L 0.670599 34.130021 L 0.580455 34.050694 L 0.490311 33.949733 L 0.429013 33.859589 L 0.360503 33.74781 L 0.277571 33.650454 L 0.219878 33.531464 L 0.180215 33.408868 L 0.129734 33.268244 L 0.0900709 33.149253 L 0.0612248 33.019446 L 0.0287729 32.882427 L 0.0107441 32.749014 L -0.0000731809 32.608389 L -0.0000731809 32.337957 L 0.0107441 32.211755 L 0.0287729 32.07113 L 0.0612248 31.941323 L 0.0900709 31.800698 L 0.129734 31.67089 L 0.15858 31.548294 L 0.277571 31.310314 " transform="matrix(1.083335,0,0,1.083335,24.421954,-16.696907)"/>
<path style="fill:none;stroke-width:0.75;stroke-linecap:round;stroke-linejoin:round;stroke:rgb(0%,0%,0%);stroke-opacity:1;stroke-miterlimit:3;" d="M 0.000751288 35.968611 L 0.0404147 36.019091 Z M 0.000751288 35.968611 " transform="matrix(1.083335,0,0,1.083335,27.569499,-22.126215)"/>
</g>
</svg>
