<?xml version="1.0" encoding="UTF-8"?>
<!--
/*******************************************************************************
* Copyright (c) 2010-2018 ITER Organization.
* All rights reserved. This program and the accompanying materials
* are made available under the terms of the Eclipse Public License v1.0
* which accompanies this distribution, and is available at
* http://www.eclipse.org/legal/epl-v10.html
******************************************************************************/
-->
<svg xmlns="http://www.w3.org/2000/svg" xmlns:xlink="http://www.w3.org/1999/xlink" width="39pt" height="39pt" viewBox="0 0 39 39" version="1.1">
<g id="surface0">
<path style="fill-rule:evenodd;fill:rgb(100%,100%,100%);fill-opacity:1;stroke-width:1;stroke-linecap:round;stroke-linejoin:round;stroke:rgb(0%,0%,0%);stroke-opacity:1;stroke-miterlimit:3;" d="M 34.01566 19.00723 C 34.01566 9.614191 26.400268 2.002405 17.00723 2.002405 C 7.614191 2.002405 0.00240485 9.614191 0.00240485 19.00723 C 0.00240485 28.400268 7.614191 36.01566 17.00723 36.01566 C 26.400268 36.01566 34.01566 28.400268 34.01566 19.00723 Z M 34.01566 19.00723 " transform="matrix(1.083332,0,0,1.083332,1.083332,-1.083332)"/>
<path style=" stroke:none;fill-rule:nonzero;fill:rgb(0%,0%,0%);fill-opacity:1;" d="M 13.1875 23.078125 L 12.054688 20.105469 L 12.585938 20.105469 L 13.226562 21.886719 C 13.292969 22.082031 13.355469 22.28125 13.414062 22.484375 C 13.457031 22.332031 13.519531 22.144531 13.601562 21.917969 L 14.265625 20.105469 L 14.78125 20.105469 L 13.65625 23.078125 Z M 13.1875 23.078125 "/>
<path style=" stroke:none;fill-rule:nonzero;fill:rgb(0%,0%,0%);fill-opacity:1;" d="M 17.167969 22.710938 C 16.980469 22.875 16.796875 22.984375 16.628906 23.046875 C 16.453125 23.117188 16.269531 23.148438 16.074219 23.148438 C 15.746094 23.148438 15.496094 23.070312 15.320312 22.90625 C 15.144531 22.75 15.054688 22.546875 15.054688 22.296875 C 15.054688 22.152344 15.085938 22.019531 15.152344 21.898438 C 15.21875 21.777344 15.304688 21.679688 15.417969 21.609375 C 15.523438 21.535156 15.640625 21.484375 15.777344 21.441406 C 15.875 21.417969 16.027344 21.390625 16.226562 21.367188 C 16.636719 21.316406 16.933594 21.261719 17.125 21.195312 C 17.125 21.125 17.128906 21.082031 17.128906 21.0625 C 17.128906 20.859375 17.082031 20.710938 16.988281 20.625 C 16.855469 20.515625 16.664062 20.457031 16.414062 20.457031 C 16.171875 20.457031 16 20.5 15.886719 20.582031 C 15.773438 20.667969 15.691406 20.8125 15.636719 21.019531 L 15.144531 20.953125 C 15.183594 20.746094 15.257812 20.574219 15.363281 20.441406 C 15.464844 20.316406 15.617188 20.214844 15.8125 20.144531 C 16.003906 20.074219 16.226562 20.039062 16.484375 20.039062 C 16.738281 20.039062 16.945312 20.070312 17.101562 20.128906 C 17.261719 20.1875 17.375 20.265625 17.453125 20.351562 C 17.527344 20.449219 17.578125 20.5625 17.609375 20.695312 C 17.625 20.785156 17.632812 20.941406 17.636719 21.164062 L 17.636719 21.835938 C 17.632812 22.304688 17.644531 22.601562 17.667969 22.722656 C 17.6875 22.847656 17.730469 22.96875 17.796875 23.078125 L 17.269531 23.078125 C 17.214844 22.976562 17.183594 22.855469 17.167969 22.710938 Z M 17.125 21.585938 C 16.941406 21.664062 16.667969 21.730469 16.304688 21.777344 C 16.09375 21.808594 15.945312 21.84375 15.863281 21.878906 C 15.773438 21.917969 15.710938 21.972656 15.664062 22.042969 C 15.617188 22.117188 15.589844 22.195312 15.59375 22.28125 C 15.589844 22.417969 15.640625 22.53125 15.746094 22.617188 C 15.847656 22.710938 15.996094 22.753906 16.195312 22.753906 C 16.386719 22.753906 16.558594 22.710938 16.710938 22.625 C 16.859375 22.542969 16.972656 22.425781 17.046875 22.277344 C 17.097656 22.164062 17.125 21.996094 17.125 21.773438 Z M 17.125 21.585938 "/>
<path style=" stroke:none;fill-rule:nonzero;fill:rgb(0%,0%,0%);fill-opacity:1;" d="M 18.410156 23.078125 L 18.410156 20.105469 L 18.867188 20.105469 L 18.867188 20.558594 C 18.980469 20.347656 19.085938 20.207031 19.1875 20.136719 C 19.28125 20.074219 19.390625 20.039062 19.507812 20.039062 C 19.675781 20.039062 19.851562 20.09375 20.027344 20.199219 L 19.855469 20.667969 C 19.730469 20.597656 19.605469 20.558594 19.484375 20.558594 C 19.371094 20.558594 19.269531 20.59375 19.1875 20.660156 C 19.097656 20.726562 19.035156 20.820312 19 20.933594 C 18.941406 21.113281 18.914062 21.3125 18.914062 21.523438 L 18.914062 23.078125 Z M 18.410156 23.078125 "/>
</g>
</svg>
