<?xml version="1.0" encoding="UTF-8"?>
<!--
/*******************************************************************************
* Copyright (c) 2010-2018 ITER Organization.
* All rights reserved. This program and the accompanying materials
* are made available under the terms of the Eclipse Public License v1.0
* which accompanies this distribution, and is available at
* http://www.eclipse.org/legal/epl-v10.html
******************************************************************************/
-->
<svg xmlns="http://www.w3.org/2000/svg" xmlns:xlink="http://www.w3.org/1999/xlink" width="39pt" height="56pt" viewBox="0 0 39 56" version="1.1">
<g id="surface0">
<path style="fill-rule:evenodd;fill:rgb(100%,100%,100%);fill-opacity:1;stroke-width:1;stroke-linecap:round;stroke-linejoin:round;stroke:rgb(0%,0%,0%);stroke-opacity:1;stroke-miterlimit:3;" d="M 0.00237255 2.000119 L 34.015592 2.000119 L 34.015592 53.024643 L 0.00237255 53.024643 Z M 0.00237255 2.000119 " transform="matrix(1.083333,0,0,1.058468,1.083367,-1.058468)"/>
<path style=" stroke:none;fill-rule:nonzero;fill:rgb(0%,0%,0%);fill-opacity:1;" d="M 11.164062 43.207031 L 9.847656 38.359375 L 10.519531 38.359375 L 11.273438 41.539062 C 11.355469 41.871094 11.421875 42.203125 11.484375 42.53125 C 11.609375 42.011719 11.683594 41.710938 11.707031 41.632812 L 12.652344 38.359375 L 13.445312 38.359375 L 14.15625 40.8125 C 14.332031 41.421875 14.460938 41.996094 14.542969 42.53125 C 14.601562 42.222656 14.683594 41.871094 14.789062 41.476562 L 15.566406 38.359375 L 16.226562 38.359375 L 14.867188 43.207031 L 14.234375 43.207031 L 13.1875 39.515625 C 13.097656 39.207031 13.046875 39.019531 13.03125 38.945312 C 12.976562 39.167969 12.929688 39.359375 12.886719 39.515625 L 11.832031 43.207031 Z M 11.164062 43.207031 "/>
<path style=" stroke:none;fill-rule:nonzero;fill:rgb(0%,0%,0%);fill-opacity:1;" d="M 16.761719 43.207031 L 16.761719 38.359375 L 17.371094 38.359375 L 17.371094 40.097656 C 17.652344 39.777344 18.011719 39.617188 18.445312 39.617188 C 18.710938 39.617188 18.945312 39.667969 19.140625 39.769531 C 19.339844 39.875 19.476562 40.015625 19.5625 40.195312 C 19.644531 40.378906 19.6875 40.640625 19.691406 40.984375 L 19.691406 43.207031 L 19.082031 43.207031 L 19.082031 40.984375 C 19.082031 40.683594 19.011719 40.46875 18.882812 40.332031 C 18.75 40.199219 18.5625 40.132812 18.324219 40.128906 C 18.140625 40.132812 17.972656 40.179688 17.8125 40.265625 C 17.652344 40.359375 17.539062 40.480469 17.472656 40.640625 C 17.402344 40.796875 17.367188 41.011719 17.371094 41.289062 L 17.371094 43.207031 Z M 16.761719 43.207031 "/>
<path style="fill:none;stroke-width:1;stroke-linecap:round;stroke-linejoin:round;stroke:rgb(0%,0%,0%);stroke-opacity:1;stroke-miterlimit:3;" d="M 0.00237255 53.021538 L 34.019197 53.021538 " transform="matrix(1.083333,0,0,1.058468,1.083367,-37.062994)"/>
</g>
</svg>
