<?xml version="1.0" encoding="UTF-8"?>
<!--
/*******************************************************************************
* Copyright (c) 2010-2018 ITER Organization.
* All rights reserved. This program and the accompanying materials
* are made available under the terms of the Eclipse Public License v1.0
* which accompanies this distribution, and is available at
* http://www.eclipse.org/legal/epl-v10.html
******************************************************************************/
-->
<svg xmlns="http://www.w3.org/2000/svg" xmlns:xlink="http://www.w3.org/1999/xlink" width="57pt" height="57pt" viewBox="0 0 57 57" version="1.1">
<g id="surface0">
<path style="fill:none;stroke-width:1;stroke-linecap:round;stroke-linejoin:round;stroke:rgb(0%,0%,0%);stroke-opacity:1;stroke-miterlimit:3;" d="M 51.021988 27.511345 C 51.021988 13.421754 39.600936 2.000702 25.511345 2.000702 C 11.421754 2.000702 0.000701754 13.421754 0.000701754 27.511345 C 0.000701754 41.600936 11.421754 53.021988 25.511345 53.021988 C 39.600936 53.021988 51.021988 41.600936 51.021988 27.511345 Z M 51.021988 27.511345 " transform="matrix(1.077369,0,0,1.077369,1.077369,-1.077369)"/>
<path style=" stroke:none;fill-rule:nonzero;fill:rgb(0%,0%,0%);fill-opacity:1;" d="M 20.574219 33.960938 L 20.574219 24.707031 L 23.765625 24.707031 C 24.484375 24.710938 25.03125 24.753906 25.414062 24.839844 C 25.941406 24.964844 26.390625 25.1875 26.769531 25.503906 C 27.253906 25.917969 27.621094 26.445312 27.863281 27.085938 C 28.105469 27.730469 28.226562 28.460938 28.226562 29.285156 C 28.226562 29.988281 28.140625 30.609375 27.980469 31.152344 C 27.8125 31.695312 27.605469 32.144531 27.347656 32.5 C 27.089844 32.859375 26.808594 33.136719 26.503906 33.339844 C 26.199219 33.542969 25.832031 33.699219 25.402344 33.804688 C 24.96875 33.910156 24.472656 33.960938 23.914062 33.960938 Z M 21.800781 32.867188 L 23.777344 32.867188 C 24.382812 32.871094 24.863281 32.816406 25.210938 32.699219 C 25.558594 32.589844 25.835938 32.429688 26.042969 32.21875 C 26.332031 31.933594 26.558594 31.542969 26.722656 31.046875 C 26.878906 30.558594 26.960938 29.964844 26.964844 29.265625 C 26.960938 28.300781 26.804688 27.554688 26.488281 27.035156 C 26.167969 26.515625 25.78125 26.167969 25.328125 25.988281 C 25 25.863281 24.472656 25.800781 23.746094 25.800781 L 21.800781 25.800781 Z M 21.800781 32.867188 "/>
<path style=" stroke:none;fill-rule:nonzero;fill:rgb(0%,0%,0%);fill-opacity:1;" d="M 28.898438 33.960938 L 32.449219 24.707031 L 33.769531 24.707031 L 37.558594 33.960938 L 36.164062 33.960938 L 35.082031 31.160156 L 31.214844 31.160156 L 30.195312 33.960938 Z M 31.566406 30.160156 L 34.703125 30.160156 L 33.738281 27.597656 C 33.441406 26.820312 33.222656 26.183594 33.082031 25.679688 C 32.960938 26.273438 32.792969 26.863281 32.582031 27.449219 Z M 31.566406 30.160156 "/>
</g>
</svg>
