<?xml version="1.0" encoding="UTF-8"?>
<!--
/*******************************************************************************
* Copyright (c) 2010-2018 ITER Organization.
* All rights reserved. This program and the accompanying materials
* are made available under the terms of the Eclipse Public License v1.0
* which accompanies this distribution, and is available at
* http://www.eclipse.org/legal/epl-v10.html
******************************************************************************/
-->
<svg xmlns="http://www.w3.org/2000/svg" xmlns:xlink="http://www.w3.org/1999/xlink" width="39pt" height="39pt" viewBox="0 0 39 39" version="1.1">
<g id="surface1">
<path style="fill-rule:evenodd;fill:rgb(100%,100%,100%);fill-opacity:1;stroke-width:1;stroke-linecap:round;stroke-linejoin:round;stroke:rgb(0%,0%,0%);stroke-opacity:1;stroke-miterlimit:3;" d="M 34.015567 19.007182 C 34.015567 9.614169 26.400195 2.002402 17.007182 2.002402 C 7.614169 2.002402 0.0024022 9.614169 0.0024022 19.007182 C 0.0024022 28.400195 7.614169 36.015567 17.007182 36.015567 C 26.400195 36.015567 34.015567 28.400195 34.015567 19.007182 Z M 34.015567 19.007182 " transform="matrix(1.083335,0,0,1.083335,1.083335,-1.083335)"/>
<path style=" stroke:none;fill-rule:nonzero;fill:rgb(0%,0%,0%);fill-opacity:1;" d="M 12.113281 23.792969 L 12.113281 18.867188 L 12.761719 18.867188 L 12.761719 20.886719 L 15.324219 20.886719 L 15.324219 18.867188 L 15.976562 18.867188 L 15.976562 23.792969 L 15.324219 23.792969 L 15.324219 21.472656 L 12.761719 21.472656 L 12.761719 23.792969 Z M 12.113281 23.792969 "/>
<path style=" stroke:none;fill-rule:nonzero;fill:rgb(0%,0%,0%);fill-opacity:1;" d="M 16.664062 23.792969 L 16.664062 23.300781 L 18.9375 20.695312 C 18.675781 20.707031 18.449219 20.714844 18.253906 20.714844 L 16.800781 20.714844 L 16.800781 20.222656 L 19.714844 20.222656 L 19.714844 20.625 L 17.78125 22.890625 L 17.410156 23.300781 C 17.679688 23.285156 17.933594 23.273438 18.171875 23.273438 L 19.824219 23.273438 L 19.824219 23.792969 Z M 16.664062 23.792969 "/>
</g>
</svg>
