<?xml version="1.0" encoding="UTF-8"?>
<!--
/*******************************************************************************
* Copyright (c) 2010-2018 ITER Organization.
* All rights reserved. This program and the accompanying materials
* are made available under the terms of the Eclipse Public License v1.0
* which accompanies this distribution, and is available at
* http://www.eclipse.org/legal/epl-v10.html
******************************************************************************/
-->
<svg xmlns="http://www.w3.org/2000/svg" xmlns:xlink="http://www.w3.org/1999/xlink" width="39pt" height="56pt" viewBox="0 0 39 56" version="1.1">
<g id="surface1">
<path style="fill-rule:evenodd;fill:rgb(100%,100%,100%);fill-opacity:1;stroke-width:1;stroke-linecap:round;stroke-linejoin:round;stroke:rgb(0%,0%,0%);stroke-opacity:1;stroke-miterlimit:3;" d="M 0.00237255 2.000119 L 34.015592 2.000119 L 34.015592 53.024643 L 0.00237255 53.024643 Z M 0.00237255 2.000119 " transform="matrix(1.083333,0,0,1.058468,1.083367,-1.058468)"/>
<path style=" stroke:none;fill-rule:nonzero;fill:rgb(0%,0%,0%);fill-opacity:1;" d="M 16.351562 43.207031 L 16.351562 38.359375 L 16.960938 38.359375 L 16.960938 40.097656 C 17.242188 39.777344 17.601562 39.617188 18.035156 39.617188 C 18.300781 39.617188 18.53125 39.667969 18.730469 39.769531 C 18.925781 39.875 19.066406 40.015625 19.152344 40.195312 C 19.234375 40.378906 19.277344 40.640625 19.277344 40.984375 L 19.277344 43.207031 L 18.667969 43.207031 L 18.667969 40.984375 C 18.667969 40.683594 18.601562 40.46875 18.46875 40.332031 C 18.335938 40.199219 18.152344 40.132812 17.910156 40.128906 C 17.730469 40.132812 17.558594 40.179688 17.402344 40.265625 C 17.242188 40.359375 17.128906 40.480469 17.058594 40.640625 C 16.992188 40.796875 16.957031 41.011719 16.960938 41.289062 L 16.960938 43.207031 Z M 16.351562 43.207031 "/>
<path style="fill:none;stroke-width:1;stroke-linecap:round;stroke-linejoin:round;stroke:rgb(0%,0%,0%);stroke-opacity:1;stroke-miterlimit:3;" d="M 0.00237255 53.021538 L 34.019197 53.021538 " transform="matrix(1.083333,0,0,1.058468,1.083367,-37.062994)"/>
</g>
</svg>
