<?xml version="1.0" encoding="UTF-8"?>
<!--
/*******************************************************************************
* Copyright (c) 2010-2018 ITER Organization.
* All rights reserved. This program and the accompanying materials
* are made available under the terms of the Eclipse Public License v1.0
* which accompanies this distribution, and is available at
* http://www.eclipse.org/legal/epl-v10.html
******************************************************************************/
-->
<svg xmlns="http://www.w3.org/2000/svg" xmlns:xlink="http://www.w3.org/1999/xlink" width="39pt" height="39pt" viewBox="0 0 39 39" version="1.1">
<g id="surface1">
<path style="fill-rule:evenodd;fill:rgb(100%,100%,100%);fill-opacity:1;stroke-width:1;stroke-linecap:round;stroke-linejoin:round;stroke:rgb(0%,0%,0%);stroke-opacity:1;stroke-miterlimit:3;" d="M 34.01566 19.209129 C 34.01566 9.819697 26.400268 2.204304 17.00723 2.204304 C 7.614191 2.204304 0.00240485 9.819697 0.00240485 19.209129 C 0.00240485 28.605773 7.614191 36.221165 17.00723 36.221165 C 26.400268 36.221165 34.01566 28.605773 34.01566 19.209129 Z M 34.01566 19.209129 " transform="matrix(1.083332,0,0,1.083332,1.083332,-1.083306)"/>
<path style="fill:none;stroke-width:1;stroke-linecap:round;stroke-linejoin:round;stroke:rgb(0%,0%,0%);stroke-opacity:1;stroke-miterlimit:3;" d="M 0.00124819 36.217997 L 20.409922 36.217997 " transform="matrix(0.000000000000000067,-1.083332,1.083332,0.000000000000000067,-19.575967,28.020883)"/>
<path style="fill:none;stroke-width:1;stroke-linecap:round;stroke-linejoin:round;stroke:rgb(0%,0%,0%);stroke-opacity:1;stroke-miterlimit:3;" d="M -0.0021251 36.217997 L 5.100043 36.217997 " transform="matrix(0.000000000000000067,-1.083332,1.083332,0.000000000000000067,-19.575967,33.548479)"/>
<path style="fill:none;stroke-width:1;stroke-linecap:round;stroke-linejoin:round;stroke:rgb(0%,0%,0%);stroke-opacity:1;stroke-miterlimit:3;" d="M -0.00077277 35.011145 C 3.056289 36.128954 6.583088 36.485836 9.979692 36.019114 L 10.327914 35.940482 " transform="matrix(-0.924117,0.565346,-0.565346,-0.924117,39.452863,38.261083)"/>
<path style=" stroke:none;fill-rule:evenodd;fill:rgb(0%,0%,0%);fill-opacity:1;" d="M 12.1875 12.042969 L 6.558594 13.847656 L 8.46875 8.308594 C 9.046875 10.070312 10.410156 11.460938 12.160156 12.074219 "/>
<path style="fill:none;stroke-width:1;stroke-linecap:round;stroke-linejoin:round;stroke:rgb(0%,0%,0%);stroke-opacity:1;stroke-miterlimit:3;" d="M -0.000544605 35.011198 C 3.053445 36.127113 6.583321 36.485863 9.979922 36.019129 L 10.328144 35.940495 " transform="matrix(0.924119,0.565343,0.565343,-0.924119,-0.128765,38.261083)"/>
<path style=" stroke:none;fill-rule:evenodd;fill:rgb(0%,0%,0%);fill-opacity:1;" d="M 27.136719 12.042969 L 32.765625 13.847656 L 30.855469 8.308594 C 30.277344 10.070312 28.914062 11.460938 27.164062 12.074219 "/>
</g>
</svg>
