<?xml version="1.0" encoding="UTF-8"?>
<!--
/*******************************************************************************
* Copyright (c) 2010-2018 ITER Organization.
* All rights reserved. This program and the accompanying materials
* are made available under the terms of the Eclipse Public License v1.0
* which accompanies this distribution, and is available at
* http://www.eclipse.org/legal/epl-v10.html
******************************************************************************/
-->
<svg xmlns="http://www.w3.org/2000/svg" xmlns:xlink="http://www.w3.org/1999/xlink" width="39pt" height="56pt" viewBox="0 0 39 56" version="1.1">
<g id="surface1">
<path style="fill-rule:evenodd;fill:rgb(100%,100%,100%);fill-opacity:1;stroke-width:1;stroke-linecap:round;stroke-linejoin:round;stroke:rgb(0%,0%,0%);stroke-opacity:1;stroke-miterlimit:3;" d="M 0.00239849 2.000119 L 34.015618 2.000119 L 34.015618 53.024643 L 0.00239849 53.024643 Z M 0.00239849 2.000119 " transform="matrix(1.083333,0,0,1.058468,1.083339,-1.058468)"/>
<path style=" stroke:none;fill-rule:nonzero;fill:rgb(0%,0%,0%);fill-opacity:1;" d="M 8.324219 43.207031 L 6.957031 39.695312 L 7.597656 39.695312 L 8.371094 41.800781 C 8.453125 42.027344 8.53125 42.265625 8.601562 42.507812 C 8.65625 42.320312 8.730469 42.097656 8.828125 41.839844 L 9.628906 39.695312 L 10.253906 39.695312 L 8.894531 43.207031 Z M 8.324219 43.207031 "/>
<path style=" stroke:none;fill-rule:nonzero;fill:rgb(0%,0%,0%);fill-opacity:1;" d="M 13.136719 42.777344 C 12.914062 42.964844 12.695312 43.09375 12.488281 43.171875 C 12.277344 43.25 12.050781 43.289062 11.8125 43.289062 C 11.421875 43.289062 11.117188 43.195312 10.90625 43.003906 C 10.691406 42.820312 10.585938 42.578125 10.585938 42.28125 C 10.585938 42.109375 10.625 41.953125 10.707031 41.8125 C 10.785156 41.671875 10.890625 41.558594 11.019531 41.46875 C 11.152344 41.386719 11.296875 41.320312 11.460938 41.273438 C 11.578125 41.246094 11.757812 41.214844 12 41.183594 C 12.492188 41.125 12.855469 41.058594 13.085938 40.980469 C 13.089844 40.898438 13.089844 40.847656 13.089844 40.824219 C 13.089844 40.582031 13.03125 40.410156 12.917969 40.308594 C 12.761719 40.179688 12.53125 40.113281 12.222656 40.109375 C 11.9375 40.113281 11.726562 40.160156 11.589844 40.257812 C 11.453125 40.355469 11.351562 40.527344 11.289062 40.777344 L 10.691406 40.699219 C 10.746094 40.449219 10.832031 40.25 10.957031 40.09375 C 11.078125 39.945312 11.257812 39.824219 11.496094 39.742188 C 11.730469 39.65625 12.003906 39.617188 12.3125 39.617188 C 12.617188 39.617188 12.867188 39.652344 13.058594 39.722656 C 13.25 39.792969 13.390625 39.882812 13.484375 39.988281 C 13.574219 40.097656 13.636719 40.234375 13.675781 40.394531 C 13.691406 40.496094 13.703125 40.679688 13.703125 40.941406 L 13.703125 41.738281 C 13.703125 42.289062 13.714844 42.640625 13.742188 42.785156 C 13.765625 42.9375 13.820312 43.074219 13.898438 43.207031 L 13.261719 43.207031 C 13.195312 43.085938 13.15625 42.941406 13.136719 42.777344 Z M 13.085938 41.445312 C 12.863281 41.535156 12.535156 41.613281 12.09375 41.671875 C 11.839844 41.707031 11.664062 41.75 11.5625 41.789062 C 11.457031 41.835938 11.375 41.898438 11.320312 41.984375 C 11.261719 42.066406 11.238281 42.164062 11.238281 42.265625 C 11.238281 42.425781 11.296875 42.558594 11.421875 42.664062 C 11.542969 42.769531 11.722656 42.824219 11.960938 42.820312 C 12.191406 42.824219 12.402344 42.773438 12.585938 42.671875 C 12.765625 42.570312 12.902344 42.433594 12.992188 42.257812 C 13.054688 42.125 13.085938 41.925781 13.085938 41.664062 Z M 13.085938 41.445312 "/>
<path style=" stroke:none;fill-rule:nonzero;fill:rgb(0%,0%,0%);fill-opacity:1;" d="M 14.640625 43.207031 L 14.640625 39.695312 L 15.191406 39.695312 L 15.191406 40.230469 C 15.328125 39.980469 15.457031 39.8125 15.578125 39.734375 C 15.695312 39.65625 15.824219 39.617188 15.96875 39.617188 C 16.171875 39.617188 16.378906 39.679688 16.597656 39.808594 L 16.386719 40.359375 C 16.234375 40.273438 16.085938 40.230469 15.941406 40.230469 C 15.804688 40.230469 15.683594 40.269531 15.582031 40.351562 C 15.472656 40.429688 15.398438 40.539062 15.351562 40.675781 C 15.28125 40.886719 15.25 41.117188 15.25 41.367188 L 15.25 43.207031 Z M 14.640625 43.207031 "/>
<path style=" stroke:none;fill-rule:nonzero;fill:rgb(0%,0%,0%);fill-opacity:1;" d="M 16.957031 43.207031 L 16.957031 38.359375 L 17.566406 38.359375 L 17.566406 40.097656 C 17.847656 39.777344 18.207031 39.617188 18.640625 39.617188 C 18.90625 39.617188 19.140625 39.667969 19.335938 39.769531 C 19.535156 39.875 19.671875 40.015625 19.757812 40.195312 C 19.839844 40.378906 19.882812 40.640625 19.886719 40.984375 L 19.886719 43.207031 L 19.277344 43.207031 L 19.277344 40.984375 C 19.277344 40.683594 19.210938 40.46875 19.078125 40.332031 C 18.945312 40.199219 18.757812 40.132812 18.519531 40.128906 C 18.335938 40.132812 18.167969 40.179688 18.007812 40.265625 C 17.847656 40.359375 17.734375 40.480469 17.667969 40.640625 C 17.597656 40.796875 17.566406 41.011719 17.566406 41.289062 L 17.566406 43.207031 Z M 16.957031 43.207031 "/>
<path style="fill:none;stroke-width:1;stroke-linecap:round;stroke-linejoin:round;stroke:rgb(0%,0%,0%);stroke-opacity:1;stroke-miterlimit:3;" d="M 0.00239849 53.017757 L 34.019223 53.017757 " transform="matrix(1.083333,0,0,1.058468,1.083339,-37.066805)"/>
</g>
</svg>
