<?xml version="1.0" encoding="UTF-8"?>
<!--
/*******************************************************************************
* Copyright (c) 2010-2018 ITER Organization.
* All rights reserved. This program and the accompanying materials
* are made available under the terms of the Eclipse Public License v1.0
* which accompanies this distribution, and is available at
* http://www.eclipse.org/legal/epl-v10.html
******************************************************************************/
-->
<svg xmlns="http://www.w3.org/2000/svg" xmlns:xlink="http://www.w3.org/1999/xlink" width="39pt" height="39pt" viewBox="0 0 39 39" version="1.1">
<g id="surface1">
<path style="fill-rule:evenodd;fill:rgb(100%,100%,100%);fill-opacity:1;stroke-width:1;stroke-linecap:round;stroke-linejoin:round;stroke:rgb(0%,0%,0%);stroke-opacity:1;stroke-miterlimit:3;" d="M 34.015567 19.007182 C 34.015567 9.614169 26.400195 2.002402 17.007182 2.002402 C 7.614169 2.002402 0.0024022 9.614169 0.0024022 19.007182 C 0.0024022 28.400195 7.614169 36.015567 17.007182 36.015567 C 26.400195 36.015567 34.015567 28.400195 34.015567 19.007182 Z M 34.015567 19.007182 " transform="matrix(1.083335,0,0,1.083335,1.083335,-1.083335)"/>
<path style=" stroke:none;fill-rule:nonzero;fill:rgb(0%,0%,0%);fill-opacity:1;" d="M 15.710938 23.792969 L 15.710938 18.867188 L 17.566406 18.867188 C 17.890625 18.867188 18.140625 18.882812 18.316406 18.914062 C 18.558594 18.953125 18.761719 19.03125 18.925781 19.144531 C 19.085938 19.261719 19.21875 19.417969 19.320312 19.621094 C 19.417969 19.828125 19.464844 20.046875 19.46875 20.289062 C 19.464844 20.710938 19.332031 21.066406 19.066406 21.355469 C 18.796875 21.644531 18.320312 21.789062 17.625 21.789062 L 16.359375 21.789062 L 16.359375 23.792969 Z M 16.359375 21.207031 L 17.632812 21.207031 C 18.054688 21.210938 18.351562 21.132812 18.53125 20.972656 C 18.703125 20.820312 18.792969 20.597656 18.796875 20.3125 C 18.792969 20.105469 18.742188 19.929688 18.640625 19.78125 C 18.535156 19.636719 18.398438 19.539062 18.230469 19.492188 C 18.117188 19.464844 17.914062 19.449219 17.621094 19.449219 L 16.359375 19.449219 Z M 16.359375 21.207031 "/>
</g>
</svg>
