<?xml version="1.0" encoding="UTF-8"?>
<!--
/*******************************************************************************
* Copyright (c) 2010-2018 ITER Organization.
* All rights reserved. This program and the accompanying materials
* are made available under the terms of the Eclipse Public License v1.0
* which accompanies this distribution, and is available at
* http://www.eclipse.org/legal/epl-v10.html
******************************************************************************/
-->
<svg xmlns="http://www.w3.org/2000/svg" xmlns:xlink="http://www.w3.org/1999/xlink" width="37pt" height="46pt" viewBox="0 0 37 46" version="1.1">
<g id="surface0">
<path style="fill:none;stroke-width:0.01;stroke-linecap:round;stroke-linejoin:round;stroke:rgb(100%,100%,100%);stroke-opacity:1;stroke-miterlimit:3;" d="M 0.000819858 43.222273 L 0.0297845 43.222273 L 0.0297845 43.247889 L 0.000819858 43.247889 Z M 0.000819858 43.222273 " transform="matrix(1.078901,0,0,1.06745,0.0108342,-46.125894)"/>
<path style="fill:none;stroke-width:0.01;stroke-linecap:round;stroke-linejoin:round;stroke:rgb(100%,100%,100%);stroke-opacity:1;stroke-miterlimit:3;" d="M -0.000160214 43.221312 L 0.0288045 43.221312 L 0.0288045 43.250587 L -0.000160214 43.250587 Z M -0.000160214 43.221312 " transform="matrix(1.078901,0,0,1.06745,36.67986,-0.835805)"/>
<path style=" stroke:none;fill-rule:evenodd;fill:rgb(100%,100%,100%);fill-opacity:1;" d="M 13.773438 24.21875 L 13.773438 36.324219 L 22.945312 36.324219 L 22.945312 30.273438 Z M 13.773438 24.21875 L 22.945312 30.273438 L 22.945312 18.167969 L 13.773438 18.167969 Z M 13.773438 24.21875 "/>
<path style="fill:none;stroke-width:0.72;stroke-linecap:round;stroke-linejoin:round;stroke:rgb(0%,0%,0%);stroke-opacity:1;stroke-miterlimit:3;" d="M 0.000236767 23.408418 L 0.000236767 34.748967 L 8.501368 34.748967 L 8.501368 29.080522 L 0.000236767 23.408418 " transform="matrix(1.078901,0,0,1.06745,13.773182,-0.768564)"/>
<path style="fill:none;stroke-width:0.72;stroke-linecap:round;stroke-linejoin:round;stroke:rgb(0%,0%,0%);stroke-opacity:1;stroke-miterlimit:3;" d="M 0.000236767 23.408418 L 8.501368 29.080522 L 8.501368 17.739973 L 0.000236767 17.739973 L 0.000236767 23.408418 " transform="matrix(1.078901,0,0,1.06745,13.773182,-0.768564)"/>
<path style="fill:none;stroke-width:0.72;stroke-linecap:round;stroke-linejoin:round;stroke:rgb(0%,0%,0%);stroke-opacity:1;stroke-miterlimit:3;" d="M 4.250802 34.748967 L 4.250802 43.249805 " transform="matrix(1.078901,0,0,1.06745,13.773182,-0.768564)"/>
</g>
</svg>
