<?xml version="1.0" encoding="UTF-8"?>
<!--
/*******************************************************************************
* Copyright (c) 2010-2018 ITER Organization.
* All rights reserved. This program and the accompanying materials
* are made available under the terms of the Eclipse Public License v1.0
* which accompanies this distribution, and is available at
* http://www.eclipse.org/legal/epl-v10.html
******************************************************************************/
-->
<svg xmlns="http://www.w3.org/2000/svg" xmlns:xlink="http://www.w3.org/1999/xlink" width="37pt" height="46pt" viewBox="0 0 37 46" version="1.1">
<g id="surface0">
<path style="fill:none;stroke-width:0.01;stroke-linecap:round;stroke-linejoin:round;stroke:rgb(100%,100%,100%);stroke-opacity:1;stroke-miterlimit:3;" d="M 0.000823721 43.159209 L 0.0297884 43.159209 L 0.0297884 43.184825 L 0.000823721 43.184825 Z M 0.000823721 43.159209 " transform="matrix(1.078901,0,0,1.06745,0.01083,-45.300764)"/>
<path style="fill:none;stroke-width:0.01;stroke-linecap:round;stroke-linejoin:round;stroke:rgb(100%,100%,100%);stroke-opacity:1;stroke-miterlimit:3;" d="M -0.00015598 43.158248 L 0.0288087 43.158248 L 0.0288087 43.187523 L -0.00015598 43.187523 Z M -0.00015598 43.158248 " transform="matrix(1.078901,0,0,1.06745,36.679856,-0.0106745)"/>
<path style=" stroke:none;fill-rule:evenodd;fill:rgb(100%,100%,100%);fill-opacity:1;" d="M 36.710938 12.5 C 35.859375 11.046875 34.289062 10.152344 32.589844 10.160156 C 30.898438 10.164062 29.335938 11.058594 28.492188 12.507812 C 29.339844 13.960938 30.910156 14.855469 32.605469 14.851562 C 34.300781 14.851562 35.867188 13.953125 36.710938 12.5 Z M 36.710938 12.5 "/>
<path style="fill:none;stroke-width:0.72;stroke-linecap:round;stroke-linejoin:round;stroke:rgb(0%,0%,0%);stroke-opacity:1;stroke-miterlimit:3;" d="M 9.3906 40.989172 L -0.00119436 38.789859 L -0.00119436 29.988949 " transform="matrix(1.078901,0,0,1.06745,18.360664,-31.246076)"/>
<path style="fill:none;stroke-width:0.72;stroke-linecap:round;stroke-linejoin:round;stroke:rgb(0%,0%,0%);stroke-opacity:1;stroke-miterlimit:3;" d="M 17.008308 40.981853 C 16.219021 39.620548 14.763546 38.78254 13.188592 38.789859 C 11.62088 38.793519 10.172646 39.631526 9.3906 40.989172 C 10.176267 42.350477 11.631741 43.188485 13.203075 43.184825 C 14.774408 43.184825 16.226262 42.343158 17.008308 40.981853 " transform="matrix(1.078901,0,0,1.06745,18.360664,-31.246076)"/>
</g>
</svg>
