<?xml version="1.0" encoding="UTF-8"?>
<!--
/*******************************************************************************
* Copyright (c) 2010-2016 ITER Organization.
* All rights reserved. This program and the accompanying materials
* are made available under the terms of the Eclipse Public License v1.0
* which accompanies this distribution, and is available at
* http://www.eclipse.org/legal/epl-v10.html
******************************************************************************/
-->
<svg xmlns="http://www.w3.org/2000/svg" xmlns:xlink="http://www.w3.org/1999/xlink" width="29pt" height="29pt" viewBox="0 0 29 29" version="1.1">
<g id="surface1">
<path style="fill-rule:nonzero;fill:rgb(100%,100%,100%);fill-opacity:1;stroke-width:0.934661;stroke-linecap:round;stroke-linejoin:round;stroke:rgb(0%,0%,0%);stroke-opacity:1;stroke-miterlimit:4;" d="M 26.229176 13.482261 C 26.286361 8.884993 23.865557 4.620233 19.89601 2.307142 C 15.926463 -0.00594826 11.022905 -0.00594826 7.053358 2.307142 C 3.088576 4.620233 0.663007 8.884993 0.720191 13.482261 C 0.663007 18.074709 3.088576 22.344289 7.053358 24.652561 C 11.022905 26.965651 15.926463 26.965651 19.89601 24.652561 C 23.865557 22.344289 26.286361 18.074709 26.229176 13.482261 " transform="matrix(0.819717,0,0,0.810604,3.101053,3.383728)"/>
<path style=" stroke:none;fill-rule:evenodd;fill:rgb(100%,100%,100%);fill-opacity:1;" d="M 0.761719 0.761719 L 0.777344 0.761719 L 0.777344 0.777344 L 0.761719 0.777344 Z "/>
<path style=" stroke:none;fill-rule:evenodd;fill:rgb(100%,100%,100%);fill-opacity:1;" d="M 27.734375 27.734375 L 27.75 27.734375 L 27.75 27.75 L 27.734375 27.75 Z "/>
<path style=" stroke:none;fill-rule:nonzero;fill:rgb(0%,0%,0%);fill-opacity:1;" d="M 17.21875 18.230469 L 16.167969 18.230469 L 16.167969 11.417969 L 14.105469 16.050781 L 13.46875 16.050781 L 11.425781 11.417969 L 11.425781 18.230469 L 10.441406 18.230469 L 10.441406 10.324219 L 11.875 10.324219 L 13.851563 14.722656 L 15.761719 10.324219 L 17.21875 10.324219 Z "/>
</g>
</svg>
