<?xml version="1.0" encoding="UTF-8"?>
<!--
/*******************************************************************************
* Copyright (c) 2010-2018 ITER Organization.
* All rights reserved. This program and the accompanying materials
* are made available under the terms of the Eclipse Public License v1.0
* which accompanies this distribution, and is available at
* http://www.eclipse.org/legal/epl-v10.html
******************************************************************************/
-->
<svg xmlns="http://www.w3.org/2000/svg" xmlns:xlink="http://www.w3.org/1999/xlink" width="37pt" height="46pt" viewBox="0 0 37 46" version="1.1">
<g id="surface0">
<path style="fill:none;stroke-width:0.01;stroke-linecap:round;stroke-linejoin:round;stroke:rgb(100%,100%,100%);stroke-opacity:1;stroke-miterlimit:3;" d="M 0.000819858 43.222273 L 0.0297845 43.222273 L 0.0297845 43.247889 L 0.000819858 43.247889 Z M 0.000819858 43.222273 " transform="matrix(1.078901,0,0,1.06745,0.0108342,-46.125894)"/>
<path style="fill:none;stroke-width:0.01;stroke-linecap:round;stroke-linejoin:round;stroke:rgb(100%,100%,100%);stroke-opacity:1;stroke-miterlimit:3;" d="M -0.000160214 43.221312 L 0.0288045 43.221312 L 0.0288045 43.250587 L -0.000160214 43.250587 Z M -0.000160214 43.221312 " transform="matrix(1.078901,0,0,1.06745,36.67986,-0.835805)"/>
<path style=" stroke:none;fill-rule:evenodd;fill:rgb(100%,100%,100%);fill-opacity:1;" d="M 27.535156 27.242188 C 27.535156 22.226562 23.429688 18.164062 18.359375 18.164062 C 13.292969 18.164062 9.183594 22.226562 9.183594 27.242188 C 9.183594 32.253906 13.292969 36.320312 18.359375 36.320312 C 23.429688 36.320312 27.535156 32.253906 27.535156 27.242188 Z M 27.535156 27.242188 "/>
<path style="fill:none;stroke-width:0.72;stroke-linecap:round;stroke-linejoin:round;stroke:rgb(0%,0%,0%);stroke-opacity:1;stroke-miterlimit:3;" d="M 17.007514 26.240811 C 17.007514 21.542112 13.20228 17.736313 8.502762 17.736313 C 3.806865 17.736313 -0.00198921 21.542112 -0.00198921 26.240811 C -0.00198921 30.935849 3.806865 34.745308 8.502762 34.745308 C 13.20228 34.745308 17.007514 30.935849 17.007514 26.240811 " transform="matrix(1.078901,0,0,1.06745,9.18574,-0.768564)"/>
<path style="fill:none;stroke-width:0.72;stroke-linecap:round;stroke-linejoin:round;stroke:rgb(0%,0%,0%);stroke-opacity:1;stroke-miterlimit:3;" d="M 8.499142 34.748967 L 8.499142 43.249805 " transform="matrix(1.078901,0,0,1.06745,9.18574,-0.768564)"/>
</g>
</svg>
