<?xml version="1.0" encoding="UTF-8" standalone="no"?>
<svg
   xmlns:dc="http://purl.org/dc/elements/1.1/"
   xmlns:cc="http://creativecommons.org/ns#"
   xmlns:rdf="http://www.w3.org/1999/02/22-rdf-syntax-ns#"
   xmlns:svg="http://www.w3.org/2000/svg"
   xmlns="http://www.w3.org/2000/svg"
   xmlns:sodipodi="http://sodipodi.sourceforge.net/DTD/sodipodi-0.dtd"
   xmlns:inkscape="http://www.inkscape.org/namespaces/inkscape"
   width="50"
   height="24.609697"
   viewBox="0 0 40 19.687758"
   version="1.1"
   id="svg2"
   inkscape:version="0.48.4 r9939"
   sodipodi:docname="ITERLogo.svg">
  <metadata
     id="metadata76">
    <rdf:RDF>
      <cc:Work
         rdf:about="">
        <dc:format>image/svg+xml</dc:format>
        <dc:type
           rdf:resource="http://purl.org/dc/dcmitype/StillImage" />
        <dc:title></dc:title>
      </cc:Work>
    </rdf:RDF>
  </metadata>
  <sodipodi:namedview
     pagecolor="#ffffff"
     bordercolor="#666666"
     borderopacity="1"
     objecttolerance="10"
     gridtolerance="10"
     guidetolerance="10"
     inkscape:pageopacity="0"
     inkscape:pageshadow="2"
     inkscape:window-width="948"
     inkscape:window-height="480"
     id="namedview74"
     showgrid="false"
     fit-margin-top="0"
     fit-margin-left="0"
     fit-margin-right="0"
     fit-margin-bottom="0"
     inkscape:zoom="1"
     inkscape:cx="290"
     inkscape:cy="94.999998"
     inkscape:window-x="663"
     inkscape:window-y="421"
     inkscape:window-maximized="0"
     inkscape:current-layer="svg2" />
  <defs
     id="defs4">
    <clipPath
       id="clip1">
      <path
         d="m 0,483.01562 504,0 L 504,736 0,736 z m 0,0"
         id="path7"
         inkscape:connector-curvature="0" />
    </clipPath>
  </defs>
  <g
     id="surface1"
     transform="matrix(0.06371765,0,0,0.06371765,-5.7042983e-6,-30.77662)">
    <g
       clip-path="url(#clip1)"
       clip-rule="nonzero"
       id="g10">
      <path
         style="fill:#f8b31c;fill-opacity:1;fill-rule:nonzero;stroke:none"
         d="m 354.42969,679.71875 c -8.17578,0 -9.34375,7.73828 -9.34375,14.16406 l 18.25,0 c 0,-5.98828 -1.17188,-14.16406 -8.90625,-14.16406 z m -121.89844,-25.83984 -35.18359,0 0,-21.46094 35.18359,0 z m 224.91016,37.22656 c -11.67969,0 -18.39454,7.73828 -18.39454,19.1289 l 0,24.78125 64.95313,0 c 0,-139.17578 -112.82422,-252 -252,-252 -139.17578,0 -252,112.82422 -252,252 l 197.34766,0 0,-71.64843 35.18359,0 0,71.64843 30.34375,0 c -6.85938,-4.63281 -9.74609,-12.94921 -9.74609,-24.49218 l 0,-25.98438 -12.41016,0 0,-21.17187 12.41016,0 0,-12.55469 35.18359,-10.94922 0,23.50391 15.91406,0 0,21.17187 -15.91406,0 0,22.19141 c 0,5.54687 1.60547,9.48828 7.88281,9.48828 2.48438,0 5.25391,-0.4375 7.58985,-1.3125 l 0.85156,20.10937 27.10156,0 c -12.66016,-5.47265 -20.52344,-16.50781 -20.52344,-34.85546 0,-26.71875 19.41797,-38.25391 43.21485,-38.25391 28.17578,0 39.26953,15.91406 39.26953,42.63281 l 0,4.52735 -48.46875,0 c 0.28906,10.21875 11.53515,11.53125 19.41406,11.53125 8.03516,0 16.9375,-0.875 24.23828,-4.67188 l 0.875,19.08984 14.10156,0 0,-56.17187 c 0,-5.10938 0,-10.21875 -0.58203,-15.18359 l 33.4336,0 0.29297,14.89062 c 4.23046,-9.05078 11.53125,-16.78906 22.77343,-16.78906 1.89844,0 3.65235,0.14453 5.40235,0.73047 l -0.875,29.78125 c -2.19141,-1.01953 -4.52735,-1.16797 -6.86328,-1.16797"
         id="path12"
         inkscape:connector-curvature="0" />
    </g>
    <path
       style="fill:#f8b31c;fill-opacity:1;fill-rule:nonzero;stroke:none"
       d="m 10.421875,784.90625 c -5.976563,0 -10.199219,-2.47656 -10.199219,-8.84766 0,-6.03906 4.621094,-8.64843 10.199219,-8.64843 1.945313,0 3.925781,0.19921 5.773437,0.72656 L 16,773.08984 c -1.058594,-0.49609 -2.179688,-0.85937 -3.367188,-0.85937 -2.277343,0 -3.960937,1.48437 -3.960937,3.82812 0,2.47657 1.484375,4.02735 3.960937,4.02735 1.253907,0 2.410157,-0.26563 3.464844,-0.95703 l 0.199219,4.98437 c -1.882813,0.625 -3.894531,0.79297 -5.875,0.79297"
       id="path14"
       inkscape:connector-curvature="0" />
    <path
       style="fill:#f8b31c;fill-opacity:1;fill-rule:nonzero;stroke:none"
       d="m 29.265625,784.54297 0,-9.64063 c 0,-1.01953 0,-2.27734 -1.355469,-2.27734 -1.15625,0 -1.453125,1.35547 -1.453125,2.27734 l 0,9.64063 -7.953125,0 0,-23.79688 7.953125,0 0,9.70313 c 0.859375,-1.98047 2.972657,-3.03906 5.117188,-3.03906 3.664062,0 5.644531,1.8164 5.644531,5.51171 l 0,11.6211 -7.953125,0"
       id="path16"
       inkscape:connector-curvature="0" />
    <path
       style="fill:#f8b31c;fill-opacity:1;fill-rule:nonzero;stroke:none"
       d="m 40.25,784.54297 0,-16.80078 7.957031,0 0,16.80078 z m 0,-18.94531 0,-4.85157 7.957031,0 0,4.85157 -7.957031,0"
       id="path18"
       inkscape:connector-curvature="0" />
    <path
       style="fill:#f8b31c;fill-opacity:1;fill-rule:nonzero;stroke:none"
       d="m 62,784.54297 0,-9.57422 c 0,-0.98828 0,-2.34375 -1.351562,-2.34375 -1.257813,0 -1.453126,1.35547 -1.453126,2.34375 l 0,9.57422 -7.957031,0 0,-13.30078 c 0,-1.15625 0,-2.34375 -0.128906,-3.5 l 7.554687,0 0.06641,2.70703 C 59.6875,768.37109 62,767.41016 64.175781,767.41016 c 3.664063,0 5.777344,1.8164 5.777344,5.57812 l 0,11.55469 -7.953125,0"
       id="path20"
       inkscape:connector-curvature="0" />
    <path
       style="fill:#f8b31c;fill-opacity:1;fill-rule:nonzero;stroke:none"
       d="m 83.679688,777.21484 -0.792969,0 c -1.316407,0 -3.53125,0.29688 -3.53125,2.01172 0,1.15625 1.089843,1.45313 1.851562,1.45313 1.617188,0 2.472657,-1.45313 2.472657,-2.90235 z m -0.03125,7.32813 -0.101563,-2.44531 c -1.417969,1.61718 -3.265625,2.80859 -5.476563,2.80859 -3.203124,0 -5.976562,-1.45313 -5.976562,-4.98828 0,-4.61719 4.523438,-6.13672 8.550781,-6.13672 1.054688,0 1.980469,0.10156 3.035157,0.19922 l 0,-0.19922 c 0,-1.98047 -2.175782,-2.14453 -4.089844,-2.14453 -1.652344,0 -3.765625,0.46094 -5.449219,1.32031 l -0.195313,-4.55469 c 2.210938,-0.5625 4.75,-0.99218 7.0625,-0.99218 5.015626,0 10.230469,0.85937 10.230469,6.93359 l 0,5.71094 c 0,2.4414 0,3.39843 0.09766,4.48828 l -7.6875,0"
       id="path22"
       inkscape:connector-curvature="0" />
    <path
       style="fill:#f8b31c;fill-opacity:1;fill-rule:nonzero;stroke:none"
       d="m 113.77344,771.4375 c -1.84766,0 -2.10938,1.75 -2.10938,3.20312 l 4.125,0 c 0,-1.35546 -0.26562,-3.20312 -2.01562,-3.20312 z m -2.07813,6.63672 c 0.0664,2.30859 2.60938,2.60547 4.39063,2.60547 1.8164,0 3.82812,-0.19922 5.47656,-1.0586 l 0.19922,4.32813 c -2.375,0.75781 -5.21484,0.95703 -7.6875,0.95703 -5.875,0 -10.06641,-2.47656 -10.06641,-8.84766 0,-6.03906 4.38672,-8.64843 9.76563,-8.64843 6.37109,0 8.8789,3.59765 8.8789,9.63671 l 0,1.02735 -10.95703,0"
       id="path24"
       inkscape:connector-curvature="0" />
    <path
       style="fill:#f8b31c;fill-opacity:1;fill-rule:nonzero;stroke:none"
       d="m 136.01953,784.54297 -0.0664,-2.70703 c -0.95703,2.07812 -3.26953,3.03515 -5.44531,3.03515 -3.66406,0 -5.77734,-1.8164 -5.77734,-5.57812 l 0,-11.55078 7.95312,0 0,9.57031 c 0,0.99219 0,2.34375 1.35547,2.34375 1.25391,0 1.44922,-1.35156 1.44922,-2.34375 l 0,-9.57031 7.95703,0 0,13.30078 c 0,1.15625 0,2.34375 0.12891,3.5 l -7.55469,0"
       id="path26"
       inkscape:connector-curvature="0" />
    <path
       style="fill:#f8b31c;fill-opacity:1;fill-rule:nonzero;stroke:none"
       d="m 157.36719,784.54297 0,-16.80078 7.95312,0 0,16.80078 z m 0,-18.94531 0,-4.85157 7.95312,0 0,4.85157 -7.95312,0"
       id="path28"
       inkscape:connector-curvature="0" />
    <path
       style="fill:#f8b31c;fill-opacity:1;fill-rule:nonzero;stroke:none"
       d="m 179.11328,784.54297 0,-9.57422 c 0,-0.98828 0,-2.34375 -1.35156,-2.34375 -1.25391,0 -1.45313,1.35547 -1.45313,2.34375 l 0,9.57422 -7.95312,0 0,-13.30078 c 0,-1.15625 0,-2.34375 -0.13281,-3.5 l 7.55859,0 0.0664,2.70703 c 0.95703,-2.07813 3.26562,-3.03906 5.44531,-3.03906 3.66406,0 5.77734,1.8164 5.77734,5.57812 l 0,11.55469 -7.95703,0"
       id="path30"
       inkscape:connector-curvature="0" />
    <path
       style="fill:#f8b31c;fill-opacity:1;fill-rule:nonzero;stroke:none"
       d="m 199.64062,772.49609 c -1.8164,0 -1.91406,2.3086 -1.91406,3.62891 0,1.38672 0.0664,3.82812 1.98047,3.82812 1.84766,0 1.91406,-2.50781 1.91406,-3.82812 0,-1.41797 -0.0312,-3.62891 -1.98047,-3.62891 z m 2.47657,12.04688 -0.10157,-2.67578 c -0.98828,2.11328 -3.13281,3.03906 -5.3789,3.03906 -5.34766,0 -7.35938,-4.0625 -7.35938,-8.84766 0,-4.48828 2.11328,-8.64843 7.12891,-8.64843 2.11328,0 4.19141,1.05859 5.01562,3.03906 l 0,-9.70313 7.95704,0 0,20.09766 c 0,2.08203 0.0625,2.9375 0.1289,3.69922 l -7.39062,0"
       id="path32"
       inkscape:connector-curvature="0" />
    <path
       style="fill:#f8b31c;fill-opacity:1;fill-rule:nonzero;stroke:none"
       d="m 212.41016,784.54297 0,-16.80078 7.95312,0 0,16.80078 z m 0,-18.94531 0,-4.85157 7.95312,0 0,4.85157 -7.95312,0"
       id="path34"
       inkscape:connector-curvature="0" />
    <path
       style="fill:#f8b31c;fill-opacity:1;fill-rule:nonzero;stroke:none"
       d="m 234.09375,777.21484 -0.79297,0 c -1.32031,0 -3.53125,0.29688 -3.53125,2.01172 0,1.15625 1.08594,1.45313 1.84766,1.45313 1.61718,0 2.47656,-1.45313 2.47656,-2.90235 z m -0.0352,7.32813 -0.0977,-2.44531 c -1.42188,1.61718 -3.26953,2.80859 -5.48047,2.80859 -3.19922,0 -5.97266,-1.45313 -5.97266,-4.98828 0,-4.61719 4.51953,-6.13672 8.54688,-6.13672 1.05859,0 1.98047,0.10156 3.03906,0.19922 l 0,-0.19922 c 0,-1.98047 -2.17969,-2.14453 -4.09375,-2.14453 -1.65234,0 -3.76172,0.46094 -5.44531,1.32031 l -0.19922,-4.55469 c 2.21094,-0.5625 4.7539,-0.99218 7.0625,-0.99218 5.01953,0 10.23047,0.85937 10.23047,6.93359 l 0,5.71094 c 0,2.4414 0,3.39843 0.10156,4.48828 l -7.69141,0"
       id="path36"
       inkscape:connector-curvature="0" />
    <path
       style="fill:#f8b31c;fill-opacity:1;fill-rule:nonzero;stroke:none"
       d="m 255.375,765.59766 0,-4.85157 7.95312,0 0,4.85157 z M 257.19141,792 c -1.6836,0 -3.40235,-0.0977 -5.01563,-0.46094 l 0.19531,-4.95312 c 0.39844,0.16406 0.85938,0.19922 1.28516,0.19922 1.15625,0 1.71875,-1.02344 1.71875,-2.07813 l 0,-16.96484 7.95312,0 0,17.52734 c 0,3.92578 -2.01171,6.73047 -6.13671,6.73047"
       id="path38"
       inkscape:connector-curvature="0" />
    <path
       style="fill:#f8b31c;fill-opacity:1;fill-rule:nonzero;stroke:none"
       d="m 277.05859,777.21484 -0.79297,0 c -1.32031,0 -3.53125,0.29688 -3.53125,2.01172 0,1.15625 1.08985,1.45313 1.84766,1.45313 1.61719,0 2.47656,-1.45313 2.47656,-2.90235 z m -0.0351,7.32813 -0.0977,-2.44531 c -1.41797,1.61718 -3.26953,2.80859 -5.48047,2.80859 -3.19922,0 -5.97265,-1.45313 -5.97265,-4.98828 0,-4.61719 4.51953,-6.13672 8.54687,-6.13672 1.05859,0 1.98047,0.10156 3.03906,0.19922 l 0,-0.19922 c 0,-1.98047 -2.17968,-2.14453 -4.09375,-2.14453 -1.65234,0 -3.76172,0.46094 -5.44531,1.32031 l -0.19922,-4.55469 c 2.21094,-0.5625 4.75391,-0.99218 7.0625,-0.99218 5.01563,0 10.23047,0.85937 10.23047,6.93359 l 0,5.71094 c 0,2.4414 0,3.39843 0.10156,4.48828 l -7.6914,0"
       id="path40"
       inkscape:connector-curvature="0" />
    <path
       style="fill:#f8b31c;fill-opacity:1;fill-rule:nonzero;stroke:none"
       d="m 297.05469,772.42969 c -1.94532,0 -1.98047,2.21093 -1.98047,3.6289 0,1.32032 0.0664,3.82813 1.91406,3.82813 1.91406,0 1.98047,-2.44141 1.98047,-3.82813 0,-1.32031 -0.0977,-3.6289 -1.91406,-3.6289 z m 3.0039,12.47656 c -2.01172,0 -3.99218,-1.05859 -4.78515,-3.03906 l 0,9.80468 -7.95313,0 0,-20.19921 c 0,-2.08204 -0.0664,-2.97266 -0.13281,-3.73047 l 7.55859,0 0.0664,2.70703 c 1.02344,-2.11328 3.19922,-3.03906 5.47656,-3.03906 5.01953,0 7.12891,4.16015 7.12891,8.64843 0,4.78516 -2.01172,8.84766 -7.35938,8.84766"
       id="path42"
       inkscape:connector-curvature="0" />
    <path
       style="fill:#f8b31c;fill-opacity:1;fill-rule:nonzero;stroke:none"
       d="m 320.32031,777.21484 -0.79297,0 c -1.32031,0 -3.53125,0.29688 -3.53125,2.01172 0,1.15625 1.08985,1.45313 1.84766,1.45313 1.61719,0 2.47656,-1.45313 2.47656,-2.90235 z m -0.0351,7.32813 -0.0977,-2.44531 c -1.41797,1.61718 -3.26563,2.80859 -5.47656,2.80859 -3.20313,0 -5.97657,-1.45313 -5.97657,-4.98828 0,-4.61719 4.52344,-6.13672 8.55079,-6.13672 1.05468,0 1.98046,0.10156 3.03515,0.19922 l 0,-0.19922 c 0,-1.98047 -2.17969,-2.14453 -4.09375,-2.14453 -1.64844,0 -3.76172,0.46094 -5.44531,1.32031 l -0.19531,-4.55469 c 2.21093,-0.5625 4.75,-0.99218 7.05859,-0.99218 5.01953,0 10.23438,0.85937 10.23438,6.93359 l 0,5.71094 c 0,2.4414 0,3.39843 0.0976,4.48828 l -7.6914,0"
       id="path44"
       inkscape:connector-curvature="0" />
    <path
       style="fill:#f8b31c;fill-opacity:1;fill-rule:nonzero;stroke:none"
       d="m 341.33984,784.54297 0,-9.57422 c 0,-0.98828 0,-2.34375 -1.35156,-2.34375 -1.25781,0 -1.45312,1.35547 -1.45312,2.34375 l 0,9.57422 -7.95313,0 0,-13.30078 c 0,-1.15625 0,-2.34375 -0.13281,-3.5 l 7.55859,0 0.0664,2.70703 c 0.95703,-2.07813 3.26562,-3.03906 5.44531,-3.03906 3.66406,0 5.77344,1.8164 5.77344,5.57812 l 0,11.55469 -7.95313,0"
       id="path46"
       inkscape:connector-curvature="0" />
    <path
       style="fill:#f8b31c;fill-opacity:1;fill-rule:nonzero;stroke:none"
       d="m 375.69141,784.54297 -4.51954,-8.1211 0,8.1211 -7.95312,0 0,-23.79688 7.95312,0 0,13.82813 4.48829,-6.83203 8.97656,0 -5.44531,7.625 5.77734,9.17578 -9.27734,0"
       id="path48"
       inkscape:connector-curvature="0" />
    <path
       style="fill:#f8b31c;fill-opacity:1;fill-rule:nonzero;stroke:none"
       d="m 395.92187,772.23047 c -1.65234,0 -1.75,2.34375 -1.75,3.82812 0,2.04688 0.13282,4.02735 1.75,4.02735 1.6836,0 1.75,-1.94922 1.75,-4.02735 0,-1.41797 0,-3.82812 -1.75,-3.82812 z m 0,12.67578 c -6.03906,0 -10.19921,-2.60938 -10.19921,-8.84766 0,-6.46875 4.71875,-8.64843 10.19921,-8.64843 5.67579,0 10.19922,2.17968 10.19922,8.64843 0,6.27344 -4.32422,8.84766 -10.19922,8.84766"
       id="path50"
       inkscape:connector-curvature="0" />
    <path
       style="fill:#f8b31c;fill-opacity:1;fill-rule:nonzero;stroke:none"
       d="m 421.99219,774.27734 c -0.4961,-0.23047 -1.02344,-0.26562 -1.55078,-0.26562 -2.64063,0 -4.16016,1.75 -4.16016,4.32422 l 0,6.20703 -7.95313,0 0,-13.30078 c 0,-1.15625 0,-2.3125 -0.13281,-3.4336 l 7.5586,0 0.0664,3.36328 c 0.95703,-2.04296 2.60938,-3.79296 5.14844,-3.79296 0.42969,0 0.82422,0.0312 1.21875,0.16406 l -0.19531,6.73437"
       id="path52"
       inkscape:connector-curvature="0" />
    <path
       style="fill:#f8b31c;fill-opacity:1;fill-rule:nonzero;stroke:none"
       d="m 432.14844,771.4375 c -1.84766,0 -2.11328,1.75 -2.11328,3.20312 l 4.125,0 c 0,-1.35546 -0.26172,-3.20312 -2.01172,-3.20312 z m -2.07813,6.63672 c 0.0664,2.30859 2.60547,2.60547 4.39063,2.60547 1.8125,0 3.82812,-0.19922 5.47656,-1.0586 l 0.19922,4.32813 c -2.375,0.75781 -5.21485,0.95703 -7.69141,0.95703 -5.875,0 -10.0664,-2.47656 -10.0664,-8.84766 0,-6.03906 4.39062,-8.64843 9.76953,-8.64843 6.37109,0 8.8789,3.59765 8.8789,9.63671 l 0,1.02735 -10.95703,0"
       id="path54"
       inkscape:connector-curvature="0" />
    <path
       style="fill:#f8b31c;fill-opacity:1;fill-rule:nonzero;stroke:none"
       d="m 453.86328,777.21484 -0.79297,0 c -1.32031,0 -3.53125,0.29688 -3.53125,2.01172 0,1.15625 1.08985,1.45313 1.84766,1.45313 1.61719,0 2.47656,-1.45313 2.47656,-2.90235 z m -0.0352,7.32813 -0.0976,-2.44531 c -1.41797,1.61718 -3.26563,2.80859 -5.47656,2.80859 -3.20313,0 -5.97657,-1.45313 -5.97657,-4.98828 0,-4.61719 4.52344,-6.13672 8.55078,-6.13672 1.05469,0 1.98047,0.10156 3.03516,0.19922 l 0,-0.19922 c 0,-1.98047 -2.17969,-2.14453 -4.09375,-2.14453 -1.64844,0 -3.76172,0.46094 -5.44531,1.32031 l -0.19531,-4.55469 c 2.21093,-0.5625 4.75,-0.99218 7.05859,-0.99218 5.01953,0 10.23437,0.85937 10.23437,6.93359 l 0,5.71094 c 0,2.4414 0,3.39843 0.0977,4.48828 l -7.69141,0"
       id="path56"
       inkscape:connector-curvature="0" />
    <path
       style="fill:#f8b31c;fill-opacity:1;fill-rule:nonzero;stroke:none"
       d="m 488.67969,774.27734 c -0.4961,-0.23047 -1.02344,-0.26562 -1.55078,-0.26562 -2.64454,0 -4.16016,1.75 -4.16016,4.32422 l 0,6.20703 -7.95313,0 0,-13.30078 c 0,-1.15625 0,-2.3125 -0.13281,-3.4336 l 7.5586,0 0.0664,3.36328 c 0.95703,-2.04296 2.60547,-3.79296 5.14844,-3.79296 0.42969,0 0.82422,0.0312 1.21875,0.16406 l -0.19531,6.73437"
       id="path58"
       inkscape:connector-curvature="0" />
    <path
       style="fill:#f8b31c;fill-opacity:1;fill-rule:nonzero;stroke:none"
       d="m 501.91016,784.54297 -0.0664,-2.70703 c -0.95703,2.07812 -3.26563,3.03515 -5.44531,3.03515 -3.66407,0 -5.77735,-1.8164 -5.77735,-5.57812 l 0,-11.55078 7.95703,0 0,9.57031 c 0,0.99219 0,2.34375 1.35157,2.34375 1.2539,0 1.45312,-1.35156 1.45312,-2.34375 l 0,-9.57031 7.95313,0 0,13.30078 c 0,1.15625 0,2.34375 0.13281,3.5 l -7.55859,0"
       id="path60"
       inkscape:connector-curvature="0" />
    <path
       style="fill:#f8b31c;fill-opacity:1;fill-rule:nonzero;stroke:none"
       d="m 518.77344,784.90625 c -2.3125,0 -4.6211,-0.36328 -6.86719,-0.92578 l 0.19922,-4.6211 c 1.65234,0.89063 3.73047,1.32032 5.61328,1.32032 0.72266,0 2.90234,0 2.90234,-1.08985 0,-2.41015 -9.01172,-0.625 -9.01172,-6.53515 0,-4.6211 5.64454,-5.67578 9.24219,-5.67578 2.04688,0 4.125,0.36328 6.14063,0.79296 l -0.19922,4.42188 c -1.75,-0.62891 -3.59766,-0.98828 -5.48047,-0.98828 -0.72266,0 -2.44141,0.0312 -2.44141,1.12109 0,2.01172 9.01172,0.26172 9.01172,6.10547 0,4.98438 -5.11719,6.07422 -9.10937,6.07422"
       id="path62"
       inkscape:connector-curvature="0" />
    <path
       style="fill:#f8b31c;fill-opacity:1;fill-rule:nonzero;stroke:none"
       d="m 536.46094,784.90625 c -2.3125,0 -4.6211,-0.36328 -6.86328,-0.92578 l 0.19531,-4.6211 c 1.64844,0.89063 3.73047,1.32032 5.60937,1.32032 0.72657,0 2.90625,0 2.90625,-1.08985 0,-2.41015 -9.01172,-0.625 -9.01172,-6.53515 0,-4.6211 5.64454,-5.67578 9.24219,-5.67578 2.04688,0 4.125,0.36328 6.14063,0.79296 l -0.19922,4.42188 c -1.75,-0.62891 -3.59766,-0.98828 -5.47656,-0.98828 -0.73047,0 -2.44532,0.0312 -2.44532,1.12109 0,2.01172 9.01172,0.26172 9.01172,6.10547 0,4.98438 -5.11719,6.07422 -9.10937,6.07422"
       id="path64"
       inkscape:connector-curvature="0" />
    <path
       style="fill:#f8b31c;fill-opacity:1;fill-rule:nonzero;stroke:none"
       d="m 547.74609,784.54297 0,-16.80078 7.95313,0 0,16.80078 z m 0,-18.94531 0,-4.85157 7.95313,0 0,4.85157 -7.95313,0"
       id="path66"
       inkscape:connector-curvature="0" />
    <path
       style="fill:#f8b31c;fill-opacity:1;fill-rule:nonzero;stroke:none"
       d="m 569.42969,777.21484 -0.79297,0 c -1.32031,0 -3.53125,0.29688 -3.53125,2.01172 0,1.15625 1.08594,1.45313 1.84765,1.45313 1.61719,0 2.47657,-1.45313 2.47657,-2.90235 z m -0.0352,7.32813 -0.0977,-2.44531 c -1.42187,1.61718 -3.26953,2.80859 -5.48046,2.80859 -3.20313,0 -5.97266,-1.45313 -5.97266,-4.98828 0,-4.61719 4.51953,-6.13672 8.54687,-6.13672 1.05469,0 1.98047,0.10156 3.03907,0.19922 l 0,-0.19922 c 0,-1.98047 -2.17969,-2.14453 -4.09375,-2.14453 -1.65235,0 -3.76563,0.46094 -5.44532,1.32031 l -0.19921,-4.55469 c 2.21093,-0.5625 4.7539,-0.99218 7.0625,-0.99218 5.01562,0 10.23046,0.85937 10.23046,6.93359 l 0,5.71094 c 0,2.4414 0,3.39843 0.10157,4.48828 l -7.69141,0"
       id="path68"
       inkscape:connector-curvature="0" />
    <path
       style="fill:#f8b31c;fill-opacity:1;fill-rule:nonzero;stroke:none"
       d="m 601.80078,784.54297 -0.0664,-2.70703 c -0.95703,2.07812 -3.26562,3.03515 -5.44531,3.03515 -3.66406,0 -5.77734,-1.8164 -5.77734,-5.57812 l 0,-11.55078 7.95703,0 0,9.57031 c 0,0.99219 0,2.34375 1.35156,2.34375 1.25391,0 1.45313,-1.35156 1.45313,-2.34375 l 0,-9.57031 7.95312,0 0,13.30078 c 0,1.15625 0,2.34375 0.13281,3.5 l -7.55859,0"
       id="path70"
       inkscape:connector-curvature="0" />
    <path
       style="fill:#f8b31c;fill-opacity:1;fill-rule:nonzero;stroke:none"
       d="m 618.66016,784.90625 c -2.3086,0 -4.61719,-0.36328 -6.86329,-0.92578 l 0.19922,-4.6211 c 1.64844,0.89063 3.73047,1.32032 5.60938,1.32032 0.72656,0 2.90625,0 2.90625,-1.08985 0,-2.41015 -9.01172,-0.625 -9.01172,-6.53515 0,-4.6211 5.64453,-5.67578 9.24219,-5.67578 2.04687,0 4.125,0.36328 6.14062,0.79296 l -0.19922,4.42188 c -1.75,-0.62891 -3.59765,-0.98828 -5.48047,-0.98828 -0.72656,0 -2.4414,0.0312 -2.4414,1.12109 0,2.01172 9.00781,0.26172 9.00781,6.10547 0,4.98438 -5.11328,6.07422 -9.10937,6.07422"
       id="path72"
       inkscape:connector-curvature="0" />
  </g>
</svg>
