<?xml version="1.0" encoding="UTF-8"?>
<!--
/*******************************************************************************
* Copyright (c) 2010-2018 ITER Organization.
* All rights reserved. This program and the accompanying materials
* are made available under the terms of the Eclipse Public License v1.0
* which accompanies this distribution, and is available at
* http://www.eclipse.org/legal/epl-v10.html
******************************************************************************/
-->
<svg xmlns="http://www.w3.org/2000/svg" xmlns:xlink="http://www.w3.org/1999/xlink" width="29pt" height="29pt" viewBox="0 0 29 29" version="1.1">
<g id="surface1">
<path style=" stroke:none;fill-rule:evenodd;fill:rgb(100%,100%,100%);fill-opacity:1;" d="M 0.785156 0.386719 L 0.800781 0.386719 L 0.800781 0.402344 L 0.785156 0.402344 Z M 0.785156 0.386719 "/>
<path style=" stroke:none;fill-rule:evenodd;fill:rgb(100%,100%,100%);fill-opacity:1;" d="M 28.183594 27.789062 L 28.199219 27.789062 L 28.199219 27.800781 L 28.183594 27.800781 Z M 28.183594 27.789062 "/>
<path style="fill-rule:nonzero;fill:rgb(65.098039%,65.098039%,65.098039%);fill-opacity:1;stroke-width:1.3504;stroke-linecap:round;stroke-linejoin:round;stroke:rgb(0%,0%,0%);stroke-opacity:1;stroke-miterlimit:3.285714;" d="M 25.500374 16.024094 L 31.975018 16.024094 L 31.975018 3.074807 L 19.025731 3.074807 L 19.025731 16.024094 L 25.500374 16.024094 " transform="matrix(0.573149,0,0,0.573149,0.00947771,-0.387324)"/>
<path style="fill:none;stroke-width:1.3504;stroke-linecap:round;stroke-linejoin:round;stroke:rgb(0%,0%,0%);stroke-opacity:1;stroke-miterlimit:3.285714;" d="M 25.500374 16.569327 L 25.500374 24.570623 " transform="matrix(0.573149,0,0,0.573149,0.00947771,-0.387324)"/>
<path style="fill-rule:evenodd;fill:rgb(65.098039%,65.098039%,65.098039%);fill-opacity:1;stroke-width:1.3504;stroke-linecap:round;stroke-linejoin:round;stroke:rgb(0%,0%,0%);stroke-opacity:1;stroke-miterlimit:3.285714;" d="M 9.538674 17.530301 L 9.538674 33.464739 M 9.538674 33.464739 L 25.479928 25.49752 L 9.538674 17.530301 " transform="matrix(0.573149,0,0,0.573149,0.00947771,-0.387324)"/>
<path style="fill-rule:evenodd;fill:rgb(65.098039%,65.098039%,65.098039%);fill-opacity:1;stroke-width:1.3504;stroke-linecap:round;stroke-linejoin:round;stroke:rgb(0%,0%,0%);stroke-opacity:1;stroke-miterlimit:3.285714;" d="M 24.961957 25.49752 L 40.910026 33.464739 L 40.910026 17.530301 L 24.961957 25.49752 " transform="matrix(0.573149,0,0,0.573149,0.00947771,-0.387324)"/>
<path style="fill-rule:evenodd;fill:rgb(100%,100%,100%);fill-opacity:1;stroke-width:1.3504;stroke-linecap:round;stroke-linejoin:round;stroke:rgb(0%,0%,0%);stroke-opacity:1;stroke-miterlimit:3.285714;" d="M 25.261835 25.701982 L 17.294616 41.643236 L 33.2495 41.643236 Z M 25.261835 25.701982 " transform="matrix(0.573149,0,0,0.573149,0.00947771,-0.387324)"/>
<path style="fill:none;stroke-width:1.345125;stroke-linecap:round;stroke-linejoin:round;stroke:rgb(0%,0%,0%);stroke-opacity:1;stroke-miterlimit:3.285714;" d="M 0.678879 25.003125 L 9.205603 25.003125 " transform="matrix(0.575397,0,0,0.575397,0,0)"/>
<path style="fill:none;stroke-width:1.345125;stroke-linecap:round;stroke-linejoin:round;stroke:rgb(0%,0%,0%);stroke-opacity:1;stroke-miterlimit:3.285714;" d="M 41.622091 25.003125 L 50.121659 25.003125 " transform="matrix(0.575397,0,0,0.575397,0,0)"/>
<path style="fill:none;stroke-width:1.345125;stroke-linecap:round;stroke-linejoin:round;stroke:rgb(0%,0%,0%);stroke-opacity:1;stroke-miterlimit:3.285714;" d="M 25.003125 40.956789 L 25.003125 49.456358 " transform="matrix(0.575397,0,0,0.575397,0,0)"/>
</g>
</svg>
