<?xml version="1.0" encoding="UTF-8"?>
<!--
/*******************************************************************************
* Copyright (c) 2010-2018 ITER Organization.
* All rights reserved. This program and the accompanying materials
* are made available under the terms of the Eclipse Public License v1.0
* which accompanies this distribution, and is available at
* http://www.eclipse.org/legal/epl-v10.html
******************************************************************************/
-->
<svg xmlns="http://www.w3.org/2000/svg" xmlns:xlink="http://www.w3.org/1999/xlink" width="29pt" height="29pt" viewBox="0 0 29 29" version="1.1">
<g id="surface1">
<path style=" stroke:none;fill-rule:evenodd;fill:rgb(100%,100%,100%);fill-opacity:1;" d="M 0.777344 0.777344 L 0.792969 0.777344 L 0.792969 0.792969 L 0.777344 0.792969 Z M 0.777344 0.777344 "/>
<path style=" stroke:none;fill-rule:evenodd;fill:rgb(100%,100%,100%);fill-opacity:1;" d="M 28.175781 28.175781 L 28.191406 28.175781 L 28.191406 28.191406 L 28.175781 28.191406 Z M 28.175781 28.175781 "/>
<path style="fill-rule:nonzero;fill:rgb(100%,100%,100%);fill-opacity:1;stroke-width:1.3512;stroke-linecap:round;stroke-linejoin:round;stroke:rgb(0%,0%,0%);stroke-opacity:1;stroke-miterlimit:3;" d="M 25.496827 13.467648 L 35.467778 13.467648 C 35.467778 7.960794 31.003682 3.496697 25.496827 3.496697 C 19.989973 3.496697 15.532692 7.960794 15.532692 13.467648 L 25.496827 13.467648 " transform="matrix(0.573149,0,0,0.573149,-0.000208053,-0.000223528)"/>
<path style="fill:none;stroke-width:1.3512;stroke-linecap:round;stroke-linejoin:round;stroke:rgb(0%,0%,0%);stroke-opacity:1;stroke-miterlimit:3;" d="M 25.496827 13.310894 L 25.496827 24.794867 " transform="matrix(0.573149,0,0,0.573149,-0.000208053,-0.000223528)"/>
<path style="fill-rule:evenodd;fill:rgb(100%,100%,100%);fill-opacity:1;stroke-width:1.352;stroke-linecap:round;stroke-linejoin:round;stroke:rgb(0%,0%,0%);stroke-opacity:1;stroke-miterlimit:4;" d="M 16.583433 33.472022 L 16.583433 17.530768 L 48.479571 33.472022 L 48.479571 17.530768 Z M 16.583433 33.472022 " transform="matrix(0.573149,0,0,0.573149,-4.024314,-0.0829043)"/>
<path style="fill:none;stroke-width:0.721066;stroke-linecap:round;stroke-linejoin:round;stroke:rgb(0%,0%,0%);stroke-opacity:1;stroke-miterlimit:4;" d="M 0.000615376 26.947989 L 24.740183 26.951252 " transform="matrix(0.9612,-0.480601,0.480601,0.9612,-11.787753,-4.620872)"/>
<path style=" stroke:none;fill-rule:evenodd;fill:rgb(0%,0%,0%);fill-opacity:1;" d="M 23.390625 7.578125 L 28.578125 7.578125 L 25.496094 11.695312 C 25.484375 10.066406 24.71875 8.539062 23.421875 7.5625 "/>
<path style="fill:none;stroke-width:1.345922;stroke-linecap:round;stroke-linejoin:round;stroke:rgb(0%,0%,0%);stroke-opacity:1;stroke-miterlimit:3;" d="M 0.678879 25.003125 L 9.205603 25.003125 " transform="matrix(0.575397,0,0,0.575397,0,0)"/>
<path style="fill:none;stroke-width:1.345922;stroke-linecap:round;stroke-linejoin:round;stroke:rgb(0%,0%,0%);stroke-opacity:1;stroke-miterlimit:3;" d="M 41.622091 25.003125 L 50.121659 25.003125 " transform="matrix(0.575397,0,0,0.575397,0,0)"/>
<path style="fill:none;stroke-width:1.352;stroke-linecap:round;stroke-linejoin:round;stroke:rgb(0%,0%,0%);stroke-opacity:1;stroke-miterlimit:3;" d="M 25.810336 3.530775 L 25.810336 0.368422 L 40.538446 0.368422 L 40.538446 13.160955 L 25.810336 24.903913 " transform="matrix(0.573149,0,0,0.573149,-0.000208053,-0.000223528)"/>
</g>
</svg>
