<?xml version="1.0" encoding="UTF-8"?>
<!--
/*******************************************************************************
* Copyright (c) 2010-2018 ITER Organization.
* All rights reserved. This program and the accompanying materials
* are made available under the terms of the Eclipse Public License v1.0
* which accompanies this distribution, and is available at
* http://www.eclipse.org/legal/epl-v10.html
******************************************************************************/
-->
<svg xmlns="http://www.w3.org/2000/svg" xmlns:xlink="http://www.w3.org/1999/xlink" width="29pt" height="29pt" viewBox="0 0 29 29" version="1.1">
<g id="surface1">
<path style=" stroke:none;fill-rule:evenodd;fill:rgb(65.098039%,65.098039%,65.098039%);fill-opacity:1;" d="M 0.546875 0.546875 L 0.5625 0.546875 L 0.5625 0.5625 L 0.546875 0.5625 Z M 0.546875 0.546875 "/>
<path style=" stroke:none;fill-rule:evenodd;fill:rgb(65.098039%,65.098039%,65.098039%);fill-opacity:1;" d="M 27.945312 27.945312 L 27.960938 27.945312 L 27.960938 27.960938 L 27.945312 27.960938 Z M 27.945312 27.945312 "/>
<path style="fill-rule:evenodd;fill:rgb(65.098039%,65.098039%,65.098039%);fill-opacity:1;stroke-width:0.72;stroke-linecap:round;stroke-linejoin:round;stroke:rgb(0%,0%,0%);stroke-opacity:1;stroke-miterlimit:3;" d="M 0.000475089 22.699218 L 0.000475089 14.200859 L 17.008098 22.699218 L 17.008098 14.200859 Z M 12.758918 26.948398 L 4.25329 26.948398 L 12.758918 9.940775 L 4.25329 9.940775 Z M 12.758918 26.948398 " transform="matrix(1.074656,0,0,1.074656,5.112771,-5.573538)"/>
<path style="fill:none;stroke-width:1.3512;stroke-linecap:round;stroke-linejoin:round;stroke:rgb(0%,0%,0%);stroke-opacity:1;stroke-miterlimit:3;" d="M 20.532798 -2.968336 L 20.532798 5.591824 " transform="matrix(0.573149,0,0,0.573149,2.618359,25.408331)"/>
<path style="fill:none;stroke-width:1.3512;stroke-linecap:round;stroke-linejoin:round;stroke:rgb(0%,0%,0%);stroke-opacity:1;stroke-miterlimit:3;" d="M 36.821638 -19.229914 L 45.354536 -19.229914 " transform="matrix(0.573149,0,0,0.573149,2.618359,25.408331)"/>
<path style="fill:none;stroke-width:1.3512;stroke-linecap:round;stroke-linejoin:round;stroke:rgb(0%,0%,0%);stroke-opacity:1;stroke-miterlimit:3;" d="M 20.532798 -35.498307 L 20.532798 -44.058467 " transform="matrix(0.573149,0,0,0.573149,2.618359,25.408331)"/>
<path style="fill:none;stroke-width:1.3512;stroke-linecap:round;stroke-linejoin:round;stroke:rgb(0%,0%,0%);stroke-opacity:1;stroke-miterlimit:3;" d="M 4.237143 -19.229914 L -4.295755 -19.229914 " transform="matrix(0.573149,0,0,0.573149,2.618359,25.408331)"/>
</g>
</svg>
