<?xml version="1.0" encoding="UTF-8" standalone="no"?>
<!--
/*******************************************************************************
* Copyright (c) 2010-2018 ITER Organization.
* All rights reserved. This program and the accompanying materials
* are made available under the terms of the Eclipse Public License v1.0
* which accompanies this distribution, and is available at
* http://www.eclipse.org/legal/epl-v10.html
******************************************************************************/
-->
<svg
   xmlns:dc="http://purl.org/dc/elements/1.1/"
   xmlns:cc="http://creativecommons.org/ns#"
   xmlns:rdf="http://www.w3.org/1999/02/22-rdf-syntax-ns#"
   xmlns:svg="http://www.w3.org/2000/svg"
   xmlns="http://www.w3.org/2000/svg"
   width="50pt"
   height="50pt"
   viewBox="0 0 50 50"
   version="1.1"
   id="svg2">
  <metadata
     id="metadata29">
    <rdf:RDF>
      <cc:Work
         rdf:about="">
        <dc:format>image/svg+xml</dc:format>
        <dc:type
           rdf:resource="http://purl.org/dc/dcmitype/StillImage" />
        <dc:title></dc:title>
      </cc:Work>
    </rdf:RDF>
  </metadata>
  <defs
     id="defs27" />
  <g
     id="surface1">
    <path
       style=" stroke:none;fill-rule:evenodd;fill:rgb(100%,100%,100%);fill-opacity:1;"
       d="M 1.347656 1.347656 L 1.375 1.347656 L 1.375 1.375 L 1.347656 1.375 Z "
       id="path5" />
    <path
       style=" stroke:none;fill-rule:evenodd;fill:rgb(100%,100%,100%);fill-opacity:1;"
       d="M 48.964844 48.964844 L 48.992188 48.964844 L 48.992188 48.992188 L 48.964844 48.992188 Z "
       id="path7" />
    <path
       style="fill-rule:evenodd;fill:rgb(100%,100%,100%);fill-opacity:1;stroke-width:1.3504;stroke-linecap:round;stroke-linejoin:round;stroke:rgb(0%,0%,0%);stroke-opacity:1;stroke-miterlimit:3.285714;"
       d="M 9.541176 17.529412 L 9.541176 33.470588 M 9.541176 33.470588 L 25.478431 25.498039 L 9.541176 17.529412 "
       transform="matrix(0.996094,0,0,0.996094,0,0)"
       id="path9" />
    <path
       style="fill-rule:evenodd;fill:rgb(100%,100%,100%);fill-opacity:1;stroke-width:1.3504;stroke-linecap:round;stroke-linejoin:round;stroke:rgb(0%,0%,0%);stroke-opacity:1;stroke-miterlimit:3.285714;"
       d="M 24.956863 25.498039 L 40.909804 33.470588 L 40.909804 17.529412 L 24.956863 25.498039 "
       transform="matrix(0.996094,0,0,0.996094,0,0)"
       id="path11" />
    <path
       style="fill-rule:evenodd;fill:rgb(100%,100%,100%);fill-opacity:1;stroke-width:1.3504;stroke-linecap:round;stroke-linejoin:round;stroke:rgb(0%,0%,0%);stroke-opacity:1;stroke-miterlimit:3.285714;"
       d="M 25.262745 25.701961 L 17.294118 41.639216 L 33.247059 41.639216 Z "
       transform="matrix(0.996094,0,0,0.996094,0,0)"
       id="path13" />
    <path
       style="fill:none;stroke-width:1.3504;stroke-linecap:round;stroke-linejoin:round;stroke:rgb(0%,0%,0%);stroke-opacity:1;stroke-miterlimit:3.285714;"
       d="M 0.666667 25.498039 L 9.227451 25.498039 "
       transform="matrix(0.996094,0,0,0.996094,0,0)"
       id="path15" />
    <path
       style="fill:none;stroke-width:1.3504;stroke-linecap:round;stroke-linejoin:round;stroke:rgb(0%,0%,0%);stroke-opacity:1;stroke-miterlimit:3.285714;"
       d="M 41.768627 25.498039 L 50.301961 25.498039 "
       transform="matrix(0.996094,0,0,0.996094,0,0)"
       id="path17" />
    <path
       style="fill:none;stroke-width:1.3504;stroke-linecap:round;stroke-linejoin:round;stroke:rgb(0%,0%,0%);stroke-opacity:1;stroke-miterlimit:3.285714;"
       d="M 25.498039 41.792157 L 25.498039 50.32549 "
       transform="matrix(0.996094,0,0,0.996094,0,0)"
       id="path19" />
    <path
       style="fill-rule:nonzero;fill:rgb(100%,100%,100%);fill-opacity:1;stroke-width:1.3512;stroke-linecap:round;stroke-linejoin:round;stroke:rgb(0%,0%,0%);stroke-opacity:1;stroke-miterlimit:3;"
       d="M 80.858982 55.727787 L 90.835452 55.727787 C 90.835452 50.221904 86.368786 45.755238 80.862903 45.755238 C 75.357021 45.755238 70.894276 50.221904 70.894276 55.727787 L 80.858982 55.727787 "
       transform="matrix(0.996094,0,0,0.996094,-55.148595,-42.096038)"
       id="path21" />
    <path
       style="fill:none;stroke-width:1.3512;stroke-linecap:round;stroke-linejoin:round;stroke:rgb(0%,0%,0%);stroke-opacity:1;stroke-miterlimit:3;"
       d="M 80.866825 55.574845 L 80.866825 67.057198 "
       transform="matrix(0.996094,0,0,0.996094,-55.148595,-42.096038)"
       id="path23" />
  </g>
  <animate
     attributeName="opacity"
     values="1;0"
     calcMode="discrete"
     dur="1000ms"
     begin="0s"
     fill="freeze"
     repeatCount="indefinite"
     id="animate12" />
</svg>
