<?xml version="1.0" encoding="UTF-8" standalone="no"?>
<!--
/*******************************************************************************
* Copyright (c) 2010-2018 ITER Organization.
* All rights reserved. This program and the accompanying materials
* are made available under the terms of the Eclipse Public License v1.0
* which accompanies this distribution, and is available at
* http://www.eclipse.org/legal/epl-v10.html
******************************************************************************/
-->
<svg
   xmlns:dc="http://purl.org/dc/elements/1.1/"
   xmlns:cc="http://creativecommons.org/ns#"
   xmlns:rdf="http://www.w3.org/1999/02/22-rdf-syntax-ns#"
   xmlns:svg="http://www.w3.org/2000/svg"
   xmlns="http://www.w3.org/2000/svg"
   id="svg2"
   version="1.1"
   viewBox="0 0 50 50"
   height="50pt"
   width="50pt">
  <metadata
     id="metadata23">
    <rdf:RDF>
      <cc:Work
         rdf:about="">
        <dc:format>image/svg+xml</dc:format>
        <dc:type
           rdf:resource="http://purl.org/dc/dcmitype/StillImage" />
        <dc:title></dc:title>
      </cc:Work>
    </rdf:RDF>
  </metadata>
  <defs
     id="defs21" />
  <g
     transform="translate(-0.40039614,-0.4003863)"
     id="surface1">
    <path
       id="path5"
       d="m 1.347656,1.347656 0.027344,0 0,0.027344 -0.027344,0 z"
       style="fill:#a6a6a6;fill-opacity:1;fill-rule:evenodd;stroke:none" />
    <path
       id="path7"
       d="m 48.964844,48.964844 0.02734,0 0,0.02734 -0.02734,0 z"
       style="fill:#a6a6a6;fill-opacity:1;fill-rule:evenodd;stroke:none" />
    <path
       id="path9"
       transform="matrix(1.867678,0,0,1.867678,9.286039,-9.286039)"
       d="m 0.00161877,22.699533 0,-8.49986 17.00808623,8.49986 0,-8.49986 z m 12.75815623,4.249931 -8.508226,0 8.508226,-17.008087 -8.508226,0 z"
       style="fill:#a6a6a6;fill-opacity:1;fill-rule:evenodd;stroke:#000000;stroke-width:0.72000003;stroke-linecap:round;stroke-linejoin:round;stroke-miterlimit:3;stroke-opacity:1" />
    <path
       id="path11"
       transform="matrix(0.996094,0,0,0.996094,4.950924,44.558313)"
       d="m 20.531622,-2.968345 0,8.560784"
       style="fill:none;stroke:#000000;stroke-width:1.35119998;stroke-linecap:round;stroke-linejoin:round;stroke-miterlimit:3;stroke-opacity:1" />
    <path
       id="path13"
       transform="matrix(0.996094,0,0,0.996094,4.950924,44.558313)"
       d="m 36.821818,-19.23109 8.533333,0"
       style="fill:none;stroke:#000000;stroke-width:1.35119998;stroke-linecap:round;stroke-linejoin:round;stroke-miterlimit:3;stroke-opacity:1" />
    <path
       id="path15"
       transform="matrix(0.996094,0,0,0.996094,4.950924,44.558313)"
       d="m 20.531622,-35.497757 0,-8.560784"
       style="fill:none;stroke:#000000;stroke-width:1.35119998;stroke-linecap:round;stroke-linejoin:round;stroke-miterlimit:3;stroke-opacity:1" />
    <path
       id="path17"
       transform="matrix(0.996094,0,0,0.996094,4.950924,44.558313)"
       d="m 4.237504,-19.23109 -8.533333,0"
       style="fill:none;stroke:#000000;stroke-width:1.35119998;stroke-linecap:round;stroke-linejoin:round;stroke-miterlimit:3;stroke-opacity:1" />
  </g>
</svg>
