<?xml version="1.0" encoding="UTF-8" standalone="no"?>
<!--
/*******************************************************************************
* Copyright (c) 2010-2018 ITER Organization.
* All rights reserved. This program and the accompanying materials
* are made available under the terms of the Eclipse Public License v1.0
* which accompanies this distribution, and is available at
* http://www.eclipse.org/legal/epl-v10.html
******************************************************************************/
-->
<svg
   xmlns:dc="http://purl.org/dc/elements/1.1/"
   xmlns:cc="http://creativecommons.org/ns#"
   xmlns:rdf="http://www.w3.org/1999/02/22-rdf-syntax-ns#"
   xmlns:svg="http://www.w3.org/2000/svg"
   xmlns="http://www.w3.org/2000/svg"
   id="svg2"
   version="1.1"
   viewBox="0 0 50 50"
   height="50pt"
   width="50pt">
  <metadata
     id="metadata33">
    <rdf:RDF>
      <cc:Work
         rdf:about="">
        <dc:format>image/svg+xml</dc:format>
        <dc:type
           rdf:resource="http://purl.org/dc/dcmitype/StillImage" />
        <dc:title></dc:title>
      </cc:Work>
    </rdf:RDF>
  </metadata>
  <defs
     id="defs31" />
  <g
     id="surface1">
    <path
       id="path5"
       d="M 1.347656 1.347656 L 1.375 1.347656 L 1.375 1.375 L 1.347656 1.375 Z "
       style=" stroke:none;fill-rule:evenodd;fill:rgb(100%,100%,100%);fill-opacity:1;" />
    <path
       id="path7"
       transform="matrix(0,-1.867678,1.867678,0,-9.286039,41.051189)"
       d="M 8.500079 18.449603 L 0.00021829 14.199673 L 0.00021829 22.699533 Z M 8.500079 18.449603 L 4.250148 26.949464 L 12.758375 26.949464 Z "
       style="fill-rule:evenodd;fill:rgb(100%,100%,100%);fill-opacity:1;stroke-width:0.72;stroke-linecap:round;stroke-linejoin:round;stroke:rgb(0%,0%,0%);stroke-opacity:1;stroke-miterlimit:3;" />
    <path
       id="path9"
       d="m 25,41.601573 0,8.527346"
       style="fill:none;stroke:#000000;stroke-width:1.34592223;stroke-linecap:round;stroke-linejoin:round;stroke-miterlimit:3;stroke-opacity:1" />
    <path
       id="path11"
       d="m 41.613292,25 8.500002,0"
       style="fill:none;stroke:#000000;stroke-width:1.34592223;stroke-linecap:round;stroke-linejoin:round;stroke-miterlimit:3;stroke-opacity:1" />
    <path
       id="path13"
       d="M 35.832031 17.0625 L 32.273438 15.878906 L 32.273438 17.0625 Z M 35.832031 17.0625 L 32.273438 17.0625 L 32.273438 18.242188 Z "
       style=" stroke:none;fill-rule:evenodd;fill:rgb(0%,0%,0%);fill-opacity:1;" />
    <path
       id="path15"
       transform="matrix(0.741588,0,0,0.741588,-35.287193,-9.242028)"
       d="M 87.052003 22.907761 L 75.163453 31.551584 "
       style="fill:none;stroke-width:1.349996;stroke-linecap:round;stroke-linejoin:round;stroke:rgb(0%,0%,0%);stroke-opacity:1;stroke-miterlimit:3;" />
    <path
       id="path17"
       transform="matrix(0.741588,0,0,0.741588,-35.287193,-9.242028)"
       d="M 78.334435 22.865622 L 84.355087 18.483134 "
       style="fill:none;stroke-width:1.349996;stroke-linecap:round;stroke-linejoin:round;stroke:rgb(0%,0%,0%);stroke-opacity:1;stroke-miterlimit:3;" />
    <path
       id="path19"
       transform="matrix(0.741588,0,0,0.741588,-35.287193,-9.242028)"
       d="M 95.901255 35.470539 L 91.102643 33.874513 L 91.102643 35.470539 L 95.901255 35.470539 "
       style="fill:none;stroke-width:1.349996;stroke-linecap:round;stroke-linejoin:round;stroke:rgb(0%,0%,0%);stroke-opacity:1;stroke-miterlimit:3;" />
    <path
       id="path21"
       transform="matrix(0.741588,0,0,0.741588,-35.287193,-9.242028)"
       d="M 95.901255 35.470539 L 91.102643 35.470539 L 91.102643 37.061298 L 95.901255 35.470539 "
       style="fill:none;stroke-width:1.349996;stroke-linecap:round;stroke-linejoin:round;stroke:rgb(0%,0%,0%);stroke-opacity:1;stroke-miterlimit:3;" />
    <path
       id="path23"
       transform="matrix(0.741588,0,0,0.741588,-35.287193,-9.242028)"
       d="M 91.102643 35.470539 L 86.319832 35.470539 "
       style="fill:none;stroke-width:1.349996;stroke-linecap:round;stroke-linejoin:round;stroke:rgb(0%,0%,0%);stroke-opacity:1;stroke-miterlimit:3;" />
    <path
       id="path25"
       transform="matrix(0.741588,0,0,0.741588,-35.287193,-9.242028)"
       d="M 89.506617 27.479875 L 73.572694 40.25335 "
       style="fill:none;stroke-width:1.349996;stroke-linecap:round;stroke-linejoin:round;stroke:rgb(0%,0%,0%);stroke-opacity:1;stroke-miterlimit:3;" />
    <path
       id="path27"
       transform="matrix(0.741588,0,0,0.741588,-35.287193,-9.242028)"
       d="M 81.542289 45.030893 L 81.542289 13.136711 "
       style="fill:none;stroke-width:1.349996;stroke-linecap:round;stroke-linejoin:round;stroke:rgb(0%,0%,0%);stroke-opacity:1;stroke-miterlimit:3;" />
  </g>
</svg>
