<?xml version="1.0" encoding="UTF-8"?>
<!--
/*******************************************************************************
* Copyright (c) 2010-2017 ITER Organization.
* All rights reserved. This program and the accompanying materials
* are made available under the terms of the Eclipse Public License v1.0
* which accompanies this distribution, and is available at
* http://www.eclipse.org/legal/epl-v10.html
******************************************************************************/
-->
<svg xmlns="http://www.w3.org/2000/svg" xmlns:xlink="http://www.w3.org/1999/xlink" width="29pt" height="29pt" viewBox="0 0 29 29" version="1.1">
<g id="surface1">
<path style=" stroke:none;fill-rule:evenodd;fill:rgb(100%,100%,100%);fill-opacity:1;" d="M 0.765625 0.769531 L 0.78125 0.769531 L 0.78125 0.789062 L 0.765625 0.789062 Z M 0.765625 0.769531 "/>
<path style=" stroke:none;fill-rule:evenodd;fill:rgb(100%,100%,100%);fill-opacity:1;" d="M 27.84375 27.847656 L 27.859375 27.847656 L 27.859375 27.863281 L 27.84375 27.863281 Z M 27.84375 27.847656 "/>
<path style="fill:none;stroke-width:0.719999;stroke-linecap:round;stroke-linejoin:round;stroke:rgb(0%,0%,0%);stroke-opacity:1;stroke-miterlimit:3;" d="M 6.378863 1.452025 L 19.131067 1.452025 L 25.509008 14.211586 L 19.131067 26.960112 L 6.378863 26.960112 L 0.000921675 14.211586 Z M 6.378863 1.452025 " transform="matrix(1.06201,0,0,1.06201,0.764646,-0.772534)"/>
<path style="fill:none;stroke-width:0.719999;stroke-linecap:butt;stroke-linejoin:miter;stroke:rgb(0%,0%,0%);stroke-opacity:1;stroke-miterlimit:3;" d="M -0.00095419 26.958675 L 24.381614 26.958675 " transform="matrix(1.06201,0,0,1.06201,1.352576,-15.208508)"/>
<path style="fill:none;stroke-width:0.719999;stroke-linecap:butt;stroke-linejoin:miter;stroke:rgb(0%,0%,0%);stroke-opacity:1;stroke-miterlimit:3;" d="M 0.00172398 26.958677 L 24.380614 26.958677 " transform="matrix(1.06201,0,0,1.06201,1.353638,-13.509291)"/>
</g>
</svg>
