<?xml version="1.0" encoding="UTF-8"?>
<!--
/*******************************************************************************
* Copyright (c) 2010-2018 ITER Organization.
* All rights reserved. This program and the accompanying materials
* are made available under the terms of the Eclipse Public License v1.0
* which accompanies this distribution, and is available at
* http://www.eclipse.org/legal/epl-v10.html
******************************************************************************/
-->
<svg xmlns="http://www.w3.org/2000/svg" xmlns:xlink="http://www.w3.org/1999/xlink" width="38pt" height="56pt" viewBox="0 0 38 56" version="1.1">
<g id="surface0">
<path style="fill-rule:evenodd;fill:rgb(100%,100%,100%);fill-opacity:1;stroke-width:0.72;stroke-linecap:round;stroke-linejoin:round;stroke:rgb(0%,0%,0%);stroke-opacity:1;stroke-miterlimit:3;" d="M 27.569138 15.810357 C 27.241506 15.747619 26.906594 15.747619 26.578962 15.810357 Z M 6.338612 21.069286 L 7.529006 21.069286 C 8.774006 20.78881 9.64769 19.674286 9.622208 18.397381 C 9.600366 17.124167 8.682998 16.042857 7.430717 15.810357 C 5.978217 15.511429 4.55484 16.441429 4.256331 17.895476 C 3.954182 19.345833 4.889752 20.770357 6.338612 21.069286 Z M 6.338612 21.069286 C 6.731769 21.157857 7.139489 21.157857 7.529006 21.069286 Z M 26.578962 15.810357 L 7.430717 15.810357 C 8.682998 16.042857 9.600366 17.124167 9.622208 18.397381 C 9.64769 19.674286 8.774006 20.78881 7.529006 21.069286 L 26.480673 21.069286 C 25.235673 20.78881 24.361989 19.674286 24.387471 18.397381 C 24.409313 17.124167 25.326682 16.042857 26.578962 15.810357 Z M 27.569138 15.810357 L 26.578962 15.810357 C 25.326682 16.042857 24.409313 17.124167 24.387471 18.397381 C 24.361989 19.674286 25.235673 20.78881 26.480673 21.069286 L 27.671068 21.069286 C 28.912427 20.78881 29.789752 19.674286 29.764269 18.397381 C 29.738787 17.124167 28.825059 16.042857 27.569138 15.810357 Z M 26.480673 21.069286 C 26.87019 21.157857 27.27791 21.157857 27.671068 21.069286 Z M 34.01984 9.9425 L 29.760629 1.439643 L 4.24905 1.439643 L 0.000760674 9.9425 L 0.000760674 52.460476 L 34.01984 52.460476 Z M 27.569138 15.810357 C 28.825059 16.042857 29.738787 17.124167 29.764269 18.397381 C 29.789752 19.674286 28.912427 20.78881 27.671068 21.069286 C 27.27791 21.157857 26.87019 21.157857 26.480673 21.069286 L 7.529006 21.069286 C 7.139489 21.157857 6.731769 21.157857 6.338612 21.069286 C 4.889752 20.770357 3.954182 19.345833 4.256331 17.895476 C 4.55484 16.441429 5.978217 15.511429 7.430717 15.810357 L 26.578962 15.810357 C 26.906594 15.747619 27.241506 15.747619 27.569138 15.810357 Z M 27.569138 15.810357 " transform="matrix(1.073042,0,0,1.058468,0.772621,-0.762097)"/>
</g>
</svg>
