<?xml version="1.0" encoding="UTF-8"?>
<!--
/*******************************************************************************
* Copyright (c) 2010-2018 ITER Organization.
* All rights reserved. This program and the accompanying materials
* are made available under the terms of the Eclipse Public License v1.0
* which accompanies this distribution, and is available at
* http://www.eclipse.org/legal/epl-v10.html
******************************************************************************/
-->
<svg xmlns="http://www.w3.org/2000/svg" xmlns:xlink="http://www.w3.org/1999/xlink" width="38pt" height="56pt" viewBox="0 0 38 56" version="1.1">
<g id="surface0">
<path style="fill-rule:evenodd;fill:rgb(100%,100%,100%);fill-opacity:1;stroke-width:0.72;stroke-linecap:round;stroke-linejoin:round;stroke:rgb(0%,0%,0%);stroke-opacity:1;stroke-miterlimit:3;" d="M 0.000760674 14.197619 L 34.01984 14.197619 L 34.01984 9.9425 L 29.760629 1.439643 L 4.24905 1.439643 L 0.000760674 9.9425 Z M 0.000760674 26.948214 L 34.01984 26.948214 L 34.01984 14.197619 L 0.000760674 14.197619 Z M 0.000760674 26.948214 L 0.000760674 52.460476 L 34.01984 52.460476 L 34.01984 26.948214 Z M 0.000760674 26.948214 " transform="matrix(1.073042,0,0,1.058468,0.772621,-0.762097)"/>
<path style="fill-rule:evenodd;fill:rgb(0%,0%,0%);fill-opacity:1;stroke-width:0.72;stroke-linecap:round;stroke-linejoin:round;stroke:rgb(0%,0%,0%);stroke-opacity:1;stroke-miterlimit:3;" d="M 0.911296 52.005552 C 0.911296 51.75829 0.707436 51.551623 0.456252 51.551623 C 0.205068 51.551623 0.00120793 51.75829 0.00120793 52.005552 C 0.00120793 52.260195 0.205068 52.463171 0.456252 52.463171 C 0.707436 52.463171 0.911296 52.260195 0.911296 52.005552 Z M 0.911296 52.005552 " transform="matrix(1.073042,0,0,1.058468,9.40886,-36.28448)"/>
<path style="fill-rule:evenodd;fill:rgb(0%,0%,0%);fill-opacity:1;stroke-width:0.72;stroke-linecap:round;stroke-linejoin:round;stroke:rgb(0%,0%,0%);stroke-opacity:1;stroke-miterlimit:3;" d="M 0.911296 52.008671 C 0.911296 51.757719 0.707436 51.554743 0.456252 51.554743 C 0.205068 51.554743 0.00120815 51.757719 0.00120815 52.008671 C 0.00120815 52.259624 0.205068 52.4626 0.456252 52.4626 C 0.707436 52.4626 0.911296 52.259624 0.911296 52.008671 Z M 0.911296 52.008671 " transform="matrix(1.073042,0,0,1.058468,13.97136,-31.783876)"/>
<path style="fill-rule:evenodd;fill:rgb(0%,0%,0%);fill-opacity:1;stroke-width:0.72;stroke-linecap:round;stroke-linejoin:round;stroke:rgb(0%,0%,0%);stroke-opacity:1;stroke-miterlimit:3;" d="M 0.911188 52.005552 C 0.911188 51.75829 0.707328 51.551623 0.456144 51.551623 C 0.201319 51.551623 0.00110003 51.75829 0.00110003 52.005552 C 0.00110003 52.260195 0.201319 52.463171 0.456144 52.463171 C 0.707328 52.463171 0.911188 52.260195 0.911188 52.005552 Z M 0.911188 52.005552 " transform="matrix(1.073042,0,0,1.058468,27.658976,-36.28448)"/>
<path style="fill-rule:evenodd;fill:rgb(0%,0%,0%);fill-opacity:1;stroke-width:0.72;stroke-linecap:round;stroke-linejoin:round;stroke:rgb(0%,0%,0%);stroke-opacity:1;stroke-miterlimit:3;" d="M 0.911335 52.008671 C 0.911335 51.757719 0.707475 51.554743 0.456291 51.554743 C 0.205107 51.554743 0.00124717 51.757719 0.00124717 52.008671 C 0.00124717 52.259624 0.205107 52.4626 0.456291 52.4626 C 0.707475 52.4626 0.911335 52.259624 0.911335 52.008671 Z M 0.911335 52.008671 " transform="matrix(1.073042,0,0,1.058468,4.846318,-31.783876)"/>
<path style="fill-rule:evenodd;fill:rgb(0%,0%,0%);fill-opacity:1;stroke-width:0.72;stroke-linecap:round;stroke-linejoin:round;stroke:rgb(0%,0%,0%);stroke-opacity:1;stroke-miterlimit:3;" d="M 0.911157 52.008671 C 0.911157 51.757719 0.707297 51.554743 0.456113 51.554743 C 0.204929 51.554743 0.0010694 51.757719 0.0010694 52.008671 C 0.0010694 52.259624 0.204929 52.4626 0.456113 52.4626 C 0.707297 52.4626 0.911157 52.259624 0.911157 52.008671 Z M 0.911157 52.008671 " transform="matrix(1.073042,0,0,1.058468,23.096509,-31.783876)"/>
<path style="fill-rule:evenodd;fill:rgb(0%,0%,0%);fill-opacity:1;stroke-width:0.72;stroke-linecap:round;stroke-linejoin:round;stroke:rgb(0%,0%,0%);stroke-opacity:1;stroke-miterlimit:3;" d="M 0.911227 52.005552 C 0.911227 51.75829 0.707367 51.551623 0.456183 51.551623 C 0.204999 51.551623 0.00113905 51.75829 0.00113905 52.005552 C 0.00113905 52.260195 0.204999 52.463171 0.456183 52.463171 C 0.707367 52.463171 0.911227 52.260195 0.911227 52.005552 Z M 0.911227 52.005552 " transform="matrix(1.073042,0,0,1.058468,18.533934,-36.28448)"/>
<path style="fill-rule:evenodd;fill:rgb(0%,0%,0%);fill-opacity:1;stroke-width:0.72;stroke-linecap:round;stroke-linejoin:round;stroke:rgb(0%,0%,0%);stroke-opacity:1;stroke-miterlimit:3;" d="M 0.911118 52.008671 C 0.911118 51.757719 0.707258 51.554743 0.456074 51.554743 C 0.20125 51.554743 0.00103039 51.757719 0.00103039 52.008671 C 0.00103039 52.259624 0.20125 52.4626 0.456074 52.4626 C 0.707258 52.4626 0.911118 52.259624 0.911118 52.008671 Z M 0.911118 52.008671 " transform="matrix(1.073042,0,0,1.058468,32.221551,-31.783876)"/>
</g>
</svg>
