<?xml version="1.0" encoding="UTF-8"?>
<!--
/*******************************************************************************
* Copyright (c) 2010-2018 ITER Organization.
* All rights reserved. This program and the accompanying materials
* are made available under the terms of the Eclipse Public License v1.0
* which accompanies this distribution, and is available at
* http://www.eclipse.org/legal/epl-v10.html
******************************************************************************/
-->
<svg xmlns="http://www.w3.org/2000/svg" xmlns:xlink="http://www.w3.org/1999/xlink" width="38pt" height="56pt" viewBox="0 0 38 56" version="1.1">
<g id="surface0">
<path style=" stroke:none;fill-rule:evenodd;fill:rgb(100%,100%,100%);fill-opacity:1;" d="M 28.144531 18.765625 C 28.144531 13.796875 24.0625 9.765625 19.019531 9.765625 C 13.980469 9.765625 9.894531 13.796875 9.894531 18.765625 C 9.894531 23.738281 13.980469 27.769531 19.019531 27.769531 C 24.0625 27.769531 28.144531 23.738281 28.144531 18.765625 Z M 37.277344 9.761719 L 32.707031 0.761719 L 5.332031 0.761719 L 0.773438 9.761719 L 0.773438 54.765625 L 37.277344 54.765625 Z M 28.144531 18.765625 C 28.144531 23.738281 24.0625 27.769531 19.019531 27.769531 C 13.980469 27.769531 9.894531 23.738281 9.894531 18.765625 C 9.894531 13.796875 13.980469 9.765625 19.019531 9.765625 C 24.0625 9.765625 28.144531 13.796875 28.144531 18.765625 Z M 28.144531 18.765625 "/>
<path style="fill:none;stroke-width:0.72;stroke-linecap:round;stroke-linejoin:round;stroke:rgb(0%,0%,0%);stroke-opacity:1;stroke-miterlimit:3;" d="M 12.509006 13.909762 L 15.130059 9.9425 L 10.379401 10.230357 " transform="matrix(1.073042,0,0,1.058468,0.772621,-0.762097)"/>
<path style="fill:none;stroke-width:0.72;stroke-linecap:round;stroke-linejoin:round;stroke:rgb(0%,0%,0%);stroke-opacity:1;stroke-miterlimit:3;" d="M 25.508699 18.449048 C 25.508699 13.754762 21.704533 9.94619 17.00484 9.94619 C 12.308787 9.94619 8.50098 13.754762 8.50098 18.449048 C 8.50098 23.147024 12.308787 26.955595 17.00484 26.955595 C 21.704533 26.955595 25.508699 23.147024 25.508699 18.449048 " transform="matrix(1.073042,0,0,1.058468,0.772621,-0.762097)"/>
<path style="fill:none;stroke-width:0.72;stroke-linecap:round;stroke-linejoin:round;stroke:rgb(0%,0%,0%);stroke-opacity:1;stroke-miterlimit:3;" d="M 34.01984 9.9425 L 29.760629 1.439643 L 4.24905 1.439643 L 0.000760674 9.9425 L 0.000760674 52.460476 L 34.01984 52.460476 L 34.01984 9.9425 " transform="matrix(1.073042,0,0,1.058468,0.772621,-0.762097)"/>
<path style="fill:none;stroke-width:0.72;stroke-linecap:round;stroke-linejoin:round;stroke:rgb(0%,0%,0%);stroke-opacity:1;stroke-miterlimit:3;" d="M 25.508699 18.449048 C 25.508699 23.147024 21.704533 26.955595 17.00484 26.955595 C 12.308787 26.955595 8.50098 23.147024 8.50098 18.449048 C 8.50098 13.754762 12.308787 9.94619 17.00484 9.94619 C 21.704533 9.94619 25.508699 13.754762 25.508699 18.449048 " transform="matrix(1.073042,0,0,1.058468,0.772621,-0.762097)"/>
</g>
</svg>
