<?xml version="1.0" encoding="UTF-8" standalone="no"?>
<!--
/*******************************************************************************
* Copyright (c) 2010-2018 ITER Organization.
* All rights reserved. This program and the accompanying materials
* are made available under the terms of the Eclipse Public License v1.0
* which accompanies this distribution, and is available at
* http://www.eclipse.org/legal/epl-v10.html
******************************************************************************/
-->
<svg
   xmlns:dc="http://purl.org/dc/elements/1.1/"
   xmlns:cc="http://creativecommons.org/ns#"
   xmlns:rdf="http://www.w3.org/1999/02/22-rdf-syntax-ns#"
   xmlns:svg="http://www.w3.org/2000/svg"
   xmlns="http://www.w3.org/2000/svg"
   id="svg2"
   width="50pt"
   viewBox="0 0 50 50"
   version="1.1"
   height="50pt">
  <metadata
     id="metadata26">
    <rdf:RDF>
      <cc:Work
         rdf:about="">
        <dc:format>image/svg+xml</dc:format>
        <dc:type
           rdf:resource="http://purl.org/dc/dcmitype/StillImage" />
        <dc:title></dc:title>
      </cc:Work>
    </rdf:RDF>
  </metadata>
  <defs
     id="defs24" />
  <g
     id="surface1">
    <path
       id="path5"
       style="fill:none;stroke:#000000;stroke-width:1.34512496;stroke-linecap:round;stroke-linejoin:round;stroke-miterlimit:4;stroke-opacity:1"
       d="M 0.66406257,25 9.191406,25" />
    <path
       id="path7"
       style="fill:none;stroke:#000000;stroke-width:1.34512496;stroke-linecap:round;stroke-linejoin:round;stroke-miterlimit:4;stroke-opacity:1"
       d="m 41.605469,25 8.5,0" />
    <path
       id="path9"
       transform="matrix(0.996094,0,0,0.996094,0,0)"
       style="fill-rule:nonzero;fill:rgb(65.098039%,65.098039%,65.098039%);fill-opacity:1;stroke-width:1.3504;stroke-linecap:round;stroke-linejoin:round;stroke:rgb(0%,0%,0%);stroke-opacity:1;stroke-miterlimit:4;"
       d="M 44.031373 25.498039 C 44.113725 18.901961 40.596078 12.768627 34.827451 9.447059 C 29.062745 6.12549 21.937255 6.12549 16.172549 9.447059 C 10.403922 12.768627 6.886275 18.901961 6.968627 25.498039 C 6.886275 32.098039 10.403922 38.231373 16.172549 41.556863 C 21.937255 44.87451 29.062745 44.87451 34.827451 41.556863 C 40.596078 38.231373 44.113725 32.098039 44.031373 25.498039 " />
    <path
       style="opacity:1;fill:#ffffff;fill-opacity:1;fill-rule:evenodd;stroke:#000000;stroke-width:1.352;stroke-linecap:butt;stroke-linejoin:miter;stroke-miterlimit:4;stroke-dasharray:none;stroke-opacity:1"
       id="CodacSymbol-p5"
       d="M 12.605473,38.824159 C 27.904452,53.589172 54.638546,33.854045 39.904085,13.854177" />
    <path
       id="path12"
       transform="matrix(0.996094,0,0,0.996094,0,0)"
       style="fill-rule:nonzero;fill:rgb(65.098039%,65.098039%,65.098039%);fill-opacity:1;stroke-width:1.3504;stroke-linecap:round;stroke-linejoin:round;stroke:rgb(0%,0%,0%);stroke-opacity:1;stroke-miterlimit:4;"
       d="M 24.823529 43.694118 L 43.090196 25.87451 " />
    <path
       id="path14"
       transform="matrix(0.996094,0,0,0.996094,0,0)"
       style="fill-rule:nonzero;fill:rgb(65.098039%,65.098039%,65.098039%);fill-opacity:1;stroke-width:1.3504;stroke-linecap:round;stroke-linejoin:round;stroke:rgb(0%,0%,0%);stroke-opacity:1;stroke-miterlimit:4;"
       d="M 24.823529 6.815686 L 43.090196 24.65098 " />
    <path
       id="path16"
       style=" stroke:none;fill-rule:evenodd;fill:rgb(65.098039%,65.098039%,65.098039%);fill-opacity:1;"
       d="M 1.347656 1.347656 L 1.375 1.347656 L 1.375 1.375 L 1.347656 1.375 Z " />
    <path
       id="path18"
       style=" stroke:none;fill-rule:evenodd;fill:rgb(65.098039%,65.098039%,65.098039%);fill-opacity:1;"
       d="M 48.964844 48.964844 L 48.992188 48.964844 L 48.992188 48.992188 L 48.964844 48.992188 Z " />
    <path
       id="path20"
       transform="matrix(0.996094,0,0,0.996094,0,0)"
       style="fill-rule:nonzero;fill:rgb(65.098039%,65.098039%,65.098039%);fill-opacity:1;stroke-width:1.350002;stroke-linecap:round;stroke-linejoin:round;stroke:rgb(0%,0%,0%);stroke-opacity:1;stroke-miterlimit:3;"
       d="M 14.439216 31.47451 L 26.4 31.47451 L 26.4 19.52549 L 14.439216 19.52549 L 14.439216 31.47451 " />
  </g>
</svg>
