<?xml version="1.0" encoding="UTF-8" standalone="no"?>
<!--
/*******************************************************************************
* Copyright (c) 2010-2018 ITER Organization.
* All rights reserved. This program and the accompanying materials
* are made available under the terms of the Eclipse Public License v1.0
* which accompanies this distribution, and is available at
* http://www.eclipse.org/legal/epl-v10.html
******************************************************************************/
-->
<svg
   xmlns:dc="http://purl.org/dc/elements/1.1/"
   xmlns:cc="http://creativecommons.org/ns#"
   xmlns:rdf="http://www.w3.org/1999/02/22-rdf-syntax-ns#"
   xmlns:svg="http://www.w3.org/2000/svg"
   xmlns="http://www.w3.org/2000/svg"
   id="svg2"
   version="1.1"
   viewBox="0 0 50 50"
   height="50pt"
   width="50pt">
  <metadata
     id="metadata25">
    <rdf:RDF>
      <cc:Work
         rdf:about="">
        <dc:format>image/svg+xml</dc:format>
        <dc:type
           rdf:resource="http://purl.org/dc/dcmitype/StillImage" />
        <dc:title></dc:title>
      </cc:Work>
    </rdf:RDF>
  </metadata>
  <defs
     id="defs23" />
  <g
     id="surface1">
    <path
       id="path5"
       d="M 0.66406257,25 9.191406,25"
       style="fill:none;stroke:#000000;stroke-width:1.34512496;stroke-linecap:round;stroke-linejoin:round;stroke-miterlimit:4;stroke-opacity:1" />
    <path
       id="path7"
       d="m 41.605469,25 8.5,0"
       style="fill:none;stroke:#000000;stroke-width:1.34512496;stroke-linecap:round;stroke-linejoin:round;stroke-miterlimit:4;stroke-opacity:1" />
    <path
       transform="matrix(0.996094,0,0,0.996094,0,0)"
       id="path9"
       d="M 44.031373 25.498039 C 44.113725 18.901961 40.596078 12.768627 34.827451 9.447059 C 29.062745 6.12549 21.937255 6.12549 16.172549 9.447059 C 10.403922 12.768627 6.886275 18.901961 6.968627 25.498039 C 6.886275 32.098039 10.403922 38.231373 16.172549 41.556863 C 21.937255 44.87451 29.062745 44.87451 34.827451 41.556863 C 40.596078 38.231373 44.113725 32.098039 44.031373 25.498039 "
       style="fill-rule:nonzero;fill:rgb(65.098039%,65.098039%,65.098039%);fill-opacity:1;stroke-width:1.3504;stroke-linecap:round;stroke-linejoin:round;stroke:rgb(0%,0%,0%);stroke-opacity:1;stroke-miterlimit:4;" />
    <path
       id="path11"
       transform="matrix(0.996094,0,0,0.996094,0,0)"
       d="M 24.823529 43.694118 L 43.090196 25.87451 "
       style="fill-rule:nonzero;fill:rgb(65.098039%,65.098039%,65.098039%);fill-opacity:1;stroke-width:1.3504;stroke-linecap:round;stroke-linejoin:round;stroke:rgb(0%,0%,0%);stroke-opacity:1;stroke-miterlimit:4;" />
    <path
       id="path13"
       transform="matrix(0.996094,0,0,0.996094,0,0)"
       d="M 24.823529 6.815686 L 43.090196 24.65098 "
       style="fill-rule:nonzero;fill:rgb(65.098039%,65.098039%,65.098039%);fill-opacity:1;stroke-width:1.3504;stroke-linecap:round;stroke-linejoin:round;stroke:rgb(0%,0%,0%);stroke-opacity:1;stroke-miterlimit:4;" />
    <path
       id="path15"
       d="M 1.347656 1.347656 L 1.375 1.347656 L 1.375 1.375 L 1.347656 1.375 Z "
       style=" stroke:none;fill-rule:evenodd;fill:rgb(65.098039%,65.098039%,65.098039%);fill-opacity:1;" />
    <path
       id="path17"
       d="M 48.964844 48.964844 L 48.992188 48.964844 L 48.992188 48.992188 L 48.964844 48.992188 Z "
       style=" stroke:none;fill-rule:evenodd;fill:rgb(65.098039%,65.098039%,65.098039%);fill-opacity:1;" />
    <path
       id="path19"
       transform="matrix(0.996094,0,0,0.996094,0,0)"
       d="M 14.439216 31.47451 L 26.4 31.47451 L 26.4 19.52549 L 14.439216 19.52549 L 14.439216 31.47451 "
       style="fill-rule:nonzero;fill:rgb(65.098039%,65.098039%,65.098039%);fill-opacity:1;stroke-width:1.350002;stroke-linecap:round;stroke-linejoin:round;stroke:rgb(0%,0%,0%);stroke-opacity:1;stroke-miterlimit:3;" />
  </g>
  <animate
     id="animate12"
     repeatCount="indefinite"
     fill="freeze"
     begin="0s"
     dur="1000ms"
     calcMode="discrete"
     values="1;0"
     attributeName="opacity" />
</svg>
