<?xml version="1.0" encoding="UTF-8" standalone="no"?>
<!--
/*******************************************************************************
* Copyright (c) 2010-2018 ITER Organization.
* All rights reserved. This program and the accompanying materials
* are made available under the terms of the Eclipse Public License v1.0
* which accompanies this distribution, and is available at
* http://www.eclipse.org/legal/epl-v10.html
******************************************************************************/
-->
<svg
   xmlns:dc="http://purl.org/dc/elements/1.1/"
   xmlns:cc="http://creativecommons.org/ns#"
   xmlns:rdf="http://www.w3.org/1999/02/22-rdf-syntax-ns#"
   xmlns:svg="http://www.w3.org/2000/svg"
   xmlns="http://www.w3.org/2000/svg"
   id="svg2"
   version="1.1"
   viewBox="0 0 50 50"
   height="50pt"
   width="50pt">
  <metadata
     id="metadata35">
    <rdf:RDF>
      <cc:Work
         rdf:about="">
        <dc:format>image/svg+xml</dc:format>
        <dc:type
           rdf:resource="http://purl.org/dc/dcmitype/StillImage" />
        <dc:title></dc:title>
      </cc:Work>
    </rdf:RDF>
  </metadata>
  <defs
     id="defs33" />
  <g
     id="surface1">
    <path
       id="path5"
       transform="matrix(0.796875,0,0,0.796875,-0.0141176,24.722733)"
       d="M 0.85105 0.847943 L 11.55203 0.847943 "
       style="fill:none;stroke-width:1.688;stroke-linecap:round;stroke-linejoin:round;stroke:rgb(0%,0%,0%);stroke-opacity:1;stroke-miterlimit:4;" />
    <path
       id="path7"
       d="m 41.605469,25 8.5,0"
       style="fill:none;stroke:#000000;stroke-width:1.34512496;stroke-linecap:round;stroke-linejoin:round;stroke-miterlimit:4;stroke-opacity:1" />
    <path
       id="path9"
       d="m 43.859406,24.997539 c 0.08203,-6.570314 -3.421876,-12.679691 -9.167971,-15.9882849 -5.742189,-3.3085949 -12.839847,-3.3085949 -18.582036,0 -5.746095,3.3085939 -9.2500019,9.4179709 -9.1679716,15.9882849 -0.08203,6.57422 3.4218766,12.683598 9.1679716,15.996098 5.742189,3.304688 12.839847,3.304688 18.582036,0 5.746095,-3.3125 9.250002,-9.421878 9.167971,-15.996098"
       style="fill:#ffffff;fill-opacity:1;fill-rule:nonzero;stroke:#000000;stroke-width:1.34512532;stroke-linecap:round;stroke-linejoin:round;stroke-miterlimit:4;stroke-opacity:1" />
    <path
       id="path11"
       transform="matrix(0.996094,0,0,0.996094,-79.932857,-22.697857)"
       d="M 96.183574 32.265299 L 121.489456 38.994711 "
       style="fill:none;stroke-width:1.3504;stroke-linecap:round;stroke-linejoin:round;stroke:rgb(0%,0%,0%);stroke-opacity:1;stroke-miterlimit:4;" />
    <path
       id="path13"
       transform="matrix(0.996094,0,0,0.996094,-79.932857,-22.697857)"
       d="M 96.183574 64.096672 L 121.489456 57.36726 "
       style="fill:none;stroke-width:1.3504;stroke-linecap:round;stroke-linejoin:round;stroke:rgb(0%,0%,0%);stroke-opacity:1;stroke-miterlimit:4;" />
    <path
       id="path15"
       d="M 1.347656 1.347656 L 1.375 1.347656 L 1.375 1.375 L 1.347656 1.375 Z "
       style=" stroke:none;fill-rule:evenodd;fill:rgb(100%,100%,100%);fill-opacity:1;" />
    <path
       id="path17"
       d="M 48.964844 48.964844 L 48.992188 48.964844 L 48.992188 48.992188 L 48.964844 48.992188 Z "
       style=" stroke:none;fill-rule:evenodd;fill:rgb(100%,100%,100%);fill-opacity:1;" />
    <path
       id="path19"
       transform="matrix(0.830638,0,0,0.830638,11.901945,-32.65704)"
       d="M 21.341378 69.916139 L 12.834176 58.408608 "
       style="fill:none;stroke-width:1.349997;stroke-linecap:round;stroke-linejoin:round;stroke:rgb(0%,0%,0%);stroke-opacity:1;stroke-miterlimit:3;" />
    <path
       id="path21"
       transform="matrix(0.830638,0,0,0.830638,11.901945,-32.65704)"
       d="M 21.341378 69.916139 L 12.834176 81.428372 "
       style="fill:none;stroke-width:1.349997;stroke-linecap:round;stroke-linejoin:round;stroke:rgb(0%,0%,0%);stroke-opacity:1;stroke-miterlimit:3;" />
    <path
       id="path23"
       transform="matrix(0.830638,0,0,0.830638,11.901945,-32.65704)"
       d="M 12.302769 69.869112 L 3.80027 58.361581 "
       style="fill:none;stroke-width:1.349997;stroke-linecap:round;stroke-linejoin:round;stroke:rgb(0%,0%,0%);stroke-opacity:1;stroke-miterlimit:3;" />
    <path
       id="path25"
       transform="matrix(0.830638,0,0,0.830638,11.901945,-32.65704)"
       d="M 12.302769 69.873814 L 3.80027 81.381345 "
       style="fill:none;stroke-width:1.349997;stroke-linecap:round;stroke-linejoin:round;stroke:rgb(0%,0%,0%);stroke-opacity:1;stroke-miterlimit:3;" />
    <path
       id="path27"
       d="M 49.484375 49.894531 L 49.515625 49.894531 L 49.515625 49.933594 L 49.484375 49.933594 Z "
       style=" stroke:none;fill-rule:evenodd;fill:rgb(100%,100%,100%);fill-opacity:1;" />
    <path
       id="path29"
       d="M 49.488281 49.882813 L 49.542969 49.882813 L 49.542969 49.933594 L 49.488281 49.933594 Z "
       style=" stroke:none;fill-rule:evenodd;fill:rgb(100%,100%,100%);fill-opacity:1;" />
  </g>
  <animate
     id="animate12"
     repeatCount="indefinite"
     fill="freeze"
     begin="0s"
     dur="1000ms"
     calcMode="discrete"
     values="1;0"
     attributeName="opacity" />
</svg>
