<?xml version="1.0" encoding="UTF-8" standalone="no"?>
<!--
/*******************************************************************************
* Copyright (c) 2010-2018 ITER Organization.
* All rights reserved. This program and the accompanying materials
* are made available under the terms of the Eclipse Public License v1.0
* which accompanies this distribution, and is available at
* http://www.eclipse.org/legal/epl-v10.html
******************************************************************************/
-->
<svg
   xmlns:dc="http://purl.org/dc/elements/1.1/"
   xmlns:cc="http://creativecommons.org/ns#"
   xmlns:rdf="http://www.w3.org/1999/02/22-rdf-syntax-ns#"
   xmlns:svg="http://www.w3.org/2000/svg"
   xmlns="http://www.w3.org/2000/svg"
   id="svg2"
   version="1.1"
   viewBox="0 0 50 50"
   height="50pt"
   width="50pt">
  <metadata
     id="metadata33">
    <rdf:RDF>
      <cc:Work
         rdf:about="">
        <dc:format>image/svg+xml</dc:format>
        <dc:type
           rdf:resource="http://purl.org/dc/dcmitype/StillImage" />
        <dc:title></dc:title>
      </cc:Work>
    </rdf:RDF>
  </metadata>
  <defs
     id="defs31" />
  <g
     id="surface1">
    <path
       id="path5"
       d="M 0.66406287,25 9.1914063,25"
       style="fill:none;stroke:#000000;stroke-width:1.34512496;stroke-linecap:round;stroke-linejoin:round;stroke-miterlimit:4;stroke-opacity:1" />
    <path
       id="path7"
       d="m 41.605469,25 8.5,0"
       style="fill:none;stroke:#000000;stroke-width:1.34512496;stroke-linecap:round;stroke-linejoin:round;stroke-miterlimit:4;stroke-opacity:1" />
    <path
       id="path9"
       transform="matrix(0.996094,0,0,0.996094,-79.932857,-22.697857)"
       d="M 124.277692 48.284907 C 124.360044 41.688829 120.842397 35.555495 115.07377 32.233927 C 109.309064 28.912358 102.183574 28.912358 96.418868 32.233927 C 90.650241 35.555495 87.132594 41.688829 87.214946 48.284907 C 87.132594 54.884907 90.650241 61.018241 96.418868 64.343731 C 102.183574 67.661378 109.309064 67.661378 115.07377 64.343731 C 120.842397 61.018241 124.360044 54.884907 124.277692 48.284907 "
       style="fill-rule:nonzero;fill:rgb(100%,100%,100%);fill-opacity:1;stroke-width:1.3504;stroke-linecap:round;stroke-linejoin:round;stroke:rgb(0%,0%,0%);stroke-opacity:1;stroke-miterlimit:4;" />
    <path
       id="path11"
       transform="matrix(0.996094,0,0,0.996094,-79.932857,-22.697857)"
       d="M 96.183574 32.265299 L 121.489456 38.994711 "
       style="fill:none;stroke-width:1.3504;stroke-linecap:round;stroke-linejoin:round;stroke:rgb(0%,0%,0%);stroke-opacity:1;stroke-miterlimit:4;" />
    <path
       id="path13"
       transform="matrix(0.996094,0,0,0.996094,-79.932857,-22.697857)"
       d="M 96.183574 64.096672 L 121.489456 57.36726 "
       style="fill:none;stroke-width:1.3504;stroke-linecap:round;stroke-linejoin:round;stroke:rgb(0%,0%,0%);stroke-opacity:1;stroke-miterlimit:4;" />
    <path
       id="path15"
       d="M 1.347656 1.347656 L 1.375 1.347656 L 1.375 1.375 L 1.347656 1.375 Z "
       style=" stroke:none;fill-rule:evenodd;fill:rgb(100%,100%,100%);fill-opacity:1;" />
    <path
       id="path17"
       d="M 48.964844 48.964844 L 48.992188 48.964844 L 48.992188 48.992188 L 48.964844 48.992188 Z "
       style=" stroke:none;fill-rule:evenodd;fill:rgb(100%,100%,100%);fill-opacity:1;" />
    <path
       id="path19"
       transform="matrix(0.804561,0,0,0.804561,18.417805,-29.442712)"
       d="M 20.629658 68.162819 C 20.765602 63.807766 18.512821 59.729455 14.759804 57.51066 C 11.011642 55.291865 6.34586 55.291865 2.592844 57.51066 C -1.155318 59.729455 -3.408099 63.807766 -3.272156 68.162819 C -3.408099 72.522727 -1.155318 76.605893 2.592844 78.824689 C 6.34586 81.038629 11.011642 81.038629 14.759804 78.824689 C 18.512821 76.605893 20.765602 72.522727 20.629658 68.162819 Z "
       style="fill:none;stroke-width:1.349993;stroke-linecap:round;stroke-linejoin:round;stroke:rgb(0%,0%,0%);stroke-opacity:1;stroke-miterlimit:3;" />
    <path
       id="path21"
       transform="matrix(0.804561,0,0,0.804561,18.417805,-29.442712)"
       d="M 20.629658 68.162819 C 20.765602 63.807766 18.512821 59.729455 14.759804 57.51066 C 11.011642 55.291865 6.34586 55.291865 2.592844 57.51066 C -1.155318 59.729455 -3.408099 63.807766 -3.272156 68.162819 C -3.408099 72.522727 -1.155318 76.605893 2.592844 78.824689 C 6.34586 81.038629 11.011642 81.038629 14.759804 78.824689 C 18.512821 76.605893 20.765602 72.522727 20.629658 68.162819 Z "
       style="fill:none;stroke-width:1.349993;stroke-linecap:round;stroke-linejoin:round;stroke:rgb(0%,0%,0%);stroke-opacity:1;stroke-miterlimit:3;" />
    <path
       id="path23"
       transform="matrix(0.804561,0,0,0.804561,18.417805,-29.442712)"
       d="M 14.750094 68.109413 C 14.750094 64.759372 12.03122 62.040498 8.681179 62.040498 C 5.326283 62.040498 2.607409 64.759372 2.607409 68.109413 C 2.607409 71.459454 5.326283 74.178327 8.681179 74.178327 C 12.03122 74.178327 14.750094 71.459454 14.750094 68.109413 Z "
       style="fill-rule:evenodd;fill:rgb(100%,100%,100%);fill-opacity:1;stroke-width:1.349997;stroke-linecap:round;stroke-linejoin:round;stroke:rgb(0%,0%,0%);stroke-opacity:1;stroke-miterlimit:3;" />
    <path
       id="path25"
       d="M 49.484375 49.894531 L 49.515625 49.894531 L 49.515625 49.933594 L 49.484375 49.933594 Z "
       style=" stroke:none;fill-rule:evenodd;fill:rgb(100%,100%,100%);fill-opacity:1;" />
    <path
       id="path27"
       d="M 49.488281 49.882813 L 49.542969 49.882813 L 49.542969 49.933594 L 49.488281 49.933594 Z "
       style=" stroke:none;fill-rule:evenodd;fill:rgb(100%,100%,100%);fill-opacity:1;" />
  </g>
</svg>
