<?xml version="1.0" encoding="UTF-8" standalone="no"?>
<!--
/*******************************************************************************
* Copyright (c) 2010-2018 ITER Organization.
* All rights reserved. This program and the accompanying materials
* are made available under the terms of the Eclipse Public License v1.0
* which accompanies this distribution, and is available at
* http://www.eclipse.org/legal/epl-v10.html
******************************************************************************/
-->
<svg xmlns="http://www.w3.org/2000/svg" xmlns:xlink="http://www.w3.org/1999/xlink" width="50pt" height="50pt" viewBox="0 0 50 50" version="1.1">
<g id="surface1">
<path d="m 0.664063,25 8.5273456,0" id="path9" style="fill:none;stroke:#000000;stroke-width:1.34512532;stroke-linecap:round;stroke-linejoin:round;stroke-miterlimit:4;stroke-opacity:1"/>
<path d="m 41.605479,25 8.500003,0" id="path12" style="fill:none;stroke:#000000;stroke-width:1.34512532;stroke-linecap:round;stroke-linejoin:round;stroke-miterlimit:4;stroke-opacity:1"/>
<path style="fill-rule:nonzero;fill:rgb(100%,100%,100%);fill-opacity:1;stroke-width:1.3504;stroke-linecap:round;stroke-linejoin:round;stroke:rgb(0%,0%,0%);stroke-opacity:1;stroke-miterlimit:4;" d="M 124.277692 48.284907 C 124.360044 41.688829 120.842397 35.555495 115.07377 32.233927 C 109.309064 28.912358 102.183574 28.912358 96.418868 32.233927 C 90.650241 35.555495 87.132594 41.688829 87.214946 48.284907 C 87.132594 54.884907 90.650241 61.018241 96.418868 64.343731 C 102.183574 67.661378 109.309064 67.661378 115.07377 64.343731 C 120.842397 61.018241 124.360044 54.884907 124.277692 48.284907 " transform="matrix(0.996094,0,0,0.996094,-79.932857,-22.697857)"/>
<path style="fill:none;stroke-width:1.3504;stroke-linecap:round;stroke-linejoin:round;stroke:rgb(0%,0%,0%);stroke-opacity:1;stroke-miterlimit:4;" d="M 96.183574 32.265299 L 121.489456 38.994711 " transform="matrix(0.996094,0,0,0.996094,-79.932857,-22.697857)"/>
<path style="fill:none;stroke-width:1.3504;stroke-linecap:round;stroke-linejoin:round;stroke:rgb(0%,0%,0%);stroke-opacity:1;stroke-miterlimit:4;" d="M 96.183574 64.096672 L 121.489456 57.36726 " transform="matrix(0.996094,0,0,0.996094,-79.932857,-22.697857)"/>
<path style=" stroke:none;fill-rule:evenodd;fill:rgb(100%,100%,100%);fill-opacity:1;" d="M 1.347656 1.347656 L 1.375 1.347656 L 1.375 1.375 L 1.347656 1.375 Z "/>
<path style=" stroke:none;fill-rule:evenodd;fill:rgb(100%,100%,100%);fill-opacity:1;" d="M 48.964844 48.964844 L 48.992188 48.964844 L 48.992188 48.992188 L 48.964844 48.992188 Z "/>
<path style=" stroke:none;fill-rule:evenodd;fill:rgb(100%,100%,100%);fill-opacity:1;" d="M 49.484375 49.894531 L 49.515625 49.894531 L 49.515625 49.933594 L 49.484375 49.933594 Z "/>
<path style=" stroke:none;fill-rule:evenodd;fill:rgb(100%,100%,100%);fill-opacity:1;" d="M 49.488281 49.882813 L 49.542969 49.882813 L 49.542969 49.933594 L 49.488281 49.933594 Z "/>
</g>
</svg>
