<?xml version="1.0" encoding="UTF-8" standalone="no"?>
<!--
/*******************************************************************************
* Copyright (c) 2010-2018 ITER Organization.
* All rights reserved. This program and the accompanying materials
* are made available under the terms of the Eclipse Public License v1.0
* which accompanies this distribution, and is available at
* http://www.eclipse.org/legal/epl-v10.html
******************************************************************************/
-->
<svg
   xmlns:dc="http://purl.org/dc/elements/1.1/"
   xmlns:cc="http://creativecommons.org/ns#"
   xmlns:rdf="http://www.w3.org/1999/02/22-rdf-syntax-ns#"
   xmlns:svg="http://www.w3.org/2000/svg"
   xmlns="http://www.w3.org/2000/svg"
   height="50pt"
   version="1.1"
   viewBox="0 0 50 50"
   width="50pt"
   id="svg2">
  <metadata
     id="metadata36">
    <rdf:RDF>
      <cc:Work
         rdf:about="">
        <dc:format>image/svg+xml</dc:format>
        <dc:type
           rdf:resource="http://purl.org/dc/dcmitype/StillImage" />
        <dc:title></dc:title>
      </cc:Work>
    </rdf:RDF>
  </metadata>
  <defs
     id="defs34" />
  <g
     id="surface1">
    <path
       d="M 1.867188 2.34375 L 1.898438 2.34375 L 1.898438 2.382813 L 1.867188 2.382813 Z "
       style=" stroke:none;fill-rule:evenodd;fill:rgb(100%,100%,100%);fill-opacity:1;"
       id="path5" />
    <path
       d="M 1.84375 2.449219 L 1.894531 2.449219 L 1.894531 2.496094 L 1.84375 2.496094 Z "
       style=" stroke:none;fill-rule:evenodd;fill:rgb(100%,100%,100%);fill-opacity:1;"
       id="path7" />
    <path
       d="m 0.664063,25 8.5273456,0"
       style="fill:none;stroke:#000000;stroke-width:1.34512532;stroke-linecap:round;stroke-linejoin:round;stroke-miterlimit:4;stroke-opacity:1"
       id="path9" />
    <path
       d="m 41.605479,25 8.500003,0"
       style="fill:none;stroke:#000000;stroke-width:1.34512532;stroke-linecap:round;stroke-linejoin:round;stroke-miterlimit:4;stroke-opacity:1"
       id="path12" />
    <path
       d="M 49.441406 49.65625 L 49.472656 49.65625 L 49.472656 49.695313 L 49.441406 49.695313 Z "
       style=" stroke:none;fill-rule:evenodd;fill:rgb(65.098039%,65.098039%,65.098039%);fill-opacity:1;"
       id="path14" />
    <path
       d="M 49.445313 49.644531 L 49.5 49.644531 L 49.5 49.695313 L 49.445313 49.695313 Z "
       style=" stroke:none;fill-rule:evenodd;fill:rgb(65.098039%,65.098039%,65.098039%);fill-opacity:1;"
       id="path16" />
    <path
       d="M 1.300781 1.105469 L 1.328125 1.105469 L 1.328125 1.132813 L 1.300781 1.132813 Z "
       style=" stroke:none;fill-rule:evenodd;fill:rgb(65.098039%,65.098039%,65.098039%);fill-opacity:1;"
       id="path18" />
    <path
       d="M 48.917969 48.726563 L 48.945313 48.726563 L 48.945313 48.753906 L 48.917969 48.753906 Z "
       style=" stroke:none;fill-rule:evenodd;fill:rgb(65.098039%,65.098039%,65.098039%);fill-opacity:1;"
       id="path20" />
    <path
       d="M 43.560784 25.12549 C 43.643137 18.52549 40.12549 12.392157 34.356863 9.070588 C 28.592157 5.74902 21.466667 5.74902 15.701961 9.070588 C 9.933333 12.392157 6.415686 18.52549 6.498039 25.12549 C 6.415686 31.72549 9.933333 37.854902 15.701961 41.180392 C 21.466667 44.498039 28.592157 44.498039 34.356863 41.180392 C 40.12549 37.854902 43.643137 31.72549 43.560784 25.12549 "
       style="fill-rule:nonzero;fill:rgb(65.098039%,65.098039%,65.098039%);fill-opacity:1;stroke-width:1.3504;stroke-linecap:round;stroke-linejoin:round;stroke:rgb(0%,0%,0%);stroke-opacity:1;stroke-miterlimit:4;"
       transform="matrix(0.996094,0,0,0.996094,0,0)"
       id="path22" />
    <path
       d="M 12.605473,38.824159 C 27.904452,53.589172 54.638546,33.854045 39.904085,13.854177"
       id="CodacSymbol-p5"
       style="opacity:1;fill:#ffffff;fill-opacity:1;fill-rule:evenodd;stroke:#000000;stroke-width:1.352;stroke-linecap:butt;stroke-linejoin:miter;stroke-miterlimit:4;stroke-dasharray:none;stroke-opacity:1" />
    <path
       d="M 1.300781 1.105469 L 1.328125 1.105469 L 1.328125 1.132813 L 1.300781 1.132813 Z "
       style=" stroke:none;fill-rule:evenodd;fill:rgb(65.098039%,65.098039%,65.098039%);fill-opacity:1;"
       id="path24" />
    <path
       d="M 48.917969 48.726563 L 48.945313 48.726563 L 48.945313 48.753906 L 48.917969 48.753906 Z "
       style=" stroke:none;fill-rule:evenodd;fill:rgb(65.098039%,65.098039%,65.098039%);fill-opacity:1;"
       id="path26" />
    <path
       d="M 16.043137 40.72549 L 41.34902 33.996078 "
       style="fill-rule:nonzero;fill:rgb(65.098039%,65.098039%,65.098039%);fill-opacity:1;stroke-width:1.3504;stroke-linecap:round;stroke-linejoin:round;stroke:rgb(0%,0%,0%);stroke-opacity:1;stroke-miterlimit:4;"
       transform="matrix(0.996094,0,0,0.996094,0,0)"
       id="path28" />
    <path
       d="M 15.827451 10.007843 L 41.133333 16.741176 "
       style="fill-rule:nonzero;fill:rgb(65.098039%,65.098039%,65.098039%);fill-opacity:1;stroke-width:1.3504;stroke-linecap:round;stroke-linejoin:round;stroke:rgb(0%,0%,0%);stroke-opacity:1;stroke-miterlimit:4;"
       transform="matrix(0.996094,0,0,0.996094,0,0)"
       id="path30" />
  </g>
</svg>
