<?xml version="1.0" encoding="UTF-8"?>
<!--
/*******************************************************************************
* Copyright (c) 2010-2017 ITER Organization.
* All rights reserved. This program and the accompanying materials
* are made available under the terms of the Eclipse Public License v1.0
* which accompanies this distribution, and is available at
* http://www.eclipse.org/legal/epl-v10.html
******************************************************************************/
-->
<svg xmlns="http://www.w3.org/2000/svg" xmlns:xlink="http://www.w3.org/1999/xlink" width="29pt" height="29pt" viewBox="0 0 29 29" version="1.1">
<g id="surface1">
<path style="fill:none;stroke-width:0.720001;stroke-linecap:round;stroke-linejoin:round;stroke:rgb(0%,0%,0%);stroke-opacity:1;stroke-miterlimit:3;" d="M 0.000864478 1.440965 L 25.512589 1.440965 L 25.512589 26.95269 L 0.000864478 26.95269 Z M 0.000864478 1.440965 " transform="matrix(1.062012,0,0,1.062012,0.784238,-0.764697)"/>
<path style=" stroke:none;fill-rule:evenodd;fill:rgb(100%,100%,100%);fill-opacity:1;" d="M 0.785156 0.765625 L 0.800781 0.765625 L 0.800781 0.78125 L 0.785156 0.78125 Z M 0.785156 0.765625 "/>
<path style=" stroke:none;fill-rule:evenodd;fill:rgb(100%,100%,100%);fill-opacity:1;" d="M 27.859375 27.84375 L 27.878906 27.84375 L 27.878906 27.859375 L 27.859375 27.859375 Z M 27.859375 27.84375 "/>
<path style="fill:none;stroke-width:0.720001;stroke-linecap:round;stroke-linejoin:round;stroke:rgb(0%,0%,0%);stroke-opacity:1;stroke-miterlimit:3;" d="M 25.512589 14.196827 C 25.512589 7.149471 19.800405 1.440965 12.756727 1.440965 C 5.713048 1.440965 0.000864478 7.149471 0.000864478 14.196827 C 0.000864478 21.240506 5.713048 26.95269 12.756727 26.95269 C 19.800405 26.95269 25.512589 21.240506 25.512589 14.196827 Z M 25.512589 14.196827 " transform="matrix(1.062012,0,0,1.062012,0.784238,-0.764697)"/>
<path style="fill:none;stroke-width:0.720001;stroke-linecap:round;stroke-linejoin:round;stroke:rgb(0%,0%,0%);stroke-opacity:1;stroke-miterlimit:3;" d="M 0.00116451 26.950161 L 25.50921 26.950161 " transform="matrix(1.062012,0,0,1.062012,0.787826,-13.410449)"/>
<path style="fill:none;stroke-width:0.720001;stroke-linecap:round;stroke-linejoin:round;stroke:rgb(0%,0%,0%);stroke-opacity:1;stroke-miterlimit:3;" d="M 0.000896607 26.947972 L 25.508943 26.947972 " transform="matrix(1.062012,0,0,1.062012,0.764673,-15.216719)"/>
</g>
</svg>
