<?xml version="1.0" encoding="UTF-8"?>
<!--
/*******************************************************************************
* Copyright (c) 2010-2018 ITER Organization.
* All rights reserved. This program and the accompanying materials
* are made available under the terms of the Eclipse Public License v1.0
* which accompanies this distribution, and is available at
* http://www.eclipse.org/legal/epl-v10.html
******************************************************************************/
-->
<svg xmlns="http://www.w3.org/2000/svg" xmlns:xlink="http://www.w3.org/1999/xlink" width="39pt" height="39pt" viewBox="0 0 39 39" version="1.1">
<g id="surface0">
<path style="fill-rule:evenodd;fill:rgb(100%,100%,100%);fill-opacity:1;stroke-width:1;stroke-linecap:round;stroke-linejoin:round;stroke:rgb(0%,0%,0%);stroke-opacity:1;stroke-miterlimit:3;" d="M 34.019173 19.010788 L 17.010788 36.019173 L 0.0024022 19.010788 L 17.010788 2.002402 Z M 34.019173 19.010788 " transform="matrix(1.083335,0,0,1.083335,1.083335,-1.083335)"/>
<path style="fill:none;stroke-width:1;stroke-linecap:round;stroke-linejoin:round;stroke:rgb(0%,0%,0%);stroke-opacity:1;stroke-miterlimit:3;" d="M 0.000849514 36.021772 L 17.009235 36.021772 " transform="matrix(0.000000000000000067,1.083335,-1.083335,0.000000000000000067,57.758026,10.295955)"/>
<path style="fill:none;stroke-width:1;stroke-linecap:round;stroke-linejoin:round;stroke:rgb(0%,0%,0%);stroke-opacity:1;stroke-miterlimit:3;" d="M -0.00102243 36.019398 L 8.501367 36.019398 " transform="matrix(1.083335,0,0,1.083335,13.950326,-24.114829)"/>
<path style="fill:none;stroke-width:1;stroke-linecap:round;stroke-linejoin:round;stroke:rgb(0%,0%,0%);stroke-opacity:1;stroke-miterlimit:3;" d="M -0.00155174 36.021727 L 8.500838 36.021727 " transform="matrix(1.083335,0,0,1.083335,14.134494,-16.437664)"/>
<path style="fill:none;stroke-width:1;stroke-linecap:round;stroke-linejoin:round;stroke:rgb(0%,0%,0%);stroke-opacity:1;stroke-miterlimit:3;" d="M 0.00173313 36.020856 L 8.020409 34.029573 " transform="matrix(0.766034,-0.766034,0.766034,0.766034,-8.848434,-5.009841)"/>
<path style="fill:none;stroke-width:1;stroke-linecap:round;stroke-linejoin:round;stroke:rgb(0%,0%,0%);stroke-opacity:1;stroke-miterlimit:3;" d="M -0.00176487 36.020037 L 8.639028 37.720659 " transform="matrix(-0.766034,-0.766034,0.766034,-0.766034,-8.62908,50.388095)"/>
</g>
</svg>
