<?xml version="1.0" encoding="UTF-8"?>
<!--
/*******************************************************************************
* Copyright (c) 2010-2018 ITER Organization.
* All rights reserved. This program and the accompanying materials
* are made available under the terms of the Eclipse Public License v1.0
* which accompanies this distribution, and is available at
* http://www.eclipse.org/legal/epl-v10.html
******************************************************************************/
-->
<svg xmlns="http://www.w3.org/2000/svg" xmlns:xlink="http://www.w3.org/1999/xlink" width="38pt" height="38pt" viewBox="0 0 38 38" version="1.1">
<g id="surface0">
<path style=" stroke:none;fill-rule:evenodd;fill:rgb(100%,100%,100%);fill-opacity:1;" d="M 0.773438 1.050781 L 0.796875 1.050781 L 0.796875 1.074219 L 0.773438 1.074219 Z M 0.773438 1.050781 "/>
<path style=" stroke:none;fill-rule:evenodd;fill:rgb(100%,100%,100%);fill-opacity:1;" d="M 37.25 36.828125 L 37.273438 36.828125 L 37.273438 36.851562 L 37.25 36.851562 Z M 37.25 36.828125 "/>
<path style="fill-rule:evenodd;fill:rgb(100%,100%,100%);fill-opacity:1;stroke-width:0.999999;stroke-linecap:round;stroke-linejoin:round;stroke:rgb(0%,0%,0%);stroke-opacity:1;stroke-miterlimit:3;" d="M 8.499354 36.020831 L 0.00276113 19.01006 L 17.010508 19.01006 Z M 8.499354 36.020831 " transform="matrix(1.07304,0,0,1.052412,9.895475,-10.00642)"/>
<path style="fill:none;stroke-width:0.999999;stroke-linecap:square;stroke-linejoin:miter;stroke:rgb(100%,100%,100%);stroke-opacity:1;stroke-miterlimit:3;" d="M -0.00155086 36.020837 L 34.019991 36.020837 Z M -0.00155086 36.020837 " transform="matrix(0.000000000000000066,1.052412,-1.07304,0.000000000000000064,57.683065,1.052413)"/>
<path style="fill:none;stroke-width:0.999999;stroke-linecap:square;stroke-linejoin:miter;stroke:rgb(0%,0%,0%);stroke-opacity:1;stroke-miterlimit:3;" d="M -0.00155086 36.020837 L 34.019991 36.020837 Z M -0.00155086 36.020837 " transform="matrix(0.000000000000000066,1.052412,-1.07304,0.000000000000000064,57.683065,1.052413)"/>
<path style="fill:none;stroke-width:0.999999;stroke-linecap:square;stroke-linejoin:miter;stroke:rgb(0%,0%,0%);stroke-opacity:1;stroke-miterlimit:3;" d="M -0.00155086 36.020837 L 34.019991 36.020837 Z M -0.00155086 36.020837 " transform="matrix(0.000000000000000066,1.052412,-1.07304,0.000000000000000064,57.683065,1.052413)"/>
<path style="fill:none;stroke-width:0.999999;stroke-linecap:round;stroke-linejoin:round;stroke:rgb(0%,0%,0%);stroke-opacity:1;stroke-miterlimit:3;" d="M -0.00155086 36.020837 L 34.019991 36.020837 " transform="matrix(0.000000000000000066,1.052412,-1.07304,0.000000000000000064,57.683065,1.052413)"/>
<path style="fill:none;stroke-width:0.999999;stroke-linecap:square;stroke-linejoin:miter;stroke:rgb(100%,100%,100%);stroke-opacity:1;stroke-miterlimit:3;" d="M 0.00276113 36.020831 L 17.010508 36.020831 Z M 0.00276113 36.020831 " transform="matrix(1.07304,0,0,1.052412,9.895475,-10.00642)"/>
<path style="fill:none;stroke-width:0.999999;stroke-linecap:square;stroke-linejoin:miter;stroke:rgb(0%,0%,0%);stroke-opacity:1;stroke-miterlimit:3;" d="M 0.00276113 36.020831 L 17.010508 36.020831 Z M 0.00276113 36.020831 " transform="matrix(1.07304,0,0,1.052412,9.895475,-10.00642)"/>
<path style="fill:none;stroke-width:0.999999;stroke-linecap:square;stroke-linejoin:miter;stroke:rgb(0%,0%,0%);stroke-opacity:1;stroke-miterlimit:3;" d="M 0.00276113 36.020831 L 17.010508 36.020831 Z M 0.00276113 36.020831 " transform="matrix(1.07304,0,0,1.052412,9.895475,-10.00642)"/>
<path style="fill:none;stroke-width:0.999999;stroke-linecap:round;stroke-linejoin:round;stroke:rgb(0%,0%,0%);stroke-opacity:1;stroke-miterlimit:3;" d="M 0.00276113 36.020831 L 17.010508 36.020831 " transform="matrix(1.07304,0,0,1.052412,9.895475,-10.00642)"/>
<path style="fill:none;stroke-width:0.999999;stroke-linecap:square;stroke-linejoin:miter;stroke:rgb(0%,0%,0%);stroke-opacity:1;stroke-miterlimit:3;" d="M -0.00123791 36.018611 L 12.008299 36.018611 Z M -0.00123791 36.018611 " transform="matrix(1.07304,0,0,1.052412,1.52086,-18.957209)"/>
<path style="fill:none;stroke-width:0.999999;stroke-linecap:square;stroke-linejoin:miter;stroke:rgb(0%,0%,0%);stroke-opacity:1;stroke-miterlimit:3;" d="M -0.00123791 36.018611 L 12.008299 36.018611 Z M -0.00123791 36.018611 " transform="matrix(1.07304,0,0,1.052412,1.52086,-18.957209)"/>
<path style="fill:none;stroke-width:0.999999;stroke-linecap:round;stroke-linejoin:round;stroke:rgb(0%,0%,0%);stroke-opacity:1;stroke-miterlimit:3;" d="M -0.00123791 36.018611 L 12.008299 36.018611 " transform="matrix(1.07304,0,0,1.052412,1.52086,-18.957209)"/>
</g>
</svg>
