<?xml version="1.0" encoding="UTF-8"?>
<!--
/*******************************************************************************
* Copyright (c) 2010-2018 ITER Organization.
* All rights reserved. This program and the accompanying materials
* are made available under the terms of the Eclipse Public License v1.0
* which accompanies this distribution, and is available at
* http://www.eclipse.org/legal/epl-v10.html
******************************************************************************/
-->
<svg xmlns="http://www.w3.org/2000/svg" xmlns:xlink="http://www.w3.org/1999/xlink" width="39pt" height="39pt" viewBox="0 0 39 39" version="1.1">
<g id="surface0">
<path style="fill-rule:evenodd;fill:rgb(100%,100%,100%);fill-opacity:1;stroke-width:1;stroke-linecap:round;stroke-linejoin:round;stroke:rgb(0%,0%,0%);stroke-opacity:1;stroke-miterlimit:3;" d="M 0.0024022 2.002402 L 34.015567 2.002402 L 34.015567 36.015567 L 0.0024022 36.015567 Z M 0.0024022 2.002402 " transform="matrix(1.083335,0,0,1.083335,1.083335,-1.083335)"/>
<path style="fill:none;stroke-width:1;stroke-linecap:round;stroke-linejoin:round;stroke:rgb(0%,0%,0%);stroke-opacity:1;stroke-miterlimit:3;" d="M -0.000701685 36.019867 L 48.111353 36.019867 " transform="matrix(0.766034,-0.766034,0.766034,0.766034,-26.505967,10.344521)"/>
<path style="fill:none;stroke-width:1;stroke-linecap:round;stroke-linejoin:round;stroke:rgb(0%,0%,0%);stroke-opacity:1;stroke-miterlimit:3;" d="M 0.0000834976 36.021021 L 17.008469 36.021021 " transform="matrix(1.083335,0,0,1.083335,14.902253,-11.831431)"/>
<path style="fill:none;stroke-width:1;stroke-linecap:round;stroke-linejoin:round;stroke:rgb(0%,0%,0%);stroke-opacity:1;stroke-dasharray:1,2;stroke-miterlimit:3;" d="M 0.0000834976 36.021426 L 17.008469 36.021426 " transform="matrix(1.083335,0,0,1.083335,14.902253,-9.144369)"/>
<path style="fill:none;stroke-width:1;stroke-linecap:round;stroke-linejoin:round;stroke:rgb(0%,0%,0%);stroke-opacity:1;stroke-miterlimit:3;" d="M 0.0000834976 33.889954 C 1.085418 35.566634 3.072194 36.367113 4.972431 35.891152 C 6.872668 35.411586 8.282522 33.763752 8.498868 31.762553 " transform="matrix(1.083335,0,0,1.083335,14.902253,-28.616521)"/>
<path style="fill:none;stroke-width:1;stroke-linecap:round;stroke-linejoin:round;stroke:rgb(0%,0%,0%);stroke-opacity:1;stroke-miterlimit:3;" d="M 0.00162559 36.020204 C 0.0845581 34.062275 1.479989 32.389201 3.434312 31.898817 C 5.392242 31.412039 7.447527 32.216124 8.50041 33.889198 " transform="matrix(1.083335,0,0,1.083335,5.689645,-28.721171)"/>
</g>
</svg>
