<?xml version="1.0" encoding="UTF-8"?>
<!--
/*******************************************************************************
* Copyright (c) 2010-2018 ITER Organization.
* All rights reserved. This program and the accompanying materials
* are made available under the terms of the Eclipse Public License v1.0
* which accompanies this distribution, and is available at
* http://www.eclipse.org/legal/epl-v10.html
******************************************************************************/
-->
<svg xmlns="http://www.w3.org/2000/svg" xmlns:xlink="http://www.w3.org/1999/xlink" width="150pt" height="204pt" viewBox="0 0 150 204" version="1.1">
<g id="surface0">
<path style="fill-rule:evenodd;fill:rgb(100%,100%,100%);fill-opacity:1;stroke-width:0.999996;stroke-linecap:round;stroke-linejoin:round;stroke:rgb(0%,0%,0%);stroke-opacity:1;stroke-miterlimit:3;" d="M 0.00190708 1.998919 L 136.063 1.998919 L 136.063 189.087094 L 0.00190708 189.087094 Z M 0.00190708 1.998919 " transform="matrix(1.083813,0,0,1.079287,1.083871,-1.079283)"/>
<path style="fill:none;stroke-width:0.999996;stroke-linecap:round;stroke-linejoin:round;stroke:rgb(0%,0%,0%);stroke-opacity:1;stroke-miterlimit:3;" d="M 8.500154 121.060936 L 17.009604 138.060727 L 17.009604 172.078404 L -0.00208754 172.078404 L -0.00208754 189.089052 L 34.021295 189.089052 L 34.021295 172.078404 L 17.009604 172.078404 " transform="matrix(1.083813,0,0,1.079287,65.596013,-83.682958)"/>
<path style="fill:none;stroke-width:4;stroke-linecap:butt;stroke-linejoin:miter;stroke:rgb(0%,0%,0%);stroke-opacity:1;stroke-miterlimit:3;" d="M 0.000216916 189.091901 L 110.550981 189.091901 " transform="matrix(1.083813,0,0,1.079287,10.300546,-65.326659)"/>
<path style="fill:none;stroke-width:1;stroke-linecap:round;stroke-linejoin:round;stroke:rgb(0%,0%,0%);stroke-opacity:1;stroke-miterlimit:3;" d="M 4.541473 172.081253 L 4.541473 189.091901 L 0.000216916 189.091901 " transform="matrix(1.083813,0,0,1.079287,10.300546,-65.326659)"/>
<path style="fill:none;stroke-width:1;stroke-linecap:round;stroke-linejoin:round;stroke:rgb(0%,0%,0%);stroke-opacity:1;stroke-miterlimit:3;" d="M -0.00147964 189.091901 L 17.010212 189.091901 L 17.010212 172.081253 " transform="matrix(1.083813,0,0,1.079287,19.517229,-65.326659)"/>
<path style="fill:none;stroke-width:1;stroke-linecap:round;stroke-linejoin:round;stroke:rgb(0%,0%,0%);stroke-opacity:1;stroke-miterlimit:3;" d="M 0.001005 189.091901 L 17.009092 189.091901 L 17.009092 172.081253 " transform="matrix(1.083813,0,0,1.079287,42.866098,-65.326659)"/>
<path style="fill:none;stroke-width:1;stroke-linecap:round;stroke-linejoin:round;stroke:rgb(0%,0%,0%);stroke-opacity:1;stroke-miterlimit:3;" d="M 0.00108192 172.081253 L 0.00108192 189.091901 L 9.069178 189.091901 " transform="matrix(1.083813,0,0,1.079287,84.033984,-65.326659)"/>
<path style="fill:none;stroke-width:1;stroke-linecap:round;stroke-linejoin:round;stroke:rgb(0%,0%,0%);stroke-opacity:1;stroke-miterlimit:3;" d="M 8.499528 189.091032 L 8.499528 172.080383 L 0.000890552 172.080383 " transform="matrix(1.083813,0,0,1.079287,65.600597,-46.970251)"/>
<path style="fill:none;stroke-width:0.999996;stroke-linecap:round;stroke-linejoin:round;stroke:rgb(0%,0%,0%);stroke-opacity:1;stroke-miterlimit:3;" d="M -0.00258835 87.04162 L -0.00258835 70.030972 L 51.018069 70.030972 L 51.018069 189.091032 " transform="matrix(1.083813,0,0,1.079287,84.037962,-46.970251)"/>
<path style="fill-rule:evenodd;fill:rgb(100%,100%,100%);fill-opacity:1;stroke-width:0.999996;stroke-linecap:round;stroke-linejoin:round;stroke:rgb(0%,0%,0%);stroke-opacity:1;stroke-miterlimit:3;" d="M 8.499844 189.0922 L 17.009294 180.579637 L 0.00120719 180.579637 Z M 8.499844 189.0922 " transform="matrix(1.083813,0,0,1.079287,102.471348,-175.463699)"/>
<path style="fill:none;stroke-width:0.999993;stroke-linecap:round;stroke-linejoin:round;stroke:rgb(0%,0%,0%);stroke-opacity:1;stroke-miterlimit:3;" d="M 0.00082082 155.078884 L 8.499458 172.089533 L 8.499458 189.089323 " transform="matrix(1.083813,0,0,1.079287,65.600673,-10.257469)"/>
<path style="fill:none;stroke-width:0.999993;stroke-linecap:round;stroke-linejoin:round;stroke:rgb(0%,0%,0%);stroke-opacity:1;stroke-miterlimit:3;" d="M 0.000338193 155.078884 L 8.498975 172.089533 L 8.498975 189.089323 " transform="matrix(1.083813,0,0,1.079287,130.116821,-10.257469)"/>
<path style="fill:none;stroke-width:0.999993;stroke-linecap:round;stroke-linejoin:round;stroke:rgb(0%,0%,0%);stroke-opacity:1;stroke-miterlimit:3;" d="M -0.000430105 189.089323 L 59.529677 189.089323 " transform="matrix(1.083813,0,0,1.079287,74.812966,-10.257469)"/>
<path style="fill-rule:evenodd;fill:rgb(100%,100%,100%);fill-opacity:1;stroke-width:0.999993;stroke-linecap:round;stroke-linejoin:round;stroke:rgb(0%,0%,0%);stroke-opacity:1;stroke-miterlimit:3;" d="M 0.0000369954 155.067614 L 34.016211 155.067614 L 34.016211 189.085291 L 0.0000369954 189.085291 Z M 0.0000369954 155.067614 " transform="matrix(1.083813,0,0,1.079287,10.300741,-157.108587)"/>
<path style="fill-rule:evenodd;fill:rgb(100%,100%,100%);fill-opacity:1;stroke-width:0.239998;stroke-linecap:round;stroke-linejoin:round;stroke:rgb(0%,0%,0%);stroke-opacity:1;stroke-miterlimit:3;" d="M 0.860239 180.459373 L 6.529602 172.080724 L 12.761215 172.080724 L 5.671809 178.620776 L 11.348379 178.620776 L -0.00115777 189.091372 L 5.960143 180.459373 Z M 0.860239 180.459373 " transform="matrix(1.083813,0,0,1.079287,21.821567,-166.2714)"/>
</g>
</svg>
