<?xml version="1.0" encoding="UTF-8"?>
<!--
/*******************************************************************************
* Copyright (c) 2010-2018 ITER Organization.
* All rights reserved. This program and the accompanying materials
* are made available under the terms of the Eclipse Public License v1.0
* which accompanies this distribution, and is available at
* http://www.eclipse.org/legal/epl-v10.html
******************************************************************************/
-->
<svg xmlns="http://www.w3.org/2000/svg" xmlns:xlink="http://www.w3.org/1999/xlink" width="37pt" height="29pt" viewBox="0 0 37 29" version="1.1">
<g id="surface0">
<path style=" stroke:none;fill-rule:evenodd;fill:rgb(100%,100%,100%);fill-opacity:1;" d="M 31.84375 14.316406 C 31.902344 9.4375 29.375 4.90625 25.226562 2.449219 C 21.082031 -0.0078125 15.957031 -0.0078125 11.8125 2.449219 C 7.664062 4.90625 5.136719 9.4375 5.195312 14.316406 C 5.136719 19.195312 7.664062 23.726562 11.8125 26.183594 C 15.957031 28.636719 21.082031 28.636719 25.226562 26.183594 C 29.375 23.726562 31.902344 19.195312 31.84375 14.316406 Z M 31.84375 14.316406 "/>
<path style="fill:none;stroke-width:0.72;stroke-linecap:round;stroke-linejoin:round;stroke:rgb(0%,0%,0%);stroke-opacity:1;stroke-miterlimit:3;" d="M 0.00157071 1.440919 L 0.00157071 26.948938 " transform="matrix(1.044805,0,0,1.062013,0.752265,-0.76465)"/>
<path style="fill:none;stroke-width:0.72;stroke-linecap:round;stroke-linejoin:round;stroke:rgb(0%,0%,0%);stroke-opacity:1;stroke-miterlimit:3;" d="M 29.758161 14.200446 C 29.814242 9.606428 27.39528 5.339765 23.424744 3.026205 C 19.457946 0.712644 14.552726 0.712644 10.585929 3.026205 C 6.615392 5.339765 4.196431 9.606428 4.252512 14.200446 C 4.196431 18.794464 6.615392 23.061126 10.585929 25.374687 C 14.552726 27.684569 19.457946 27.684569 23.424744 25.374687 C 27.39528 23.061126 29.814242 18.794464 29.758161 14.200446 " transform="matrix(1.044805,0,0,1.062013,0.752265,-0.76465)"/>
<path style="fill:none;stroke-width:0.72;stroke-linecap:round;stroke-linejoin:round;stroke:rgb(0%,0%,0%);stroke-opacity:1;stroke-miterlimit:3;" d="M 4.252512 26.948938 L 4.252512 1.440919 " transform="matrix(1.044805,0,0,1.062013,0.752265,-0.76465)"/>
<path style="fill:none;stroke-width:0.72;stroke-linecap:round;stroke-linejoin:round;stroke:rgb(0%,0%,0%);stroke-opacity:1;stroke-miterlimit:3;" d="M 17.009075 1.440919 L 17.009075 14.200446 " transform="matrix(1.044805,0,0,1.062013,0.752265,-0.76465)"/>
<path style="fill:none;stroke-width:0.72;stroke-linecap:round;stroke-linejoin:round;stroke:rgb(0%,0%,0%);stroke-opacity:1;stroke-miterlimit:3;" d="M 29.758161 1.440919 L 29.758161 26.948938 " transform="matrix(1.044805,0,0,1.062013,0.752265,-0.76465)"/>
<path style="fill:none;stroke-width:0.72;stroke-linecap:round;stroke-linejoin:round;stroke:rgb(0%,0%,0%);stroke-opacity:1;stroke-miterlimit:3;" d="M 34.020318 26.948938 L 34.020318 1.440919 " transform="matrix(1.044805,0,0,1.062013,0.752265,-0.76465)"/>
</g>
</svg>
