<?xml version="1.0" encoding="UTF-8"?>
<!--
/*******************************************************************************
* Copyright (c) 2010-2018 ITER Organization.
* All rights reserved. This program and the accompanying materials
* are made available under the terms of the Eclipse Public License v1.0
* which accompanies this distribution, and is available at
* http://www.eclipse.org/legal/epl-v10.html
******************************************************************************/
-->
<svg xmlns="http://www.w3.org/2000/svg" xmlns:xlink="http://www.w3.org/1999/xlink" width="29pt" height="29pt" viewBox="0 0 29 29" version="1.1">
<g id="surface1">
<path style="fill:none;stroke-width:1.345125;stroke-linecap:round;stroke-linejoin:round;stroke:rgb(0%,0%,0%);stroke-opacity:1;stroke-miterlimit:4;" d="M 0.665302 25.003125 L 9.192026 25.003125 " transform="matrix(0.575397,0,0,0.575397,0,0)"/>
<path style="fill:none;stroke-width:1.345125;stroke-linecap:round;stroke-linejoin:round;stroke:rgb(0%,0%,0%);stroke-opacity:1;stroke-miterlimit:4;" d="M 41.608513 25.003125 L 50.108082 25.003125 " transform="matrix(0.575397,0,0,0.575397,0,0)"/>
<path style="fill-rule:nonzero;fill:rgb(100%,100%,100%);fill-opacity:1;stroke-width:1.3504;stroke-linecap:round;stroke-linejoin:round;stroke:rgb(0%,0%,0%);stroke-opacity:1;stroke-miterlimit:4;" d="M 124.28069 48.283327 C 124.362475 41.686006 120.845721 35.552133 115.073065 32.233026 C 109.307225 28.91392 102.185117 28.91392 96.419277 32.233026 C 90.653436 35.552133 87.129867 41.686006 87.211652 48.283327 C 87.129867 54.887463 90.653436 61.021336 96.419277 64.340442 C 102.185117 67.659549 109.307225 67.659549 115.073065 64.340442 C 120.845721 61.021336 124.362475 54.887463 124.28069 48.283327 " transform="matrix(0.573149,0,0,0.573149,-45.993112,-13.060275)"/>
<path style="fill:none;stroke-width:1.3504;stroke-linecap:round;stroke-linejoin:round;stroke:rgb(0%,0%,0%);stroke-opacity:1;stroke-miterlimit:4;" d="M 96.180737 32.267104 L 121.48637 38.993917 " transform="matrix(0.573149,0,0,0.573149,-45.993112,-13.060275)"/>
<path style="fill:none;stroke-width:1.3504;stroke-linecap:round;stroke-linejoin:round;stroke:rgb(0%,0%,0%);stroke-opacity:1;stroke-miterlimit:4;" d="M 96.180737 64.095087 L 121.48637 57.368274 " transform="matrix(0.573149,0,0,0.573149,-45.993112,-13.060275)"/>
<path style=" stroke:none;fill-rule:evenodd;fill:rgb(100%,100%,100%);fill-opacity:1;" d="M 0.777344 0.777344 L 0.792969 0.777344 L 0.792969 0.792969 L 0.777344 0.792969 Z M 0.777344 0.777344 "/>
<path style=" stroke:none;fill-rule:evenodd;fill:rgb(100%,100%,100%);fill-opacity:1;" d="M 28.175781 28.175781 L 28.191406 28.175781 L 28.191406 28.191406 L 28.175781 28.191406 Z M 28.175781 28.175781 "/>
<path style="fill:none;stroke-width:1.622698;stroke-linecap:round;stroke-linejoin:round;stroke:rgb(0%,0%,0%);stroke-opacity:1;stroke-miterlimit:4;" d="M 28.417451 72.061059 C 28.425631 68.65818 26.977771 65.410721 24.441972 63.144861 " transform="matrix(0.477537,0,0,0.477537,6.75384,-19.794619)"/>
<path style="fill:none;stroke-width:1.622698;stroke-linecap:round;stroke-linejoin:round;stroke:rgb(0%,0%,0%);stroke-opacity:1;stroke-miterlimit:4;" d="M 24.441972 80.969077 C 26.977771 78.703218 28.417451 75.463939 28.417451 72.061059 " transform="matrix(0.477537,0,0,0.477537,6.75384,-19.794619)"/>
<path style="fill:none;stroke-width:1.622698;stroke-linecap:round;stroke-linejoin:round;stroke:rgb(0%,0%,0%);stroke-opacity:1;stroke-miterlimit:4;" d="M 8.490976 63.144861 C 5.946996 65.410721 4.507317 68.65818 4.507317 72.061059 " transform="matrix(0.477537,0,0,0.477537,6.75384,-19.794619)"/>
<path style="fill:none;stroke-width:1.622698;stroke-linecap:round;stroke-linejoin:round;stroke:rgb(0%,0%,0%);stroke-opacity:1;stroke-miterlimit:4;" d="M 4.507317 72.061059 C 4.507317 75.463939 5.955176 78.703218 8.490976 80.969077 " transform="matrix(0.477537,0,0,0.477537,6.75384,-19.794619)"/>
<path style="fill:none;stroke-width:1.622698;stroke-linecap:round;stroke-linejoin:round;stroke:rgb(0%,0%,0%);stroke-opacity:1;stroke-miterlimit:4;" d="M 28.417451 72.061059 L 4.507317 72.061059 " transform="matrix(0.477537,0,0,0.477537,6.75384,-19.794619)"/>
<path style=" stroke:none;fill-rule:evenodd;fill:rgb(100%,100%,100%);fill-opacity:1;" d="M 28.472656 28.710938 L 28.492188 28.710938 L 28.492188 28.730469 L 28.472656 28.730469 Z M 28.472656 28.710938 "/>
<path style=" stroke:none;fill-rule:evenodd;fill:rgb(100%,100%,100%);fill-opacity:1;" d="M 28.476562 28.703125 L 28.507812 28.703125 L 28.507812 28.730469 L 28.476562 28.730469 Z M 28.476562 28.703125 "/>
</g>
</svg>
