<?xml version="1.0" encoding="UTF-8"?>
<!--
/*******************************************************************************
* Copyright (c) 2010-2018 ITER Organization.
* All rights reserved. This program and the accompanying materials
* are made available under the terms of the Eclipse Public License v1.0
* which accompanies this distribution, and is available at
* http://www.eclipse.org/legal/epl-v10.html
******************************************************************************/
-->
<svg xmlns="http://www.w3.org/2000/svg" xmlns:xlink="http://www.w3.org/1999/xlink" width="29pt" height="29pt" viewBox="0 0 29 29" version="1.1">
<g id="surface1">
<path style="fill:none;stroke-width:1.345125;stroke-linecap:round;stroke-linejoin:round;stroke:rgb(0%,0%,0%);stroke-opacity:1;stroke-miterlimit:4;" d="M 0.665302 25.003125 L 9.192026 25.003125 " transform="matrix(0.575397,0,0,0.575397,0,0)"/>
<path style="fill:none;stroke-width:1.345125;stroke-linecap:round;stroke-linejoin:round;stroke:rgb(0%,0%,0%);stroke-opacity:1;stroke-miterlimit:4;" d="M 41.608513 25.003125 L 50.108082 25.003125 " transform="matrix(0.575397,0,0,0.575397,0,0)"/>
<path style="fill:none;stroke-width:1.3504;stroke-linecap:round;stroke-linejoin:round;stroke:rgb(0%,0%,0%);stroke-opacity:1;stroke-miterlimit:4;" d="M 0.667911 25.496464 L 9.228071 25.496464 " transform="matrix(0.573149,0,0,0.573149,0,0)"/>
<path style="fill:none;stroke-width:1.3504;stroke-linecap:round;stroke-linejoin:round;stroke:rgb(0%,0%,0%);stroke-opacity:1;stroke-miterlimit:4;" d="M 41.771673 25.496464 L 50.304572 25.496464 " transform="matrix(0.573149,0,0,0.573149,0,0)"/>
<path style=" stroke:none;fill-rule:evenodd;fill:rgb(65.098039%,65.098039%,65.098039%);fill-opacity:1;" d="M 28.449219 28.570312 L 28.464844 28.570312 L 28.464844 28.59375 L 28.449219 28.59375 Z M 28.449219 28.570312 "/>
<path style=" stroke:none;fill-rule:evenodd;fill:rgb(65.098039%,65.098039%,65.098039%);fill-opacity:1;" d="M 28.449219 28.566406 L 28.480469 28.566406 L 28.480469 28.59375 L 28.449219 28.59375 Z M 28.449219 28.566406 "/>
<path style=" stroke:none;fill-rule:evenodd;fill:rgb(65.098039%,65.098039%,65.098039%);fill-opacity:1;" d="M 0.75 0.636719 L 0.765625 0.636719 L 0.765625 0.652344 L 0.75 0.652344 Z M 0.75 0.636719 "/>
<path style=" stroke:none;fill-rule:evenodd;fill:rgb(65.098039%,65.098039%,65.098039%);fill-opacity:1;" d="M 28.148438 28.039062 L 28.164062 28.039062 L 28.164062 28.054688 L 28.148438 28.054688 Z M 28.148438 28.039062 "/>
<path style="fill-rule:nonzero;fill:rgb(65.098039%,65.098039%,65.098039%);fill-opacity:1;stroke-width:1.3504;stroke-linecap:round;stroke-linejoin:round;stroke:rgb(0%,0%,0%);stroke-opacity:1;stroke-miterlimit:4;" d="M 43.564127 25.128432 C 43.645912 18.524296 40.122343 12.390423 34.356503 9.071316 C 28.590662 5.75221 21.468554 5.75221 15.702714 9.071316 C 9.930058 12.390423 6.413305 18.524296 6.49509 25.128432 C 6.413305 31.725753 9.930058 37.85281 15.702714 41.178732 C 21.468554 44.497839 28.590662 44.497839 34.356503 41.178732 C 40.122343 37.85281 43.645912 31.725753 43.564127 25.128432 " transform="matrix(0.573149,0,0,0.573149,0,0)"/>
<path style=" stroke:none;fill-rule:evenodd;fill:rgb(65.098039%,65.098039%,65.098039%);fill-opacity:1;" d="M 0.75 0.636719 L 0.765625 0.636719 L 0.765625 0.652344 L 0.75 0.652344 Z M 0.75 0.636719 "/>
<path style=" stroke:none;fill-rule:evenodd;fill:rgb(65.098039%,65.098039%,65.098039%);fill-opacity:1;" d="M 28.148438 28.039062 L 28.164062 28.039062 L 28.164062 28.054688 L 28.148438 28.054688 Z M 28.148438 28.039062 "/>
<path style="fill-rule:nonzero;fill:rgb(65.098039%,65.098039%,65.098039%);fill-opacity:1;stroke-width:1.3504;stroke-linecap:round;stroke-linejoin:round;stroke:rgb(0%,0%,0%);stroke-opacity:1;stroke-miterlimit:4;" d="M 16.043485 40.722099 L 41.349117 33.995286 " transform="matrix(0.573149,0,0,0.573149,0,0)"/>
<path style="fill-rule:nonzero;fill:rgb(65.098039%,65.098039%,65.098039%);fill-opacity:1;stroke-width:1.3504;stroke-linecap:round;stroke-linejoin:round;stroke:rgb(0%,0%,0%);stroke-opacity:1;stroke-miterlimit:4;" d="M 15.825392 10.005028 L 41.131024 16.738657 " transform="matrix(0.573149,0,0,0.573149,0,0)"/>
</g>
</svg>
