<?xml version="1.0" encoding="UTF-8"?>
<!--
/*******************************************************************************
* Copyright (c) 2010-2018 ITER Organization.
* All rights reserved. This program and the accompanying materials
* are made available under the terms of the Eclipse Public License v1.0
* which accompanies this distribution, and is available at
* http://www.eclipse.org/legal/epl-v10.html
******************************************************************************/
-->
<svg xmlns="http://www.w3.org/2000/svg" xmlns:xlink="http://www.w3.org/1999/xlink" width="29pt" height="46pt" viewBox="0 0 29 46" version="1.1">
<g id="surface0">
<path style=" stroke:none;fill-rule:evenodd;fill:rgb(100%,100%,100%);fill-opacity:1;" d="M 23.34375 14.023438 C 23.34375 9.136719 19.300781 5.175781 14.3125 5.175781 C 9.320312 5.175781 5.277344 9.136719 5.277344 14.023438 C 5.277344 18.910156 9.320312 22.875 14.3125 22.875 C 19.300781 22.875 23.34375 18.910156 23.34375 14.023438 Z M 23.34375 14.023438 "/>
<path style="fill:none;stroke-width:0.72;stroke-linecap:round;stroke-linejoin:round;stroke:rgb(0%,0%,0%);stroke-opacity:1;stroke-miterlimit:3;" d="M 25.508955 31.200185 L 12.760443 43.958459 L 0.000895541 31.200185 " transform="matrix(1.062011,0,0,1.040379,0.764674,-0.749073)"/>
<path style="fill:none;stroke-width:0.72;stroke-linecap:round;stroke-linejoin:round;stroke:rgb(0%,0%,0%);stroke-opacity:1;stroke-miterlimit:3;" d="M 0.000895541 31.200185 L 0.000895541 1.440891 L 25.508955 1.440891 L 25.508955 31.200185 " transform="matrix(1.062011,0,0,1.040379,0.764674,-0.749073)"/>
<path style="fill:none;stroke-width:0.72;stroke-linecap:round;stroke-linejoin:round;stroke:rgb(0%,0%,0%);stroke-opacity:1;stroke-miterlimit:3;" d="M 21.260677 14.199165 C 21.260677 9.502108 17.453778 5.694901 12.756764 5.694901 C 8.056072 5.694901 4.249174 9.502108 4.249174 14.199165 C 4.249174 18.896223 8.056072 22.707185 12.756764 22.707185 C 17.453778 22.707185 21.260677 18.896223 21.260677 14.199165 " transform="matrix(1.062011,0,0,1.040379,0.764674,-0.749073)"/>
<path style="fill:none;stroke-width:0.72;stroke-linecap:round;stroke-linejoin:round;stroke:rgb(0%,0%,0%);stroke-opacity:1;stroke-miterlimit:3;" d="M 8.50113 8.240548 L 9.68182 6.269361 L 7.368256 6.269361 " transform="matrix(1.062011,0,0,1.040379,0.764674,-0.749073)"/>
</g>
</svg>
