<?xml version="1.0" encoding="UTF-8"?>
<!--
/*******************************************************************************
* Copyright (c) 2010-2018 ITER Organization.
* All rights reserved. This program and the accompanying materials
* are made available under the terms of the Eclipse Public License v1.0
* which accompanies this distribution, and is available at
* http://www.eclipse.org/legal/epl-v10.html
******************************************************************************/
-->
<svg xmlns="http://www.w3.org/2000/svg" xmlns:xlink="http://www.w3.org/1999/xlink" width="29pt" height="45pt" viewBox="0 0 29 45" version="1.1">
<g id="surface0">
<path style="fill:none;stroke-width:0.01;stroke-linecap:round;stroke-linejoin:round;stroke:rgb(100%,100%,100%);stroke-opacity:1;stroke-miterlimit:3;" d="M -0.000924359 43.222525 L 0.0285009 43.222525 L 0.0285009 43.24871 L -0.000924359 43.24871 Z M -0.000924359 43.222525 " transform="matrix(1.062011,0,0,1.044244,0.743169,-45.123165)"/>
<path style="fill:none;stroke-width:0.01;stroke-linecap:round;stroke-linejoin:round;stroke:rgb(100%,100%,100%);stroke-opacity:1;stroke-miterlimit:3;" d="M -0.000244543 43.222319 L 0.0291808 43.222319 L 0.0291808 43.248504 L -0.000244543 43.248504 Z M -0.000244543 43.222319 " transform="matrix(1.062011,0,0,1.044244,27.828385,-0.751856)"/>
<path style=" stroke:none;fill-rule:evenodd;fill:rgb(100%,100%,100%);fill-opacity:1;" d="M 14.316406 44.410156 L 27.855469 29.1875 L 27.855469 17.773438 L 0.765625 17.773438 L 0.765625 29.1875 Z M 14.316406 44.410156 "/>
<path style="fill:none;stroke-width:0.72;stroke-linecap:round;stroke-linejoin:round;stroke:rgb(0%,0%,0%);stroke-opacity:1;stroke-miterlimit:3;" d="M 12.760445 43.248504 L 25.508957 28.67083 L 25.508957 17.740379 L 0.000897674 17.740379 L 0.000897674 28.67083 L 12.760445 43.248504 " transform="matrix(1.062011,0,0,1.044244,0.764672,-0.751856)"/>
<path style="fill:none;stroke-width:0.72;stroke-linecap:round;stroke-linejoin:round;stroke:rgb(0%,0%,0%);stroke-opacity:1;stroke-miterlimit:3;" d="M 12.760445 28.37157 L 12.760445 17.740379 " transform="matrix(1.062011,0,0,1.044244,0.764672,-0.751856)"/>
<path style="fill:none;stroke-width:0.72;stroke-linecap:round;stroke-linejoin:round;stroke:rgb(0%,0%,0%);stroke-opacity:1;stroke-miterlimit:3;" d="M 6.378832 17.740379 L 6.378832 21.380122 " transform="matrix(1.062011,0,0,1.044244,0.764672,-0.751856)"/>
<path style="fill:none;stroke-width:0.72;stroke-linecap:round;stroke-linejoin:round;stroke:rgb(0%,0%,0%);stroke-opacity:1;stroke-miterlimit:3;" d="M 19.131023 17.740379 L 19.131023 21.380122 " transform="matrix(1.062011,0,0,1.044244,0.764672,-0.751856)"/>
<path style="fill:none;stroke-width:0.72;stroke-linecap:round;stroke-linejoin:round;stroke:rgb(0%,0%,0%);stroke-opacity:1;stroke-miterlimit:3;" d="M 6.378832 23.198123 L 6.378832 30.492571 " transform="matrix(1.062011,0,0,1.044244,0.764672,-0.751856)"/>
<path style="fill:none;stroke-width:0.72;stroke-linecap:round;stroke-linejoin:round;stroke:rgb(0%,0%,0%);stroke-opacity:1;stroke-miterlimit:3;" d="M 19.131023 30.492571 L 19.131023 23.198123 " transform="matrix(1.062011,0,0,1.044244,0.764672,-0.751856)"/>
</g>
</svg>
