<?xml version="1.0" encoding="UTF-8"?>
<!--
/*******************************************************************************
* Copyright (c) 2010-2018 ITER Organization.
* All rights reserved. This program and the accompanying materials
* are made available under the terms of the Eclipse Public License v1.0
* which accompanies this distribution, and is available at
* http://www.eclipse.org/legal/epl-v10.html
******************************************************************************/
-->
<svg xmlns="http://www.w3.org/2000/svg" xmlns:xlink="http://www.w3.org/1999/xlink" width="29pt" height="47pt" viewBox="0 0 29 47" version="1.1">
<g id="surface0">
<path style=" stroke:none;fill-rule:evenodd;fill:rgb(100%,100%,100%);fill-opacity:1;" d="M 28.15625 1.050781 L 1.0625 1.050781 L 1.0625 32.269531 L 14.613281 45.65625 L 28.15625 32.269531 Z M 28.15625 1.050781 "/>
<path style="fill:none;stroke-width:0.719999;stroke-linecap:round;stroke-linejoin:round;stroke:rgb(0%,0%,0%);stroke-opacity:1;stroke-miterlimit:3;" d="M 0.000461904 44.521297 L 25.512213 44.521297 " transform="matrix(1.062011,0,0,1.049106,1.062009,-45.65678)"/>
<path style="fill:none;stroke-width:0.719999;stroke-linecap:round;stroke-linejoin:round;stroke:rgb(0%,0%,0%);stroke-opacity:1;stroke-miterlimit:3;" d="M 25.512213 2.001589 L 0.000461904 2.001589 L 0.000461904 31.759067 L 12.760016 44.519187 L 25.512213 31.759067 Z M 25.512213 2.001589 " transform="matrix(1.062011,0,0,1.049106,1.062009,-1.049098)"/>
<path style="fill:none;stroke-width:0.719999;stroke-linecap:round;stroke-linejoin:round;stroke:rgb(0%,0%,0%);stroke-opacity:1;stroke-miterlimit:3;" d="M 0.000461904 2.001589 L 0.000461904 31.759067 L 12.760016 44.519187 L 25.512213 31.759067 " transform="matrix(1.062011,0,0,1.049106,1.062009,-1.049098)"/>
<path style="fill:none;stroke-width:0.719999;stroke-linecap:round;stroke-linejoin:round;stroke:rgb(0%,0%,0%);stroke-opacity:1;stroke-miterlimit:3;" d="M 0.000407908 14.761491 L 0.000407908 44.51897 " transform="matrix(1.062011,0,0,1.049106,28.155817,-14.435588)"/>
<path style="fill-rule:evenodd;fill:rgb(0%,0%,0%);fill-opacity:1;stroke-width:0.719999;stroke-linecap:round;stroke-linejoin:round;stroke:rgb(0%,0%,0%);stroke-opacity:1;stroke-miterlimit:3;" d="M 4.252414 42.393184 C 4.252414 41.220311 3.29977 40.267118 2.126435 40.267118 C 0.9531 40.267118 0.000455761 41.220311 0.000455761 42.393184 C 0.000455761 43.566058 0.9531 44.51925 2.126435 44.51925 C 3.29977 44.51925 4.252414 43.566058 4.252414 42.393184 Z M 4.252414 42.393184 " transform="matrix(1.062011,0,0,1.049106,12.351078,-7.74057)"/>
<path style="fill:none;stroke-width:0.719999;stroke-linecap:round;stroke-linejoin:round;stroke:rgb(0%,0%,0%);stroke-opacity:1;stroke-miterlimit:3;" d="M 4.248728 44.517243 L 0.000447283 34.601807 " transform="matrix(1.062011,0,0,1.049106,10.093275,-20.379089)"/>
<path style="fill:none;stroke-width:0.719999;stroke-linecap:round;stroke-linejoin:round;stroke:rgb(0%,0%,0%);stroke-opacity:1;stroke-miterlimit:3;" d="M -0.00127312 24.678924 L -0.00127312 44.517243 L 4.250685 34.601807 " transform="matrix(1.062011,0,0,1.049106,14.606821,-20.379089)"/>
</g>
</svg>
