<?xml version="1.0" encoding="UTF-8"?>
<!--
/*******************************************************************************
* Copyright (c) 2010-2018 ITER Organization.
* All rights reserved. This program and the accompanying materials
* are made available under the terms of the Eclipse Public License v1.0
* which accompanies this distribution, and is available at
* http://www.eclipse.org/legal/epl-v10.html
******************************************************************************/
-->
<svg xmlns="http://www.w3.org/2000/svg" xmlns:xlink="http://www.w3.org/1999/xlink" width="29pt" height="46pt" viewBox="0 0 29 46" version="1.1">
<g id="surface0">
<path style=" stroke:none;fill-rule:evenodd;fill:rgb(100%,100%,100%);fill-opacity:1;" d="M 23.207031 8.386719 L 5.566406 8.386719 L 5.566406 28.53125 L 14.390625 37.167969 L 23.207031 28.53125 Z M 23.207031 8.386719 "/>
<path style="fill:none;stroke-width:2.067999;stroke-linecap:round;stroke-linejoin:round;stroke:rgb(0%,0%,0%);stroke-opacity:1;stroke-miterlimit:4;" d="M 1.352288 1.341203 L 49.17779 1.341203 " transform="matrix(0.368854,0,0,0.363198,5.06761,7.899597)"/>
<path style="fill:none;stroke-width:2.067999;stroke-linecap:round;stroke-linejoin:round;stroke:rgb(0%,0%,0%);stroke-opacity:1;stroke-miterlimit:4;" d="M 49.17779 1.341203 L 1.352288 1.341203 L 1.352288 56.805539 L 25.275629 80.585188 L 49.17779 56.805539 L 49.17779 1.341203 " transform="matrix(0.368854,0,0,0.363198,5.06761,7.899597)"/>
<path style="fill:none;stroke-width:2.067999;stroke-linecap:round;stroke-linejoin:round;stroke:rgb(0%,0%,0%);stroke-opacity:1;stroke-miterlimit:4;" d="M 1.352288 1.341203 L 1.352288 56.805539 L 25.275629 80.585188 L 49.17779 56.805539 " transform="matrix(0.368854,0,0,0.363198,5.06761,7.899597)"/>
<path style="fill:none;stroke-width:2.067999;stroke-linecap:round;stroke-linejoin:round;stroke:rgb(0%,0%,0%);stroke-opacity:1;stroke-miterlimit:4;" d="M 25.275629 56.805539 L 25.275629 17.183547 " transform="matrix(0.368854,0,0,0.363198,5.06761,7.899597)"/>
<path style="fill:none;stroke-width:2.067999;stroke-linecap:round;stroke-linejoin:round;stroke:rgb(0%,0%,0%);stroke-opacity:1;stroke-miterlimit:4;" d="M 49.17779 1.341203 L 49.17779 56.805539 " transform="matrix(0.368854,0,0,0.363198,5.06761,7.899597)"/>
</g>
</svg>
