<?xml version="1.0" encoding="UTF-8"?>
<!--
/*******************************************************************************
* Copyright (c) 2010-2018 ITER Organization.
* All rights reserved. This program and the accompanying materials
* are made available under the terms of the Eclipse Public License v1.0
* which accompanies this distribution, and is available at
* http://www.eclipse.org/legal/epl-v10.html
******************************************************************************/
-->
<svg xmlns="http://www.w3.org/2000/svg" xmlns:xlink="http://www.w3.org/1999/xlink" width="48pt" height="57pt" viewBox="0 0 48 57" version="1.1">
<g id="surface0">
<path style=" stroke:none;fill-rule:evenodd;fill:rgb(100%,100%,100%);fill-opacity:1;" d="M 0.785156 0.777344 L 0.800781 0.777344 L 0.800781 0.792969 L 0.785156 0.792969 Z M 0.785156 0.777344 "/>
<path style=" stroke:none;fill-rule:evenodd;fill:rgb(100%,100%,100%);fill-opacity:1;" d="M 47.066406 55.765625 L 47.082031 55.765625 L 47.082031 55.78125 L 47.066406 55.78125 Z M 47.066406 55.765625 "/>
<path style="fill-rule:evenodd;fill:rgb(100%,100%,100%);fill-opacity:1;stroke-width:0.72;stroke-linecap:round;stroke-linejoin:round;stroke:rgb(0%,0%,0%);stroke-opacity:1;stroke-miterlimit:3;" d="M 0.000765671 9.977146 L 25.513927 9.977146 L 25.513927 52.496094 L 0.000765671 52.496094 Z M 0.000765671 9.977146 " transform="matrix(1.088286,0,0,1.077369,9.342917,-5.366255)"/>
<path style="fill:none;stroke-width:0.72;stroke-linecap:round;stroke-linejoin:round;stroke:rgb(0%,0%,0%);stroke-opacity:1;stroke-miterlimit:3;" d="M -0.000605745 52.497661 L 42.521967 52.497661 " transform="matrix(0.000000000000000067,-1.077369,1.088286,0.000000000000000066,-43.159832,51.190754)"/>
<path style="fill:none;stroke-width:0.72;stroke-linecap:round;stroke-linejoin:round;stroke:rgb(0%,0%,0%);stroke-opacity:1;stroke-dasharray:5.04,3.6;stroke-miterlimit:3;" d="M -0.00140376 52.498228 L 21.261957 52.498228 " transform="matrix(1.088286,0,0,1.077369,13.970278,-28.270898)"/>
<path style="fill:none;stroke-width:0.72;stroke-linecap:round;stroke-linejoin:round;stroke:rgb(0%,0%,0%);stroke-opacity:1;stroke-dasharray:5.04,3.6;stroke-miterlimit:3;" d="M -0.00140376 52.501446 L 21.261957 52.501446 " transform="matrix(1.088286,0,0,1.077369,13.970278,-46.594678)"/>
<path style="fill:none;stroke-width:0.72;stroke-linecap:round;stroke-linejoin:round;stroke:rgb(0%,0%,0%);stroke-opacity:1;stroke-dasharray:5.04,3.6;stroke-miterlimit:3;" d="M -0.00140376 52.498706 L 21.261957 52.498706 " transform="matrix(1.088286,0,0,1.077369,13.970278,-9.947195)"/>
<path style="fill:none;stroke-width:0.72;stroke-linecap:round;stroke-linejoin:round;stroke:rgb(0%,0%,0%);stroke-opacity:1;stroke-dasharray:5.04,3.6;stroke-miterlimit:3;" d="M -0.00140376 52.499887 L 21.261957 52.499887 " transform="matrix(1.088286,0,0,1.077369,13.970278,-37.432842)"/>
<path style="fill:none;stroke-width:0.72;stroke-linecap:round;stroke-linejoin:round;stroke:rgb(0%,0%,0%);stroke-opacity:1;stroke-dasharray:5.04,3.6;stroke-miterlimit:3;" d="M -0.00140376 52.500295 L 21.261957 52.500295 " transform="matrix(1.088286,0,0,1.077369,13.970278,-19.109063)"/>
</g>
</svg>
