<?xml version="1.0" encoding="UTF-8"?>
<!--
/*******************************************************************************
* Copyright (c) 2010-2018 ITER Organization.
* All rights reserved. This program and the accompanying materials
* are made available under the terms of the Eclipse Public License v1.0
* which accompanies this distribution, and is available at
* http://www.eclipse.org/legal/epl-v10.html
******************************************************************************/
-->
<svg xmlns="http://www.w3.org/2000/svg" xmlns:xlink="http://www.w3.org/1999/xlink" width="29pt" height="45pt" viewBox="0 0 29 45" version="1.1">
<g id="surface0">
<path style=" stroke:none;fill-rule:evenodd;fill:rgb(100%,100%,100%);fill-opacity:1;" d="M 0.96875 44.726562 L 28.0625 44.726562 L 28.0625 0.324219 L 0.96875 0.324219 Z M 0.96875 44.726562 "/>
<path style="fill:none;stroke-width:0.72;stroke-linecap:round;stroke-linejoin:round;stroke:rgb(0%,0%,0%);stroke-opacity:1;stroke-miterlimit:3;" d="M 0.912184 42.831496 L 26.423922 42.831496 L 26.423922 0.310473 L 0.912184 0.310473 L 0.912184 42.831496 " transform="matrix(1.062011,0,0,1.044244,0,0.00000909106)"/>
<path style="fill:none;stroke-width:0.72;stroke-linecap:round;stroke-linejoin:round;stroke:rgb(0%,0%,0%);stroke-opacity:1;stroke-miterlimit:3;" d="M 17.923688 8.80944 L 9.412419 8.80944 " transform="matrix(1.062011,0,0,1.044244,0,0.00000909106)"/>
<path style="fill:none;stroke-width:0.72;stroke-linecap:round;stroke-linejoin:round;stroke:rgb(0%,0%,0%);stroke-opacity:1;stroke-miterlimit:3;" d="M 26.423922 8.80944 L 22.171966 8.80944 " transform="matrix(1.062011,0,0,1.044244,0,0.00000909106)"/>
<path style="fill:none;stroke-width:0.72;stroke-linecap:round;stroke-linejoin:round;stroke:rgb(0%,0%,0%);stroke-opacity:1;stroke-miterlimit:3;" d="M 0.912184 7.387958 L 0.912184 35.739047 " transform="matrix(1.062011,0,0,1.044244,0,0.00000909106)"/>
<path style="fill:none;stroke-width:0.72;stroke-linecap:round;stroke-linejoin:round;stroke:rgb(0%,0%,0%);stroke-opacity:1;stroke-miterlimit:3;" d="M 0.912184 34.321306 L 5.164141 34.321306 " transform="matrix(1.062011,0,0,1.044244,0,0.00000909106)"/>
<path style="fill:none;stroke-width:0.72;stroke-linecap:round;stroke-linejoin:round;stroke:rgb(0%,0%,0%);stroke-opacity:1;stroke-miterlimit:3;" d="M 0.912184 8.80944 L 5.164141 8.80944 " transform="matrix(1.062011,0,0,1.044244,0,0.00000909106)"/>
<path style="fill:none;stroke-width:0.72;stroke-linecap:round;stroke-linejoin:round;stroke:rgb(0%,0%,0%);stroke-opacity:1;stroke-miterlimit:3;" d="M 26.423922 7.387958 L 26.423922 0.310473 L 0.912184 0.310473 L 0.912184 7.387958 " transform="matrix(1.062011,0,0,1.044244,0,0.00000909106)"/>
<path style="fill:none;stroke-width:0.72;stroke-linecap:round;stroke-linejoin:round;stroke:rgb(0%,0%,0%);stroke-opacity:1;stroke-miterlimit:3;" d="M 17.923688 34.321306 L 9.412419 34.321306 " transform="matrix(1.062011,0,0,1.044244,0,0.00000909106)"/>
<path style="fill:none;stroke-width:0.72;stroke-linecap:round;stroke-linejoin:round;stroke:rgb(0%,0%,0%);stroke-opacity:1;stroke-miterlimit:3;" d="M 26.423922 34.321306 L 22.171966 34.321306 " transform="matrix(1.062011,0,0,1.044244,0,0.00000909106)"/>
<path style="fill:none;stroke-width:0.72;stroke-linecap:round;stroke-linejoin:round;stroke:rgb(0%,0%,0%);stroke-opacity:1;stroke-miterlimit:3;" d="M 26.423922 35.739047 L 26.423922 7.387958 " transform="matrix(1.062011,0,0,1.044244,0,0.00000909106)"/>
<path style="fill:none;stroke-width:0.72;stroke-linecap:round;stroke-linejoin:round;stroke:rgb(0%,0%,0%);stroke-opacity:1;stroke-miterlimit:3;" d="M 0.912184 35.739047 L 0.912184 42.831496 " transform="matrix(1.062011,0,0,1.044244,0,0.00000909106)"/>
<path style="fill:none;stroke-width:0.72;stroke-linecap:round;stroke-linejoin:round;stroke:rgb(0%,0%,0%);stroke-opacity:1;stroke-miterlimit:3;" d="M 0.912184 42.831496 L 26.423922 42.831496 L 26.423922 35.739047 " transform="matrix(1.062011,0,0,1.044244,0,0.00000909106)"/>
</g>
</svg>
