<?xml version="1.0" encoding="UTF-8"?>
<!--
/*******************************************************************************
* Copyright (c) 2010-2018 ITER Organization.
* All rights reserved. This program and the accompanying materials
* are made available under the terms of the Eclipse Public License v1.0
* which accompanies this distribution, and is available at
* http://www.eclipse.org/legal/epl-v10.html
******************************************************************************/
-->
<svg xmlns="http://www.w3.org/2000/svg" xmlns:xlink="http://www.w3.org/1999/xlink" width="29pt" height="29pt" viewBox="0 0 29 29" version="1.1">
<g id="surface1">
<path style="fill:none;stroke-width:1.5;stroke-linecap:butt;stroke-linejoin:round;stroke:rgb(0%,0%,0%);stroke-opacity:1;stroke-miterlimit:3;" d="M 0 25.003125 L 7.997198 25.003125 " transform="matrix(0.575397,0,0,0.575397,0,0)"/>
<path style="fill:none;stroke-width:1.5;stroke-linecap:butt;stroke-linejoin:round;stroke:rgb(0%,0%,0%);stroke-opacity:1;stroke-miterlimit:3;" d="M 42.002263 25.003125 L 49.999461 25.003125 " transform="matrix(0.575397,0,0,0.575397,0,0)"/>
<path style="fill-rule:nonzero;fill:rgb(100%,100%,100%);fill-opacity:1;stroke-width:1.5;stroke-linecap:butt;stroke-linejoin:miter;stroke:rgb(0%,0%,0%);stroke-opacity:1;stroke-miterlimit:4;" d="M 41.34375 25.064224 C 41.34375 16.028341 34.039009 8.703233 25.023491 8.703233 C 16.007974 8.703233 8.703233 16.028341 8.703233 25.064224 C 8.703233 34.100108 16.007974 41.425216 25.023491 41.425216 C 34.039009 41.425216 41.34375 34.100108 41.34375 25.064224 Z M 41.34375 25.064224 " transform="matrix(0.575397,0,0,0.575397,0,0)"/>
<path style="fill:none;stroke-width:0.919938;stroke-linecap:round;stroke-linejoin:round;stroke:rgb(0%,0%,0%);stroke-opacity:1;stroke-miterlimit:4;" d="M 21.260938 14.201036 C 18.637926 15.862277 15.53611 16.095434 12.97555 14.817236 C 10.419154 13.534874 8.741259 10.916026 8.499775 7.818373 " transform="matrix(0.93821,0,0,0.93821,1.459016,1.067064)"/>
<path style="fill:none;stroke-width:0.919938;stroke-linecap:round;stroke-linejoin:round;stroke:rgb(0%,0%,0%);stroke-opacity:1;stroke-miterlimit:4;" d="M 8.499775 20.571209 C 9.665558 13.651453 15.023998 10.974315 21.260938 14.201036 " transform="matrix(0.93821,0,0,0.93821,1.459016,1.067064)"/>
<path style="fill:none;stroke-width:0.919938;stroke-linecap:round;stroke-linejoin:round;stroke:rgb(0%,0%,0%);stroke-opacity:1;stroke-miterlimit:4;" d="M 8.499775 20.571209 C 10.906285 20.221474 12.734066 17.469393 12.734066 14.196873 C 12.734066 10.920189 10.906285 8.168108 8.499775 7.818373 " transform="matrix(0.93821,0,0,0.93821,1.459016,1.067064)"/>
<path style="fill:none;stroke-width:1.5;stroke-linecap:butt;stroke-linejoin:miter;stroke:rgb(0%,0%,0%);stroke-opacity:1;stroke-miterlimit:4;" d="M 16.849784 38.92694 L 40.997522 27.996983 " transform="matrix(0.575397,0,0,0.575397,0,0)"/>
<path style="fill:none;stroke-width:1.5;stroke-linecap:butt;stroke-linejoin:miter;stroke:rgb(0%,0%,0%);stroke-opacity:1;stroke-miterlimit:4;" d="M 17.223168 10.624461 L 41.221552 22.301185 " transform="matrix(0.575397,0,0,0.575397,0,0)"/>
</g>
</svg>
