<?xml version="1.0" encoding="UTF-8"?>
<!--
/*******************************************************************************
* Copyright (c) 2010-2018 ITER Organization.
* All rights reserved. This program and the accompanying materials
* are made available under the terms of the Eclipse Public License v1.0
* which accompanies this distribution, and is available at
* http://www.eclipse.org/legal/epl-v10.html
******************************************************************************/
-->
<svg xmlns="http://www.w3.org/2000/svg" xmlns:xlink="http://www.w3.org/1999/xlink" width="93pt" height="76pt" viewBox="0 0 93 76" version="1.1">
<g id="surface1">
<path style=" stroke:none;fill-rule:evenodd;fill:rgb(100%,100%,100%);fill-opacity:1;" d="M 1.066406 74.519531 L 91.652344 74.519531 L 91.652344 1.078125 L 1.066406 1.078125 Z M 1.066406 74.519531 "/>
<path style="fill:none;stroke-width:1;stroke-linecap:round;stroke-linejoin:round;stroke:rgb(0%,0%,0%);stroke-opacity:1;stroke-miterlimit:3;" d="M 0.0000388113 2.002184 L 85.037356 2.002184 L 85.037356 70.032336 L 0.0000388113 70.032336 Z M 0.0000388113 2.002184 " transform="matrix(1.065203,0,0,1.079542,1.367146,-1.07941)"/>
<path style="fill:none;stroke-width:1;stroke-linecap:round;stroke-linejoin:round;stroke:rgb(0%,0%,0%);stroke-opacity:1;stroke-miterlimit:3;" d="M 0.00112936 70.030215 L 34.871967 70.029452 " transform="matrix(1.065203,-0.000424461,0.000418823,1.079542,1.035873,-27.444308)"/>
<path style="fill:none;stroke-width:1;stroke-linecap:round;stroke-linejoin:round;stroke:rgb(0%,0%,0%);stroke-opacity:1;stroke-miterlimit:3;" d="M -0.00122266 70.030313 L 33.839148 70.029183 " transform="matrix(1.065203,0.000151482,-0.00014947,1.079542,55.425832,-27.338945)"/>
<path style="fill:none;stroke-width:1;stroke-linecap:round;stroke-linejoin:round;stroke:rgb(0%,0%,0%);stroke-opacity:1;stroke-miterlimit:3;" d="M 0.00112931 70.030743 L 33.218086 70.030743 " transform="matrix(1.065203,0,0,1.079542,1.065203,-50.792535)"/>
<path style="fill:none;stroke-width:1;stroke-linecap:round;stroke-linejoin:round;stroke:rgb(0%,0%,0%);stroke-opacity:1;stroke-miterlimit:3;" d="M 0.000530664 70.029056 L 32.608743 70.031717 " transform="matrix(1.065203,0.000151482,-0.00014947,1.079542,56.689589,-50.724307)"/>
<path style=" stroke:none;fill-rule:evenodd;fill:rgb(100%,100%,100%);fill-opacity:1;" d="M 1.066406 1.078125 L 1.121094 1.078125 L 1.121094 1.125 L 1.066406 1.125 Z M 1.066406 1.078125 "/>
<path style=" stroke:none;fill-rule:evenodd;fill:rgb(100%,100%,100%);fill-opacity:1;" d="M 91.59375 74.476562 L 91.648438 74.476562 L 91.648438 74.523438 L 91.59375 74.523438 Z M 91.59375 74.476562 "/>
<path style="fill:none;stroke-width:1;stroke-linecap:round;stroke-linejoin:round;stroke:rgb(0%,0%,0%);stroke-opacity:1;stroke-miterlimit:3;" d="M 1.408726 70.030922 C -2.481089 63.246712 -0.176148 54.573925 6.561374 50.661087 " transform="matrix(0.000000000000000065,1.079542,-1.065203,0.000000000000000066,113.757326,21.737034)"/>
<path style="fill:none;stroke-width:1;stroke-linecap:round;stroke-linejoin:round;stroke:rgb(0%,0%,0%);stroke-opacity:1;stroke-miterlimit:3;" d="M 24.36947 62.937387 C 21.858277 67.326954 17.21221 70.025969 12.186207 70.025969 C 7.156586 70.025969 2.514137 67.326954 -0.000674121 62.937387 " transform="matrix(0.000000000000000065,1.079542,-1.065203,0.000000000000000066,106.209082,23.25854)"/>
<path style="fill:none;stroke-width:1;stroke-linecap:round;stroke-linejoin:round;stroke:rgb(0%,0%,0%);stroke-opacity:1;stroke-miterlimit:3;" d="M 5.148356 50.661087 L -0.000674121 70.030922 " transform="matrix(0.000000000000000065,1.079542,-1.065203,0.000000000000000066,113.757326,23.25854)"/>
<path style="fill:none;stroke-width:1;stroke-linecap:round;stroke-linejoin:round;stroke:rgb(0%,0%,0%);stroke-opacity:1;stroke-miterlimit:3;" d="M 0.000540114 50.661087 C 6.734443 54.573925 9.043003 63.246712 5.14957 70.030922 " transform="matrix(0.000000000000000065,1.079542,-1.065203,0.000000000000000066,113.757326,44.007229)"/>
<path style="fill:none;stroke-width:1;stroke-linecap:round;stroke-linejoin:round;stroke:rgb(0%,0%,0%);stroke-opacity:1;stroke-miterlimit:3;" d="M 0.000540114 50.661087 L 5.14957 70.030922 " transform="matrix(0.000000000000000065,1.079542,-1.065203,0.000000000000000066,113.757326,44.007229)"/>
<path style="fill:none;stroke-width:1;stroke-linecap:round;stroke-linejoin:round;stroke:rgb(0%,0%,0%);stroke-opacity:1;stroke-miterlimit:3;" d="M -0.0015447 70.031087 C 4.355048 67.497093 9.717565 67.497093 14.07054 70.031087 " transform="matrix(0.000000000000000065,1.079542,-1.065203,0.000000000000000066,134.390314,28.818074)"/>
<path style="fill:none;stroke-width:1;stroke-linecap:round;stroke-linejoin:round;stroke:rgb(0%,0%,0%);stroke-opacity:1;stroke-miterlimit:3;" d="M 8.498256 55.718435 L 10.907567 58.128311 L 0.00149197 58.128311 L 0.00149197 70.029336 " transform="matrix(1.065203,0,0,1.079542,20.006223,-27.396485)"/>
<path style="fill:none;stroke-width:1;stroke-linecap:round;stroke-linejoin:round;stroke:rgb(0%,0%,0%);stroke-opacity:1;stroke-miterlimit:3;" d="M -0.00150347 70.02967 L 3.308295 70.028617 " transform="matrix(-0.753212,0.763351,-0.753212,-0.763351,84.304666,89.040432)"/>
<path style="fill:none;stroke-width:1;stroke-linecap:round;stroke-linejoin:round;stroke:rgb(0%,0%,0%);stroke-opacity:1;stroke-miterlimit:3;" d="M -0.000473587 70.032306 L 10.359198 70.032306 L 10.428873 58.898389 L 7.520831 61.800371 " transform="matrix(1.065203,0,0,1.079542,61.813004,-38.637972)"/>
<path style="fill:none;stroke-width:1;stroke-linecap:round;stroke-linejoin:round;stroke:rgb(0%,0%,0%);stroke-opacity:1;stroke-miterlimit:3;" d="M -0.00171998 70.029777 L 3.912778 70.029135 " transform="matrix(-0.772249,-0.743559,0.733682,-0.782644,24.486255,82.43601)"/>
<path style=" stroke:none;fill-rule:nonzero;fill:rgb(0%,0%,0%);fill-opacity:1;" d="M 29.769531 9.808594 L 30.375 9.964844 C 30.246094 10.46875 30.015625 10.855469 29.691406 11.121094 C 29.359375 11.382812 28.957031 11.511719 28.480469 11.515625 C 27.988281 11.511719 27.585938 11.414062 27.277344 11.210938 C 26.96875 11.007812 26.730469 10.714844 26.570312 10.328125 C 26.410156 9.941406 26.328125 9.527344 26.332031 9.082031 C 26.328125 8.601562 26.421875 8.179688 26.601562 7.820312 C 26.78125 7.460938 27.042969 7.1875 27.378906 7 C 27.714844 6.816406 28.085938 6.71875 28.492188 6.71875 C 28.949219 6.71875 29.335938 6.839844 29.644531 7.074219 C 29.957031 7.3125 30.171875 7.644531 30.296875 8.070312 L 29.703125 8.214844 C 29.59375 7.878906 29.441406 7.632812 29.242188 7.476562 C 29.039062 7.324219 28.785156 7.246094 28.476562 7.246094 C 28.125 7.246094 27.832031 7.332031 27.59375 7.503906 C 27.359375 7.671875 27.191406 7.902344 27.097656 8.191406 C 27 8.480469 26.953125 8.777344 26.953125 9.078125 C 26.953125 9.476562 27.011719 9.820312 27.125 10.113281 C 27.238281 10.410156 27.414062 10.628906 27.652344 10.773438 C 27.890625 10.917969 28.152344 10.992188 28.429688 10.992188 C 28.769531 10.992188 29.054688 10.890625 29.292969 10.695312 C 29.527344 10.496094 29.6875 10.203125 29.769531 9.808594 Z M 29.769531 9.808594 "/>
<path style=" stroke:none;fill-rule:nonzero;fill:rgb(0%,0%,0%);fill-opacity:1;" d="M 30.9375 9.179688 C 30.9375 8.410156 31.136719 7.808594 31.546875 7.371094 C 31.953125 6.9375 32.480469 6.71875 33.128906 6.71875 C 33.550781 6.71875 33.929688 6.824219 34.269531 7.027344 C 34.609375 7.234375 34.867188 7.515625 35.042969 7.878906 C 35.21875 8.246094 35.308594 8.664062 35.3125 9.125 C 35.308594 9.597656 35.214844 10.015625 35.03125 10.386719 C 34.84375 10.757812 34.578125 11.039062 34.234375 11.230469 C 33.890625 11.421875 33.523438 11.511719 33.125 11.515625 C 32.695312 11.511719 32.308594 11.410156 31.96875 11.199219 C 31.628906 10.988281 31.371094 10.699219 31.199219 10.335938 C 31.023438 9.972656 30.9375 9.585938 30.9375 9.179688 Z M 31.5625 9.1875 C 31.558594 9.746094 31.707031 10.1875 32.007812 10.511719 C 32.300781 10.832031 32.675781 10.992188 33.121094 10.992188 C 33.574219 10.992188 33.949219 10.828125 34.246094 10.503906 C 34.539062 10.179688 34.6875 9.71875 34.6875 9.121094 C 34.6875 8.746094 34.625 8.414062 34.5 8.136719 C 34.371094 7.855469 34.1875 7.636719 33.949219 7.480469 C 33.703125 7.324219 33.429688 7.246094 33.128906 7.246094 C 32.699219 7.246094 32.332031 7.398438 32.023438 7.695312 C 31.714844 7.996094 31.558594 8.492188 31.5625 9.1875 Z M 31.5625 9.1875 "/>
<path style=" stroke:none;fill-rule:nonzero;fill:rgb(0%,0%,0%);fill-opacity:1;" d="M 36.085938 11.4375 L 36.085938 6.800781 L 36.707031 6.800781 L 39.109375 10.441406 L 39.109375 6.800781 L 39.691406 6.800781 L 39.691406 11.4375 L 39.070312 11.4375 L 36.664062 7.792969 L 36.664062 11.4375 Z M 36.085938 11.4375 "/>
<path style=" stroke:none;fill-rule:nonzero;fill:rgb(0%,0%,0%);fill-opacity:1;" d="M 40.707031 11.4375 L 40.707031 6.800781 L 42.285156 6.800781 C 42.636719 6.800781 42.910156 6.824219 43.097656 6.867188 C 43.359375 6.929688 43.582031 7.039062 43.769531 7.199219 C 44.007812 7.40625 44.1875 7.671875 44.3125 7.992188 C 44.429688 8.316406 44.488281 8.679688 44.492188 9.09375 C 44.488281 9.445312 44.449219 9.757812 44.367188 10.03125 C 44.285156 10.304688 44.183594 10.527344 44.054688 10.707031 C 43.929688 10.882812 43.789062 11.023438 43.640625 11.125 C 43.488281 11.230469 43.308594 11.308594 43.09375 11.359375 C 42.878906 11.410156 42.636719 11.4375 42.359375 11.4375 Z M 41.3125 10.890625 L 42.289062 10.890625 C 42.589844 10.890625 42.828125 10.863281 43 10.804688 C 43.171875 10.75 43.308594 10.667969 43.410156 10.5625 C 43.550781 10.417969 43.664062 10.222656 43.746094 9.976562 C 43.824219 9.730469 43.863281 9.433594 43.867188 9.082031 C 43.863281 8.601562 43.785156 8.226562 43.628906 7.964844 C 43.472656 7.707031 43.28125 7.53125 43.058594 7.441406 C 42.894531 7.378906 42.632812 7.347656 42.273438 7.347656 L 41.3125 7.347656 Z M 41.3125 10.890625 "/>
<path style=" stroke:none;fill-rule:nonzero;fill:rgb(0%,0%,0%);fill-opacity:1;" d="M 45.335938 11.4375 L 45.335938 6.800781 L 48.644531 6.800781 L 48.644531 7.347656 L 45.941406 7.347656 L 45.941406 8.765625 L 48.472656 8.765625 L 48.472656 9.3125 L 45.941406 9.3125 L 45.941406 10.890625 L 48.75 10.890625 L 48.75 11.4375 Z M 45.335938 11.4375 "/>
<path style=" stroke:none;fill-rule:nonzero;fill:rgb(0%,0%,0%);fill-opacity:1;" d="M 49.582031 11.4375 L 49.582031 6.800781 L 50.203125 6.800781 L 52.605469 10.441406 L 52.605469 6.800781 L 53.183594 6.800781 L 53.183594 11.4375 L 52.5625 11.4375 L 50.160156 7.792969 L 50.160156 11.4375 Z M 49.582031 11.4375 "/>
<path style=" stroke:none;fill-rule:nonzero;fill:rgb(0%,0%,0%);fill-opacity:1;" d="M 53.996094 9.949219 L 54.570312 9.894531 C 54.59375 10.128906 54.65625 10.320312 54.753906 10.46875 C 54.851562 10.617188 55.007812 10.738281 55.214844 10.828125 C 55.421875 10.917969 55.65625 10.964844 55.917969 10.964844 C 56.148438 10.964844 56.351562 10.929688 56.53125 10.859375 C 56.707031 10.792969 56.835938 10.699219 56.921875 10.574219 C 57.011719 10.457031 57.054688 10.324219 57.054688 10.175781 C 57.054688 10.03125 57.011719 9.90625 56.929688 9.796875 C 56.84375 9.6875 56.707031 9.597656 56.519531 9.523438 C 56.394531 9.476562 56.121094 9.402344 55.703125 9.296875 C 55.28125 9.195312 54.988281 9.101562 54.820312 9.007812 C 54.601562 8.894531 54.4375 8.75 54.332031 8.574219 C 54.222656 8.40625 54.171875 8.214844 54.171875 7.996094 C 54.171875 7.765625 54.234375 7.546875 54.367188 7.34375 C 54.496094 7.140625 54.6875 6.984375 54.941406 6.878906 C 55.191406 6.773438 55.472656 6.71875 55.78125 6.71875 C 56.117188 6.71875 56.417969 6.777344 56.675781 6.886719 C 56.933594 7 57.136719 7.164062 57.273438 7.375 C 57.414062 7.59375 57.488281 7.835938 57.5 8.105469 L 56.921875 8.152344 C 56.890625 7.859375 56.785156 7.636719 56.601562 7.488281 C 56.421875 7.339844 56.15625 7.265625 55.804688 7.261719 C 55.4375 7.265625 55.171875 7.332031 55.003906 7.46875 C 54.835938 7.605469 54.753906 7.769531 54.753906 7.957031 C 54.753906 8.125 54.8125 8.261719 54.933594 8.367188 C 55.046875 8.480469 55.351562 8.589844 55.84375 8.699219 C 56.332031 8.8125 56.671875 8.910156 56.859375 8.992188 C 57.121094 9.121094 57.316406 9.28125 57.445312 9.46875 C 57.570312 9.660156 57.636719 9.878906 57.636719 10.128906 C 57.636719 10.375 57.566406 10.609375 57.429688 10.824219 C 57.289062 11.046875 57.089844 11.214844 56.828125 11.332031 C 56.566406 11.453125 56.269531 11.511719 55.945312 11.515625 C 55.53125 11.511719 55.183594 11.453125 54.90625 11.332031 C 54.625 11.210938 54.402344 11.027344 54.246094 10.78125 C 54.085938 10.535156 54.003906 10.257812 53.996094 9.949219 Z M 53.996094 9.949219 "/>
<path style=" stroke:none;fill-rule:nonzero;fill:rgb(0%,0%,0%);fill-opacity:1;" d="M 58.476562 11.4375 L 58.476562 6.800781 L 61.785156 6.800781 L 61.785156 7.347656 L 59.082031 7.347656 L 59.082031 8.765625 L 61.613281 8.765625 L 61.613281 9.3125 L 59.082031 9.3125 L 59.082031 10.890625 L 61.890625 10.890625 L 61.890625 11.4375 Z M 58.476562 11.4375 "/>
<path style=" stroke:none;fill-rule:nonzero;fill:rgb(0%,0%,0%);fill-opacity:1;" d="M 62.738281 11.4375 L 62.738281 6.800781 L 64.765625 6.800781 C 65.171875 6.800781 65.484375 6.84375 65.695312 6.925781 C 65.90625 7.011719 66.078125 7.15625 66.203125 7.367188 C 66.332031 7.578125 66.394531 7.8125 66.394531 8.066406 C 66.394531 8.394531 66.289062 8.671875 66.078125 8.898438 C 65.867188 9.125 65.546875 9.269531 65.105469 9.328125 C 65.265625 9.40625 65.386719 9.484375 65.472656 9.558594 C 65.644531 9.722656 65.8125 9.925781 65.972656 10.175781 L 66.769531 11.4375 L 66.007812 11.4375 L 65.402344 10.472656 C 65.222656 10.191406 65.078125 9.980469 64.964844 9.832031 C 64.851562 9.6875 64.75 9.585938 64.660156 9.523438 C 64.566406 9.464844 64.472656 9.421875 64.382812 9.398438 C 64.3125 9.386719 64.199219 9.378906 64.042969 9.378906 L 63.34375 9.378906 L 63.34375 11.4375 Z M 63.34375 8.84375 L 64.644531 8.84375 C 64.917969 8.84375 65.136719 8.820312 65.292969 8.761719 C 65.449219 8.703125 65.566406 8.609375 65.648438 8.480469 C 65.726562 8.355469 65.769531 8.21875 65.769531 8.066406 C 65.769531 7.847656 65.691406 7.667969 65.535156 7.523438 C 65.378906 7.386719 65.128906 7.3125 64.789062 7.3125 L 63.34375 7.3125 Z M 63.34375 8.84375 "/>
<path style=" stroke:none;fill-rule:nonzero;fill:rgb(0%,0%,0%);fill-opacity:1;" d="M 24.625 61.929688 L 24.625 57.292969 L 27.933594 57.292969 L 27.933594 57.839844 L 25.230469 57.839844 L 25.230469 59.261719 L 27.761719 59.261719 L 27.761719 59.804688 L 25.230469 59.804688 L 25.230469 61.382812 L 28.039062 61.382812 L 28.039062 61.929688 Z M 24.625 61.929688 "/>
<path style=" stroke:none;fill-rule:nonzero;fill:rgb(0%,0%,0%);fill-opacity:1;" d="M 30.183594 61.929688 L 28.414062 57.292969 L 29.066406 57.292969 L 30.253906 60.660156 C 30.351562 60.929688 30.429688 61.183594 30.496094 61.421875 C 30.566406 61.167969 30.648438 60.914062 30.742188 60.660156 L 31.980469 57.292969 L 32.597656 57.292969 L 30.804688 61.929688 Z M 30.183594 61.929688 "/>
<path style=" stroke:none;fill-rule:nonzero;fill:rgb(0%,0%,0%);fill-opacity:1;" d="M 32.636719 61.929688 L 34.394531 57.292969 L 35.046875 57.292969 L 36.917969 61.929688 L 36.226562 61.929688 L 35.695312 60.527344 L 33.78125 60.527344 L 33.28125 61.929688 Z M 33.957031 60.023438 L 35.507812 60.023438 L 35.03125 58.742188 C 34.882812 58.355469 34.773438 58.03125 34.707031 57.78125 C 34.644531 58.078125 34.5625 58.375 34.457031 58.667969 Z M 33.957031 60.023438 "/>
<path style=" stroke:none;fill-rule:nonzero;fill:rgb(0%,0%,0%);fill-opacity:1;" d="M 37.402344 61.929688 L 37.402344 57.292969 L 39.128906 57.292969 C 39.429688 57.292969 39.660156 57.308594 39.824219 57.335938 C 40.046875 57.378906 40.238281 57.449219 40.390625 57.554688 C 40.539062 57.664062 40.660156 57.8125 40.753906 58.003906 C 40.84375 58.195312 40.890625 58.40625 40.894531 58.636719 C 40.890625 59.03125 40.769531 59.363281 40.523438 59.636719 C 40.273438 59.910156 39.828125 60.046875 39.183594 60.046875 L 38.007812 60.046875 L 38.007812 61.929688 Z M 38.007812 59.5 L 39.191406 59.5 C 39.578125 59.5 39.855469 59.425781 40.023438 59.277344 C 40.1875 59.128906 40.269531 58.921875 40.269531 58.652344 C 40.269531 58.460938 40.21875 58.296875 40.125 58.15625 C 40.027344 58.019531 39.898438 57.925781 39.742188 57.882812 C 39.636719 57.855469 39.449219 57.839844 39.179688 57.839844 L 38.007812 57.839844 Z M 38.007812 59.5 "/>
<path style=" stroke:none;fill-rule:nonzero;fill:rgb(0%,0%,0%);fill-opacity:1;" d="M 41.480469 59.671875 C 41.480469 58.90625 41.683594 58.300781 42.089844 57.867188 C 42.496094 57.433594 43.023438 57.214844 43.671875 57.210938 C 44.09375 57.214844 44.472656 57.316406 44.8125 57.519531 C 45.152344 57.726562 45.410156 58.011719 45.589844 58.375 C 45.765625 58.742188 45.855469 59.15625 45.855469 59.617188 C 45.855469 60.089844 45.761719 60.511719 45.574219 60.882812 C 45.386719 61.253906 45.121094 61.535156 44.777344 61.722656 C 44.4375 61.914062 44.066406 62.007812 43.671875 62.007812 C 43.238281 62.007812 42.851562 61.902344 42.511719 61.695312 C 42.171875 61.480469 41.914062 61.195312 41.742188 60.832031 C 41.566406 60.464844 41.480469 60.082031 41.480469 59.671875 Z M 42.105469 59.679688 C 42.101562 60.242188 42.253906 60.683594 42.550781 61.003906 C 42.847656 61.324219 43.21875 61.484375 43.664062 61.484375 C 44.121094 61.484375 44.492188 61.324219 44.789062 61 C 45.082031 60.675781 45.234375 60.214844 45.234375 59.617188 C 45.234375 59.238281 45.167969 58.910156 45.042969 58.628906 C 44.914062 58.347656 44.730469 58.128906 44.492188 57.972656 C 44.25 57.820312 43.976562 57.738281 43.675781 57.738281 C 43.246094 57.738281 42.878906 57.890625 42.566406 58.1875 C 42.257812 58.488281 42.101562 58.984375 42.105469 59.679688 Z M 42.105469 59.679688 "/>
<path style=" stroke:none;fill-rule:nonzero;fill:rgb(0%,0%,0%);fill-opacity:1;" d="M 46.648438 61.929688 L 46.648438 57.292969 L 48.675781 57.292969 C 49.082031 57.292969 49.390625 57.335938 49.605469 57.421875 C 49.816406 57.503906 49.984375 57.648438 50.113281 57.863281 C 50.238281 58.074219 50.304688 58.308594 50.304688 58.558594 C 50.304688 58.890625 50.195312 59.164062 49.988281 59.390625 C 49.777344 59.617188 49.453125 59.761719 49.015625 59.820312 C 49.175781 59.902344 49.296875 59.976562 49.378906 60.050781 C 49.554688 60.214844 49.722656 60.421875 49.882812 60.667969 L 50.679688 61.929688 L 49.917969 61.929688 L 49.3125 60.964844 C 49.132812 60.6875 48.988281 60.476562 48.875 60.328125 C 48.757812 60.183594 48.65625 60.078125 48.566406 60.019531 C 48.476562 59.960938 48.382812 59.917969 48.289062 59.890625 C 48.21875 59.878906 48.109375 59.871094 47.953125 59.871094 L 47.253906 59.871094 L 47.253906 61.929688 Z M 47.253906 59.339844 L 48.550781 59.339844 C 48.828125 59.339844 49.046875 59.3125 49.203125 59.253906 C 49.359375 59.199219 49.476562 59.101562 49.554688 58.976562 C 49.636719 58.847656 49.675781 58.710938 49.679688 58.558594 C 49.675781 58.34375 49.597656 58.164062 49.441406 58.019531 C 49.285156 57.878906 49.039062 57.808594 48.699219 57.804688 L 47.253906 57.804688 Z M 47.253906 59.339844 "/>
<path style=" stroke:none;fill-rule:nonzero;fill:rgb(0%,0%,0%);fill-opacity:1;" d="M 50.75 61.929688 L 52.507812 57.292969 L 53.160156 57.292969 L 55.03125 61.929688 L 54.339844 61.929688 L 53.808594 60.527344 L 51.894531 60.527344 L 51.394531 61.929688 Z M 52.070312 60.023438 L 53.621094 60.023438 L 53.144531 58.742188 C 52.996094 58.355469 52.886719 58.03125 52.816406 57.78125 C 52.757812 58.078125 52.675781 58.375 52.570312 58.667969 Z M 52.070312 60.023438 "/>
<path style=" stroke:none;fill-rule:nonzero;fill:rgb(0%,0%,0%);fill-opacity:1;" d="M 56.679688 61.929688 L 56.679688 57.839844 L 55.171875 57.839844 L 55.171875 57.292969 L 58.796875 57.292969 L 58.796875 57.839844 L 57.285156 57.839844 L 57.285156 61.929688 Z M 56.679688 61.929688 "/>
<path style=" stroke:none;fill-rule:nonzero;fill:rgb(0%,0%,0%);fill-opacity:1;" d="M 59.234375 59.671875 C 59.234375 58.90625 59.4375 58.300781 59.84375 57.867188 C 60.25 57.433594 60.777344 57.214844 61.425781 57.210938 C 61.847656 57.214844 62.226562 57.316406 62.566406 57.519531 C 62.90625 57.726562 63.164062 58.011719 63.34375 58.375 C 63.519531 58.742188 63.605469 59.15625 63.609375 59.617188 C 63.605469 60.089844 63.515625 60.511719 63.328125 60.882812 C 63.140625 61.253906 62.875 61.535156 62.53125 61.722656 C 62.1875 61.914062 61.820312 62.007812 61.421875 62.007812 C 60.992188 62.007812 60.605469 61.902344 60.265625 61.695312 C 59.925781 61.480469 59.667969 61.195312 59.496094 60.832031 C 59.320312 60.464844 59.234375 60.082031 59.234375 59.671875 Z M 59.859375 59.679688 C 59.855469 60.242188 60.003906 60.683594 60.304688 61.003906 C 60.601562 61.324219 60.972656 61.484375 61.417969 61.484375 C 61.875 61.484375 62.246094 61.324219 62.542969 61 C 62.835938 60.675781 62.984375 60.214844 62.984375 59.617188 C 62.984375 59.238281 62.921875 58.910156 62.796875 58.628906 C 62.667969 58.347656 62.484375 58.128906 62.246094 57.972656 C 62.003906 57.820312 61.730469 57.738281 61.429688 57.738281 C 61 57.738281 60.632812 57.890625 60.320312 58.1875 C 60.011719 58.488281 59.855469 58.984375 59.859375 59.679688 Z M 59.859375 59.679688 "/>
<path style=" stroke:none;fill-rule:nonzero;fill:rgb(0%,0%,0%);fill-opacity:1;" d="M 64.402344 61.929688 L 64.402344 57.292969 L 66.429688 57.292969 C 66.835938 57.292969 67.144531 57.335938 67.359375 57.421875 C 67.570312 57.503906 67.738281 57.648438 67.867188 57.863281 C 67.992188 58.074219 68.058594 58.308594 68.058594 58.558594 C 68.058594 58.890625 67.949219 59.164062 67.742188 59.390625 C 67.53125 59.617188 67.207031 59.761719 66.769531 59.820312 C 66.929688 59.902344 67.050781 59.976562 67.132812 60.050781 C 67.308594 60.214844 67.472656 60.421875 67.636719 60.667969 L 68.433594 61.929688 L 67.671875 61.929688 L 67.066406 60.964844 C 66.886719 60.6875 66.742188 60.476562 66.628906 60.328125 C 66.511719 60.183594 66.410156 60.078125 66.320312 60.019531 C 66.230469 59.960938 66.136719 59.917969 66.042969 59.890625 C 65.972656 59.878906 65.863281 59.871094 65.707031 59.871094 L 65.007812 59.871094 L 65.007812 61.929688 Z M 65.007812 59.339844 L 66.304688 59.339844 C 66.582031 59.339844 66.800781 59.3125 66.957031 59.253906 C 67.113281 59.199219 67.230469 59.101562 67.308594 58.976562 C 67.390625 58.847656 67.429688 58.710938 67.433594 58.558594 C 67.429688 58.34375 67.351562 58.164062 67.195312 58.019531 C 67.039062 57.878906 66.792969 57.808594 66.453125 57.804688 L 65.007812 57.804688 Z M 65.007812 59.339844 "/>
</g>
</svg>
