<?xml version="1.0" encoding="UTF-8"?>
<!--
/*******************************************************************************
* Copyright (c) 2010-2018 ITER Organization.
* All rights reserved. This program and the accompanying materials
* are made available under the terms of the Eclipse Public License v1.0
* which accompanies this distribution, and is available at
* http://www.eclipse.org/legal/epl-v10.html
******************************************************************************/
-->
<svg xmlns="http://www.w3.org/2000/svg" xmlns:xlink="http://www.w3.org/1999/xlink" width="57pt" height="83pt" viewBox="0 0 57 83" version="1.1">
<g id="surface1">
<path style=" stroke:none;fill-rule:evenodd;fill:rgb(100%,100%,100%);fill-opacity:1;" d="M 2.304688 35.316406 L 8.78125 28.878906 L 15.261719 35.316406 L 8.78125 41.757812 Z M 2.304688 35.316406 "/>
<path style=" stroke:none;fill-rule:evenodd;fill:rgb(100%,100%,100%);fill-opacity:1;" d="M 31.347656 34.136719 L 37.390625 28.128906 L 46.738281 37.417969 L 40.691406 43.429688 Z M 31.347656 34.136719 "/>
<path style=" stroke:none;fill-rule:evenodd;fill:rgb(100%,100%,100%);fill-opacity:1;" d="M 9.9375 0.769531 L 37.421875 0.769531 L 37.421875 37.203125 L 9.9375 37.203125 Z M 9.9375 0.769531 "/>
<path style=" stroke:none;fill-rule:evenodd;fill:rgb(100%,100%,100%);fill-opacity:1;" d="M 0.777344 37.203125 L 55.746094 37.203125 L 55.746094 82.746094 L 0.777344 82.746094 Z M 0.777344 37.203125 "/>
<path style=" stroke:none;fill-rule:evenodd;fill:rgb(100%,100%,100%);fill-opacity:1;" d="M 53.289062 42.007812 C 53.3125 41.328125 52.960938 40.6875 52.375 40.339844 C 51.785156 39.988281 51.050781 39.988281 50.460938 40.339844 C 49.875 40.6875 49.523438 41.328125 49.546875 42.007812 C 49.523438 42.6875 49.875 43.328125 50.460938 43.675781 C 51.050781 44.023438 51.785156 44.023438 52.375 43.675781 C 52.960938 43.328125 53.3125 42.6875 53.289062 42.007812 Z M 53.289062 51.121094 C 53.3125 50.441406 52.960938 49.800781 52.375 49.453125 C 51.785156 49.105469 51.050781 49.105469 50.460938 49.453125 C 49.875 49.800781 49.523438 50.441406 49.546875 51.121094 C 49.523438 51.804688 49.875 52.441406 50.460938 52.789062 C 51.050781 53.136719 51.785156 53.136719 52.375 52.789062 C 52.960938 52.441406 53.3125 51.804688 53.289062 51.121094 Z M 53.359375 69.085938 C 53.386719 68.402344 53.039062 67.761719 52.449219 67.414062 C 51.859375 67.066406 51.125 67.066406 50.539062 67.414062 C 49.949219 67.761719 49.597656 68.402344 49.625 69.085938 C 49.597656 69.761719 49.949219 70.402344 50.539062 70.753906 C 51.125 71.101562 51.859375 71.101562 52.449219 70.753906 C 53.039062 70.402344 53.386719 69.761719 53.359375 69.085938 Z M 53.4375 59.96875 C 53.460938 59.289062 53.113281 58.648438 52.523438 58.300781 C 51.933594 57.953125 51.203125 57.953125 50.613281 58.300781 C 50.023438 58.648438 49.671875 59.289062 49.699219 59.96875 C 49.671875 60.648438 50.023438 61.289062 50.613281 61.636719 C 51.203125 61.984375 51.933594 61.984375 52.523438 61.636719 C 53.113281 61.289062 53.460938 60.648438 53.4375 59.96875 Z M 53.359375 77.886719 C 53.386719 77.207031 53.039062 76.566406 52.449219 76.21875 C 51.859375 75.871094 51.125 75.871094 50.539062 76.21875 C 49.949219 76.566406 49.597656 77.207031 49.625 77.886719 C 49.597656 78.570312 49.949219 79.207031 50.539062 79.558594 C 51.125 79.902344 51.859375 79.902344 52.449219 79.558594 C 53.039062 79.207031 53.386719 78.570312 53.359375 77.886719 Z M 53.359375 77.886719 "/>
<path style="fill:none;stroke-width:0.72;stroke-linecap:round;stroke-linejoin:round;stroke:rgb(0%,0%,0%);stroke-opacity:1;stroke-miterlimit:3;" d="M 8.500212 1.438474 L 8.500212 26.949773 " transform="matrix(1.077367,0,0,1.071063,0.775744,-0.771166)"/>
<path style="fill:none;stroke-width:0.72;stroke-linecap:round;stroke-linejoin:round;stroke:rgb(0%,0%,0%);stroke-opacity:1;stroke-miterlimit:3;" d="M 34.018148 1.438474 L 34.018148 26.949773 " transform="matrix(1.077367,0,0,1.071063,0.775744,-0.771166)"/>
<path style="fill:none;stroke-width:0.72;stroke-linecap:round;stroke-linejoin:round;stroke:rgb(0%,0%,0%);stroke-opacity:1;stroke-miterlimit:3;" d="M 0.00148527 43.959737 L 8.500212 43.959737 " transform="matrix(1.077367,0,0,1.071063,0.775744,-0.771166)"/>
<path style="fill:none;stroke-width:0.72;stroke-linecap:round;stroke-linejoin:round;stroke:rgb(0%,0%,0%);stroke-opacity:1;stroke-miterlimit:3;" d="M 8.500212 26.949773 L 0.00148527 35.462049 " transform="matrix(1.077367,0,0,1.071063,0.775744,-0.771166)"/>
<path style="fill:none;stroke-width:0.72;stroke-linecap:round;stroke-linejoin:round;stroke:rgb(0%,0%,0%);stroke-opacity:1;stroke-miterlimit:3;" d="M 48.742265 39.940659 C 48.764019 39.306067 48.437703 38.707947 47.893843 38.383357 C 47.346356 38.05512 46.664718 38.05512 46.117232 38.383357 C 45.573371 38.707947 45.247055 39.306067 45.268809 39.940659 C 45.247055 40.57525 45.573371 41.173371 46.117232 41.49796 C 46.664718 41.82255 47.346356 41.82255 47.893843 41.49796 C 48.437703 41.173371 48.764019 40.57525 48.742265 39.940659 " transform="matrix(1.077367,0,0,1.071063,0.775744,-0.771166)"/>
<path style="fill:none;stroke-width:0.72;stroke-linecap:round;stroke-linejoin:round;stroke:rgb(0%,0%,0%);stroke-opacity:1;stroke-miterlimit:3;" d="M 48.140393 38.627711 L 49.318757 37.438764 " transform="matrix(1.077367,0,0,1.071063,0.775744,-0.771166)"/>
<path style="fill:none;stroke-width:0.72;stroke-linecap:round;stroke-linejoin:round;stroke:rgb(0%,0%,0%);stroke-opacity:1;stroke-miterlimit:3;" d="M 8.221031 48.642583 L 13.318817 43.529382 " transform="matrix(1.077367,0,0,1.071063,0.775744,-0.771166)"/>
<path style="fill:none;stroke-width:0.72;stroke-linecap:round;stroke-linejoin:round;stroke:rgb(0%,0%,0%);stroke-opacity:1;stroke-miterlimit:3;" d="M 11.618346 52.041658 L 16.719758 46.939398 " transform="matrix(1.077367,0,0,1.071063,0.775744,-0.771166)"/>
<path style="fill:none;stroke-width:0.72;stroke-linecap:round;stroke-linejoin:round;stroke:rgb(0%,0%,0%);stroke-opacity:1;stroke-miterlimit:3;" d="M 14.740105 55.159908 L 19.841517 50.050354 " transform="matrix(1.077367,0,0,1.071063,0.775744,-0.771166)"/>
<path style="fill:none;stroke-width:0.72;stroke-linecap:round;stroke-linejoin:round;stroke:rgb(0%,0%,0%);stroke-opacity:1;stroke-miterlimit:3;" d="M 45.881559 49.769529 L 44.652434 50.998594 " transform="matrix(1.077367,0,0,1.071063,0.775744,-0.771166)"/>
<path style="fill:none;stroke-width:0.72;stroke-linecap:round;stroke-linejoin:round;stroke:rgb(0%,0%,0%);stroke-opacity:1;stroke-miterlimit:3;" d="M 42.520501 35.462049 L 34.018148 26.949773 " transform="matrix(1.077367,0,0,1.071063,0.775744,-0.771166)"/>
<path style="fill:none;stroke-width:0.72;stroke-linecap:round;stroke-linejoin:round;stroke:rgb(0%,0%,0%);stroke-opacity:1;stroke-miterlimit:3;" d="M 45.881559 41.268195 L 44.652434 42.497259 " transform="matrix(1.077367,0,0,1.071063,0.775744,-0.771166)"/>
<path style="fill:none;stroke-width:0.72;stroke-linecap:round;stroke-linejoin:round;stroke:rgb(0%,0%,0%);stroke-opacity:1;stroke-miterlimit:3;" d="M 48.742265 48.449288 C 48.764019 47.814697 48.437703 47.216576 47.893843 46.891986 C 47.346356 46.567396 46.664718 46.567396 46.117232 46.891986 C 45.573371 47.216576 45.247055 47.814697 45.268809 48.449288 C 45.247055 49.087526 45.573371 49.682 46.117232 50.006589 C 46.664718 50.331179 47.346356 50.331179 47.893843 50.006589 C 48.437703 49.682 48.764019 49.087526 48.742265 48.449288 " transform="matrix(1.077367,0,0,1.071063,0.775744,-0.771166)"/>
<path style="fill:none;stroke-width:0.72;stroke-linecap:round;stroke-linejoin:round;stroke:rgb(0%,0%,0%);stroke-opacity:1;stroke-miterlimit:3;" d="M 48.140393 47.129046 L 49.318757 45.940099 " transform="matrix(1.077367,0,0,1.071063,0.775744,-0.771166)"/>
<path style="fill:none;stroke-width:0.72;stroke-linecap:round;stroke-linejoin:round;stroke:rgb(0%,0%,0%);stroke-opacity:1;stroke-miterlimit:3;" d="M 48.270919 55.389674 L 49.460161 54.211668 " transform="matrix(1.077367,0,0,1.071063,0.775744,-0.771166)"/>
<path style="fill:none;stroke-width:0.72;stroke-linecap:round;stroke-linejoin:round;stroke:rgb(0%,0%,0%);stroke-opacity:1;stroke-miterlimit:3;" d="M 28.909485 70.03998 L 34.018148 64.941367 " transform="matrix(1.077367,0,0,1.071063,0.775744,-0.771166)"/>
<path style="fill:none;stroke-width:0.72;stroke-linecap:round;stroke-linejoin:round;stroke:rgb(0%,0%,0%);stroke-opacity:1;stroke-miterlimit:3;" d="M 45.950448 66.538786 L 44.721323 67.767851 " transform="matrix(1.077367,0,0,1.071063,0.775744,-0.771166)"/>
<path style="fill:none;stroke-width:0.72;stroke-linecap:round;stroke-linejoin:round;stroke:rgb(0%,0%,0%);stroke-opacity:1;stroke-miterlimit:3;" d="M 46.019337 58.030157 L 44.790212 59.270163 " transform="matrix(1.077367,0,0,1.071063,0.775744,-0.771166)"/>
<path style="fill:none;stroke-width:0.72;stroke-linecap:round;stroke-linejoin:round;stroke:rgb(0%,0%,0%);stroke-opacity:1;stroke-miterlimit:3;" d="M 48.807528 65.222192 C 48.832908 64.583953 48.510218 63.985833 47.962732 63.661243 C 47.415245 63.336653 46.733607 63.336653 46.189746 63.661243 C 45.64226 63.985833 45.315944 64.583953 45.341324 65.222192 C 45.315944 65.853136 45.64226 66.451256 46.189746 66.779493 C 46.733607 67.104083 47.415245 67.104083 47.962732 66.779493 C 48.510218 66.451256 48.832908 65.853136 48.807528 65.222192 " transform="matrix(1.077367,0,0,1.071063,0.775744,-0.771166)"/>
<path style="fill:none;stroke-width:0.72;stroke-linecap:round;stroke-linejoin:round;stroke:rgb(0%,0%,0%);stroke-opacity:1;stroke-miterlimit:3;" d="M 48.880043 56.709916 C 48.901797 56.075324 48.579107 55.477204 48.031621 55.152614 C 47.484134 54.828024 46.806122 54.828024 46.258635 55.152614 C 45.711149 55.477204 45.384833 56.075324 45.410213 56.709916 C 45.384833 57.344507 45.711149 57.942627 46.258635 58.267217 C 46.806122 58.591807 47.484134 58.591807 48.031621 58.267217 C 48.579107 57.942627 48.901797 57.344507 48.880043 56.709916 " transform="matrix(1.077367,0,0,1.071063,0.775744,-0.771166)"/>
<path style="fill:none;stroke-width:0.72;stroke-linecap:round;stroke-linejoin:round;stroke:rgb(0%,0%,0%);stroke-opacity:1;stroke-miterlimit:3;" d="M 48.209282 72.118813 L 49.391272 70.929866 " transform="matrix(1.077367,0,0,1.071063,0.775744,-0.771166)"/>
<path style="fill:none;stroke-width:0.72;stroke-linecap:round;stroke-linejoin:round;stroke:rgb(0%,0%,0%);stroke-opacity:1;stroke-miterlimit:3;" d="M 48.209282 63.898303 L 49.391272 62.709356 " transform="matrix(1.077367,0,0,1.071063,0.775744,-0.771166)"/>
<path style="fill:none;stroke-width:0.72;stroke-linecap:round;stroke-linejoin:round;stroke:rgb(0%,0%,0%);stroke-opacity:1;stroke-miterlimit:3;" d="M 0.00148527 35.462049 L 0.00148527 77.979665 " transform="matrix(1.077367,0,0,1.071063,0.775744,-0.771166)"/>
<path style="fill:none;stroke-width:0.72;stroke-linecap:round;stroke-linejoin:round;stroke:rgb(0%,0%,0%);stroke-opacity:1;stroke-miterlimit:3;" d="M 0.00148527 77.979665 L 42.520501 77.979665 " transform="matrix(1.077367,0,0,1.071063,0.775744,-0.771166)"/>
<path style="fill:none;stroke-width:0.72;stroke-linecap:round;stroke-linejoin:round;stroke:rgb(0%,0%,0%);stroke-opacity:1;stroke-miterlimit:3;" d="M 34.018148 69.471036 L 8.500212 43.959737 " transform="matrix(1.077367,0,0,1.071063,0.775744,-0.771166)"/>
<path style="fill:none;stroke-width:0.72;stroke-linecap:round;stroke-linejoin:round;stroke:rgb(0%,0%,0%);stroke-opacity:1;stroke-miterlimit:3;" d="M 17.56818 58.270864 L 22.680469 53.168605 " transform="matrix(1.077367,0,0,1.071063,0.775744,-0.771166)"/>
<path style="fill:none;stroke-width:0.72;stroke-linecap:round;stroke-linejoin:round;stroke:rgb(0%,0%,0%);stroke-opacity:1;stroke-miterlimit:3;" d="M 20.410758 61.111937 L 25.508544 56.009677 " transform="matrix(1.077367,0,0,1.071063,0.775744,-0.771166)"/>
<path style="fill:none;stroke-width:0.72;stroke-linecap:round;stroke-linejoin:round;stroke:rgb(0%,0%,0%);stroke-opacity:1;stroke-miterlimit:3;" d="M 23.238832 64.230187 L 28.351121 59.127927 " transform="matrix(1.077367,0,0,1.071063,0.775744,-0.771166)"/>
<path style="fill:none;stroke-width:0.72;stroke-linecap:round;stroke-linejoin:round;stroke:rgb(0%,0%,0%);stroke-opacity:1;stroke-miterlimit:3;" d="M 26.08141 66.921729 L 31.179196 61.81947 " transform="matrix(1.077367,0,0,1.071063,0.775744,-0.771166)"/>
<path style="fill:none;stroke-width:0.72;stroke-linecap:round;stroke-linejoin:round;stroke:rgb(0%,0%,0%);stroke-opacity:1;stroke-miterlimit:3;" d="M 34.018148 77.979665 L 34.018148 69.471036 " transform="matrix(1.077367,0,0,1.071063,0.775744,-0.771166)"/>
<path style="fill:none;stroke-width:0.72;stroke-linecap:round;stroke-linejoin:round;stroke:rgb(0%,0%,0%);stroke-opacity:1;stroke-miterlimit:3;" d="M 51.019228 35.462049 L 42.520501 35.462049 L 42.520501 77.979665 " transform="matrix(1.077367,0,0,1.071063,0.775744,-0.771166)"/>
<path style="fill:none;stroke-width:0.72;stroke-linecap:round;stroke-linejoin:round;stroke:rgb(0%,0%,0%);stroke-opacity:1;stroke-miterlimit:3;" d="M 51.019228 35.462049 L 51.019228 77.979665 L 42.520501 77.979665 " transform="matrix(1.077367,0,0,1.071063,0.775744,-0.771166)"/>
<path style="fill:none;stroke-width:0.72;stroke-linecap:round;stroke-linejoin:round;stroke:rgb(0%,0%,0%);stroke-opacity:1;stroke-miterlimit:3;" d="M 45.950448 74.759296 L 44.721323 75.988361 " transform="matrix(1.077367,0,0,1.071063,0.775744,-0.771166)"/>
<path style="fill:none;stroke-width:0.72;stroke-linecap:round;stroke-linejoin:round;stroke:rgb(0%,0%,0%);stroke-opacity:1;stroke-miterlimit:3;" d="M 48.807528 73.439055 C 48.832908 72.804463 48.510218 72.206343 47.962732 71.881753 C 47.415245 71.557163 46.733607 71.557163 46.189746 71.881753 C 45.64226 72.206343 45.315944 72.804463 45.341324 73.439055 C 45.315944 74.077293 45.64226 74.671766 46.189746 75.000003 C 46.733607 75.320946 47.415245 75.320946 47.962732 75.000003 C 48.510218 74.671766 48.832908 74.077293 48.807528 73.439055 " transform="matrix(1.077367,0,0,1.071063,0.775744,-0.771166)"/>
</g>
</svg>
