<?xml version="1.0" encoding="UTF-8"?>
<!--
/*******************************************************************************
* Copyright (c) 2010-2018 ITER Organization.
* All rights reserved. This program and the accompanying materials
* are made available under the terms of the Eclipse Public License v1.0
* which accompanies this distribution, and is available at
* http://www.eclipse.org/legal/epl-v10.html
******************************************************************************/
-->
<svg xmlns="http://www.w3.org/2000/svg" xmlns:xlink="http://www.w3.org/1999/xlink" width="83pt" height="29pt" viewBox="0 0 83 29" version="1.1">
<g id="surface1">
<path style=" stroke:none;fill-rule:evenodd;fill:rgb(100%,100%,100%);fill-opacity:1;" d="M 67.929688 0.878906 L 77.929688 0.878906 C 83.273438 9.113281 83.273438 19.738281 77.929688 27.972656 L 5.035156 27.972656 C -0.3125 19.738281 -0.3125 9.113281 5.035156 0.878906 Z M 67.929688 0.878906 "/>
<path style="fill:none;stroke-width:0.72;stroke-linecap:round;stroke-linejoin:round;stroke:rgb(0%,0%,0%);stroke-opacity:1;stroke-miterlimit:3;" d="M 69.003842 26.339334 L 69.003842 0.827556 " transform="matrix(1.057233,0,0,1.062009,0,0.0000342444)"/>
<path style="fill:none;stroke-width:0.72;stroke-linecap:round;stroke-linejoin:round;stroke:rgb(0%,0%,0%);stroke-opacity:1;stroke-miterlimit:3;" d="M 64.252346 0.827556 L 73.711001 0.827556 C 78.765469 8.581135 78.765469 18.585755 73.711001 26.339334 L 4.76258 26.339334 C -0.295583 18.585755 -0.295583 8.581135 4.76258 0.827556 L 64.252346 0.827556 " transform="matrix(1.057233,0,0,1.062009,0,0.0000342444)"/>
<path style="fill:none;stroke-width:0.72;stroke-linecap:round;stroke-linejoin:round;stroke:rgb(0%,0%,0%);stroke-opacity:1;stroke-miterlimit:3;" d="M 69.003842 6.109406 L 9.473434 6.109406 " transform="matrix(1.057233,0,0,1.062009,0,0.0000342444)"/>
<path style="fill:none;stroke-width:0.72;stroke-linecap:round;stroke-linejoin:round;stroke:rgb(0%,0%,0%);stroke-opacity:1;stroke-miterlimit:3;" d="M 69.003842 13.590801 L 9.473434 13.590801 " transform="matrix(1.057233,0,0,1.062009,0,0.0000342444)"/>
<path style="fill:none;stroke-width:0.72;stroke-linecap:round;stroke-linejoin:round;stroke:rgb(0%,0%,0%);stroke-opacity:1;stroke-miterlimit:3;" d="M 69.003842 20.667598 L 9.473434 20.667598 " transform="matrix(1.057233,0,0,1.062009,0,0.0000342444)"/>
<path style="fill:none;stroke-width:0.72;stroke-linecap:round;stroke-linejoin:round;stroke:rgb(0%,0%,0%);stroke-opacity:1;stroke-miterlimit:3;" d="M 9.473434 26.339334 L 9.473434 0.827556 " transform="matrix(1.057233,0,0,1.062009,0,0.0000342444)"/>
</g>
</svg>
