<?xml version="1.0" encoding="UTF-8"?>
<!--
/*******************************************************************************
* Copyright (c) 2010-2018 ITER Organization.
* All rights reserved. This program and the accompanying materials
* are made available under the terms of the Eclipse Public License v1.0
* which accompanies this distribution, and is available at
* http://www.eclipse.org/legal/epl-v10.html
******************************************************************************/
-->
<svg xmlns="http://www.w3.org/2000/svg" xmlns:xlink="http://www.w3.org/1999/xlink" width="92pt" height="75pt" viewBox="0 0 92 75" version="1.1">
<g id="surface1">
<path style=" stroke:none;fill-rule:evenodd;fill:rgb(100%,100%,100%);fill-opacity:1;" d="M 0.765625 0.773438 L 0.78125 0.773438 L 0.78125 0.792969 L 0.765625 0.792969 Z M 0.765625 0.773438 "/>
<path style=" stroke:none;fill-rule:evenodd;fill:rgb(100%,100%,100%);fill-opacity:1;" d="M 91.078125 73.953125 L 91.09375 73.953125 L 91.09375 73.972656 L 91.078125 73.972656 Z M 91.078125 73.953125 "/>
<path style="fill-rule:evenodd;fill:rgb(100%,100%,100%);fill-opacity:1;stroke-width:0.72;stroke-linecap:round;stroke-linejoin:round;stroke:rgb(0%,0%,0%);stroke-opacity:1;stroke-miterlimit:3;" d="M -0.000658065 56.72015 L 8.939452 56.72015 L 8.939452 43.958796 L 3.989477 43.958796 C 1.385776 47.756342 -0.000658065 52.189234 -0.000658065 56.72015 Z M 8.939452 63.999387 L 62.591142 63.999387 C 65.845769 62.921116 68.03023 59.99853 68.03023 56.72015 C 68.03023 53.438141 65.845769 50.519185 62.591142 49.440914 L 8.939452 49.440914 Z M 8.939452 63.799707 L 8.939452 56.72015 L -0.000658065 56.72015 C -0.000658065 61.247436 1.389454 65.676697 3.989477 69.470614 L 8.939452 69.470614 Z M 8.939452 63.799707 " transform="matrix(1.06219,0,0,1.075941,9.797574,-23.343959)"/>
</g>
</svg>
