<?xml version="1.0" encoding="UTF-8"?>
<!--
/*******************************************************************************
* Copyright (c) 2010-2018 ITER Organization.
* All rights reserved. This program and the accompanying materials
* are made available under the terms of the Eclipse Public License v1.0
* which accompanies this distribution, and is available at
* http://www.eclipse.org/legal/epl-v10.html
******************************************************************************/
-->
<svg xmlns="http://www.w3.org/2000/svg" xmlns:xlink="http://www.w3.org/1999/xlink" width="64pt" height="28pt" viewBox="0 0 64 28" version="1.1">
<g id="surface1">
<path style="fill-rule:evenodd;fill:rgb(100%,100%,100%);fill-opacity:1;stroke-width:0.72;stroke-linecap:butt;stroke-linejoin:miter;stroke:rgb(0%,0%,0%);stroke-opacity:1;stroke-miterlimit:3;" d="M -0.000552109 12.760702 C -0.000552109 5.714269 5.678904 0.003552 12.683205 0.003552 C 19.691125 0.003552 25.370581 5.714269 25.370581 12.760702 C 25.370581 19.803563 19.691125 25.517851 12.683205 25.517851 C 5.678904 25.517851 -0.000552109 19.803563 -0.000552109 12.760702 Z M -0.000552109 12.760702 " transform="matrix(1.079136,0,0,1.093749,36.707627,0.00002125)"/>
<path style="fill:none;stroke-width:0.72;stroke-linecap:butt;stroke-linejoin:miter;stroke:rgb(0%,0%,0%);stroke-opacity:1;stroke-dasharray:1.44,0.72;stroke-miterlimit:3;" d="M 0.00104627 25.507997 L 8.652541 25.509475 " transform="matrix(1.079111,-0.00741102,0.007312,1.093724,27.191263,-13.886991)"/>
<path style="fill-rule:evenodd;fill:rgb(100%,100%,100%);fill-opacity:1;stroke-width:0.72;stroke-linecap:butt;stroke-linejoin:miter;stroke:rgb(0%,0%,0%);stroke-opacity:1;stroke-miterlimit:3;" d="M -0.00112025 12.760702 C -0.00112025 5.714269 5.649378 0.003552 12.61386 0.003552 C 19.581963 0.003552 25.228841 5.714269 25.228841 12.760702 C 25.228841 19.807134 19.581963 25.517851 12.61386 25.517851 C 5.649378 25.517851 -0.00112025 19.807134 -0.00112025 12.760702 Z M -0.00112025 12.760702 " transform="matrix(1.079136,0,0,1.093749,0.305896,0.00002125)"/>
<path style=" stroke:none;fill-rule:nonzero;fill:rgb(0%,0%,0%);fill-opacity:1;" d="M 11.039062 11.929688 L 11.039062 5.667969 L 12.269531 5.667969 L 13.734375 10.101562 C 13.867188 10.511719 13.964844 10.820312 14.027344 11.027344 C 14.097656 10.796875 14.207031 10.464844 14.355469 10.023438 L 15.839844 5.667969 L 16.9375 5.667969 L 16.9375 11.929688 L 16.148438 11.929688 L 16.148438 6.6875 L 14.355469 11.929688 L 13.613281 11.929688 L 11.828125 6.597656 L 11.828125 11.929688 Z M 11.039062 11.929688 "/>
<path style="fill:none;stroke-width:0.72;stroke-linecap:butt;stroke-linejoin:miter;stroke:rgb(0%,0%,0%);stroke-opacity:1;stroke-miterlimit:3;" d="M 0.00135633 -0.0000194286 L 10.491518 12.589273 L 0.00135633 25.510708 " transform="matrix(1.079136,0,0,1.093749,52.002443,0.00002125)"/>
</g>
</svg>
