<?xml version="1.0" encoding="UTF-8"?>
<!--
/*******************************************************************************
* Copyright (c) 2010-2018 ITER Organization.
* All rights reserved. This program and the accompanying materials
* are made available under the terms of the Eclipse Public License v1.0
* which accompanies this distribution, and is available at
* http://www.eclipse.org/legal/epl-v10.html
******************************************************************************/
-->
<svg xmlns="http://www.w3.org/2000/svg" xmlns:xlink="http://www.w3.org/1999/xlink" width="29pt" height="29pt" viewBox="0 0 29 29" version="1.1">
<g id="surface1">
<path style=" stroke:none;fill-rule:evenodd;fill:rgb(100%,100%,100%);fill-opacity:1;" d="M 1.097656 1.089844 L 1.113281 1.089844 L 1.113281 1.105469 L 1.097656 1.105469 Z M 1.097656 1.089844 "/>
<path style=" stroke:none;fill-rule:evenodd;fill:rgb(100%,100%,100%);fill-opacity:1;" d="M 28.175781 28.164062 L 28.191406 28.164062 L 28.191406 28.179688 L 28.175781 28.179688 Z M 28.175781 28.164062 "/>
<path style="fill:none;stroke-width:0.72;stroke-linecap:round;stroke-linejoin:round;stroke:rgb(0%,0%,0%);stroke-opacity:1;stroke-miterlimit:3;" d="M 12.721947 27.512295 C 9.341708 27.504938 6.104918 26.158728 3.721463 23.771595 C 1.543986 21.583083 0.230879 18.681007 0.0322579 15.5987 C -0.00820201 15.032261 -0.00820201 14.465823 0.0322579 13.899385 C 0.234557 10.824434 1.543986 7.926035 3.721463 5.741202 C 6.108596 3.343035 9.356421 1.996824 12.740338 1.996824 C 16.124255 1.996824 19.368401 3.343035 21.759212 5.741202 C 23.940368 7.922357 25.253475 10.820756 25.459452 13.899385 L 25.488877 14.760077 L 25.488877 15.5987 C 25.260831 18.684685 23.936689 21.586762 21.759212 23.778951 C 19.361045 26.177119 16.109542 27.519651 12.721947 27.512295 Z M 12.721947 27.512295 " transform="matrix(1.062009,0,0,1.062009,1.086836,-1.062051)"/>
<path style="fill:none;stroke-width:0.72;stroke-linecap:round;stroke-linejoin:round;stroke:rgb(0%,0%,0%);stroke-opacity:1;stroke-miterlimit:3;" d="M 3.741126 23.778951 L 0.000426171 27.512295 " transform="matrix(1.062009,0,0,1.062009,1.062047,-1.062051)"/>
<path style="fill:none;stroke-width:0.72;stroke-linecap:round;stroke-linejoin:round;stroke:rgb(0%,0%,0%);stroke-opacity:1;stroke-miterlimit:3;" d="M 3.732214 27.512295 L -0.00112916 23.771595 " transform="matrix(1.062009,0,0,1.062009,24.192605,-1.062051)"/>
<path style="fill:none;stroke-width:0.72;stroke-linecap:round;stroke-linejoin:round;stroke:rgb(0%,0%,0%);stroke-opacity:1;stroke-miterlimit:3;" d="M 0.00221325 27.50126 L 0.00221325 27.512295 " transform="matrix(1.062009,0,0,1.062009,28.1539,-1.062051)"/>
<path style="fill:none;stroke-width:0.72;stroke-linecap:round;stroke-linejoin:round;stroke:rgb(0%,0%,0%);stroke-opacity:1;stroke-miterlimit:3;" d="M 25.492218 27.508702 L 0.00249514 27.508702 L 0.0282423 27.508702 " transform="matrix(1.062009,0,0,1.062009,1.083288,-13.71058)"/>
<path style="fill:none;stroke-width:0.72;stroke-linecap:round;stroke-linejoin:round;stroke:rgb(0%,0%,0%);stroke-opacity:1;stroke-miterlimit:3;" d="M 0.000426171 27.509387 L 25.490149 27.509387 " transform="matrix(1.062009,0,0,1.062009,1.062047,-15.515995)"/>
<path style="fill:none;stroke-width:0.72;stroke-linecap:round;stroke-linejoin:round;stroke:rgb(0%,0%,0%);stroke-opacity:1;stroke-miterlimit:3;" d="M -0.00112916 27.511206 L 3.732214 23.770507 " transform="matrix(1.062009,0,0,1.062009,24.192605,-24.181989)"/>
<path style="fill:none;stroke-width:0.72;stroke-linecap:round;stroke-linejoin:round;stroke:rgb(0%,0%,0%);stroke-opacity:1;stroke-miterlimit:3;" d="M 3.721126 27.511206 L 0.00249514 23.792576 L 0.00985148 23.770507 " transform="matrix(1.062009,0,0,1.062009,1.083288,-24.181989)"/>
</g>
</svg>
