<?xml version="1.0" encoding="UTF-8"?>
<!--
/*******************************************************************************
* Copyright (c) 2010-2018 ITER Organization.
* All rights reserved. This program and the accompanying materials
* are made available under the terms of the Eclipse Public License v1.0
* which accompanies this distribution, and is available at
* http://www.eclipse.org/legal/epl-v10.html
******************************************************************************/
-->
<svg xmlns="http://www.w3.org/2000/svg" xmlns:xlink="http://www.w3.org/1999/xlink" width="29pt" height="56pt" viewBox="0 0 29 56" version="1.1">
<g id="surface0">
<path style="fill:none;stroke-width:1;stroke-linecap:butt;stroke-linejoin:miter;stroke:rgb(0%,0%,0%);stroke-opacity:1;stroke-miterlimit:3;" d="M 0.000478857 53.021351 L 17.009884 53.021351 Z M 0.000478857 53.021351 " transform="matrix(0.000000000000000065,-1.058468,1.062012,0.000000000000000065,-42.012421,19.063007)"/>
<path style="fill:none;stroke-width:1;stroke-linecap:round;stroke-linejoin:round;stroke:rgb(0%,0%,0%);stroke-opacity:1;stroke-miterlimit:3;" d="M 0.000980222 53.019175 L 4.810184 53.022002 " transform="matrix(0.750956,0.74845,-0.750956,0.74845,54.103371,-34.268851)"/>
<path style="fill:none;stroke-width:1;stroke-linecap:round;stroke-linejoin:round;stroke:rgb(0%,0%,0%);stroke-opacity:1;stroke-miterlimit:3;" d="M 0.00140756 53.021423 L 4.810611 53.018596 " transform="matrix(-0.750956,0.74845,-0.750956,-0.74845,54.102946,45.096872)"/>
<path style="fill:none;stroke-width:1;stroke-linecap:butt;stroke-linejoin:miter;stroke:rgb(0%,0%,0%);stroke-opacity:1;stroke-miterlimit:3;" d="M 4.121574 44.520096 C 1.822723 44.590215 -0.00164463 46.472358 -0.00164463 48.771524 C -0.00164463 51.067 1.822723 52.949143 4.121574 53.019262 " transform="matrix(1.062012,0,0,1.058468,10.220497,-37.361366)"/>
<path style="fill:none;stroke-width:1;stroke-linecap:round;stroke-linejoin:round;stroke:rgb(0%,0%,0%);stroke-opacity:1;stroke-miterlimit:3;" d="M 0.00144398 53.019639 L 4.808038 53.019856 " transform="matrix(0.750956,0.74845,-0.750956,0.74845,54.103371,-36.519545)"/>
<path style="fill:none;stroke-width:1;stroke-linecap:round;stroke-linejoin:round;stroke:rgb(0%,0%,0%);stroke-opacity:1;stroke-miterlimit:3;" d="M 0.000576052 53.022255 L 4.80978 53.019427 " transform="matrix(-0.750956,0.74845,-0.750956,-0.74845,54.102946,42.996554)"/>
<path style="fill-rule:evenodd;fill:rgb(100%,100%,100%);fill-opacity:1;stroke-width:0.999999;stroke-linecap:butt;stroke-linejoin:miter;stroke:rgb(0%,0%,0%);stroke-opacity:1;stroke-miterlimit:3;" d="M -0.00051391 53.018846 L 4.818087 52.409026 L 4.679465 41.938036 L 0.000847678 42.540485 Z M -0.00051391 53.018846 " transform="matrix(0.946259,-0.480534,0.482143,0.943102,-15.241873,-15.287558)"/>
<path style="fill:none;stroke-width:1;stroke-linecap:butt;stroke-linejoin:miter;stroke:rgb(0%,0%,0%);stroke-opacity:1;stroke-miterlimit:3;" d="M 8.501616 53.020953 L 8.501616 36.02262 L 0.00138628 19.009524 " transform="matrix(1.062012,0,0,1.058468,5.268059,-1.058468)"/>
<path style="fill:none;stroke-width:1;stroke-linecap:round;stroke-linejoin:round;stroke:rgb(0%,0%,0%);stroke-opacity:1;stroke-miterlimit:3;" d="M 0.00131486 53.020999 L 4.81051 53.018616 " transform="matrix(-0.750956,-0.74845,0.750956,-0.74845,-25.377927,90.551717)"/>
<path style="fill:none;stroke-width:1;stroke-linecap:round;stroke-linejoin:round;stroke:rgb(0%,0%,0%);stroke-opacity:1;stroke-miterlimit:3;" d="M 0.000702162 53.018417 L 4.809897 53.0208 " transform="matrix(0.750956,-0.74845,0.750956,0.74845,-25.377502,11.1861)"/>
<path style="fill:none;stroke-width:1;stroke-linecap:round;stroke-linejoin:round;stroke:rgb(0%,0%,0%);stroke-opacity:1;stroke-miterlimit:3;" d="M -0.000809453 53.018875 L 4.810995 53.019101 " transform="matrix(-0.750956,-0.74845,0.750956,-0.74845,-25.377927,92.802444)"/>
<path style="fill:none;stroke-width:1;stroke-linecap:round;stroke-linejoin:round;stroke:rgb(0%,0%,0%);stroke-opacity:1;stroke-miterlimit:3;" d="M -0.000200242 53.019319 L 4.811604 53.019093 " transform="matrix(0.750956,-0.74845,0.750956,0.74845,-25.377502,13.286312)"/>
</g>
</svg>
