<?xml version="1.0" encoding="UTF-8"?>
<!--
/*******************************************************************************
* Copyright (c) 2010-2018 ITER Organization.
* All rights reserved. This program and the accompanying materials
* are made available under the terms of the Eclipse Public License v1.0
* which accompanies this distribution, and is available at
* http://www.eclipse.org/legal/epl-v10.html
******************************************************************************/
-->
<svg xmlns="http://www.w3.org/2000/svg" xmlns:xlink="http://www.w3.org/1999/xlink" width="29pt" height="56pt" viewBox="0 0 29 56" version="1.1">
<g id="surface0">
<path style=" stroke:none;fill-rule:evenodd;fill:rgb(100%,100%,100%);fill-opacity:1;" d="M 0.765625 1.058594 L 0.78125 1.058594 L 0.78125 1.089844 L 0.765625 1.089844 Z M 0.765625 1.058594 "/>
<path style=" stroke:none;fill-rule:evenodd;fill:rgb(100%,100%,100%);fill-opacity:1;" d="M 27.84375 55.03125 L 27.859375 55.03125 L 27.859375 55.066406 L 27.84375 55.066406 Z M 27.84375 55.03125 "/>
<path style="fill:none;stroke-width:1;stroke-linecap:round;stroke-linejoin:round;stroke:rgb(0%,0%,0%);stroke-opacity:1;stroke-miterlimit:3;" d="M 0.000119581 53.032287 L 17.009533 53.032287 " transform="matrix(0.000000000000000065,1.058467,-1.062011,0.000000000000000065,70.625568,1.058467)"/>
<path style="fill:none;stroke-width:1;stroke-linecap:round;stroke-linejoin:round;stroke:rgb(0%,0%,0%);stroke-opacity:1;stroke-miterlimit:3;" d="M -0.000440838 53.032287 L 17.008973 53.032287 " transform="matrix(0.000000000000000065,1.058467,-1.062011,0.000000000000000065,70.625568,37.062967)"/>
<path style="fill-rule:evenodd;fill:rgb(100%,100%,100%);fill-opacity:1;stroke-width:1;stroke-linecap:butt;stroke-linejoin:miter;stroke:rgb(0%,0%,0%);stroke-opacity:1;stroke-miterlimit:3;" d="M 0.00167469 53.029445 L 4.821507 52.420103 L 4.68228 41.950436 L -0.0000555382 42.549672 Z M 0.00167469 53.029445 " transform="matrix(0.919729,-0.529233,0.531005,0.91666,-18.515925,-14.812189)"/>
<path style="fill:none;stroke-width:1;stroke-linecap:round;stroke-linejoin:round;stroke:rgb(0%,0%,0%);stroke-opacity:1;stroke-miterlimit:3;" d="M 0.00190738 53.031782 L 23.768477 51.619936 " transform="matrix(-0.474945,-0.946722,0.949892,-0.47336,-36.057162,61.979917)"/>
</g>
</svg>
