<?xml version="1.0" encoding="UTF-8"?>
<!--
/*******************************************************************************
* Copyright (c) 2010-2018 ITER Organization.
* All rights reserved. This program and the accompanying materials
* are made available under the terms of the Eclipse Public License v1.0
* which accompanies this distribution, and is available at
* http://www.eclipse.org/legal/epl-v10.html
******************************************************************************/
-->
<svg xmlns="http://www.w3.org/2000/svg" xmlns:xlink="http://www.w3.org/1999/xlink" width="29pt" height="56pt" viewBox="0 0 29 56" version="1.1">
<g id="surface1">
<path style=" stroke:none;fill-rule:evenodd;fill:rgb(100%,100%,100%);fill-opacity:1;" d="M 0.765625 1.003906 L 0.78125 1.003906 L 0.78125 1.039062 L 0.765625 1.039062 Z M 0.765625 1.003906 "/>
<path style=" stroke:none;fill-rule:evenodd;fill:rgb(100%,100%,100%);fill-opacity:1;" d="M 27.84375 54.980469 L 27.859375 54.980469 L 27.859375 55.011719 L 27.84375 55.011719 Z M 27.84375 54.980469 "/>
<path style="fill:none;stroke-width:1;stroke-linecap:round;stroke-linejoin:round;stroke:rgb(0%,0%,0%);stroke-opacity:1;stroke-miterlimit:3;" d="M 0.000933905 52.971831 L 17.010339 52.971831 " transform="matrix(0,1.058468,-1.062012,0,70.698112,0.807605)"/>
<path style="fill:none;stroke-width:1;stroke-linecap:butt;stroke-linejoin:miter;stroke:rgb(0%,0%,0%);stroke-opacity:1;stroke-miterlimit:3;" d="M 4.249147 44.468071 C 1.953974 44.541881 0.129606 46.420333 0.129606 48.7195 C 0.129606 51.018666 1.953974 52.900809 4.249147 52.970928 " transform="matrix(1.062012,0,0,1.058468,9.79595,-37.009425)"/>
<path style="fill:none;stroke-width:1.25;stroke-linecap:round;stroke-linejoin:round;stroke:rgb(0%,0%,0%);stroke-opacity:1;stroke-miterlimit:3;" d="M 16.997701 22.216667 L 16.997701 65.215327 " transform="matrix(0.849609,0,0,0.846774,0.000000486664,0)"/>
</g>
</svg>
