<?xml version="1.0" encoding="UTF-8"?>
<!--
/*******************************************************************************
* Copyright (c) 2010-2018 ITER Organization.
* All rights reserved. This program and the accompanying materials
* are made available under the terms of the Eclipse Public License v1.0
* which accompanies this distribution, and is available at
* http://www.eclipse.org/legal/epl-v10.html
******************************************************************************/
-->
<svg xmlns="http://www.w3.org/2000/svg" xmlns:xlink="http://www.w3.org/1999/xlink" width="29pt" height="56pt" viewBox="0 0 29 56" version="1.1">
<g id="surface1">
<path style=" stroke:none;fill-rule:evenodd;fill:rgb(100%,100%,100%);fill-opacity:1;" d="M 0.765625 1.058594 L 0.78125 1.058594 L 0.78125 1.089844 L 0.765625 1.089844 Z M 0.765625 1.058594 "/>
<path style=" stroke:none;fill-rule:evenodd;fill:rgb(100%,100%,100%);fill-opacity:1;" d="M 27.84375 55.03125 L 27.859375 55.03125 L 27.859375 55.066406 L 27.84375 55.066406 Z M 27.84375 55.03125 "/>
<path style="fill:none;stroke-width:1;stroke-linecap:round;stroke-linejoin:round;stroke:rgb(0%,0%,0%);stroke-opacity:1;stroke-miterlimit:3;" d="M 0.000119048 53.019034 L 17.009524 53.019034 " transform="matrix(0.000000000000000065,1.058468,-1.062012,0.000000000000000065,70.623242,1.058468)"/>
<path style="fill:none;stroke-width:1;stroke-linecap:round;stroke-linejoin:round;stroke:rgb(0%,0%,0%);stroke-opacity:1;stroke-miterlimit:3;" d="M 0.00088903 19.009524 L 8.501119 36.022619 L 8.501119 53.020952 " transform="matrix(1.062012,0,0,1.058468,5.280306,-1.058468)"/>
<path style="fill:none;stroke-width:1;stroke-linecap:round;stroke-linejoin:round;stroke:rgb(0%,0%,0%);stroke-opacity:1;stroke-miterlimit:3;" d="M 0.00220814 53.019366 L 12.030419 53.021232 " transform="matrix(0.750956,0.74845,-0.750956,0.74845,49.614311,-25.125382)"/>
<path style="fill:none;stroke-width:1;stroke-linecap:round;stroke-linejoin:round;stroke:rgb(0%,0%,0%);stroke-opacity:1;stroke-miterlimit:3;" d="M -0.00172092 53.018869 L 12.031691 53.022204 " transform="matrix(-0.750956,0.74845,-0.750956,-0.74845,58.645554,54.245739)"/>
<path style="fill:none;stroke-width:0.72;stroke-linecap:round;stroke-linejoin:round;stroke:rgb(0%,0%,0%);stroke-opacity:1;stroke-dasharray:2.16,2.16;stroke-miterlimit:3;" d="M 1.420971 53.019245 L 0.00120116 53.019245 L 0.00120116 41.619364 L 2.601661 41.619364 " transform="matrix(1.062012,0,0,1.058468,7.526068,-14.998067)"/>
<path style="fill:none;stroke-width:0.72;stroke-linecap:round;stroke-linejoin:round;stroke:rgb(0%,0%,0%);stroke-opacity:1;stroke-miterlimit:3;" d="M 7.091467 47.350359 L 2.828478 47.350359 C 1.26526 47.350359 -0.00738374 48.619883 -0.00738374 50.184644 C -0.00738374 51.753097 1.26526 53.01893 2.828478 53.01893 L 7.091467 53.01893 C 8.654685 53.01893 9.923651 51.753097 9.923651 50.184644 C 9.923651 48.619883 8.654685 47.350359 7.091467 47.350359 Z M 7.091467 47.350359 " transform="matrix(1.062012,0,0,1.058468,9.031279,-11.997734)"/>
</g>
</svg>
