<?xml version="1.0" encoding="UTF-8"?>
<!--
/*******************************************************************************
* Copyright (c) 2010-2018 ITER Organization.
* All rights reserved. This program and the accompanying materials
* are made available under the terms of the Eclipse Public License v1.0
* which accompanies this distribution, and is available at
* http://www.eclipse.org/legal/epl-v10.html
******************************************************************************/
-->
<svg xmlns="http://www.w3.org/2000/svg" xmlns:xlink="http://www.w3.org/1999/xlink" width="29pt" height="56pt" viewBox="0 0 29 56" version="1.1">
<g id="surface1">
<path style=" stroke:none;fill-rule:evenodd;fill:rgb(100%,100%,100%);fill-opacity:1;" d="M 1.0625 1.058594 L 1.078125 1.058594 L 1.078125 1.089844 L 1.0625 1.089844 Z M 1.0625 1.058594 "/>
<path style=" stroke:none;fill-rule:evenodd;fill:rgb(100%,100%,100%);fill-opacity:1;" d="M 28.140625 55.03125 L 28.15625 55.03125 L 28.15625 55.066406 L 28.140625 55.066406 Z M 28.140625 55.03125 "/>
<path style="fill:none;stroke-width:1;stroke-linecap:round;stroke-linejoin:round;stroke:rgb(0%,0%,0%);stroke-opacity:1;stroke-miterlimit:3;" d="M 0.000119048 53.019488 L 17.009524 53.019488 " transform="matrix(0.000000000000000065,1.058468,-1.062012,0.000000000000000065,57.373724,1.058468)"/>
<path style="fill:none;stroke-width:1;stroke-linecap:round;stroke-linejoin:round;stroke:rgb(0%,0%,0%);stroke-opacity:1;stroke-miterlimit:3;" d="M 0.000119048 53.019581 L 17.009524 53.019581 " transform="matrix(0.000000000000000065,1.058468,-1.062012,0.000000000000000065,66.405073,1.058468)"/>
<path style="fill:none;stroke-width:1;stroke-linecap:round;stroke-linejoin:round;stroke:rgb(0%,0%,0%);stroke-opacity:1;stroke-miterlimit:3;" d="M 0.000119048 53.019575 L 17.009524 53.019575 " transform="matrix(0.000000000000000065,1.058468,-1.062012,0.000000000000000065,75.436316,1.058468)"/>
<path style="fill:none;stroke-width:1;stroke-linecap:round;stroke-linejoin:round;stroke:rgb(0%,0%,0%);stroke-opacity:1;stroke-miterlimit:3;" d="M 0.00192275 53.021063 L 16.529045 53.020237 " transform="matrix(-0.546405,-0.907626,0.910665,-0.544581,-38.193539,65.938528)"/>
<path style="fill:none;stroke-width:1;stroke-linecap:round;stroke-linejoin:round;stroke:rgb(0%,0%,0%);stroke-opacity:1;stroke-miterlimit:3;" d="M -0.000466971 53.019581 L 17.008938 53.019581 " transform="matrix(0.000000000000000065,1.058468,-1.062012,0.000000000000000065,66.405073,37.062994)"/>
</g>
</svg>
