<?xml version="1.0" encoding="UTF-8" standalone="no"?>
<!--
/*******************************************************************************
* Copyright (c) 2010-2016 ITER Organization.
* All rights reserved. This program and the accompanying materials
* are made available under the terms of the Eclipse Public License v1.0
* which accompanies this distribution, and is available at
* http://www.eclipse.org/legal/epl-v10.html
******************************************************************************/
-->
<!-- Created with Inkscape (http://www.inkscape.org/) -->

<svg
   xmlns:dc="http://purl.org/dc/elements/1.1/"
   xmlns:cc="http://creativecommons.org/ns#"
   xmlns:rdf="http://www.w3.org/1999/02/22-rdf-syntax-ns#"
   xmlns:svg="http://www.w3.org/2000/svg"
   xmlns="http://www.w3.org/2000/svg"
   xmlns:sodipodi="http://sodipodi.sourceforge.net/DTD/sodipodi-0.dtd"
   xmlns:inkscape="http://www.inkscape.org/namespaces/inkscape"
   width="68.386787pt"
   height="65.186966pt"
   viewBox="0 0 85.483487 81.483706"
   id="svg4182"
   version="1.1"
   inkscape:version="0.91 r13725"
   sodipodi:docname="OL_EE0733.svg">
  <defs
     id="defs4184" />
  <sodipodi:namedview
     id="base"
     pagecolor="#ffffff"
     bordercolor="#666666"
     borderopacity="1.0"
     inkscape:pageopacity="0.0"
     inkscape:pageshadow="2"
     inkscape:zoom="1.4"
     inkscape:cx="-81.289363"
     inkscape:cy="9.0388433"
     inkscape:document-units="px"
     inkscape:current-layer="layer1"
     showgrid="false"
     units="pt"
     fit-margin-left="9.8"
     fit-margin-right="9.8"
     fit-margin-top="0"
     fit-margin-bottom="0"
     inkscape:window-width="1366"
     inkscape:window-height="706"
     inkscape:window-x="-8"
     inkscape:window-y="-8"
     inkscape:window-maximized="1" />
  <metadata
     id="metadata4187">
    <rdf:RDF>
      <cc:Work
         rdf:about="">
        <dc:format>image/svg+xml</dc:format>
        <dc:type
           rdf:resource="http://purl.org/dc/dcmitype/StillImage" />
        <dc:title></dc:title>
      </cc:Work>
    </rdf:RDF>
  </metadata>
  <g
     inkscape:label="Layer 1"
     inkscape:groupmode="layer"
     id="layer1"
     transform="translate(-277.25826,-423.04892)">
    <g
       transform="matrix(1.25,0,0,1.25,288.35307,421.88803)"
       id="surface1">
      <path
         inkscape:connector-curvature="0"
         style="fill:#ffffff;fill-opacity:1;fill-rule:evenodd;stroke:none"
         d="m 1.875,1.859375 0.03125,0 0,0.042969 -0.03125,0 z"
         id="path5" />
      <path
         inkscape:connector-curvature="0"
         style="fill:#ffffff;fill-opacity:1;fill-rule:evenodd;stroke:none"
         d="m 49.679688,65.128906 0.03125,0 0,0.03906 -0.03125,0 z"
         id="path7" />
      <path
         inkscape:connector-curvature="0"
         style="fill:#ffffff;fill-opacity:1;fill-rule:evenodd;stroke:none"
         d="m 1.875,1.863281 0.03125,0 0,0.039063 -0.03125,0 z"
         id="path9" />
      <path
         inkscape:connector-curvature="0"
         style="fill:#ffffff;fill-opacity:1;fill-rule:evenodd;stroke:none"
         d="m 49.679688,65.132813 0.03125,0 0,0.03906 -0.03125,0 z"
         id="path11" />
      <path
         inkscape:connector-curvature="0"
         style="fill:none;stroke:#000000;stroke-width:1;stroke-linecap:round;stroke-linejoin:round;stroke-miterlimit:3;stroke-opacity:1"
         d="M 4.28797e-4,27.510867 C 2.346263,27.510867 4.248347,29.412454 4.25043,31.759003 4.25251,32.888201 3.804597,33.971224 3.008763,34.770898 2.210846,35.570572 1.129596,36.019732 4.28797e-4,36.019732"
         transform="matrix(1.874999,0,0,1.86111,33.764821,-49.341389)"
         id="path13" />
      <path
         inkscape:connector-curvature="0"
         style="fill:none;stroke:#000000;stroke-width:1;stroke-linecap:round;stroke-linejoin:round;stroke-miterlimit:3;stroke-opacity:1"
         d="M 4.28797e-4,27.509536 C 2.346263,27.511635 4.248347,29.413221 4.25043,31.75977 4.252514,32.888968 3.804597,33.971991 3.008763,34.771665 2.210846,35.56924 1.129596,36.020499 4.28797e-4,36.020499"
         transform="matrix(1.874999,0,0,1.86111,33.764821,-33.514692)"
         id="path15" />
      <path
         inkscape:connector-curvature="0"
         style="fill:none;stroke:#000000;stroke-width:1;stroke-linecap:round;stroke-linejoin:round;stroke-miterlimit:3;stroke-opacity:1"
         d="M 4.28797e-4,27.510253 C 2.346263,27.510253 4.248347,29.413938 4.25043,31.760487 4.25251,32.889685 3.804597,33.972708 3.008763,34.770283 2.210846,35.569957 1.129596,36.019117 4.28797e-4,36.019117"
         transform="matrix(1.874999,0,0,1.86111,33.764821,-17.687901)"
         id="path17" />
      <path
         inkscape:connector-curvature="0"
         style="fill:none;stroke:#000000;stroke-width:1;stroke-linecap:round;stroke-linejoin:round;stroke-miterlimit:3;stroke-opacity:1"
         d="M -1.02028e-5,27.510867 C 2.345824,27.510867 4.247908,29.412454 4.249991,31.759003 4.252075,32.888201 3.806241,33.971224 3.008324,34.770898 2.210407,35.570572 1.129157,36.019732 -1.02028e-5,36.019732"
         transform="matrix(1.874999,0,0,1.86111,1.875019,-49.341389)"
         id="path19" />
      <path
         inkscape:connector-curvature="0"
         style="fill:none;stroke:#000000;stroke-width:1;stroke-linecap:round;stroke-linejoin:round;stroke-miterlimit:3;stroke-opacity:1"
         d="M -1.02028e-5,27.509536 C 2.345824,27.511635 4.247908,29.413221 4.249991,31.75977 4.252075,32.888968 3.806241,33.971991 3.008324,34.771665 2.210407,35.56924 1.129157,36.020499 -1.02028e-5,36.020499"
         transform="matrix(1.874999,0,0,1.86111,1.875019,-33.514692)"
         id="path21" />
      <path
         inkscape:connector-curvature="0"
         style="fill:none;stroke:#000000;stroke-width:1;stroke-linecap:round;stroke-linejoin:round;stroke-miterlimit:3;stroke-opacity:1"
         d="M -1.02028e-5,27.510253 C 2.345824,27.510253 4.247908,29.413938 4.249991,31.760487 4.252075,32.889685 3.806241,33.972708 3.008324,34.770283 2.210407,35.569957 1.129157,36.019117 -1.02028e-5,36.019117"
         transform="matrix(1.874999,0,0,1.86111,1.875019,-17.687901)"
         id="path23" />
      <path
         inkscape:connector-curvature="0"
         style="fill:none;stroke:#000000;stroke-width:1;stroke-linecap:round;stroke-linejoin:round;stroke-miterlimit:3;stroke-opacity:1"
         d="M -1.02028e-5,27.51097 C 2.345824,27.51097 4.247908,29.412556 4.249991,31.759105 4.252075,32.888304 3.806241,33.971326 3.008324,34.771 2.210407,35.570674 1.129157,36.019834 -1.02028e-5,36.019834"
         transform="matrix(1.874999,0,0,1.86111,1.875019,-1.86111)"
         id="path25" />
      <path
         inkscape:connector-curvature="0"
         style="fill:none;stroke:#000000;stroke-width:1;stroke-linecap:round;stroke-linejoin:round;stroke-miterlimit:3;stroke-opacity:1"
         d="m -6.33704e-4,36.019388 8.500469704,0"
         transform="matrix(0,1.86111,-1.874999,0,101.30586,49.352742)"
         id="path27" />
    </g>
  </g>
</svg>
