<?xml version="1.0" encoding="UTF-8" standalone="no"?>
<!--
/*******************************************************************************
* Copyright (c) 2010-2016 ITER Organization.
* All rights reserved. This program and the accompanying materials
* are made available under the terms of the Eclipse Public License v1.0
* which accompanies this distribution, and is available at
* http://www.eclipse.org/legal/epl-v10.html
******************************************************************************/
-->
<svg xmlns="http://www.w3.org/2000/svg" xmlns:xlink="http://www.w3.org/1999/xlink" width="51pt" height="51pt" viewBox="0 0 51 51" version="1.1">
<g id="surface1">
<path style="fill:none;stroke-width:1.688;stroke-linecap:round;stroke-linejoin:round;stroke:rgb(0%,0%,0%);stroke-opacity:1;stroke-miterlimit:4;" d="M 0.85105 0.847943 L 11.55203 0.847943 " transform="matrix(0.796875,0,0,0.796875,-0.0141179,24.722733)"/>
<path style="fill:none;stroke-width:1.688;stroke-linecap:round;stroke-linejoin:round;stroke:rgb(0%,0%,0%);stroke-opacity:1;stroke-miterlimit:4;" d="M 52.228501 0.847943 L 62.895168 0.847943 " transform="matrix(0.796875,0,0,0.796875,-0.0141179,24.722733)"/>
<path style="fill-rule:nonzero;fill:rgb(65.098039%,65.098039%,65.098039%);fill-opacity:1;stroke-width:1.3504;stroke-linecap:round;stroke-linejoin:round;stroke:rgb(0%,0%,0%);stroke-opacity:1;stroke-miterlimit:4;" d="M 44.031373 25.498039 C 44.113725 18.901961 40.596078 12.768627 34.827451 9.447059 C 29.062745 6.12549 21.937255 6.12549 16.172549 9.447059 C 10.403922 12.768627 6.886275 18.901961 6.968627 25.498039 C 6.886275 32.098039 10.403922 38.231373 16.172549 41.556863 C 21.937255 44.87451 29.062745 44.87451 34.827451 41.556863 C 40.596078 38.231373 44.113725 32.098039 44.031373 25.498039 " transform="matrix(0.996094,0,0,0.996094,0,0)"/>
<path style="fill-rule:nonzero;fill:rgb(65.098039%,65.098039%,65.098039%);fill-opacity:1;stroke-width:1.3504;stroke-linecap:round;stroke-linejoin:round;stroke:rgb(0%,0%,0%);stroke-opacity:1;stroke-miterlimit:4;" d="M 24.823529 43.694118 L 43.090196 25.87451 " transform="matrix(0.996094,0,0,0.996094,0,0)"/>
<path style="fill-rule:nonzero;fill:rgb(65.098039%,65.098039%,65.098039%);fill-opacity:1;stroke-width:1.3504;stroke-linecap:round;stroke-linejoin:round;stroke:rgb(0%,0%,0%);stroke-opacity:1;stroke-miterlimit:4;" d="M 24.823529 6.815686 L 43.090196 24.65098 " transform="matrix(0.996094,0,0,0.996094,0,0)"/>
<path style=" stroke:none;fill-rule:evenodd;fill:rgb(65.098039%,65.098039%,65.098039%);fill-opacity:1;" d="M 1.347656 1.347656 L 1.375 1.347656 L 1.375 1.375 L 1.347656 1.375 Z "/>
<path style=" stroke:none;fill-rule:evenodd;fill:rgb(65.098039%,65.098039%,65.098039%);fill-opacity:1;" d="M 48.964844 48.964844 L 48.992188 48.964844 L 48.992188 48.992188 L 48.964844 48.992188 Z "/>
<path style="fill-rule:nonzero;fill:rgb(65.098039%,65.098039%,65.098039%);fill-opacity:1;stroke-width:1.350002;stroke-linecap:round;stroke-linejoin:round;stroke:rgb(0%,0%,0%);stroke-opacity:1;stroke-miterlimit:3;" d="M 14.439216 31.47451 L 26.4 31.47451 L 26.4 19.52549 L 14.439216 19.52549 L 14.439216 31.47451 " transform="matrix(0.996094,0,0,0.996094,0,0)"/>
</g>
</svg>
