<?xml version="1.0" encoding="UTF-8" standalone="no"?>
<!--
/*******************************************************************************
* Copyright (c) 2010-2018 ITER Organization.
* All rights reserved. This program and the accompanying materials
* are made available under the terms of the Eclipse Public License v1.0
* which accompanies this distribution, and is available at
* http://www.eclipse.org/legal/epl-v10.html
******************************************************************************/
-->
<svg
   xmlns:dc="http://purl.org/dc/elements/1.1/"
   xmlns:cc="http://creativecommons.org/ns#"
   xmlns:rdf="http://www.w3.org/1999/02/22-rdf-syntax-ns#"
   xmlns:svg="http://www.w3.org/2000/svg"
   xmlns="http://www.w3.org/2000/svg"
   height="50pt"
   version="1.1"
   viewBox="0 0 50 50"
   width="50pt"
   id="svg2">
  <metadata
     id="metadata52">
    <rdf:RDF>
      <cc:Work
         rdf:about="">
        <dc:format>image/svg+xml</dc:format>
        <dc:type
           rdf:resource="http://purl.org/dc/dcmitype/StillImage" />
        <dc:title></dc:title>
      </cc:Work>
    </rdf:RDF>
  </metadata>
  <defs
     id="defs50" />
  <g
     id="surface1">
    <path
       d="m 0.664063,25 8.5273456,0"
       style="fill:none;stroke:#000000;stroke-width:1.34512532;stroke-linecap:round;stroke-linejoin:round;stroke-miterlimit:4;stroke-opacity:1"
       id="path5" />
    <path
       d="m 41.605479,25 8.500003,0"
       style="fill:none;stroke:#000000;stroke-width:1.34512532;stroke-linecap:round;stroke-linejoin:round;stroke-miterlimit:4;stroke-opacity:1"
       id="path7" />
    <path
       d="M 44.031373 25.498039 C 44.113725 18.901961 40.596078 12.768627 34.827451 9.447059 C 29.062745 6.12549 21.937255 6.12549 16.172549 9.447059 C 10.403922 12.768627 6.886275 18.901961 6.968627 25.498039 C 6.886275 32.098039 10.403922 38.231373 16.172549 41.556863 C 21.937255 44.87451 29.062745 44.87451 34.827451 41.556863 C 40.596078 38.231373 44.113725 32.098039 44.031373 25.498039 "
       style="fill-rule:nonzero;fill:rgb(65.098039%,65.098039%,65.098039%);fill-opacity:1;stroke-width:1.3504;stroke-linecap:round;stroke-linejoin:round;stroke:rgb(0%,0%,0%);stroke-opacity:1;stroke-miterlimit:4;"
       transform="matrix(0.996094,0,0,0.996094,0,0)"
       id="path9" />
    <path
       style="opacity:1;fill:#ffffff;fill-opacity:1;fill-rule:evenodd;stroke:#000000;stroke-width:1.352;stroke-linecap:butt;stroke-linejoin:miter;stroke-miterlimit:4;stroke-dasharray:none;stroke-opacity:1"
       id="CodacSymbol-p5"
       d="M 12.605473,38.824159 C 27.904452,53.589172 54.638546,33.854045 39.904085,13.854177" />
    <path
       d="M 15.937255 9.478431 L 41.243137 16.207843 "
       style="fill-rule:nonzero;fill:rgb(65.098039%,65.098039%,65.098039%);fill-opacity:1;stroke-width:1.3504;stroke-linecap:round;stroke-linejoin:round;stroke:rgb(0%,0%,0%);stroke-opacity:1;stroke-miterlimit:4;"
       transform="matrix(0.996094,0,0,0.996094,0,0)"
       id="path12" />
    <path
       d="M 15.937255 41.309804 L 41.243137 34.580392 "
       style="fill-rule:nonzero;fill:rgb(65.098039%,65.098039%,65.098039%);fill-opacity:1;stroke-width:1.3504;stroke-linecap:round;stroke-linejoin:round;stroke:rgb(0%,0%,0%);stroke-opacity:1;stroke-miterlimit:4;"
       transform="matrix(0.996094,0,0,0.996094,0,0)"
       id="path14" />
    <path
       d="M 1.347656 1.347656 L 1.375 1.347656 L 1.375 1.375 L 1.347656 1.375 Z "
       style=" stroke:none;fill-rule:evenodd;fill:rgb(65.098039%,65.098039%,65.098039%);fill-opacity:1;"
       id="path16" />
    <path
       d="M 48.964844 48.964844 L 48.992188 48.964844 L 48.992188 48.992188 L 48.964844 48.992188 Z "
       style=" stroke:none;fill-rule:evenodd;fill:rgb(65.098039%,65.098039%,65.098039%);fill-opacity:1;"
       id="path18" />
    <path
       d="M 49.484375 49.894531 L 49.515625 49.894531 L 49.515625 49.933594 L 49.484375 49.933594 Z "
       style=" stroke:none;fill-rule:evenodd;fill:rgb(65.098039%,65.098039%,65.098039%);fill-opacity:1;"
       id="path20" />
    <path
       d="M 49.488281 49.882813 L 49.542969 49.882813 L 49.542969 49.933594 L 49.488281 49.933594 Z "
       style=" stroke:none;fill-rule:evenodd;fill:rgb(65.098039%,65.098039%,65.098039%);fill-opacity:1;"
       id="path22" />
    <path
       d="M 29.832031 25.746094 L 39.070313 25.746094 L 36.9375 23.617188 Z "
       style=" stroke:none;fill-rule:nonzero;fill:rgb(65.098039%,65.098039%,65.098039%);fill-opacity:1;"
       id="path24" />
    <path
       d="M 0.00107717 35.459093 L 7.370653 35.459093 L 5.669263 33.760818 "
       style="fill-rule:nonzero;fill:#ffffff;fill-opacity:1;stroke-width:1.352;stroke-linecap:round;stroke-linejoin:round;stroke:rgb(0%, 0%, 0%);stroke-opacity:1;stroke-miterlimit:4"
       transform="matrix(1.25357,0,0,1.25357,29.830681,-18.70437)"
       id="path26" />
    <path
       d="M 39.066406 25.734375 L 36.929688 27.871094 Z "
       style=" stroke:none;fill-rule:nonzero;fill:rgb(65.098039%,65.098039%,65.098039%);fill-opacity:1;"
       id="path28" />
    <path
       d="M -0.00167422 35.459908 L 2.408864 35.459908 "
       style="fill-rule:nonzero;fill:rgb(65.098039%,65.098039%,65.098039%);fill-opacity:1;stroke-width:1.352001;stroke-linecap:round;stroke-linejoin:round;stroke:rgb(0%,0%,0%);stroke-opacity:1;stroke-miterlimit:4;"
       transform="matrix(-0.886407,0.886407,-0.886407,-0.886407,70.496842,57.167779)"
       id="path30" />
    <path
       d="M 23.25 29.460938 L 17.308594 36.539063 L 20.3125 36.273438 Z "
       style=" stroke:none;fill-rule:nonzero;fill:rgb(65.098039%,65.098039%,65.098039%);fill-opacity:1;"
       id="path32" />
    <path
       d="M -0.000503649 35.45849 L 7.371424 35.459807 L 5.668802 33.760351 "
       style="fill-rule:nonzero;fill:#ffffff;fill-opacity:1;stroke-width:1.352001;stroke-linecap:round;stroke-linejoin:round;stroke:rgb(0%, 0%, 0%);stroke-opacity:1;stroke-miterlimit:4"
       transform="matrix(-0.805779,0.96029,-0.96029,-0.805779,57.300017,58.033118)"
       id="path34" />
    <path
       d="M 17.320313 36.542969 L 17.058594 33.53125 Z "
       style=" stroke:none;fill-rule:nonzero;fill:rgb(65.098039%,65.098039%,65.098039%);fill-opacity:1;"
       id="path36" />
    <path
       d="M -0.00119238 35.45903 L 2.410377 35.460439 "
       style="fill-rule:nonzero;fill:rgb(65.098039%,65.098039%,65.098039%);fill-opacity:1;stroke-width:1.352001;stroke-linecap:round;stroke-linejoin:round;stroke:rgb(0%,0%,0%);stroke-opacity:1;stroke-miterlimit:4;"
       transform="matrix(-0.109256,-1.248799,1.248799,-0.109256,-26.961018,40.415583)"
       id="path38" />
    <path
       d="M 23.25 22.160156 L 17.308594 15.085938 L 20.3125 15.347656 Z "
       style=" stroke:none;fill-rule:nonzero;fill:rgb(65.098039%,65.098039%,65.098039%);fill-opacity:1;"
       id="path40" />
    <path
       d="M 0.000134205 35.457955 L 7.369674 35.461274 L 5.66944 33.759816 "
       style="fill-rule:nonzero;fill:rgb(65.098039%,65.098039%,65.098039%);fill-opacity:1;stroke-width:1.352001;stroke-linecap:round;stroke-linejoin:round;stroke:rgb(0%,0%,0%);stroke-opacity:1;stroke-miterlimit:4;"
       transform="matrix(-0.805779,-0.96029,-0.96029,0.805779,57.300017,-6.410981)"
       id="path42" />
    <path
       d="M 17.570313 18.085938 L 17.308594 15.074219 Z "
       style=" stroke:none;fill-rule:nonzero;fill:rgb(65.098039%,65.098039%,65.098039%);fill-opacity:1;"
       id="path44" />
    <path
       d="M -0.0010722 35.460399 L 2.410497 35.458991 "
       style="fill-rule:nonzero;fill:rgb(65.098039%,65.098039%,65.098039%);fill-opacity:1;stroke-width:1.352001;stroke-linecap:round;stroke-linejoin:round;stroke:rgb(0%,0%,0%);stroke-opacity:1;stroke-miterlimit:4;"
       transform="matrix(-0.109256,-1.248799,-1.248799,0.109256,61.853105,14.210346)"
       id="path46" />
  </g>
</svg>
