<?xml version="1.0" encoding="UTF-8" standalone="no"?>
<!--
/*******************************************************************************
* Copyright (c) 2010-2018 ITER Organization.
* All rights reserved. This program and the accompanying materials
* are made available under the terms of the Eclipse Public License v1.0
* which accompanies this distribution, and is available at
* http://www.eclipse.org/legal/epl-v10.html
******************************************************************************/
-->
<svg
   xmlns:dc="http://purl.org/dc/elements/1.1/"
   xmlns:cc="http://creativecommons.org/ns#"
   xmlns:rdf="http://www.w3.org/1999/02/22-rdf-syntax-ns#"
   xmlns:svg="http://www.w3.org/2000/svg"
   xmlns="http://www.w3.org/2000/svg"
   id="svg2"
   version="1.1"
   viewBox="0 0 50 50"
   height="50pt"
   width="50pt">
  <metadata
     id="metadata29">
    <rdf:RDF>
      <cc:Work
         rdf:about="">
        <dc:format>image/svg+xml</dc:format>
        <dc:type
           rdf:resource="http://purl.org/dc/dcmitype/StillImage" />
        <dc:title></dc:title>
      </cc:Work>
    </rdf:RDF>
  </metadata>
  <defs
     id="defs27" />
  <g
     id="surface1">
    <path
       id="path5"
       d="M 0.66406287,25 9.1914063,25"
       style="fill:none;stroke:#000000;stroke-width:1.34512496;stroke-linecap:round;stroke-linejoin:round;stroke-miterlimit:4;stroke-opacity:1" />
    <path
       id="path7"
       d="m 41.605469,25 8.5,0"
       style="fill:none;stroke:#000000;stroke-width:1.34512496;stroke-linecap:round;stroke-linejoin:round;stroke-miterlimit:4;stroke-opacity:1" />
    <path
       id="path9"
       transform="matrix(0.996094,0,0,0.996094,-79.932857,-22.697857)"
       d="M 124.277692 48.284907 C 124.360044 41.688829 120.842397 35.555495 115.07377 32.233927 C 109.309064 28.912358 102.183574 28.912358 96.418868 32.233927 C 90.650241 35.555495 87.132594 41.688829 87.214946 48.284907 C 87.132594 54.884907 90.650241 61.018241 96.418868 64.343731 C 102.183574 67.661378 109.309064 67.661378 115.07377 64.343731 C 120.842397 61.018241 124.360044 54.884907 124.277692 48.284907 "
       style="fill-rule:nonzero;fill:rgb(65.098039%,65.098039%,65.098039%);fill-opacity:1;stroke-width:1.3504;stroke-linecap:round;stroke-linejoin:round;stroke:rgb(0%,0%,0%);stroke-opacity:1;stroke-miterlimit:4;" />
    <path
       id="path11"
       transform="matrix(0.996094,0,0,0.996094,-79.932857,-22.697857)"
       d="M 96.183574 32.265299 L 121.489456 38.994711 "
       style="fill:none;stroke-width:1.3504;stroke-linecap:round;stroke-linejoin:round;stroke:rgb(0%,0%,0%);stroke-opacity:1;stroke-miterlimit:4;" />
    <path
       id="path13"
       transform="matrix(0.996094,0,0,0.996094,-79.932857,-22.697857)"
       d="M 96.183574 64.096672 L 121.489456 57.36726 "
       style="fill:none;stroke-width:1.3504;stroke-linecap:round;stroke-linejoin:round;stroke:rgb(0%,0%,0%);stroke-opacity:1;stroke-miterlimit:4;" />
    <path
       id="path15"
       d="M 1.347656 1.347656 L 1.375 1.347656 L 1.375 1.375 L 1.347656 1.375 Z "
       style=" stroke:none;fill-rule:evenodd;fill:rgb(100%,100%,100%);fill-opacity:1;" />
    <path
       id="path17"
       d="M 48.964844 48.964844 L 48.992188 48.964844 L 48.992188 48.992188 L 48.964844 48.992188 Z "
       style=" stroke:none;fill-rule:evenodd;fill:rgb(100%,100%,100%);fill-opacity:1;" />
    <path
       id="path19"
       transform="matrix(0.861361,0,0,0.861361,44.370967,9.706989)"
       d="M -23.214377 19.414266 C -23.155422 19.414266 -23.119143 19.45508 -23.060188 19.45508 C -23.005768 19.47322 -22.987628 19.5095 -22.933209 19.52764 C -22.892394 19.568455 -22.874254 19.622874 -22.837974 19.681829 C -22.79716 19.736249 -22.77902 19.790668 -22.77902 19.849623 C -22.77902 19.904043 -22.77902 19.994742 -22.79716 20.053697 C -22.79716 20.130791 -22.837974 20.185211 -22.874254 20.257771 C -22.892394 20.334865 -22.946814 20.389285 -23.005768 20.443704 C -23.060188 20.538939 -23.155422 20.597893 -23.214377 20.616033 C -23.286937 20.670453 -23.382171 20.729408 -23.47287 20.765687 C -23.586245 20.783827 -23.695084 20.820107 -23.776714 20.820107 C -23.885553 20.820107 -24.035207 20.820107 -24.130441 20.783827 C -24.257421 20.783827 -24.370795 20.729408 -24.484169 20.711268 C -24.597544 20.652313 -24.747198 20.597893 -24.842432 20.502659 C -24.955806 20.443704 -25.069181 20.334865 -25.14174 20.221491 C -25.273255 20.130791 -25.350349 19.994742 -25.441049 19.881368 C -25.495468 19.736249 -25.572563 19.568455 -25.631517 19.414266 C -25.667797 19.287286 -25.722217 19.078678 -25.722217 18.929024 C -25.744892 18.756695 -25.744892 18.570761 -25.722217 18.384827 C -25.685937 18.217033 -25.667797 17.994819 -25.608842 17.82249 C -25.518143 17.654696 -25.441049 17.446088 -25.350349 17.319108 C -25.236975 17.12864 -25.087321 16.942706 -24.973946 16.788517 C -24.842432 16.643397 -24.674638 16.471069 -24.484169 16.362229 C -24.298235 16.22618 -24.089627 16.117341 -23.885553 16.022106 C -23.695084 15.931407 -23.436591 15.854312 -23.214377 15.818033 C -22.987628 15.759078 -22.7246 15.740938 -22.461572 15.740938 C -22.234823 15.740938 -21.953655 15.759078 -21.726906 15.795358 C -21.468413 15.854312 -21.187244 15.931407 -20.942356 16.040246 C -20.715607 16.135481 -20.434439 16.285135 -20.22583 16.452929 C -20.003617 16.584443 -19.776868 16.788517 -19.572794 16.997125 C -19.382325 17.183059 -19.182787 17.446088 -19.028597 17.713651 C -18.901618 17.935865 -18.729289 18.253313 -18.634055 18.516341 C -18.525216 18.797509 -18.429981 19.133097 -18.371026 19.414266 C -18.352887 19.736249 -18.316607 20.071837 -18.316607 20.389285 C -18.352887 20.711268 -18.411841 21.08767 -18.466261 21.382444 C -18.53882 21.704427 -18.69301 22.058155 -18.842664 22.361998 C -18.974178 22.661306 -19.182787 22.996894 -19.382325 23.259922 C -19.572794 23.541091 -19.872102 23.822259 -20.116991 24.049008 C -20.380019 24.307501 -20.715607 24.53425 -20.996776 24.702044 C -21.355038 24.910652 -21.726906 25.078446 -22.067029 25.191821 C -22.402617 25.305195 -22.837974 25.414034 -23.214377 25.454849 C -23.604385 25.509269 -24.035207 25.509269 -24.41161 25.472989 C -24.806152 25.454849 -25.273255 25.400429 -25.631517 25.287055 C -26.039665 25.173681 -26.475022 24.983212 -26.81061 24.815418 C -27.187013 24.629484 -27.581556 24.366456 -27.899004 24.103427 C -28.234592 23.858539 -28.57018 23.504811 -28.874023 23.182828 C -29.118911 22.88352 -29.413684 22.452697 -29.604153 22.080829 C -29.830902 21.704427 -30.034976 21.21465 -30.14835 20.820107 C -30.298004 20.389285 -30.411378 19.881368 -30.429518 19.414266 C -30.483938 18.965303 -30.483938 18.443782 -30.465798 17.994819 C -30.411378 17.505042 -30.316144 16.997125 -30.18463 16.530023 C -30.034976 16.076526 -29.830902 15.573144 -29.604153 15.160462 C -29.38194 14.725104 -29.059957 14.244397 -28.742508 13.881599 C -28.4432 13.509732 -28.030518 13.097049 -27.672255 12.797741 C -27.259572 12.444013 -26.77433 12.14017 -26.320833 11.899816 C -25.871871 11.654928 -25.327674 11.446319 -24.842432 11.296665 C -24.316375 11.128871 -23.717759 11.015497 -23.214377 10.997357 C -22.683785 10.942937 -22.067029 10.942937 -21.522832 10.997357 C -20.996776 11.056311 -20.380019 11.183291 -19.872102 11.33748 C -19.350581 11.505274 -18.747429 11.768302 -18.257652 12.026796 C -17.776945 12.307964 -17.228213 12.684367 -16.797391 13.024489 C -16.384709 13.400892 -15.917606 13.881599 -15.577483 14.316957 C -15.205616 14.765919 -14.829213 15.328255 -14.588859 15.854312 C -14.285016 16.362229 -14.058268 16.997125 -13.890474 17.559462 C -13.72268 18.139938 -13.609305 18.815649 -13.554886 19.414266 C -13.518606 20.017417 -13.518606 20.729408 -13.609305 21.328024 C -13.663725 21.967455 -13.836054 22.661306 -14.003848 23.223643 C -14.212457 23.822259 -14.493625 24.475295 -14.811073 25.060306 C -15.128521 25.586363 -15.541204 26.18498 -15.953886 26.674757 C -16.384709 27.159999 -16.93344 27.686055 -17.436822 28.080598 C -17.944739 28.475141 -18.579635 28.883288 -19.182787 29.164456 C -19.776868 29.486439 -20.493394 29.726793 -21.12829 29.935402 C -21.785861 30.103196 -22.556806 30.21657 -23.214377 30.275525 C -23.885553 30.329944 -24.692778 30.307269 -25.350349 30.21657 C -26.039665 30.139475 -26.82875 29.971682 -27.486321 29.726793 C -28.143892 29.504579 -28.892163 29.164456 -29.495314 28.828868 C -30.13021 28.475141 -30.787781 28.003503 -31.327443 27.536401 C -31.871639 27.046624 -32.433976 26.448008 -32.869333 25.885671 C -33.318296 25.305195 -33.749118 24.588669 -34.066566 23.935633 C -34.402154 23.259922 -34.683322 22.452697 -34.891931 21.740707 C -35.10054 21.028716 -35.227519 20.162536 -35.268334 19.414266 C -35.322753 18.684135 -35.286474 17.786211 -35.173099 17.05608 C -35.10054 16.285135 -34.891931 15.42349 -34.628903 14.711499 C -34.384014 13.963229 -34.007611 13.133329 -33.617604 12.475758 C -33.204921 11.786442 -32.697004 11.056311 -32.175483 10.4713 C -31.631286 9.872684 -30.973715 9.255927 -30.316144 8.76615 C -29.694853 8.276373 -28.892163 7.791131 -28.180172 7.455543 C -27.431901 7.079141 -26.547582 6.757158 -25.776636 6.571224 C -24.973946 6.36715 -24.035207 6.194821 -23.214377 6.158541 C -22.384477 6.104122 -21.409458 6.140401 -20.602233 6.271916 C -19.745123 6.38529 -18.806384 6.630178 -17.999159 6.870532 C -17.214608 7.174375 -16.330289 7.587058 -15.577483 8.01788 C -14.829213 8.444167 -14.040128 9.047319 -13.405232 9.627795 C -12.747661 10.190132 -12.058345 10.942937 -11.550428 11.654928 C -11.042511 12.330639 -10.498314 13.228563 -10.121912 13.994974 C -9.713764 14.784059 -9.373641 15.759078 -9.183172 16.620723 C -8.942819 17.505042 -8.775025 18.534481 -8.756885 19.414266 "
       style="fill:none;stroke-width:1.406247;stroke-linecap:butt;stroke-linejoin:miter;stroke:rgb(0%,0%,0%);stroke-opacity:1;stroke-miterlimit:3;" />
    <path
       id="path21"
       d="M 49.484375 49.894531 L 49.515625 49.894531 L 49.515625 49.933594 L 49.484375 49.933594 Z "
       style=" stroke:none;fill-rule:evenodd;fill:rgb(100%,100%,100%);fill-opacity:1;" />
    <path
       id="path23"
       d="M 49.488281 49.882813 L 49.542969 49.882813 L 49.542969 49.933594 L 49.488281 49.933594 Z "
       style=" stroke:none;fill-rule:evenodd;fill:rgb(100%,100%,100%);fill-opacity:1;" />
  </g>
  <animate
     id="animate12"
     repeatCount="indefinite"
     fill="freeze"
     begin="0s"
     dur="1000ms"
     calcMode="discrete"
     values="1;0"
     attributeName="opacity" />
</svg>
