<?xml version="1.0" encoding="UTF-8" standalone="no"?>
<!--
/*******************************************************************************
* Copyright (c) 2010-2018 ITER Organization.
* All rights reserved. This program and the accompanying materials
* are made available under the terms of the Eclipse Public License v1.0
* which accompanies this distribution, and is available at
* http://www.eclipse.org/legal/epl-v10.html
******************************************************************************/
-->
<svg xmlns="http://www.w3.org/2000/svg" xmlns:xlink="http://www.w3.org/1999/xlink" width="50pt" height="50pt" viewBox="0 0 50 50" version="1.1">
<g id="surface1">
<path d="m 0.664063,25 8.5273456,0" id="path9" style="fill:none;stroke:#000000;stroke-width:1.34512532;stroke-linecap:round;stroke-linejoin:round;stroke-miterlimit:4;stroke-opacity:1"/>
<path d="m 41.605479,25 8.500003,0" id="path12" style="fill:none;stroke:#000000;stroke-width:1.34512532;stroke-linecap:round;stroke-linejoin:round;stroke-miterlimit:4;stroke-opacity:1"/>
<path style="fill:none;stroke-width:1.3504;stroke-linecap:round;stroke-linejoin:round;stroke:rgb(0%,0%,0%);stroke-opacity:1;stroke-miterlimit:4;" d="M 0.666667 25.498039 L 9.227451 25.498039 " transform="matrix(0.996094,0,0,0.996094,0,0)"/>
<path style="fill:none;stroke-width:1.3504;stroke-linecap:round;stroke-linejoin:round;stroke:rgb(0%,0%,0%);stroke-opacity:1;stroke-miterlimit:4;" d="M 41.768627 25.498039 L 50.301961 25.498039 " transform="matrix(0.996094,0,0,0.996094,0,0)"/>
<path style=" stroke:none;fill-rule:evenodd;fill:rgb(65.098039%,65.098039%,65.098039%);fill-opacity:1;" d="M 49.441406 49.65625 L 49.472656 49.65625 L 49.472656 49.695313 L 49.441406 49.695313 Z "/>
<path style=" stroke:none;fill-rule:evenodd;fill:rgb(65.098039%,65.098039%,65.098039%);fill-opacity:1;" d="M 49.445313 49.644531 L 49.5 49.644531 L 49.5 49.695313 L 49.445313 49.695313 Z "/>
<path style=" stroke:none;fill-rule:evenodd;fill:rgb(65.098039%,65.098039%,65.098039%);fill-opacity:1;" d="M 1.300781 1.105469 L 1.328125 1.105469 L 1.328125 1.132813 L 1.300781 1.132813 Z "/>
<path style=" stroke:none;fill-rule:evenodd;fill:rgb(65.098039%,65.098039%,65.098039%);fill-opacity:1;" d="M 48.917969 48.726563 L 48.945313 48.726563 L 48.945313 48.753906 L 48.917969 48.753906 Z "/>
<path style="fill-rule:nonzero;fill:rgb(65.098039%,65.098039%,65.098039%);fill-opacity:1;stroke-width:1.3504;stroke-linecap:round;stroke-linejoin:round;stroke:rgb(0%,0%,0%);stroke-opacity:1;stroke-miterlimit:4;" d="M 43.560784 25.12549 C 43.643137 18.52549 40.12549 12.392157 34.356863 9.070588 C 28.592157 5.74902 21.466667 5.74902 15.701961 9.070588 C 9.933333 12.392157 6.415686 18.52549 6.498039 25.12549 C 6.415686 31.72549 9.933333 37.854902 15.701961 41.180392 C 21.466667 44.498039 28.592157 44.498039 34.356863 41.180392 C 40.12549 37.854902 43.643137 31.72549 43.560784 25.12549 " transform="matrix(0.996094,0,0,0.996094,0,0)"/>
<path style=" stroke:none;fill-rule:evenodd;fill:rgb(65.098039%,65.098039%,65.098039%);fill-opacity:1;" d="M 1.300781 1.105469 L 1.328125 1.105469 L 1.328125 1.132813 L 1.300781 1.132813 Z "/>
<path style=" stroke:none;fill-rule:evenodd;fill:rgb(65.098039%,65.098039%,65.098039%);fill-opacity:1;" d="M 48.917969 48.726563 L 48.945313 48.726563 L 48.945313 48.753906 L 48.917969 48.753906 Z "/>
<path style="fill-rule:nonzero;fill:rgb(65.098039%,65.098039%,65.098039%);fill-opacity:1;stroke-width:1.3504;stroke-linecap:round;stroke-linejoin:round;stroke:rgb(0%,0%,0%);stroke-opacity:1;stroke-miterlimit:4;" d="M 16.043137 40.72549 L 41.34902 33.996078 " transform="matrix(0.996094,0,0,0.996094,0,0)"/>
<path style="fill-rule:nonzero;fill:rgb(65.098039%,65.098039%,65.098039%);fill-opacity:1;stroke-width:1.3504;stroke-linecap:round;stroke-linejoin:round;stroke:rgb(0%,0%,0%);stroke-opacity:1;stroke-miterlimit:4;" d="M 15.827451 10.007843 L 41.133333 16.741176 " transform="matrix(0.996094,0,0,0.996094,0,0)"/>
</g>
<animate
 attributeName="opacity"
 values="1;0"
 calcMode="discrete"
 dur="1000ms"
 begin="0s"
 fill="freeze"
 repeatCount="indefinite"
 id="animate12" />
</svg>
