<?xml version="1.0" encoding="UTF-8"?>
<!--
/*******************************************************************************
* Copyright (c) 2010-2018 ITER Organization.
* All rights reserved. This program and the accompanying materials
* are made available under the terms of the Eclipse Public License v1.0
* which accompanies this distribution, and is available at
* http://www.eclipse.org/legal/epl-v10.html
******************************************************************************/
-->
<svg xmlns="http://www.w3.org/2000/svg" xmlns:xlink="http://www.w3.org/1999/xlink" width="66pt" height="83pt" viewBox="0 0 66 83" version="1.1">
<g id="surface1">
<path style="fill-rule:evenodd;fill:rgb(100%,100%,100%);fill-opacity:1;stroke-width:0.72;stroke-linecap:round;stroke-linejoin:round;stroke:rgb(0%,0%,0%);stroke-opacity:1;stroke-miterlimit:3;" d="M 0.00218436 69.471036 L 59.527835 69.471036 L 59.527835 77.976018 L 0.00218436 77.976018 Z M 0.00218436 69.471036 " transform="matrix(1.081729,0,0,1.071063,0.778887,-0.771166)"/>
<path style="fill-rule:evenodd;fill:rgb(100%,100%,100%);fill-opacity:1;stroke-width:0.72;stroke-linecap:round;stroke-linejoin:round;stroke:rgb(0%,0%,0%);stroke-opacity:1;stroke-miterlimit:3;" d="M -0.000967024 66.635368 L 25.511574 66.635368 L 25.511574 77.974128 L -0.000967024 77.974128 Z M -0.000967024 66.635368 " transform="matrix(1.081729,0,0,1.071063,19.176827,-70.601173)"/>
<path style="fill-rule:evenodd;fill:rgb(100%,100%,100%);fill-opacity:1;stroke-width:0.72;stroke-linecap:round;stroke-linejoin:round;stroke:rgb(0%,0%,0%);stroke-opacity:1;stroke-miterlimit:3;" d="M -0.00127876 21.000348 L 50.17519 21.000348 L 50.17519 77.974975 L -0.00127876 77.974975 Z M -0.00127876 21.000348 " transform="matrix(1.081729,0,0,1.071063,6.298258,-9.879424)"/>
<path style="fill:none;stroke-width:0.72;stroke-linecap:round;stroke-linejoin:round;stroke:rgb(0%,0%,0%);stroke-opacity:1;stroke-miterlimit:3;" d="M -0.00106375 77.978061 L 5.429433 77.978061 " transform="matrix(0.000000000000000066,1.071063,-1.081729,0.000000000000000065,111.190977,19.594889)"/>
<path style=" stroke:none;fill-rule:evenodd;fill:rgb(0%,0%,0%);fill-opacity:1;" d="M 30.34375 25.410156 L 26.839844 32.351562 L 23.332031 25.410156 L 30.34375 25.410156 "/>
<path style="fill:none;stroke-width:0.72;stroke-linecap:round;stroke-linejoin:round;stroke:rgb(0%,0%,0%);stroke-opacity:1;stroke-miterlimit:3;" d="M -0.00127876 77.979532 L 50.167968 77.979532 " transform="matrix(1.081729,0,0,1.071063,6.298258,-27.185086)"/>
<path style="fill:none;stroke-width:0.72;stroke-linecap:round;stroke-linejoin:round;stroke:rgb(0%,0%,0%);stroke-opacity:1;stroke-miterlimit:3;" d="M -0.00127876 77.980651 L 50.167968 77.980651 " transform="matrix(1.081729,0,0,1.071063,6.298258,-64.225347)"/>
<path style="fill:none;stroke-width:0.72;stroke-linecap:round;stroke-linejoin:round;stroke:rgb(0%,0%,0%);stroke-opacity:1;stroke-miterlimit:3;" d="M -0.00106375 77.980055 L 5.429433 77.980055 " transform="matrix(0.000000000000000066,1.071063,-1.081729,0.000000000000000065,99.845477,19.594889)"/>
<path style=" stroke:none;fill-rule:evenodd;fill:rgb(0%,0%,0%);fill-opacity:1;" d="M 18.996094 25.410156 L 15.492188 32.351562 L 11.988281 25.410156 L 18.996094 25.410156 "/>
<path style="fill:none;stroke-width:0.72;stroke-linecap:round;stroke-linejoin:round;stroke:rgb(0%,0%,0%);stroke-opacity:1;stroke-miterlimit:3;" d="M -0.00106375 77.979433 L 5.429433 77.979433 " transform="matrix(0.000000000000000066,1.071063,-1.081729,0.000000000000000065,123.149492,19.594889)"/>
<path style=" stroke:none;fill-rule:evenodd;fill:rgb(0%,0%,0%);fill-opacity:1;" d="M 42.300781 25.410156 L 38.796875 32.351562 L 35.292969 25.410156 L 42.300781 25.410156 "/>
<path style="fill:none;stroke-width:0.72;stroke-linecap:round;stroke-linejoin:round;stroke:rgb(0%,0%,0%);stroke-opacity:1;stroke-miterlimit:3;" d="M -0.00106375 77.980805 L 5.429433 77.980805 " transform="matrix(0.000000000000000066,1.071063,-1.081729,0.000000000000000065,135.108008,19.594889)"/>
<path style=" stroke:none;fill-rule:evenodd;fill:rgb(0%,0%,0%);fill-opacity:1;" d="M 54.261719 25.410156 L 50.753906 32.351562 L 47.25 25.410156 L 54.261719 25.410156 "/>
<path style="fill-rule:evenodd;fill:rgb(100%,100%,100%);fill-opacity:1;stroke-width:0.72;stroke-linecap:round;stroke-linejoin:round;stroke:rgb(0%,0%,0%);stroke-opacity:1;stroke-miterlimit:3;" d="M 7.085164 76.273999 C 7.085164 75.333054 5.499883 74.574462 3.542658 74.574462 C 1.585433 74.574462 0.000152356 75.333054 0.000152356 76.273999 C 0.000152356 77.214945 1.585433 77.973537 3.542658 77.973537 C 5.499883 77.973537 7.085164 77.214945 7.085164 76.273999 Z M 7.085164 76.273999 " transform="matrix(1.081729,0,0,1.071063,25.156085,-75.155227)"/>
<path style="fill-rule:evenodd;fill:rgb(100%,100%,100%);fill-opacity:1;stroke-width:0.72;stroke-linecap:round;stroke-linejoin:round;stroke:rgb(0%,0%,0%);stroke-opacity:1;stroke-miterlimit:3;" d="M 7.085353 76.273999 C 7.085353 75.333054 5.500073 74.574462 3.542847 74.574462 C 1.585622 74.574462 0.000341601 75.333054 0.000341601 76.273999 C 0.000341601 77.214945 1.585622 77.973537 3.542847 77.973537 C 5.500073 77.973537 7.085353 77.214945 7.085353 76.273999 Z M 7.085353 76.273999 " transform="matrix(1.081729,0,0,1.071063,33.128537,-75.155227)"/>
</g>
</svg>
