<?xml version="1.0" encoding="UTF-8"?>
<!--
/*******************************************************************************
* Copyright (c) 2010-2018 ITER Organization.
* All rights reserved. This program and the accompanying materials
* are made available under the terms of the Eclipse Public License v1.0
* which accompanies this distribution, and is available at
* http://www.eclipse.org/legal/epl-v10.html
******************************************************************************/
-->
<svg xmlns="http://www.w3.org/2000/svg" xmlns:xlink="http://www.w3.org/1999/xlink" width="67pt" height="75pt" viewBox="0 0 67 75" version="1.1">
<g id="surface1">
<path style="fill:none;stroke-width:0.72;stroke-linecap:butt;stroke-linejoin:miter;stroke:rgb(0%,0%,0%);stroke-opacity:1;stroke-miterlimit:3;" d="M 8.038008 69.472052 L 0.000410973 69.472052 L 4.019209 67.700351 Z M 8.038008 69.472052 " transform="matrix(1.087662,0,0,1.075943,43.831584,-56.15422)"/>
<path style="fill:none;stroke-width:0.72;stroke-linecap:butt;stroke-linejoin:miter;stroke:rgb(0%,0%,0%);stroke-opacity:1;stroke-miterlimit:3;" d="M 5.360907 66.440349 C 5.371682 65.372971 4.8617 64.385466 4.028491 63.848146 C 3.195281 63.310827 2.164544 63.310827 1.331335 63.848146 C 0.494534 64.385466 -0.0118562 65.372971 -0.00108199 66.440349 C -0.0118562 67.507727 0.494534 68.495232 1.331335 69.032552 C 2.164544 69.569871 3.195281 69.569871 4.028491 69.032552 C 4.8617 68.495232 5.371682 67.507727 5.360907 66.440349 Z M 5.360907 66.440349 " transform="matrix(1.087662,0,0,1.075943,30.719927,-29.341499)"/>
<path style="fill:none;stroke-width:0.72;stroke-linecap:butt;stroke-linejoin:miter;stroke:rgb(0%,0%,0%);stroke-opacity:1;stroke-miterlimit:3;" d="M 32.161321 69.467821 L 0.000158748 69.467821 " transform="matrix(1.087662,0,0,1.075943,1.566234,-0.774667)"/>
<path style="fill:none;stroke-width:0.72;stroke-linecap:butt;stroke-linejoin:miter;stroke:rgb(0%,0%,0%);stroke-opacity:1;stroke-miterlimit:3;" d="M 26.801614 16.229639 C 26.884217 10.88549 24.348675 5.908025 20.168262 3.206906 C 15.98785 0.509418 10.812614 0.509418 6.632202 3.206906 C 2.451789 5.908025 -0.0837528 10.88549 -0.00115013 16.229639 L -0.00115013 69.467821 " transform="matrix(1.087662,0,0,1.075943,19.052032,-0.774667)"/>
<path style="fill:none;stroke-width:0.72;stroke-linecap:butt;stroke-linejoin:miter;stroke:rgb(0%,0%,0%);stroke-opacity:1;stroke-miterlimit:3;" d="M -0.00115013 60.398333 L 13.419985 60.398333 L 13.419985 69.471043 " transform="matrix(1.087662,0,0,1.075943,19.052032,-35.571103)"/>
</g>
</svg>
