<?xml version="1.0" encoding="UTF-8"?>
<!--
/*******************************************************************************
* Copyright (c) 2010-2018 ITER Organization.
* All rights reserved. This program and the accompanying materials
* are made available under the terms of the Eclipse Public License v1.0
* which accompanies this distribution, and is available at
* http://www.eclipse.org/legal/epl-v10.html
******************************************************************************/
-->
<svg xmlns="http://www.w3.org/2000/svg" xmlns:xlink="http://www.w3.org/1999/xlink" width="370pt" height="112pt" viewBox="0 0 370 112" version="1.1">
<g id="surface1">
<path style="fill-rule:evenodd;fill:rgb(100%,100%,100%);fill-opacity:1;stroke-width:0.72;stroke-linecap:round;stroke-linejoin:round;stroke:rgb(0%,0%,0%);stroke-opacity:1;stroke-miterlimit:3;" d="M -0.000864907 1.439865 L -0.000864907 103.48924 L 68.029672 69.470377 L 68.029672 35.458728 Z M -0.000864907 1.439865 " transform="matrix(-1.082464,0.000000000000000133,-0.000000000000000132,-1.083039,368.987345,112.860211)"/>
<path style="fill-rule:evenodd;fill:rgb(100%,100%,100%);fill-opacity:1;stroke-width:0.72;stroke-linecap:round;stroke-linejoin:round;stroke:rgb(0%,0%,0%);stroke-opacity:1;stroke-miterlimit:3;" d="M 0.00153875 1.437743 L 0.00153875 103.490725 L 68.028467 69.468255 L 68.028467 35.460213 Z M 0.00153875 1.437743 " transform="matrix(1.082464,0,0,1.083039,0.779584,-0.779788)"/>
<path style="fill:none;stroke-width:0.72;stroke-linecap:round;stroke-linejoin:round;stroke:rgb(0%,0%,0%);stroke-opacity:1;stroke-miterlimit:3;" d="M 68.031858 1.437743 L 68.031858 103.490725 L 0.00132128 69.468255 L 0.00132128 35.460213 L 68.031858 1.437743 " transform="matrix(1.082464,0,0,1.083039,295.346226,-0.779788)"/>
<path style="fill:none;stroke-width:0.72;stroke-linecap:round;stroke-linejoin:round;stroke:rgb(0%,0%,0%);stroke-opacity:1;stroke-miterlimit:3;" d="M 68.031858 1.437743 L 0.00132128 69.468255 " transform="matrix(1.082464,0,0,1.083039,295.346226,-0.779788)"/>
<path style="fill:none;stroke-width:0.72;stroke-linecap:round;stroke-linejoin:round;stroke:rgb(0%,0%,0%);stroke-opacity:1;stroke-miterlimit:3;" d="M 68.031858 103.490725 L 0.00132128 35.460213 " transform="matrix(1.082464,0,0,1.083039,295.346226,-0.779788)"/>
<path style="fill:none;stroke-width:0.72;stroke-linecap:round;stroke-linejoin:round;stroke:rgb(0%,0%,0%);stroke-opacity:1;stroke-miterlimit:3;" d="M 68.029955 1.439865 L 68.029955 103.48924 L -0.000582218 69.470377 L -0.000582218 35.458728 L 68.029955 1.439865 " transform="matrix(-1.082464,0.000000000000000133,-0.000000000000000132,-1.083039,74.421245,112.860211)"/>
<path style="fill:none;stroke-width:0.72;stroke-linecap:round;stroke-linejoin:round;stroke:rgb(0%,0%,0%);stroke-opacity:1;stroke-miterlimit:3;" d="M 68.029955 1.439865 L -0.000582218 69.470377 " transform="matrix(-1.082464,0.000000000000000133,-0.000000000000000132,-1.083039,74.421245,112.860211)"/>
<path style="fill:none;stroke-width:0.72;stroke-linecap:round;stroke-linejoin:round;stroke:rgb(0%,0%,0%);stroke-opacity:1;stroke-miterlimit:3;" d="M 68.029955 103.48924 L -0.000582218 35.458728 " transform="matrix(-1.082464,0.000000000000000133,-0.000000000000000132,-1.083039,74.421245,112.860211)"/>
<path style="fill-rule:evenodd;fill:rgb(100%,100%,100%);fill-opacity:1;stroke-width:0.72;stroke-linecap:round;stroke-linejoin:round;stroke:rgb(0%,0%,0%);stroke-opacity:1;stroke-miterlimit:3;" d="M -0.000374316 1.437743 L 68.030163 1.437743 L 68.030163 103.487118 L -0.000374316 103.487118 Z M -0.000374316 1.437743 " transform="matrix(1.082464,0,0,1.083039,148.062905,-0.779788)"/>
<path style=" stroke:none;fill-rule:evenodd;fill:rgb(100%,100%,100%);fill-opacity:1;" d="M 221.777344 47.082031 L 295.285156 47.082031 L 295.285156 64.984375 L 221.777344 64.984375 Z M 221.777344 47.082031 "/>
<path style="fill:none;stroke-width:0.96;stroke-linecap:round;stroke-linejoin:round;stroke:rgb(0%,0%,0%);stroke-opacity:1;stroke-miterlimit:3;" d="M 1.983183 27.490189 L 92.688816 27.490189 L 92.688816 1.977692 L 1.983183 1.977692 Z M 1.983183 27.490189 " transform="matrix(0.8104,0,0,0.701709,220.170173,45.694268)"/>
<path style=" stroke:none;fill-rule:evenodd;fill:rgb(100%,100%,100%);fill-opacity:1;" d="M 289.160156 50.9375 L 295.234375 50.9375 L 295.234375 61.339844 L 289.160156 61.339844 Z M 289.160156 50.9375 "/>
<path style="fill:none;stroke-width:0.96;stroke-linecap:round;stroke-linejoin:round;stroke:rgb(0%,0%,0%);stroke-opacity:1;stroke-miterlimit:3;" d="M 92.626154 7.472092 L 85.130817 7.472092 L 85.130817 22.296394 L 92.626154 22.296394 Z M 92.626154 7.472092 " transform="matrix(0.8104,0,0,0.701709,220.170173,45.694268)"/>
<path style=" stroke:none;fill-rule:evenodd;fill:rgb(100%,100%,100%);fill-opacity:1;" d="M 221.777344 50.761719 L 227.898438 50.761719 L 227.898438 61.167969 L 221.777344 61.167969 Z M 221.777344 50.761719 "/>
<path style="fill:none;stroke-width:0.96;stroke-linecap:round;stroke-linejoin:round;stroke:rgb(0%,0%,0%);stroke-opacity:1;stroke-miterlimit:3;" d="M 9.536363 7.221587 L 1.983183 7.221587 L 1.983183 22.051456 L 9.536363 22.051456 Z M 9.536363 7.221587 " transform="matrix(0.8104,0,0,0.701709,220.170173,45.694268)"/>
<path style="fill:none;stroke-width:0.96;stroke-linecap:round;stroke-linejoin:round;stroke:rgb(0%,0%,0%);stroke-opacity:1;stroke-miterlimit:3;" d="M 85.130817 14.636522 L 70.009998 14.608688 " transform="matrix(0.8104,0,0,0.701709,220.170173,45.694268)"/>
<path style="fill:none;stroke-width:0.96;stroke-linecap:round;stroke-linejoin:round;stroke:rgb(0%,0%,0%);stroke-opacity:1;stroke-miterlimit:3;" d="M 24.657182 14.636522 L 9.536363 14.636522 " transform="matrix(0.8104,0,0,0.701709,220.170173,45.694268)"/>
<path style="fill:none;stroke-width:0.96;stroke-linecap:round;stroke-linejoin:round;stroke:rgb(0%,0%,0%);stroke-opacity:1;stroke-miterlimit:3;" d="M 58.576596 14.608688 L 36.090584 14.636522 " transform="matrix(0.8104,0,0,0.701709,220.170173,45.694268)"/>
<path style="fill:none;stroke-width:0.96;stroke-linecap:round;stroke-linejoin:round;stroke:rgb(0%,0%,0%);stroke-opacity:1;stroke-miterlimit:3;" d="M 47.336 14.636522 L 47.336 27.490189 " transform="matrix(0.8104,0,0,0.701709,220.170173,45.694268)"/>
<path style="fill:none;stroke-width:0.96;stroke-linecap:square;stroke-linejoin:miter;stroke:rgb(0%,0%,0%);stroke-opacity:1;stroke-miterlimit:2;" d="M 17.099182 1.977692 L 17.099182 8.357208 " transform="matrix(0.8104,0,0,0.701709,220.170173,45.694268)"/>
<path style="fill:none;stroke-width:0.96;stroke-linecap:square;stroke-linejoin:miter;stroke:rgb(0%,0%,0%);stroke-opacity:1;stroke-miterlimit:2;" d="M 17.099182 21.110673 L 17.099182 27.490189 " transform="matrix(0.8104,0,0,0.701709,220.170173,45.694268)"/>
<path style=" stroke:none;fill-rule:evenodd;fill:rgb(100%,100%,100%);fill-opacity:1;" d="M 240.152344 51.429688 L 249.417969 51.429688 L 249.417969 60.382812 L 240.152344 60.382812 Z M 240.152344 51.429688 "/>
<path style="fill:none;stroke-width:0.96;stroke-linecap:round;stroke-linejoin:round;stroke:rgb(0%,0%,0%);stroke-opacity:1;stroke-miterlimit:3;" d="M 36.090584 8.173504 L 24.657182 8.173504 L 24.657182 20.932536 L 36.090584 20.932536 Z M 36.090584 8.173504 " transform="matrix(0.8104,0,0,0.701709,220.170173,45.694268)"/>
<path style=" stroke:none;fill-rule:evenodd;fill:rgb(100%,100%,100%);fill-opacity:1;" d="M 267.640625 51.410156 L 276.90625 51.410156 L 276.90625 60.359375 L 267.640625 60.359375 Z M 267.640625 51.410156 "/>
<path style="fill:none;stroke-width:0.96;stroke-linecap:round;stroke-linejoin:round;stroke:rgb(0%,0%,0%);stroke-opacity:1;stroke-miterlimit:3;" d="M 70.009998 8.14567 L 58.576596 8.14567 L 58.576596 20.899135 L 70.009998 20.899135 Z M 70.009998 8.14567 " transform="matrix(0.8104,0,0,0.701709,220.170173,45.694268)"/>
<path style="fill:none;stroke-width:0.96;stroke-linecap:square;stroke-linejoin:miter;stroke:rgb(0%,0%,0%);stroke-opacity:1;stroke-miterlimit:2;" d="M 47.336 1.977692 L 47.336 8.357208 " transform="matrix(0.8104,0,0,0.701709,220.170173,45.694268)"/>
<path style="fill:none;stroke-width:0.96;stroke-linecap:square;stroke-linejoin:miter;stroke:rgb(0%,0%,0%);stroke-opacity:1;stroke-miterlimit:2;" d="M 77.567997 1.977692 L 77.567997 8.273706 " transform="matrix(0.8104,0,0,0.701709,220.170173,45.694268)"/>
<path style="fill:none;stroke-width:0.96;stroke-linecap:square;stroke-linejoin:miter;stroke:rgb(0%,0%,0%);stroke-opacity:1;stroke-miterlimit:2;" d="M 77.567997 21.183041 L 77.567997 27.490189 " transform="matrix(0.8104,0,0,0.701709,220.170173,45.694268)"/>
<path style=" stroke:none;fill-rule:evenodd;fill:rgb(100%,100%,100%);fill-opacity:1;" d="M 74.554688 47.054688 L 148.0625 47.054688 L 148.0625 64.953125 L 74.554688 64.953125 Z M 74.554688 47.054688 "/>
<path style="fill:none;stroke-width:0.96;stroke-linecap:round;stroke-linejoin:round;stroke:rgb(0%,0%,0%);stroke-opacity:1;stroke-miterlimit:3;" d="M 1.982039 27.489333 L 92.687672 27.489333 L 92.687672 1.982403 L 1.982039 1.982403 Z M 1.982039 27.489333 " transform="matrix(0.8104,0,0,0.701709,72.948444,45.663618)"/>
<path style=" stroke:none;fill-rule:evenodd;fill:rgb(100%,100%,100%);fill-opacity:1;" d="M 141.9375 50.90625 L 148.011719 50.90625 L 148.011719 61.3125 L 141.9375 61.3125 Z M 141.9375 50.90625 "/>
<path style="fill:none;stroke-width:0.96;stroke-linecap:round;stroke-linejoin:round;stroke:rgb(0%,0%,0%);stroke-opacity:1;stroke-miterlimit:3;" d="M 92.62501 7.471236 L 85.129673 7.471236 L 85.129673 22.301105 L 92.62501 22.301105 Z M 92.62501 7.471236 " transform="matrix(0.8104,0,0,0.701709,72.948444,45.663618)"/>
<path style=" stroke:none;fill-rule:evenodd;fill:rgb(100%,100%,100%);fill-opacity:1;" d="M 74.554688 50.734375 L 80.679688 50.734375 L 80.679688 61.136719 L 74.554688 61.136719 Z M 74.554688 50.734375 "/>
<path style="fill:none;stroke-width:0.96;stroke-linecap:round;stroke-linejoin:round;stroke:rgb(0%,0%,0%);stroke-opacity:1;stroke-miterlimit:3;" d="M 9.540038 7.226298 L 1.982039 7.226298 L 1.982039 22.050601 L 9.540038 22.050601 Z M 9.540038 7.226298 " transform="matrix(0.8104,0,0,0.701709,72.948444,45.663618)"/>
<path style="fill:none;stroke-width:0.96;stroke-linecap:round;stroke-linejoin:round;stroke:rgb(0%,0%,0%);stroke-opacity:1;stroke-miterlimit:3;" d="M 85.129673 14.635666 L 70.008854 14.607832 " transform="matrix(0.8104,0,0,0.701709,72.948444,45.663618)"/>
<path style="fill:none;stroke-width:0.96;stroke-linecap:round;stroke-linejoin:round;stroke:rgb(0%,0%,0%);stroke-opacity:1;stroke-miterlimit:3;" d="M 24.656037 14.635666 L 9.540038 14.635666 " transform="matrix(0.8104,0,0,0.701709,72.948444,45.663618)"/>
<path style="fill:none;stroke-width:0.96;stroke-linecap:round;stroke-linejoin:round;stroke:rgb(0%,0%,0%);stroke-opacity:1;stroke-miterlimit:3;" d="M 58.575452 14.607832 L 36.089439 14.635666 " transform="matrix(0.8104,0,0,0.701709,72.948444,45.663618)"/>
<path style="fill:none;stroke-width:0.96;stroke-linecap:round;stroke-linejoin:round;stroke:rgb(0%,0%,0%);stroke-opacity:1;stroke-miterlimit:3;" d="M 47.334856 14.635666 L 47.334856 27.489333 " transform="matrix(0.8104,0,0,0.701709,72.948444,45.663618)"/>
<path style="fill:none;stroke-width:0.96;stroke-linecap:square;stroke-linejoin:miter;stroke:rgb(0%,0%,0%);stroke-opacity:1;stroke-miterlimit:2;" d="M 17.098038 1.982403 L 17.098038 8.356352 " transform="matrix(0.8104,0,0,0.701709,72.948444,45.663618)"/>
<path style="fill:none;stroke-width:0.96;stroke-linecap:square;stroke-linejoin:miter;stroke:rgb(0%,0%,0%);stroke-opacity:1;stroke-miterlimit:2;" d="M 17.098038 21.115384 L 17.098038 27.489333 " transform="matrix(0.8104,0,0,0.701709,72.948444,45.663618)"/>
<path style=" stroke:none;fill-rule:evenodd;fill:rgb(100%,100%,100%);fill-opacity:1;" d="M 92.929688 51.398438 L 102.195312 51.398438 L 102.195312 60.351562 L 92.929688 60.351562 Z M 92.929688 51.398438 "/>
<path style="fill:none;stroke-width:0.96;stroke-linecap:round;stroke-linejoin:round;stroke:rgb(0%,0%,0%);stroke-opacity:1;stroke-miterlimit:3;" d="M 36.089439 8.172649 L 24.656037 8.172649 L 24.656037 20.931681 L 36.089439 20.931681 Z M 36.089439 8.172649 " transform="matrix(0.8104,0,0,0.701709,72.948444,45.663618)"/>
<path style=" stroke:none;fill-rule:evenodd;fill:rgb(100%,100%,100%);fill-opacity:1;" d="M 120.417969 51.378906 L 129.683594 51.378906 L 129.683594 60.328125 L 120.417969 60.328125 Z M 120.417969 51.378906 "/>
<path style="fill:none;stroke-width:0.96;stroke-linecap:round;stroke-linejoin:round;stroke:rgb(0%,0%,0%);stroke-opacity:1;stroke-miterlimit:3;" d="M 70.008854 8.144815 L 58.575452 8.144815 L 58.575452 20.89828 L 70.008854 20.89828 Z M 70.008854 8.144815 " transform="matrix(0.8104,0,0,0.701709,72.948444,45.663618)"/>
<path style="fill:none;stroke-width:0.96;stroke-linecap:square;stroke-linejoin:miter;stroke:rgb(0%,0%,0%);stroke-opacity:1;stroke-miterlimit:2;" d="M 47.334856 1.982403 L 47.334856 8.356352 " transform="matrix(0.8104,0,0,0.701709,72.948444,45.663618)"/>
<path style="fill:none;stroke-width:0.96;stroke-linecap:square;stroke-linejoin:miter;stroke:rgb(0%,0%,0%);stroke-opacity:1;stroke-miterlimit:2;" d="M 77.571673 1.982403 L 77.571673 8.272851 " transform="matrix(0.8104,0,0,0.701709,72.948444,45.663618)"/>
<path style="fill:none;stroke-width:0.96;stroke-linecap:square;stroke-linejoin:miter;stroke:rgb(0%,0%,0%);stroke-opacity:1;stroke-miterlimit:2;" d="M 77.571673 21.187752 L 77.571673 27.489333 " transform="matrix(0.8104,0,0,0.701709,72.948444,45.663618)"/>
</g>
</svg>
