<?xml version="1.0" encoding="UTF-8"?>
<!--
/*******************************************************************************
* Copyright (c) 2010-2018 ITER Organization.
* All rights reserved. This program and the accompanying materials
* are made available under the terms of the Eclipse Public License v1.0
* which accompanies this distribution, and is available at
* http://www.eclipse.org/legal/epl-v10.html
******************************************************************************/
-->
<svg xmlns="http://www.w3.org/2000/svg" xmlns:xlink="http://www.w3.org/1999/xlink" width="57pt" height="57pt" viewBox="0 0 57 57" version="1.1">
<g id="surface1">
<path style="fill-rule:evenodd;fill:rgb(65.098039%,65.098039%,65.098039%);fill-opacity:1;stroke-width:0.720001;stroke-linecap:round;stroke-linejoin:round;stroke:rgb(0%,0%,0%);stroke-opacity:1;stroke-miterlimit:3;" d="M 0.000992867 52.46058 L -0.00157091 43.889865 L 17.157805 52.46058 L 17.160368 43.889865 Z M 0.000992867 52.46058 " transform="matrix(0.761815,-0.761815,0.761815,0.761815,-1.899595,-15.046519)"/>
<path style="fill-rule:evenodd;fill:rgb(65.098039%,65.098039%,65.098039%);fill-opacity:1;stroke-width:0.720001;stroke-linecap:round;stroke-linejoin:round;stroke:rgb(0%,0%,0%);stroke-opacity:1;stroke-miterlimit:3;" d="M 0.0000848396 52.459176 L 0.0000848396 43.891025 L 17.15946 52.461739 L 17.15946 43.888461 Z M 0.0000848396 52.459176 " transform="matrix(-0.761815,-0.761815,0.761815,-0.761815,11.324952,84.608771)"/>
<path style="fill:none;stroke-width:0.72;stroke-linecap:round;stroke-linejoin:round;stroke:rgb(0%,0%,0%);stroke-opacity:1;stroke-miterlimit:3;" d="M -0.00130052 52.461925 L 4.287942 48.140051 " transform="matrix(1.077368,0,0,1.077368,47.849057,-47.970038)"/>
<path style="fill:none;stroke-width:0.72;stroke-linecap:round;stroke-linejoin:round;stroke:rgb(0%,0%,0%);stroke-opacity:1;stroke-miterlimit:3;" d="M 7.159522 49.27128 L 6.289346 50.148707 L 2.30104 46.127769 L 3.171216 45.250342 " transform="matrix(1.077368,0,0,1.077368,47.849057,-47.970038)"/>
<path style="fill:none;stroke-width:0.72;stroke-linecap:round;stroke-linejoin:round;stroke:rgb(0%,0%,0%);stroke-opacity:1;stroke-miterlimit:3;" d="M -0.00121113 52.458644 L 4.327914 48.169402 " transform="matrix(0.000000000000000066,1.077368,-1.077368,0.000000000000000066,104.556346,47.970055)"/>
<path style="fill:none;stroke-width:0.72;stroke-linecap:round;stroke-linejoin:round;stroke:rgb(0%,0%,0%);stroke-opacity:1;stroke-miterlimit:3;" d="M 7.221249 49.289753 L 6.340196 50.170806 L 2.319258 46.178874 L 3.200311 45.301447 " transform="matrix(0.000000000000000066,1.077368,-1.077368,0.000000000000000066,104.556346,47.970055)"/>
<path style="fill:none;stroke-width:0.72;stroke-linecap:round;stroke-linejoin:round;stroke:rgb(0%,0%,0%);stroke-opacity:1;stroke-miterlimit:3;" d="M 0.001521 46.301954 L 25.628201 46.301954 L 31.610661 40.279611 " transform="matrix(1.077368,0,0,1.077368,0.775705,-21.716292)"/>
<path style="fill:none;stroke-width:0.72;stroke-linecap:round;stroke-linejoin:round;stroke:rgb(0%,0%,0%);stroke-opacity:1;stroke-miterlimit:3;" d="M 25.628201 46.301954 L 31.752064 52.462074 " transform="matrix(1.077368,0,0,1.077368,0.775705,-21.716292)"/>
</g>
</svg>
