<?xml version="1.0" encoding="UTF-8"?>
<!--
/*******************************************************************************
* Copyright (c) 2010-2018 ITER Organization.
* All rights reserved. This program and the accompanying materials
* are made available under the terms of the Eclipse Public License v1.0
* which accompanies this distribution, and is available at
* http://www.eclipse.org/legal/epl-v10.html
******************************************************************************/
-->
<svg xmlns="http://www.w3.org/2000/svg" xmlns:xlink="http://www.w3.org/1999/xlink" width="29pt" height="46pt" viewBox="0 0 29 46" version="1.1">
<g id="surface1">
<path style="fill-rule:evenodd;fill:rgb(100%,100%,100%);fill-opacity:1;stroke-width:0.72;stroke-linecap:round;stroke-linejoin:round;stroke:rgb(0%,0%,0%);stroke-opacity:1;stroke-miterlimit:3;" d="M 0.000895541 31.200185 L 12.760443 43.958459 L 25.508955 31.200185 L 25.508955 1.440891 L 0.000895541 1.440891 Z M 14.879064 26.94993 C 14.901133 27.727141 14.503892 28.451787 13.834466 28.846025 C 13.168719 29.240262 12.341132 29.240262 11.675385 28.846025 C 11.005959 28.451787 10.608717 27.727141 10.630786 26.94993 C 10.608717 26.176474 11.005959 25.448073 11.675385 25.053836 C 12.341132 24.659599 13.168719 24.659599 13.834466 25.053836 C 14.503892 25.448073 14.901133 26.176474 14.879064 26.94993 Z M 14.879064 9.941401 C 14.901133 10.714857 14.503892 11.439503 13.834466 11.833741 C 13.168719 12.227978 12.341132 12.227978 11.675385 11.833741 C 11.005959 11.439503 10.608717 10.714857 10.630786 9.941401 C 10.608717 9.16419 11.005959 8.439544 11.675385 8.045307 C 12.341132 7.651069 13.168719 7.651069 13.834466 8.045307 C 14.503892 8.439544 14.901133 9.16419 14.879064 9.941401 Z M 14.879064 9.941401 " transform="matrix(1.062011,0,0,1.040379,0.764674,-0.749073)"/>
<path style="fill-rule:evenodd;fill:rgb(0%,0%,0%);fill-opacity:1;stroke-width:0.72;stroke-linecap:round;stroke-linejoin:round;stroke:rgb(0%,0%,0%);stroke-opacity:1;stroke-miterlimit:3;" d="M 4.252844 41.834959 C 4.252844 40.659756 3.300199 39.706077 2.126865 39.706077 C 0.953531 39.706077 0.000887265 40.659756 0.000887265 41.834959 C 0.000887265 43.006407 0.953531 43.960086 2.126865 43.960086 C 3.300199 43.960086 4.252844 43.006407 4.252844 41.834959 Z M 4.252844 41.834959 " transform="matrix(1.062011,0,0,1.040379,12.053745,-33.926546)"/>
<path style="fill-rule:evenodd;fill:rgb(0%,0%,0%);fill-opacity:1;stroke-width:0.72;stroke-linecap:round;stroke-linejoin:round;stroke:rgb(0%,0%,0%);stroke-opacity:1;stroke-miterlimit:3;" d="M 4.252844 41.835587 C 4.252844 40.660384 3.300199 39.706705 2.126865 39.706705 C 0.953531 39.706705 0.000887265 40.660384 0.000887265 41.835587 C 0.000887265 43.007035 0.953531 43.960714 2.126865 43.960714 C 3.300199 43.960714 4.252844 43.007035 4.252844 41.835587 Z M 4.252844 41.835587 " transform="matrix(1.062011,0,0,1.040379,12.053745,-16.231887)"/>
</g>
</svg>
