<?xml version="1.0" encoding="UTF-8"?>
<!--
/*******************************************************************************
* Copyright (c) 2010-2018 ITER Organization.
* All rights reserved. This program and the accompanying materials
* are made available under the terms of the Eclipse Public License v1.0
* which accompanies this distribution, and is available at
* http://www.eclipse.org/legal/epl-v10.html
******************************************************************************/
-->
<svg xmlns="http://www.w3.org/2000/svg" xmlns:xlink="http://www.w3.org/1999/xlink" width="29pt" height="29pt" viewBox="0 0 29 29" version="1.1">
<g id="surface1">
<path style="fill-rule:evenodd;fill:rgb(100%,100%,100%);fill-opacity:1;stroke-width:0.719999;stroke-linecap:round;stroke-linejoin:round;stroke:rgb(0%,0%,0%);stroke-opacity:1;stroke-miterlimit:3;" d="M 0.000922209 1.461039 L 25.512701 1.461039 L 25.512701 26.972817 L 0.000922209 26.972817 Z M 0.000922209 1.461039 " transform="matrix(1.062009,0,0,1.062009,0.764646,-0.786012)"/>
<path style="fill:none;stroke-width:0.719999;stroke-linecap:round;stroke-linejoin:round;stroke:rgb(0%,0%,0%);stroke-opacity:1;stroke-miterlimit:3;" d="M 25.509023 14.218828 L 12.76049 26.967361 L 0.000922209 14.218828 L 12.76049 1.45926 Z M 25.509023 14.218828 " transform="matrix(1.062009,0,0,1.062009,0.764646,-0.78803)"/>
<path style="fill:none;stroke-width:0.719999;stroke-linecap:round;stroke-linejoin:round;stroke:rgb(0%,0%,0%);stroke-opacity:1;stroke-miterlimit:3;" d="M 0.000922209 26.971047 L 25.509023 26.971047 " transform="matrix(1.062009,0,0,1.062009,0.764646,-14.334913)"/>
<path style=" stroke:none;fill-rule:evenodd;fill:rgb(100%,100%,100%);fill-opacity:1;" d="M 0.777344 0.785156 L 0.792969 0.785156 L 0.792969 0.804688 L 0.777344 0.804688 Z M 0.777344 0.785156 "/>
<path style=" stroke:none;fill-rule:evenodd;fill:rgb(100%,100%,100%);fill-opacity:1;" d="M 27.851562 27.863281 L 27.871094 27.863281 L 27.871094 27.878906 L 27.851562 27.878906 Z M 27.851562 27.863281 "/>
</g>
</svg>
