<?xml version="1.0" encoding="UTF-8"?>
<!--
/*******************************************************************************
* Copyright (c) 2010-2018 ITER Organization.
* All rights reserved. This program and the accompanying materials
* are made available under the terms of the Eclipse Public License v1.0
* which accompanies this distribution, and is available at
* http://www.eclipse.org/legal/epl-v10.html
******************************************************************************/
-->
<svg xmlns="http://www.w3.org/2000/svg" xmlns:xlink="http://www.w3.org/1999/xlink" width="70pt" height="51pt" viewBox="0 0 70 51" version="1.1">
<g id="surface0">
<path style="fill-rule:evenodd;fill:rgb(100%,100%,100%);fill-opacity:1;stroke-width:1;stroke-linecap:round;stroke-linejoin:round;stroke:rgb(0%,0%,0%);stroke-opacity:1;stroke-miterlimit:3;" d="M 33.940409 46.960164 L 15.749952 19.961142 L -2.440504 46.960164 Z M 33.940409 46.960164 " transform="matrix(0.000000000000000066,1.082942,-1.076717,0.000000000000000066,71.015944,5.908551)"/>
<path style="fill:none;stroke-width:1;stroke-linecap:round;stroke-linejoin:round;stroke:rgb(0%,0%,0%);stroke-opacity:1;stroke-miterlimit:3;" d="M 0.000549017 46.959634 L 17.998688 46.959634 Z M 0.000549017 46.959634 " transform="matrix(-1.076717,0.000000000000000133,-0.000000000000000132,-1.082942,20.457622,73.815521)"/>
<path style="fill:none;stroke-width:1;stroke-linecap:round;stroke-linejoin:round;stroke:rgb(0%,0%,0%);stroke-opacity:1;stroke-miterlimit:3;" d="M -0.000251422 46.960706 L 18.001515 46.960706 Z M -0.000251422 46.960706 " transform="matrix(-1.076717,0.000000000000000133,-0.000000000000000132,-1.082942,68.909886,73.832307)"/>
<path style="fill:none;stroke-width:1;stroke-linecap:round;stroke-linejoin:round;stroke:rgb(0%,0%,0%);stroke-opacity:1;stroke-miterlimit:3;" d="M -0.00168741 46.960838 L 17.997595 46.960838 Z M -0.00168741 46.960838 " transform="matrix(0.000000000000000066,-1.082942,1.076717,0.000000000000000066,-10.719794,49.767704)"/>
<path style="fill:none;stroke-width:1;stroke-linecap:round;stroke-linejoin:round;stroke:rgb(0%,0%,0%);stroke-opacity:1;stroke-miterlimit:3;" d="M 0.000570637 46.960375 L 44.099392 46.959588 L 46.570364 46.961594 " transform="matrix(0.761354,-0.765756,0.761354,0.765756,-24.925782,8.880101)"/>
<path style=" stroke:none;fill-rule:evenodd;fill:rgb(25.098039%,25.098039%,25.098039%);fill-opacity:1;" d="M 43.960938 7.777344 L 49.535156 5.910156 L 47.699219 11.464844 C 47.105469 9.714844 45.734375 8.339844 43.988281 7.75 "/>
</g>
</svg>
