<?xml version="1.0" encoding="UTF-8"?>
<!--
/*******************************************************************************
* Copyright (c) 2010-2018 ITER Organization.
* All rights reserved. This program and the accompanying materials
* are made available under the terms of the Eclipse Public License v1.0
* which accompanies this distribution, and is available at
* http://www.eclipse.org/legal/epl-v10.html
******************************************************************************/
-->
<svg xmlns="http://www.w3.org/2000/svg" xmlns:xlink="http://www.w3.org/1999/xlink" width="41pt" height="41pt" viewBox="0 0 41 41" version="1.1">
<g id="surface0">
<path style="fill-rule:evenodd;fill:rgb(100%,100%,100%);fill-opacity:1;stroke-width:1;stroke-linecap:round;stroke-linejoin:round;stroke:rgb(0%,0%,0%);stroke-opacity:1;stroke-miterlimit:3;" d="M -0.00122004 1.99878 L 35.998761 1.99878 L 35.998761 37.998761 L -0.00122004 37.998761 Z M -0.00122004 1.99878 " transform="matrix(1.067709,0,0,1.067709,1.067709,-1.067709)"/>
<path style="fill-rule:evenodd;fill:rgb(0%,0%,0%);fill-opacity:1;stroke-width:0.25;stroke-linecap:round;stroke-linejoin:round;stroke:rgb(0%,0%,0%);stroke-opacity:1;stroke-miterlimit:3;" d="M -0.000370777 36.797773 L 27.534496 36.794272 L 27.535231 37.99853 L -0.000583183 37.998497 Z M -0.000370777 36.797773 " transform="matrix(-0.276343,1.031328,-1.031328,-0.276343,63.200459,15.993423)"/>
<path style="fill-rule:evenodd;fill:rgb(0%,0%,0%);fill-opacity:1;stroke-width:0.25;stroke-linecap:round;stroke-linejoin:round;stroke:rgb(0%,0%,0%);stroke-opacity:1;stroke-miterlimit:3;" d="M 0.00122644 36.87597 L 10.124392 36.87597 L 10.124392 37.99914 L 0.00122644 37.99914 Z M 0.00122644 36.87597 " transform="matrix(-1.067709,0.000000000000000131,-0.000000000000000131,-1.067709,17.884122,73.595458)"/>
<path style="fill-rule:evenodd;fill:rgb(0%,0%,0%);fill-opacity:1;stroke-width:0.25;stroke-linecap:round;stroke-linejoin:round;stroke:rgb(0%,0%,0%);stroke-opacity:1;stroke-miterlimit:3;" d="M 0.000319011 36.877026 L 10.686899 36.877026 L 10.686899 38.000196 L 0.000319011 38.000196 Z M 0.000319011 36.877026 " transform="matrix(-1.067709,0.000000000000000131,-0.000000000000000131,-1.067709,35.301122,46.065335)"/>
</g>
</svg>
