<?xml version="1.0" encoding="UTF-8"?>
<!--
/*******************************************************************************
* Copyright (c) 2010-2018 ITER Organization.
* All rights reserved. This program and the accompanying materials
* are made available under the terms of the Eclipse Public License v1.0
* which accompanies this distribution, and is available at
* http://www.eclipse.org/legal/epl-v10.html
******************************************************************************/
-->
<svg xmlns="http://www.w3.org/2000/svg" xmlns:xlink="http://www.w3.org/1999/xlink" width="69pt" height="37pt" viewBox="0 0 69 37" version="1.1">
<g id="surface0">
<path style="fill-rule:evenodd;fill:rgb(100%,100%,100%);fill-opacity:1;stroke-width:1;stroke-linecap:round;stroke-linejoin:round;stroke:rgb(0%,0%,0%);stroke-opacity:1;stroke-miterlimit:3;" d="M 39.368842 34.631582 L 18.268511 1.999277 L -2.828139 34.631582 Z M 39.368842 34.631582 " transform="matrix(1.061336,0,0,1.078901,14.911761,-1.078897)"/>
<path style="fill:none;stroke-width:1;stroke-linecap:round;stroke-linejoin:round;stroke:rgb(0%,0%,0%);stroke-opacity:1;stroke-miterlimit:3;" d="M -0.00222726 31.69014 C 0.0456193 30.100704 1.344837 28.840742 2.934815 28.840742 C 4.521112 28.840742 5.824011 30.100704 5.868177 31.69014 C 5.901301 32.758211 5.349226 33.761112 4.425419 34.3042 C 3.505293 34.847287 2.364337 34.847287 1.44053 34.3042 C 0.520404 33.761112 -0.0316713 32.758211 -0.00222726 31.69014 Z M -0.00222726 31.69014 " transform="matrix(1.061336,0,0,1.078901,31.185958,-20.499122)"/>
<path style="fill:none;stroke-width:1;stroke-linecap:round;stroke-linejoin:round;stroke:rgb(0%,0%,0%);stroke-opacity:1;stroke-miterlimit:3;" d="M 0.000385474 34.629185 L 62.638886 34.629185 Z M 0.000385474 34.629185 " transform="matrix(-1.061336,0.000000000000000132,-0.00000000000000013,-1.078901,67.543378,51.107562)"/>
</g>
</svg>
