<?xml version="1.0" encoding="UTF-8" standalone="no"?>
<!--
/*******************************************************************************
* Copyright (c) 2010-2016 ITER Organization.
* All rights reserved. This program and the accompanying materials
* are made available under the terms of the Eclipse Public License v1.0
* which accompanies this distribution, and is available at
* http://www.eclipse.org/legal/epl-v10.html
******************************************************************************/
-->
<svg xmlns="http://www.w3.org/2000/svg" xmlns:xlink="http://www.w3.org/1999/xlink" width="51pt" height="51pt" viewBox="0 0 51 51" version="1.1">
<g id="surface1">
<path style=" stroke:none;fill-rule:evenodd;fill:rgb(100%,100%,100%);fill-opacity:1;" d="M 2.117188 1.347656 L 2.148438 1.347656 L 2.148438 1.375 L 2.117188 1.375 Z "/>
<path style=" stroke:none;fill-rule:evenodd;fill:rgb(100%,100%,100%);fill-opacity:1;" d="M 49.734375 48.964844 L 49.765625 48.964844 L 49.765625 48.992188 L 49.734375 48.992188 Z "/>
<path style="fill-rule:evenodd;fill:rgb(100%,100%,100%);fill-opacity:1;stroke-width:1.352;stroke-linecap:round;stroke-linejoin:round;stroke:rgb(0%,0%,0%);stroke-opacity:1;stroke-miterlimit:4;" d="M 16.581427 33.470588 L 16.581427 17.529412 L 48.475545 33.470588 L 48.475545 17.529412 Z " transform="matrix(0.996094,0,0,0.996094,-7.001031,0)"/>
<path style="fill:none;stroke-width:0.721066;stroke-linecap:round;stroke-linejoin:round;stroke:rgb(0%,0%,0%);stroke-opacity:1;stroke-miterlimit:4;" d="M 0.00148464 26.950449 L 24.739578 26.949531 " transform="matrix(1.6705,-0.835252,0.835252,1.6705,-20.493352,-7.886673)"/>
<path style=" stroke:none;fill-rule:evenodd;fill:rgb(0%,0%,0%);fill-opacity:1;" d="M 40.640625 13.3125 L 49.660156 13.3125 L 44.300781 20.46875 C 44.285156 17.640625 42.953125 14.984375 40.695313 13.285156 "/>
<path style="fill:none;stroke-width:1.689;stroke-linecap:round;stroke-linejoin:round;stroke:rgb(0%,0%,0%);stroke-opacity:1;stroke-miterlimit:3;" d="M 0.849031 0.847943 L 11.550011 0.847943 " transform="matrix(0.796875,0,0,0.796875,-0.00469648,24.722733)"/>
<path style="fill:none;stroke-width:1.689;stroke-linecap:round;stroke-linejoin:round;stroke:rgb(0%,0%,0%);stroke-opacity:1;stroke-miterlimit:3;" d="M 52.226482 0.847943 L 62.893149 0.847943 " transform="matrix(0.796875,0,0,0.796875,-0.00469648,24.722733)"/>
</g>
</svg>
