<?xml version="1.0" encoding="UTF-8" standalone="no"?>
<!--
/*******************************************************************************
* Copyright (c) 2010-2016 ITER Organization.
* All rights reserved. This program and the accompanying materials
* are made available under the terms of the Eclipse Public License v1.0
* which accompanies this distribution, and is available at
* http://www.eclipse.org/legal/epl-v10.html
******************************************************************************/
-->
<svg xmlns="http://www.w3.org/2000/svg" xmlns:xlink="http://www.w3.org/1999/xlink" width="51pt" height="51pt" viewBox="0 0 51 51" version="1.1">
<g id="surface1">
<path style="fill-rule:nonzero;fill:rgb(100%,100%,100%);fill-opacity:1;stroke-width:1.3504;stroke-linecap:round;stroke-linejoin:round;stroke:rgb(0%,0%,0%);stroke-opacity:1;stroke-miterlimit:3;" d="M 25.498039 16.454902 L 31.972549 16.454902 L 31.972549 3.505882 L 19.027451 3.505882 L 19.027451 16.454902 L 25.501961 16.454902 " transform="matrix(0.996094,0,0,0.996094,0,0)"/>
<path style=" stroke:none;fill-rule:evenodd;fill:rgb(100%,100%,100%);fill-opacity:1;" d="M 1.347656 1.347656 L 1.375 1.347656 L 1.375 1.375 L 1.347656 1.375 Z "/>
<path style=" stroke:none;fill-rule:evenodd;fill:rgb(100%,100%,100%);fill-opacity:1;" d="M 48.964844 48.964844 L 48.992188 48.964844 L 48.992188 48.992188 L 48.964844 48.992188 Z "/>
<path style="fill:none;stroke-width:1.3504;stroke-linecap:round;stroke-linejoin:round;stroke:rgb(0%,0%,0%);stroke-opacity:1;stroke-miterlimit:3;" d="M -65.108115 18.297297 L -65.108115 26.297297 " transform="matrix(0.996094,0,0,0.996094,90.25613,-1.29223)"/>
<path style="fill-rule:evenodd;fill:rgb(100%,100%,100%);fill-opacity:1;stroke-width:1.3504;stroke-linecap:round;stroke-linejoin:round;stroke:rgb(0%,0%,0%);stroke-opacity:1;stroke-miterlimit:3;" d="M 9.552941 33.470588 L 9.552941 17.529412 L 41.447059 33.470588 L 41.447059 17.529412 Z " transform="matrix(0.996094,0,0,0.996094,0,0)"/>
<path style="fill:none;stroke-width:1.688;stroke-linecap:round;stroke-linejoin:round;stroke:rgb(0%,0%,0%);stroke-opacity:1;stroke-miterlimit:3;" d="M 0.85105 0.847943 L 11.55203 0.847943 " transform="matrix(0.796875,0,0,0.796875,-0.0141179,24.722733)"/>
<path style="fill:none;stroke-width:1.688;stroke-linecap:round;stroke-linejoin:round;stroke:rgb(0%,0%,0%);stroke-opacity:1;stroke-miterlimit:3;" d="M 52.228501 0.847943 L 62.895168 0.847943 " transform="matrix(0.796875,0,0,0.796875,-0.0141179,24.722733)"/>
</g>
</svg>
