<?xml version="1.0" encoding="UTF-8" standalone="no"?>
<!--
/*******************************************************************************
* Copyright (c) 2010-2016 ITER Organization.
* All rights reserved. This program and the accompanying materials
* are made available under the terms of the Eclipse Public License v1.0
* which accompanies this distribution, and is available at
* http://www.eclipse.org/legal/epl-v10.html
******************************************************************************/
-->
<svg xmlns="http://www.w3.org/2000/svg" xmlns:xlink="http://www.w3.org/1999/xlink" width="51pt" height="51pt" viewBox="0 0 51 51" version="1.1">
<g id="surface1">
<path style=" stroke:none;fill-rule:evenodd;fill:rgb(100%,100%,100%);fill-opacity:1;" d="M 1.363281 0.671875 L 1.390625 0.671875 L 1.390625 0.699219 L 1.363281 0.699219 Z "/>
<path style=" stroke:none;fill-rule:evenodd;fill:rgb(100%,100%,100%);fill-opacity:1;" d="M 48.980469 48.292969 L 49.007813 48.292969 L 49.007813 48.316406 L 48.980469 48.316406 Z "/>
<path style="fill-rule:nonzero;fill:rgb(100%,100%,100%);fill-opacity:1;stroke-width:1.3504;stroke-linecap:round;stroke-linejoin:round;stroke:rgb(0%,0%,0%);stroke-opacity:1;stroke-miterlimit:3.285714;" d="M -56.847218 14.038209 L -50.372708 14.038209 L -50.372708 1.089189 L -63.321728 1.089189 L -63.321728 14.038209 L -56.847218 14.038209 " transform="matrix(0.996094,0,0,0.996094,82.043127,1.30569)"/>
<path style="fill:none;stroke-width:1.3504;stroke-linecap:round;stroke-linejoin:round;stroke:rgb(0%,0%,0%);stroke-opacity:1;stroke-miterlimit:3.285714;" d="M -56.847218 14.583307 L -56.847218 22.583307 " transform="matrix(0.996094,0,0,0.996094,82.043127,1.30569)"/>
<path style="fill-rule:evenodd;fill:rgb(65.098039%,65.098039%,65.098039%);fill-opacity:1;stroke-width:1.3504;stroke-linecap:round;stroke-linejoin:round;stroke:rgb(0%,0%,0%);stroke-opacity:1;stroke-miterlimit:3.285714;" d="M -72.808002 15.544091 L -72.808002 31.481346 M -72.808002 31.481346 L -56.870747 23.512719 L -72.808002 15.544091 " transform="matrix(0.996094,0,0,0.996094,82.043127,1.30569)"/>
<path style="fill-rule:evenodd;fill:rgb(100%,100%,100%);fill-opacity:1;stroke-width:1.3504;stroke-linecap:round;stroke-linejoin:round;stroke:rgb(0%,0%,0%);stroke-opacity:1;stroke-miterlimit:3.285714;" d="M -57.388394 23.512719 L -41.435453 31.481346 L -41.435453 15.544091 L -57.388394 23.512719 " transform="matrix(0.996094,0,0,0.996094,82.043127,1.30569)"/>
<path style="fill-rule:evenodd;fill:rgb(65.098039%,65.098039%,65.098039%);fill-opacity:1;stroke-width:1.3504;stroke-linecap:round;stroke-linejoin:round;stroke:rgb(0%,0%,0%);stroke-opacity:1;stroke-miterlimit:3.285714;" d="M -57.086434 23.71664 L -65.055061 39.653895 L -49.10212 39.653895 Z " transform="matrix(0.996094,0,0,0.996094,82.043127,1.30569)"/>
<path style="fill:none;stroke-width:1.3504;stroke-linecap:round;stroke-linejoin:round;stroke:rgb(0%,0%,0%);stroke-opacity:1;stroke-miterlimit:3.285714;" d="M -81.682512 23.512719 L -73.121728 23.512719 " transform="matrix(0.996094,0,0,0.996094,82.043127,1.30569)"/>
<path style="fill:none;stroke-width:1.3504;stroke-linecap:round;stroke-linejoin:round;stroke:rgb(0%,0%,0%);stroke-opacity:1;stroke-miterlimit:3.285714;" d="M -40.580551 23.512719 L -32.047218 23.512719 " transform="matrix(0.996094,0,0,0.996094,82.043127,1.30569)"/>
<path style="fill:none;stroke-width:1.3504;stroke-linecap:round;stroke-linejoin:round;stroke:rgb(0%,0%,0%);stroke-opacity:1;stroke-miterlimit:3.285714;" d="M -56.847218 39.806836 L -56.847218 48.336248 " transform="matrix(0.996094,0,0,0.996094,82.043127,1.30569)"/>
</g>
</svg>
