<?xml version="1.0" encoding="UTF-8" standalone="no"?>
<!--
/*******************************************************************************
* Copyright (c) 2010-2016 ITER Organization.
* All rights reserved. This program and the accompanying materials
* are made available under the terms of the Eclipse Public License v1.0
* which accompanies this distribution, and is available at
* http://www.eclipse.org/legal/epl-v10.html
******************************************************************************/
-->
<svg xmlns="http://www.w3.org/2000/svg" xmlns:xlink="http://www.w3.org/1999/xlink" width="51pt" height="51pt" viewBox="0 0 51 51" version="1.1">
<g id="surface1">
<path style=" stroke:none;fill-rule:evenodd;fill:rgb(100%,100%,100%);fill-opacity:1;" d="M 1.347656 1.347656 L 1.375 1.347656 L 1.375 1.375 L 1.347656 1.375 Z "/>
<path style=" stroke:none;fill-rule:evenodd;fill:rgb(100%,100%,100%);fill-opacity:1;" d="M 48.964844 48.964844 L 48.992188 48.964844 L 48.992188 48.992188 L 48.964844 48.992188 Z "/>
<path style="fill:none;stroke-width:1.446339;stroke-linecap:round;stroke-linejoin:round;stroke:rgb(0%,0%,0%);stroke-opacity:1;stroke-miterlimit:4;" d="M -27.922513 11.739428 L -27.922513 35.667364 " transform="matrix(0.996094,0,0,0.86833,53.426722,-5.478854)"/>
<path style="fill:none;stroke-width:1.446339;stroke-linecap:round;stroke-linejoin:round;stroke:rgb(0%,0%,0%);stroke-opacity:1;stroke-miterlimit:4;" d="M -36.004866 11.757423 L -19.836238 11.757423 " transform="matrix(0.996094,0,0,0.86833,53.426722,-5.478854)"/>
<path style="fill-rule:evenodd;fill:rgb(100%,100%,100%);fill-opacity:1;stroke-width:1.3504;stroke-linecap:round;stroke-linejoin:round;stroke:rgb(0%,0%,0%);stroke-opacity:1;stroke-miterlimit:4;" d="M 9.322471 33.470978 L 9.322471 17.529802 L 41.216588 33.470978 L 41.216588 17.529802 Z " transform="matrix(0.996094,0,0,0.996094,0.22957,-0.000388477)"/>
<path style="fill-rule:evenodd;fill:rgb(65.098039%,65.098039%,65.098039%);fill-opacity:1;stroke-width:1.3504;stroke-linecap:round;stroke-linejoin:round;stroke:rgb(0%,0%,0%);stroke-opacity:1;stroke-miterlimit:3.285714;" d="M 9.314628 17.518037 L 9.314628 33.455292 M 9.314628 33.455292 L 25.251883 25.486665 L 9.314628 17.518037 " transform="matrix(0.996094,0,0,0.996094,0.22957,-0.000388477)"/>
<path style="fill:none;stroke-width:1.3504;stroke-linecap:round;stroke-linejoin:round;stroke:rgb(0%,0%,0%);stroke-opacity:1;stroke-miterlimit:4;" d="M 0.67451 25.498039 L 9.231373 25.498039 " transform="matrix(0.996094,0,0,0.996094,0,0)"/>
<path style="fill:none;stroke-width:1.3504;stroke-linecap:round;stroke-linejoin:round;stroke:rgb(0%,0%,0%);stroke-opacity:1;stroke-miterlimit:4;" d="M 41.768627 25.498039 L 50.32549 25.498039 " transform="matrix(0.996094,0,0,0.996094,0,0)"/>
</g>
</svg>
