<?xml version="1.0" encoding="UTF-8" standalone="no"?>
<!--
/*******************************************************************************
* Copyright (c) 2010-2016 ITER Organization.
* All rights reserved. This program and the accompanying materials
* are made available under the terms of the Eclipse Public License v1.0
* which accompanies this distribution, and is available at
* http://www.eclipse.org/legal/epl-v10.html
******************************************************************************/
-->
<svg xmlns="http://www.w3.org/2000/svg" xmlns:xlink="http://www.w3.org/1999/xlink" width="51pt" height="51pt" viewBox="0 0 51 51" version="1.1">
<g id="surface1">
<path style=" stroke:none;fill-rule:evenodd;fill:rgb(100%,100%,100%);fill-opacity:1;" d="M 1.363281 0.671875 L 1.390625 0.671875 L 1.390625 0.699219 L 1.363281 0.699219 Z "/>
<path style=" stroke:none;fill-rule:evenodd;fill:rgb(100%,100%,100%);fill-opacity:1;" d="M 48.980469 48.292969 L 49.007813 48.292969 L 49.007813 48.316406 L 48.980469 48.316406 Z "/>
<path style="fill-rule:nonzero;fill:rgb(65.098039%,65.098039%,65.098039%);fill-opacity:1;stroke-width:1.3504;stroke-linecap:round;stroke-linejoin:round;stroke:rgb(0%,0%,0%);stroke-opacity:1;stroke-miterlimit:3.285714;" d="M 25.501111 16.024801 L 31.975621 16.024801 L 31.975621 3.075781 L 19.026601 3.075781 L 19.026601 16.024801 L 25.501111 16.024801 " transform="matrix(0.996094,0,0,0.996094,0.0164716,-0.673142)"/>
<path style="fill:none;stroke-width:1.3504;stroke-linecap:round;stroke-linejoin:round;stroke:rgb(0%,0%,0%);stroke-opacity:1;stroke-miterlimit:3.285714;" d="M 25.501111 16.569899 L 25.501111 24.569899 " transform="matrix(0.996094,0,0,0.996094,0.0164716,-0.673142)"/>
<path style="fill-rule:evenodd;fill:rgb(65.098039%,65.098039%,65.098039%);fill-opacity:1;stroke-width:1.3504;stroke-linecap:round;stroke-linejoin:round;stroke:rgb(0%,0%,0%);stroke-opacity:1;stroke-miterlimit:3.285714;" d="M 9.540327 17.530683 L 9.540327 33.467938 M 9.540327 33.467938 L 25.477581 25.499311 L 9.540327 17.530683 " transform="matrix(0.996094,0,0,0.996094,0.0164716,-0.673142)"/>
<path style="fill-rule:evenodd;fill:rgb(65.098039%,65.098039%,65.098039%);fill-opacity:1;stroke-width:1.3504;stroke-linecap:round;stroke-linejoin:round;stroke:rgb(0%,0%,0%);stroke-opacity:1;stroke-miterlimit:3.285714;" d="M 24.959934 25.499311 L 40.912876 33.467938 L 40.912876 17.530683 L 24.959934 25.499311 " transform="matrix(0.996094,0,0,0.996094,0.0164716,-0.673142)"/>
<path style="fill-rule:evenodd;fill:rgb(100%,100%,100%);fill-opacity:1;stroke-width:1.3504;stroke-linecap:round;stroke-linejoin:round;stroke:rgb(0%,0%,0%);stroke-opacity:1;stroke-miterlimit:3.285714;" d="M 25.261895 25.703232 L 17.293268 41.640487 L 33.246209 41.640487 Z " transform="matrix(0.996094,0,0,0.996094,0.0164716,-0.673142)"/>
<path style="fill:none;stroke-width:1.3504;stroke-linecap:round;stroke-linejoin:round;stroke:rgb(0%,0%,0%);stroke-opacity:1;stroke-miterlimit:3.285714;" d="M 0.665817 25.499311 L 9.226601 25.499311 " transform="matrix(0.996094,0,0,0.996094,0.0164716,-0.673142)"/>
<path style="fill:none;stroke-width:1.3504;stroke-linecap:round;stroke-linejoin:round;stroke:rgb(0%,0%,0%);stroke-opacity:1;stroke-miterlimit:3.285714;" d="M 41.767778 25.499311 L 50.301111 25.499311 " transform="matrix(0.996094,0,0,0.996094,0.0164716,-0.673142)"/>
<path style="fill:none;stroke-width:1.3504;stroke-linecap:round;stroke-linejoin:round;stroke:rgb(0%,0%,0%);stroke-opacity:1;stroke-miterlimit:3.285714;" d="M 25.501111 41.793429 L 25.501111 50.32284 " transform="matrix(0.996094,0,0,0.996094,0.0164716,-0.673142)"/>
</g>
</svg>
