<?xml version="1.0" encoding="UTF-8" standalone="no"?>
<!--
/*******************************************************************************
* Copyright (c) 2010-2018 ITER Organization.
* All rights reserved. This program and the accompanying materials
* are made available under the terms of the Eclipse Public License v1.0
* which accompanies this distribution, and is available at
* http://www.eclipse.org/legal/epl-v10.html
******************************************************************************/
-->
<svg
   xmlns:dc="http://purl.org/dc/elements/1.1/"
   xmlns:cc="http://creativecommons.org/ns#"
   xmlns:rdf="http://www.w3.org/1999/02/22-rdf-syntax-ns#"
   xmlns:svg="http://www.w3.org/2000/svg"
   xmlns="http://www.w3.org/2000/svg"
   id="svg2"
   version="1.1"
   viewBox="0 0 50 50"
   height="50pt"
   width="50pt">
  <metadata
     id="metadata31">
    <rdf:RDF>
      <cc:Work
         rdf:about="">
        <dc:format>image/svg+xml</dc:format>
        <dc:type
           rdf:resource="http://purl.org/dc/dcmitype/StillImage" />
        <dc:title></dc:title>
      </cc:Work>
    </rdf:RDF>
  </metadata>
  <defs
     id="defs29" />
  <g
     id="surface1">
    <path
       id="path5"
       d="M 48.964844 48.964844 L 48.992188 48.964844 L 48.992188 48.992188 L 48.964844 48.992188 Z "
       style=" stroke:none;fill-rule:evenodd;fill:rgb(100%,100%,100%);fill-opacity:1;" />
    <path
       id="path7"
       d="M 1.347656 1.347656 L 1.375 1.347656 L 1.375 1.375 L 1.347656 1.375 Z "
       style=" stroke:none;fill-rule:evenodd;fill:rgb(100%,100%,100%);fill-opacity:1;" />
    <path
       id="path9"
       d="M 48.964844 48.964844 L 48.992188 48.964844 L 48.992188 48.992188 L 48.964844 48.992188 Z "
       style=" stroke:none;fill-rule:evenodd;fill:rgb(100%,100%,100%);fill-opacity:1;" />
    <path
       id="path11"
       transform="matrix(0.996094,0,0,0.996094,-0.000361582,-0.000388477)"
       d="M 25.494481 13.467057 L 35.470951 13.467057 C 35.470951 7.961174 31.004285 3.494508 25.498402 3.494508 C 19.99252 3.494508 15.529775 7.961174 15.529775 13.467057 L 25.494481 13.467057 "
       style="fill-rule:nonzero;fill:rgb(65.098039%,65.098039%,65.098039%);fill-opacity:1;stroke-width:1.3512;stroke-linecap:round;stroke-linejoin:round;stroke:rgb(0%,0%,0%);stroke-opacity:1;stroke-miterlimit:3;" />
    <path
       id="path13"
       transform="matrix(0.996094,0,0,0.996094,-0.000361582,-0.000388477)"
       d="M 25.498402 13.314115 L 25.498402 24.796468 "
       style="fill:none;stroke-width:1.3512;stroke-linecap:round;stroke-linejoin:round;stroke:rgb(0%,0%,0%);stroke-opacity:1;stroke-miterlimit:3;" />
    <path
       id="path15"
       transform="matrix(0.996094,0,0,0.996094,-6.993981,-0.144082)"
       d="M 16.582192 33.470138 L 16.582192 17.532883 L 48.47631 33.470138 L 48.47631 17.532883 Z "
       style="fill-rule:evenodd;fill:rgb(65.098039%,65.098039%,65.098039%);fill-opacity:1;stroke-width:1.352;stroke-linecap:round;stroke-linejoin:round;stroke:rgb(0%,0%,0%);stroke-opacity:1;stroke-miterlimit:4;" />
    <path
       id="path17"
       transform="matrix(1.6705,-0.835251,0.835251,1.6705,-20.486302,-8.030756)"
       d="M 0.000086884 26.949482 L 24.739116 26.951369 "
       style="fill:none;stroke-width:0.721066;stroke-linecap:round;stroke-linejoin:round;stroke:rgb(0%,0%,0%);stroke-opacity:1;stroke-miterlimit:4;" />
    <path
       id="path19"
       d="M 40.648438 13.167969 L 49.667969 13.167969 L 44.308594 20.328125 C 44.292969 17.496094 42.957031 14.839844 40.703125 13.140625 "
       style=" stroke:none;fill-rule:evenodd;fill:rgb(0%,0%,0%);fill-opacity:1;" />
    <path
       id="path21"
       d="M 0.67968786,25 9.2070313,25"
       style="fill:none;stroke:#000000;stroke-width:1.34592187;stroke-linecap:round;stroke-linejoin:round;stroke-miterlimit:3;stroke-opacity:1" />
    <path
       id="path23"
       d="m 41.621094,25 8.5,0"
       style="fill:none;stroke:#000000;stroke-width:1.34592187;stroke-linecap:round;stroke-linejoin:round;stroke-miterlimit:3;stroke-opacity:1" />
    <path
       id="path25"
       transform="matrix(0.996094,0,0,0.996094,-0.000361582,-0.000388477)"
       d="M 25.812128 3.533723 L 25.812128 0.365096 L 40.541539 0.365096 L 40.541539 13.161174 L 25.812128 24.906272 "
       style="fill:none;stroke-width:1.352;stroke-linecap:round;stroke-linejoin:round;stroke:rgb(0%,0%,0%);stroke-opacity:1;stroke-miterlimit:3;" />
  </g>
  <animate
     id="animate12"
     repeatCount="indefinite"
     fill="freeze"
     begin="0s"
     dur="1000ms"
     calcMode="discrete"
     values="1;0"
     attributeName="opacity" />
</svg>
