<?xml version="1.0" encoding="UTF-8" standalone="no"?>
<!--
/*******************************************************************************
* Copyright (c) 2010-2016 ITER Organization.
* All rights reserved. This program and the accompanying materials
* are made available under the terms of the Eclipse Public License v1.0
* which accompanies this distribution, and is available at
* http://www.eclipse.org/legal/epl-v10.html
******************************************************************************/
-->
<svg xmlns="http://www.w3.org/2000/svg" xmlns:xlink="http://www.w3.org/1999/xlink" width="51pt" height="51pt" viewBox="0 0 51 51" version="1.1">
<g id="surface1">
<path style="fill-rule:evenodd;fill:rgb(100%,100%,100%);fill-opacity:1;stroke-width:0.72;stroke-linecap:round;stroke-linejoin:round;stroke:rgb(100%,100%,100%);stroke-opacity:1;stroke-miterlimit:3;" d="M 8.16927 5.979782 L 14.121682 5.979782 L 14.121682 8.246969 L 8.16927 8.246969 Z " transform="matrix(1.867678,0,0,1.867678,4.258062,11.878568)"/>
<path style="fill-rule:evenodd;fill:rgb(0%,0%,0%);fill-opacity:1;stroke-width:0.720002;stroke-linecap:round;stroke-linejoin:round;stroke:rgb(0%,0%,0%);stroke-opacity:1;stroke-miterlimit:3;" d="M 4.252219 24.82629 C 4.252219 23.650866 3.300586 22.699233 2.127254 22.699233 C 0.95183 22.699233 0.000196946 23.650866 0.000196946 24.82629 C 0.000196946 25.999622 0.95183 26.951255 2.127254 26.951255 C 3.300586 26.951255 4.252219 25.999622 4.252219 24.82629 Z " transform="matrix(1.867678,0,0,1.867678,5.593382,-28.855791)"/>
<path style=" stroke:none;fill-rule:evenodd;fill:rgb(100%,100%,100%);fill-opacity:1;" d="M 9.566406 33.382813 L 9.566406 17.507813 L 41.332031 33.382813 L 41.332031 17.507813 Z "/>
<path style="fill:none;stroke-width:1.350005;stroke-linecap:round;stroke-linejoin:round;stroke:rgb(0%,0%,0%);stroke-opacity:1;stroke-miterlimit:3;" d="M 5.329162 21.545437 L 5.329162 5.604261 L 37.219358 21.545437 L 37.219358 5.604261 " transform="matrix(0.996094,0,0,0.996094,4.258062,11.878568)"/>
<path style="fill:none;stroke-width:1.689;stroke-linecap:round;stroke-linejoin:round;stroke:rgb(0%,0%,0%);stroke-opacity:1;stroke-miterlimit:3;" d="M 0.849031 0.847943 L 11.550011 0.847943 " transform="matrix(0.796875,0,0,0.796875,-0.00469652,24.722733)"/>
<path style="fill:none;stroke-width:1.689;stroke-linecap:round;stroke-linejoin:round;stroke:rgb(0%,0%,0%);stroke-opacity:1;stroke-miterlimit:3;" d="M 52.226482 0.847943 L 62.893149 0.847943 " transform="matrix(0.796875,0,0,0.796875,-0.00469652,24.722733)"/>
</g>
</svg>
