<?xml version="1.0" encoding="UTF-8" standalone="no"?>
<!--
/*******************************************************************************
* Copyright (c) 2010-2016 ITER Organization.
* All rights reserved. This program and the accompanying materials
* are made available under the terms of the Eclipse Public License v1.0
* which accompanies this distribution, and is available at
* http://www.eclipse.org/legal/epl-v10.html
******************************************************************************/
-->
<svg xmlns="http://www.w3.org/2000/svg" xmlns:xlink="http://www.w3.org/1999/xlink" width="51pt" height="51pt" viewBox="0 0 51 51" version="1.1">
<g id="surface1">
<path style=" stroke:none;fill-rule:evenodd;fill:rgb(100%,100%,100%);fill-opacity:1;" d="M 1.347656 1.347656 L 1.375 1.347656 L 1.375 1.375 L 1.347656 1.375 Z "/>
<path style="fill:none;stroke-width:1.3512;stroke-linecap:round;stroke-linejoin:round;stroke:rgb(0%,0%,0%);stroke-opacity:1;stroke-miterlimit:3;" d="M 25.498039 41.764706 L 25.498039 50.32549 " transform="matrix(0.996094,0,0,0.996094,0,0)"/>
<path style="fill:none;stroke-width:1.3512;stroke-linecap:round;stroke-linejoin:round;stroke:rgb(0%,0%,0%);stroke-opacity:1;stroke-miterlimit:3;" d="M 41.776471 25.498039 L 50.309804 25.498039 " transform="matrix(0.996094,0,0,0.996094,0,0)"/>
<path style=" stroke:none;fill-rule:evenodd;fill:rgb(0%,0%,0%);fill-opacity:1;" d="M 35.832031 17.0625 L 32.273438 15.878906 L 32.273438 17.0625 Z M 35.832031 17.0625 L 32.273438 17.0625 L 32.273438 18.242188 Z "/>
<path style="fill:none;stroke-width:1.349996;stroke-linecap:round;stroke-linejoin:round;stroke:rgb(0%,0%,0%);stroke-opacity:1;stroke-miterlimit:3;" d="M 87.052003 22.907761 L 75.163453 31.551584 " transform="matrix(0.741588,0,0,0.741588,-35.287193,-9.242028)"/>
<path style="fill:none;stroke-width:1.349996;stroke-linecap:round;stroke-linejoin:round;stroke:rgb(0%,0%,0%);stroke-opacity:1;stroke-miterlimit:3;" d="M 78.334435 22.865622 L 84.355087 18.483134 " transform="matrix(0.741588,0,0,0.741588,-35.287193,-9.242028)"/>
<path style="fill:none;stroke-width:1.349996;stroke-linecap:round;stroke-linejoin:round;stroke:rgb(0%,0%,0%);stroke-opacity:1;stroke-miterlimit:3;" d="M 95.901255 35.470539 L 91.102643 33.874513 L 91.102643 35.470539 L 95.901255 35.470539 " transform="matrix(0.741588,0,0,0.741588,-35.287193,-9.242028)"/>
<path style="fill:none;stroke-width:1.349996;stroke-linecap:round;stroke-linejoin:round;stroke:rgb(0%,0%,0%);stroke-opacity:1;stroke-miterlimit:3;" d="M 95.901255 35.470539 L 91.102643 35.470539 L 91.102643 37.061298 L 95.901255 35.470539 " transform="matrix(0.741588,0,0,0.741588,-35.287193,-9.242028)"/>
<path style="fill:none;stroke-width:1.349996;stroke-linecap:round;stroke-linejoin:round;stroke:rgb(0%,0%,0%);stroke-opacity:1;stroke-miterlimit:3;" d="M 91.102643 35.470539 L 86.319832 35.470539 " transform="matrix(0.741588,0,0,0.741588,-35.287193,-9.242028)"/>
<path style="fill:none;stroke-width:1.349996;stroke-linecap:round;stroke-linejoin:round;stroke:rgb(0%,0%,0%);stroke-opacity:1;stroke-miterlimit:3;" d="M 89.506617 27.479875 L 73.572694 40.25335 " transform="matrix(0.741588,0,0,0.741588,-35.287193,-9.242028)"/>
<path style="fill:none;stroke-width:1.349996;stroke-linecap:round;stroke-linejoin:round;stroke:rgb(0%,0%,0%);stroke-opacity:1;stroke-miterlimit:3;" d="M 81.542289 45.030893 L 81.542289 13.136711 " transform="matrix(0.741588,0,0,0.741588,-35.287193,-9.242028)"/>
<path style="fill-rule:evenodd;fill:rgb(65.098039%,65.098039%,65.098039%);fill-opacity:1;stroke-width:1.3504;stroke-linecap:round;stroke-linejoin:round;stroke:rgb(0%,0%,0%);stroke-opacity:1;stroke-miterlimit:3.285714;" d="M -50.298655 57.396278 L -34.3614 57.396278 M -34.3614 57.396278 L -42.330027 41.459023 L -50.298655 57.396278 " transform="matrix(0.996094,0,0,0.996094,67.375613,-16.359574)"/>
<path style="fill-rule:evenodd;fill:rgb(100%,100%,100%);fill-opacity:1;stroke-width:1.3504;stroke-linecap:round;stroke-linejoin:round;stroke:rgb(0%,0%,0%);stroke-opacity:1;stroke-miterlimit:3.285714;" d="M -42.153556 41.337454 L -26.200615 49.306082 L -26.200615 33.368827 L -42.153556 41.337454 " transform="matrix(0.996094,0,0,0.996094,67.375613,-16.359574)"/>
</g>
</svg>
